G04 #@! TF.GenerationSoftware,KiCad,Pcbnew,(5.1.6)-1*
G04 #@! TF.CreationDate,2020-10-13T14:36:47-04:00*
G04 #@! TF.ProjectId,Ornament,4f726e61-6d65-46e7-942e-6b696361645f,rev?*
G04 #@! TF.SameCoordinates,Original*
G04 #@! TF.FileFunction,Copper,L1,Top*
G04 #@! TF.FilePolarity,Positive*
%FSLAX46Y46*%
G04 Gerber Fmt 4.6, Leading zero omitted, Abs format (unit mm)*
G04 Created by KiCad (PCBNEW (5.1.6)-1) date 2020-10-13 14:36:47*
%MOMM*%
%LPD*%
G01*
G04 APERTURE LIST*
G04 #@! TA.AperFunction,ComponentPad*
%ADD10C,2.500000*%
G04 #@! TD*
G04 #@! TA.AperFunction,ComponentPad*
%ADD11R,2.500000X2.500000*%
G04 #@! TD*
G04 #@! TA.AperFunction,ComponentPad*
%ADD12R,1.700000X1.700000*%
G04 #@! TD*
G04 #@! TA.AperFunction,ComponentPad*
%ADD13O,1.700000X1.700000*%
G04 #@! TD*
G04 #@! TA.AperFunction,ComponentPad*
%ADD14R,2.170000X2.170000*%
G04 #@! TD*
G04 #@! TA.AperFunction,ComponentPad*
%ADD15C,1.800000*%
G04 #@! TD*
G04 #@! TA.AperFunction,ComponentPad*
%ADD16R,1.800000X1.800000*%
G04 #@! TD*
G04 #@! TA.AperFunction,ComponentPad*
%ADD17C,2.200000*%
G04 #@! TD*
G04 #@! TA.AperFunction,SMDPad,CuDef*
%ADD18C,0.100000*%
G04 #@! TD*
G04 #@! TA.AperFunction,ViaPad*
%ADD19C,0.800000*%
G04 #@! TD*
G04 #@! TA.AperFunction,Conductor*
%ADD20C,0.250000*%
G04 #@! TD*
G04 #@! TA.AperFunction,Conductor*
%ADD21C,0.500000*%
G04 #@! TD*
G04 #@! TA.AperFunction,Conductor*
%ADD22C,0.254000*%
G04 #@! TD*
G04 APERTURE END LIST*
D10*
X92500000Y-100000000D03*
D11*
X107500000Y-100000000D03*
D12*
X115575000Y-80772000D03*
D13*
X118115000Y-80772000D03*
X115575000Y-83312000D03*
X118115000Y-83312000D03*
X115575000Y-85852000D03*
X118115000Y-85852000D03*
D10*
X100000000Y-75504000D03*
D14*
X100000000Y-95504000D03*
D15*
X80000000Y-98730000D03*
D16*
X80000000Y-101270000D03*
X120000000Y-101270000D03*
D15*
X120000000Y-98730000D03*
D17*
X87750000Y-123250000D03*
X87750000Y-116750000D03*
X92250000Y-123250000D03*
X92250000Y-116750000D03*
X112250000Y-116750000D03*
X112250000Y-123250000D03*
X107750000Y-116750000D03*
X107750000Y-123250000D03*
D12*
X102600000Y-120000000D03*
D13*
X100060000Y-120000000D03*
X97520000Y-120000000D03*
G04 #@! TA.AperFunction,SMDPad,CuDef*
G36*
G01*
X82511387Y-83040789D02*
X82422999Y-82952400D01*
G75*
G02*
X82422999Y-82864012I44194J44194D01*
G01*
X82935651Y-82351360D01*
G75*
G02*
X83024039Y-82351360I44194J-44194D01*
G01*
X83112427Y-82439748D01*
G75*
G02*
X83112427Y-82528136I-44194J-44194D01*
G01*
X82599775Y-83040788D01*
G75*
G02*
X82511387Y-83040788I-44194J44194D01*
G01*
G37*
G04 #@! TD.AperFunction*
G04 #@! TA.AperFunction,SMDPad,CuDef*
G36*
G01*
X82864940Y-83394342D02*
X82776552Y-83305953D01*
G75*
G02*
X82776552Y-83217565I44194J44194D01*
G01*
X83289204Y-82704913D01*
G75*
G02*
X83377592Y-82704913I44194J-44194D01*
G01*
X83465980Y-82793301D01*
G75*
G02*
X83465980Y-82881689I-44194J-44194D01*
G01*
X82953328Y-83394341D01*
G75*
G02*
X82864940Y-83394341I-44194J44194D01*
G01*
G37*
G04 #@! TD.AperFunction*
G04 #@! TA.AperFunction,SMDPad,CuDef*
G36*
G01*
X83218493Y-83747896D02*
X83130105Y-83659507D01*
G75*
G02*
X83130105Y-83571119I44194J44194D01*
G01*
X83642757Y-83058467D01*
G75*
G02*
X83731145Y-83058467I44194J-44194D01*
G01*
X83819533Y-83146855D01*
G75*
G02*
X83819533Y-83235243I-44194J-44194D01*
G01*
X83306881Y-83747895D01*
G75*
G02*
X83218493Y-83747895I-44194J44194D01*
G01*
G37*
G04 #@! TD.AperFunction*
G04 #@! TA.AperFunction,SMDPad,CuDef*
G36*
G01*
X83572047Y-84101449D02*
X83483659Y-84013060D01*
G75*
G02*
X83483659Y-83924672I44194J44194D01*
G01*
X83996311Y-83412020D01*
G75*
G02*
X84084699Y-83412020I44194J-44194D01*
G01*
X84173087Y-83500408D01*
G75*
G02*
X84173087Y-83588796I-44194J-44194D01*
G01*
X83660435Y-84101448D01*
G75*
G02*
X83572047Y-84101448I-44194J44194D01*
G01*
G37*
G04 #@! TD.AperFunction*
G04 #@! TA.AperFunction,SMDPad,CuDef*
G36*
G01*
X83925600Y-84455002D02*
X83837212Y-84366613D01*
G75*
G02*
X83837212Y-84278225I44194J44194D01*
G01*
X84349864Y-83765573D01*
G75*
G02*
X84438252Y-83765573I44194J-44194D01*
G01*
X84526640Y-83853961D01*
G75*
G02*
X84526640Y-83942349I-44194J-44194D01*
G01*
X84013988Y-84455001D01*
G75*
G02*
X83925600Y-84455001I-44194J44194D01*
G01*
G37*
G04 #@! TD.AperFunction*
G04 #@! TA.AperFunction,SMDPad,CuDef*
G36*
G01*
X85658012Y-84455002D02*
X85145360Y-83942349D01*
G75*
G02*
X85145360Y-83853961I44194J44194D01*
G01*
X85233748Y-83765573D01*
G75*
G02*
X85322136Y-83765573I44194J-44194D01*
G01*
X85834788Y-84278225D01*
G75*
G02*
X85834788Y-84366613I-44194J-44194D01*
G01*
X85746400Y-84455001D01*
G75*
G02*
X85658012Y-84455001I-44194J44194D01*
G01*
G37*
G04 #@! TD.AperFunction*
G04 #@! TA.AperFunction,SMDPad,CuDef*
G36*
G01*
X86011565Y-84101449D02*
X85498913Y-83588796D01*
G75*
G02*
X85498913Y-83500408I44194J44194D01*
G01*
X85587301Y-83412020D01*
G75*
G02*
X85675689Y-83412020I44194J-44194D01*
G01*
X86188341Y-83924672D01*
G75*
G02*
X86188341Y-84013060I-44194J-44194D01*
G01*
X86099953Y-84101448D01*
G75*
G02*
X86011565Y-84101448I-44194J44194D01*
G01*
G37*
G04 #@! TD.AperFunction*
G04 #@! TA.AperFunction,SMDPad,CuDef*
G36*
G01*
X86365119Y-83747896D02*
X85852467Y-83235243D01*
G75*
G02*
X85852467Y-83146855I44194J44194D01*
G01*
X85940855Y-83058467D01*
G75*
G02*
X86029243Y-83058467I44194J-44194D01*
G01*
X86541895Y-83571119D01*
G75*
G02*
X86541895Y-83659507I-44194J-44194D01*
G01*
X86453507Y-83747895D01*
G75*
G02*
X86365119Y-83747895I-44194J44194D01*
G01*
G37*
G04 #@! TD.AperFunction*
G04 #@! TA.AperFunction,SMDPad,CuDef*
G36*
G01*
X86718672Y-83394342D02*
X86206020Y-82881689D01*
G75*
G02*
X86206020Y-82793301I44194J44194D01*
G01*
X86294408Y-82704913D01*
G75*
G02*
X86382796Y-82704913I44194J-44194D01*
G01*
X86895448Y-83217565D01*
G75*
G02*
X86895448Y-83305953I-44194J-44194D01*
G01*
X86807060Y-83394341D01*
G75*
G02*
X86718672Y-83394341I-44194J44194D01*
G01*
G37*
G04 #@! TD.AperFunction*
G04 #@! TA.AperFunction,SMDPad,CuDef*
G36*
G01*
X87072225Y-83040789D02*
X86559573Y-82528136D01*
G75*
G02*
X86559573Y-82439748I44194J44194D01*
G01*
X86647961Y-82351360D01*
G75*
G02*
X86736349Y-82351360I44194J-44194D01*
G01*
X87249001Y-82864012D01*
G75*
G02*
X87249001Y-82952400I-44194J-44194D01*
G01*
X87160613Y-83040788D01*
G75*
G02*
X87072225Y-83040788I-44194J44194D01*
G01*
G37*
G04 #@! TD.AperFunction*
G04 #@! TA.AperFunction,SMDPad,CuDef*
G36*
G01*
X86647961Y-81732641D02*
X86559573Y-81644252D01*
G75*
G02*
X86559573Y-81555864I44194J44194D01*
G01*
X87072225Y-81043212D01*
G75*
G02*
X87160613Y-81043212I44194J-44194D01*
G01*
X87249001Y-81131600D01*
G75*
G02*
X87249001Y-81219988I-44194J-44194D01*
G01*
X86736349Y-81732640D01*
G75*
G02*
X86647961Y-81732640I-44194J44194D01*
G01*
G37*
G04 #@! TD.AperFunction*
G04 #@! TA.AperFunction,SMDPad,CuDef*
G36*
G01*
X86294408Y-81379088D02*
X86206020Y-81290699D01*
G75*
G02*
X86206020Y-81202311I44194J44194D01*
G01*
X86718672Y-80689659D01*
G75*
G02*
X86807060Y-80689659I44194J-44194D01*
G01*
X86895448Y-80778047D01*
G75*
G02*
X86895448Y-80866435I-44194J-44194D01*
G01*
X86382796Y-81379087D01*
G75*
G02*
X86294408Y-81379087I-44194J44194D01*
G01*
G37*
G04 #@! TD.AperFunction*
G04 #@! TA.AperFunction,SMDPad,CuDef*
G36*
G01*
X85940855Y-81025534D02*
X85852467Y-80937145D01*
G75*
G02*
X85852467Y-80848757I44194J44194D01*
G01*
X86365119Y-80336105D01*
G75*
G02*
X86453507Y-80336105I44194J-44194D01*
G01*
X86541895Y-80424493D01*
G75*
G02*
X86541895Y-80512881I-44194J-44194D01*
G01*
X86029243Y-81025533D01*
G75*
G02*
X85940855Y-81025533I-44194J44194D01*
G01*
G37*
G04 #@! TD.AperFunction*
G04 #@! TA.AperFunction,SMDPad,CuDef*
G36*
G01*
X85587301Y-80671981D02*
X85498913Y-80583592D01*
G75*
G02*
X85498913Y-80495204I44194J44194D01*
G01*
X86011565Y-79982552D01*
G75*
G02*
X86099953Y-79982552I44194J-44194D01*
G01*
X86188341Y-80070940D01*
G75*
G02*
X86188341Y-80159328I-44194J-44194D01*
G01*
X85675689Y-80671980D01*
G75*
G02*
X85587301Y-80671980I-44194J44194D01*
G01*
G37*
G04 #@! TD.AperFunction*
G04 #@! TA.AperFunction,SMDPad,CuDef*
G36*
G01*
X85233748Y-80318428D02*
X85145360Y-80230039D01*
G75*
G02*
X85145360Y-80141651I44194J44194D01*
G01*
X85658012Y-79628999D01*
G75*
G02*
X85746400Y-79628999I44194J-44194D01*
G01*
X85834788Y-79717387D01*
G75*
G02*
X85834788Y-79805775I-44194J-44194D01*
G01*
X85322136Y-80318427D01*
G75*
G02*
X85233748Y-80318427I-44194J44194D01*
G01*
G37*
G04 #@! TD.AperFunction*
G04 #@! TA.AperFunction,SMDPad,CuDef*
G36*
G01*
X84349864Y-80318428D02*
X83837212Y-79805775D01*
G75*
G02*
X83837212Y-79717387I44194J44194D01*
G01*
X83925600Y-79628999D01*
G75*
G02*
X84013988Y-79628999I44194J-44194D01*
G01*
X84526640Y-80141651D01*
G75*
G02*
X84526640Y-80230039I-44194J-44194D01*
G01*
X84438252Y-80318427D01*
G75*
G02*
X84349864Y-80318427I-44194J44194D01*
G01*
G37*
G04 #@! TD.AperFunction*
G04 #@! TA.AperFunction,SMDPad,CuDef*
G36*
G01*
X83996311Y-80671981D02*
X83483659Y-80159328D01*
G75*
G02*
X83483659Y-80070940I44194J44194D01*
G01*
X83572047Y-79982552D01*
G75*
G02*
X83660435Y-79982552I44194J-44194D01*
G01*
X84173087Y-80495204D01*
G75*
G02*
X84173087Y-80583592I-44194J-44194D01*
G01*
X84084699Y-80671980D01*
G75*
G02*
X83996311Y-80671980I-44194J44194D01*
G01*
G37*
G04 #@! TD.AperFunction*
G04 #@! TA.AperFunction,SMDPad,CuDef*
G36*
G01*
X83642757Y-81025534D02*
X83130105Y-80512881D01*
G75*
G02*
X83130105Y-80424493I44194J44194D01*
G01*
X83218493Y-80336105D01*
G75*
G02*
X83306881Y-80336105I44194J-44194D01*
G01*
X83819533Y-80848757D01*
G75*
G02*
X83819533Y-80937145I-44194J-44194D01*
G01*
X83731145Y-81025533D01*
G75*
G02*
X83642757Y-81025533I-44194J44194D01*
G01*
G37*
G04 #@! TD.AperFunction*
G04 #@! TA.AperFunction,SMDPad,CuDef*
G36*
G01*
X83289204Y-81379088D02*
X82776552Y-80866435D01*
G75*
G02*
X82776552Y-80778047I44194J44194D01*
G01*
X82864940Y-80689659D01*
G75*
G02*
X82953328Y-80689659I44194J-44194D01*
G01*
X83465980Y-81202311D01*
G75*
G02*
X83465980Y-81290699I-44194J-44194D01*
G01*
X83377592Y-81379087D01*
G75*
G02*
X83289204Y-81379087I-44194J44194D01*
G01*
G37*
G04 #@! TD.AperFunction*
G04 #@! TA.AperFunction,SMDPad,CuDef*
G36*
G01*
X82935651Y-81732641D02*
X82422999Y-81219988D01*
G75*
G02*
X82422999Y-81131600I44194J44194D01*
G01*
X82511387Y-81043212D01*
G75*
G02*
X82599775Y-81043212I44194J-44194D01*
G01*
X83112427Y-81555864D01*
G75*
G02*
X83112427Y-81644252I-44194J-44194D01*
G01*
X83024039Y-81732640D01*
G75*
G02*
X82935651Y-81732640I-44194J44194D01*
G01*
G37*
G04 #@! TD.AperFunction*
G04 #@! TA.AperFunction,SMDPad,CuDef*
D18*
G36*
X84836000Y-83880478D02*
G01*
X82997522Y-82042000D01*
X84836000Y-80203522D01*
X86674478Y-82042000D01*
X84836000Y-83880478D01*
G37*
G04 #@! TD.AperFunction*
G04 #@! TA.AperFunction,SMDPad,CuDef*
G36*
G01*
X81582887Y-87347011D02*
X81247011Y-87682887D01*
G75*
G02*
X80911135Y-87682887I-167938J167938D01*
G01*
X80504549Y-87276301D01*
G75*
G02*
X80504549Y-86940425I167938J167938D01*
G01*
X80840425Y-86604549D01*
G75*
G02*
X81176301Y-86604549I167938J-167938D01*
G01*
X81582887Y-87011135D01*
G75*
G02*
X81582887Y-87347011I-167938J-167938D01*
G01*
G37*
G04 #@! TD.AperFunction*
G04 #@! TA.AperFunction,SMDPad,CuDef*
G36*
G01*
X80345451Y-86109575D02*
X80009575Y-86445451D01*
G75*
G02*
X79673699Y-86445451I-167938J167938D01*
G01*
X79267113Y-86038865D01*
G75*
G02*
X79267113Y-85702989I167938J167938D01*
G01*
X79602989Y-85367113D01*
G75*
G02*
X79938865Y-85367113I167938J-167938D01*
G01*
X80345451Y-85773699D01*
G75*
G02*
X80345451Y-86109575I-167938J-167938D01*
G01*
G37*
G04 #@! TD.AperFunction*
D19*
X96650000Y-75500000D03*
X95700000Y-103550000D03*
X107725000Y-110975000D03*
X87750000Y-84825000D03*
X90250000Y-86850000D03*
X91375000Y-82025000D03*
X90300000Y-83675000D03*
X90300153Y-81399847D03*
X119975000Y-95225000D03*
X92500000Y-84550000D03*
X92500000Y-96775000D03*
X87750000Y-110975000D03*
X81609357Y-84879735D03*
X82855605Y-85100677D03*
D20*
X100000000Y-75504000D02*
X96654000Y-75504000D01*
X96654000Y-75504000D02*
X96650000Y-75500000D01*
X102600000Y-112325000D02*
X102600000Y-120000000D01*
X98325000Y-108050000D02*
X102600000Y-112325000D01*
X95700000Y-103550000D02*
X95700000Y-107600000D01*
X96150000Y-108050000D02*
X98325000Y-108050000D01*
X95700000Y-107600000D02*
X96150000Y-108050000D01*
D21*
X107725000Y-116750000D02*
X107725000Y-110975000D01*
D20*
X86197181Y-83403181D02*
X84836000Y-82042000D01*
X87169000Y-84375000D02*
X86197181Y-83403181D01*
X87175000Y-84375000D02*
X87169000Y-84375000D01*
X99950000Y-95454000D02*
X100000000Y-95504000D01*
X107500000Y-100000000D02*
X107500000Y-101175000D01*
X87619000Y-84825000D02*
X86197181Y-83403181D01*
X87750000Y-84825000D02*
X87619000Y-84825000D01*
X81950000Y-95150000D02*
X90250000Y-86850000D01*
X87238600Y-80417203D02*
X86621428Y-81034373D01*
X86621428Y-81034373D02*
X86550734Y-81034373D01*
X115575000Y-80772000D02*
X114464990Y-80772000D01*
X114464990Y-80772000D02*
X112375000Y-82861990D01*
X90736990Y-82861990D02*
X88292203Y-80417203D01*
X88292203Y-80417203D02*
X87238600Y-80417203D01*
X91375000Y-82025000D02*
X91375000Y-82848980D01*
X91375000Y-82848980D02*
X91361990Y-82861990D01*
X112375000Y-82861990D02*
X91361990Y-82861990D01*
X91361990Y-82861990D02*
X90736990Y-82861990D01*
X80000000Y-97100000D02*
X81950000Y-95150000D01*
X80000000Y-98730000D02*
X80000000Y-97100000D01*
X115575000Y-83312000D02*
X91187000Y-83312000D01*
X86620893Y-79550000D02*
X85843627Y-80327266D01*
X87425000Y-79550000D02*
X86620893Y-79550000D01*
X87425000Y-79550000D02*
X88061410Y-79550000D01*
X88061410Y-79550000D02*
X88586392Y-80074982D01*
X120000000Y-98730000D02*
X120000000Y-95300000D01*
X91187000Y-83312000D02*
X90663000Y-83312000D01*
X90663000Y-83312000D02*
X90300000Y-83675000D01*
X90250000Y-81450000D02*
X89961410Y-81450000D01*
X90300153Y-81399847D02*
X90250000Y-81450000D01*
X89961410Y-81450000D02*
X89318205Y-80806795D01*
X88586392Y-80074982D02*
X89318205Y-80806795D01*
X89318205Y-80806795D02*
X89430705Y-80919295D01*
X120000000Y-95300000D02*
X120000000Y-95250000D01*
X120000000Y-95250000D02*
X119975000Y-95225000D01*
X79337436Y-88850000D02*
X81043718Y-87143718D01*
X77825000Y-82825000D02*
X77825000Y-88275000D01*
X85501287Y-79973713D02*
X86350000Y-79125000D01*
X85490074Y-79973713D02*
X85501287Y-79973713D01*
X86350000Y-79125000D02*
X86350000Y-78625000D01*
X83100000Y-77550000D02*
X77825000Y-82825000D01*
X85275000Y-77550000D02*
X83100000Y-77550000D01*
X118115000Y-80772000D02*
X118115000Y-79190000D01*
X117450000Y-78525000D02*
X86250000Y-78525000D01*
X118115000Y-79190000D02*
X117450000Y-78525000D01*
X86350000Y-78625000D02*
X86250000Y-78525000D01*
X86250000Y-78525000D02*
X85275000Y-77550000D01*
X76525000Y-105950000D02*
X76525000Y-91662436D01*
X78975000Y-108400000D02*
X76525000Y-105950000D01*
X100060000Y-112960000D02*
X97150000Y-110050000D01*
X100060000Y-120000000D02*
X100060000Y-112960000D01*
X97150000Y-110050000D02*
X95400000Y-110050000D01*
X95400000Y-110050000D02*
X93750000Y-108400000D01*
X93750000Y-108400000D02*
X78975000Y-108400000D01*
X77825000Y-88275000D02*
X77825000Y-90350000D01*
X76525000Y-91662436D02*
X77831218Y-90356218D01*
X77825000Y-90350000D02*
X77831218Y-90356218D01*
X77831218Y-90356218D02*
X81043718Y-87143718D01*
X86904287Y-81387926D02*
X87425000Y-80867213D01*
X87425000Y-80867213D02*
X88092213Y-80867213D01*
X88200000Y-80975000D02*
X88213590Y-80975000D01*
X88092213Y-80867213D02*
X88200000Y-80975000D01*
X88213590Y-80975000D02*
X89156795Y-81918205D01*
X89156795Y-81918205D02*
X89156795Y-84056795D01*
X118115000Y-83312000D02*
X116877000Y-84550000D01*
X89650000Y-84550000D02*
X89156795Y-84056795D01*
X116877000Y-84550000D02*
X92500000Y-84550000D01*
X92500000Y-84550000D02*
X89650000Y-84550000D01*
X92500000Y-100000000D02*
X92500000Y-96775000D01*
X79806282Y-85657505D02*
X82767713Y-82696074D01*
X79806282Y-85906282D02*
X79806282Y-85657505D01*
X115520718Y-85906282D02*
X115575000Y-85852000D01*
X79806282Y-85906282D02*
X115520718Y-85906282D01*
X83121266Y-83049627D02*
X83050572Y-83049627D01*
D21*
X87750000Y-123250000D02*
X87750000Y-116750000D01*
X87750000Y-116750000D02*
X87750000Y-110975000D01*
D20*
X81575000Y-84845378D02*
X81575000Y-84525198D01*
X83050572Y-83049627D02*
X82137599Y-83962599D01*
X81575000Y-84525198D02*
X82137599Y-83962599D01*
X81609357Y-84879735D02*
X81575000Y-84845378D01*
X82137599Y-83962599D02*
X81950099Y-84150098D01*
X84181926Y-84110287D02*
X84164713Y-84110287D01*
X84164713Y-84110287D02*
X83200000Y-85075000D01*
D21*
X107750000Y-123250000D02*
X107750000Y-116750000D01*
D20*
X83200000Y-85075000D02*
X82881282Y-85075000D01*
X82881282Y-85075000D02*
X82855605Y-85100677D01*
D22*
G36*
X114340000Y-63051381D02*
G01*
X114340001Y-72422419D01*
X114349551Y-72519383D01*
X114387291Y-72643793D01*
X114448576Y-72758450D01*
X114531053Y-72858948D01*
X114631551Y-72941425D01*
X114676721Y-72965568D01*
X116534463Y-74060492D01*
X118303637Y-75277067D01*
X119983634Y-76614087D01*
X121566281Y-78065049D01*
X123043839Y-79622856D01*
X124409142Y-81279949D01*
X125655533Y-83028253D01*
X126776924Y-84859231D01*
X127767866Y-86763983D01*
X128623522Y-88733210D01*
X129339731Y-90757342D01*
X129912994Y-92826481D01*
X130340526Y-94930579D01*
X130620243Y-97059378D01*
X130750781Y-99202507D01*
X130731505Y-101349511D01*
X130562508Y-103489938D01*
X130244610Y-105613384D01*
X129779370Y-107709453D01*
X129169044Y-109767980D01*
X128416612Y-111778909D01*
X127525724Y-113732480D01*
X126500750Y-115619116D01*
X125346666Y-117429660D01*
X124069081Y-119155308D01*
X122674254Y-120787611D01*
X121168943Y-122318655D01*
X119560506Y-123740959D01*
X117856773Y-125047599D01*
X116066046Y-126232207D01*
X114197048Y-127289016D01*
X112258866Y-128212884D01*
X110260984Y-128999289D01*
X108213103Y-129644417D01*
X106125198Y-130145123D01*
X104007453Y-130498965D01*
X101870201Y-130704216D01*
X99723834Y-130759880D01*
X97578798Y-130665686D01*
X95445561Y-130422090D01*
X93334523Y-130030284D01*
X91255950Y-129492171D01*
X89219982Y-128810376D01*
X87236536Y-127988222D01*
X85315263Y-127029706D01*
X83465537Y-125939508D01*
X81696363Y-124722933D01*
X80016373Y-123385919D01*
X78433726Y-121934958D01*
X76956160Y-120377144D01*
X75590853Y-118720044D01*
X74344468Y-116971747D01*
X74104000Y-116579117D01*
X86015000Y-116579117D01*
X86015000Y-116920883D01*
X86081675Y-117256081D01*
X86212463Y-117571831D01*
X86402337Y-117855998D01*
X86644002Y-118097663D01*
X86865001Y-118245329D01*
X86865000Y-121754671D01*
X86644002Y-121902337D01*
X86402337Y-122144002D01*
X86212463Y-122428169D01*
X86081675Y-122743919D01*
X86015000Y-123079117D01*
X86015000Y-123420883D01*
X86081675Y-123756081D01*
X86212463Y-124071831D01*
X86402337Y-124355998D01*
X86644002Y-124597663D01*
X86928169Y-124787537D01*
X87243919Y-124918325D01*
X87579117Y-124985000D01*
X87920883Y-124985000D01*
X88256081Y-124918325D01*
X88571831Y-124787537D01*
X88855998Y-124597663D01*
X88996949Y-124456712D01*
X91222893Y-124456712D01*
X91330726Y-124731338D01*
X91637384Y-124882216D01*
X91967585Y-124970369D01*
X92308639Y-124992409D01*
X92647439Y-124947489D01*
X92970966Y-124837336D01*
X93169274Y-124731338D01*
X93277107Y-124456712D01*
X92250000Y-123429605D01*
X91222893Y-124456712D01*
X88996949Y-124456712D01*
X89097663Y-124355998D01*
X89287537Y-124071831D01*
X89418325Y-123756081D01*
X89485000Y-123420883D01*
X89485000Y-123308639D01*
X90507591Y-123308639D01*
X90552511Y-123647439D01*
X90662664Y-123970966D01*
X90768662Y-124169274D01*
X91043288Y-124277107D01*
X92070395Y-123250000D01*
X92429605Y-123250000D01*
X93456712Y-124277107D01*
X93731338Y-124169274D01*
X93882216Y-123862616D01*
X93970369Y-123532415D01*
X93992409Y-123191361D01*
X93947489Y-122852561D01*
X93837336Y-122529034D01*
X93731338Y-122330726D01*
X93456712Y-122222893D01*
X92429605Y-123250000D01*
X92070395Y-123250000D01*
X91043288Y-122222893D01*
X90768662Y-122330726D01*
X90617784Y-122637384D01*
X90529631Y-122967585D01*
X90507591Y-123308639D01*
X89485000Y-123308639D01*
X89485000Y-123079117D01*
X89418325Y-122743919D01*
X89287537Y-122428169D01*
X89097663Y-122144002D01*
X88996949Y-122043288D01*
X91222893Y-122043288D01*
X92250000Y-123070395D01*
X93277107Y-122043288D01*
X93169274Y-121768662D01*
X92862616Y-121617784D01*
X92532415Y-121529631D01*
X92191361Y-121507591D01*
X91852561Y-121552511D01*
X91529034Y-121662664D01*
X91330726Y-121768662D01*
X91222893Y-122043288D01*
X88996949Y-122043288D01*
X88855998Y-121902337D01*
X88635000Y-121754671D01*
X88635000Y-118245329D01*
X88855998Y-118097663D01*
X88996949Y-117956712D01*
X91222893Y-117956712D01*
X91330726Y-118231338D01*
X91637384Y-118382216D01*
X91967585Y-118470369D01*
X92308639Y-118492409D01*
X92647439Y-118447489D01*
X92970966Y-118337336D01*
X93169274Y-118231338D01*
X93277107Y-117956712D01*
X92250000Y-116929605D01*
X91222893Y-117956712D01*
X88996949Y-117956712D01*
X89097663Y-117855998D01*
X89287537Y-117571831D01*
X89418325Y-117256081D01*
X89485000Y-116920883D01*
X89485000Y-116808639D01*
X90507591Y-116808639D01*
X90552511Y-117147439D01*
X90662664Y-117470966D01*
X90768662Y-117669274D01*
X91043288Y-117777107D01*
X92070395Y-116750000D01*
X92429605Y-116750000D01*
X93456712Y-117777107D01*
X93731338Y-117669274D01*
X93882216Y-117362616D01*
X93970369Y-117032415D01*
X93992409Y-116691361D01*
X93947489Y-116352561D01*
X93837336Y-116029034D01*
X93731338Y-115830726D01*
X93456712Y-115722893D01*
X92429605Y-116750000D01*
X92070395Y-116750000D01*
X91043288Y-115722893D01*
X90768662Y-115830726D01*
X90617784Y-116137384D01*
X90529631Y-116467585D01*
X90507591Y-116808639D01*
X89485000Y-116808639D01*
X89485000Y-116579117D01*
X89418325Y-116243919D01*
X89287537Y-115928169D01*
X89097663Y-115644002D01*
X88996949Y-115543288D01*
X91222893Y-115543288D01*
X92250000Y-116570395D01*
X93277107Y-115543288D01*
X93169274Y-115268662D01*
X92862616Y-115117784D01*
X92532415Y-115029631D01*
X92191361Y-115007591D01*
X91852561Y-115052511D01*
X91529034Y-115162664D01*
X91330726Y-115268662D01*
X91222893Y-115543288D01*
X88996949Y-115543288D01*
X88855998Y-115402337D01*
X88635000Y-115254671D01*
X88635000Y-111513454D01*
X88667205Y-111465256D01*
X88745226Y-111276898D01*
X88785000Y-111076939D01*
X88785000Y-110873061D01*
X88745226Y-110673102D01*
X88667205Y-110484744D01*
X88553937Y-110315226D01*
X88409774Y-110171063D01*
X88240256Y-110057795D01*
X88051898Y-109979774D01*
X87851939Y-109940000D01*
X87648061Y-109940000D01*
X87448102Y-109979774D01*
X87259744Y-110057795D01*
X87090226Y-110171063D01*
X86946063Y-110315226D01*
X86832795Y-110484744D01*
X86754774Y-110673102D01*
X86715000Y-110873061D01*
X86715000Y-111076939D01*
X86754774Y-111276898D01*
X86832795Y-111465256D01*
X86865001Y-111513456D01*
X86865000Y-115254671D01*
X86644002Y-115402337D01*
X86402337Y-115644002D01*
X86212463Y-115928169D01*
X86081675Y-116243919D01*
X86015000Y-116579117D01*
X74104000Y-116579117D01*
X73223080Y-115140775D01*
X72232134Y-113236017D01*
X71376478Y-111266790D01*
X70660269Y-109242658D01*
X70087006Y-107173519D01*
X69659474Y-105069421D01*
X69379757Y-102940622D01*
X69249219Y-100797493D01*
X69268495Y-98650490D01*
X69437493Y-96510060D01*
X69755390Y-94386616D01*
X70220630Y-92290547D01*
X70406856Y-91662436D01*
X75761324Y-91662436D01*
X75765001Y-91699768D01*
X75765000Y-105912678D01*
X75761324Y-105950000D01*
X75765000Y-105987322D01*
X75765000Y-105987332D01*
X75775997Y-106098985D01*
X75792556Y-106153573D01*
X75819454Y-106242246D01*
X75890026Y-106374276D01*
X75905940Y-106393667D01*
X75984999Y-106490001D01*
X76014003Y-106513804D01*
X78411200Y-108911002D01*
X78434999Y-108940001D01*
X78550724Y-109034974D01*
X78682753Y-109105546D01*
X78826014Y-109149003D01*
X78937667Y-109160000D01*
X78937676Y-109160000D01*
X78974999Y-109163676D01*
X79012322Y-109160000D01*
X93435199Y-109160000D01*
X94836205Y-110561008D01*
X94859999Y-110590001D01*
X94888992Y-110613795D01*
X94888996Y-110613799D01*
X94959685Y-110671811D01*
X94975724Y-110684974D01*
X95107753Y-110755546D01*
X95251014Y-110799003D01*
X95362667Y-110810000D01*
X95362676Y-110810000D01*
X95399999Y-110813676D01*
X95437322Y-110810000D01*
X96835199Y-110810000D01*
X99300001Y-113274804D01*
X99300000Y-118721821D01*
X99113368Y-118846525D01*
X98906525Y-119053368D01*
X98790000Y-119227760D01*
X98673475Y-119053368D01*
X98466632Y-118846525D01*
X98223411Y-118684010D01*
X97953158Y-118572068D01*
X97666260Y-118515000D01*
X97373740Y-118515000D01*
X97086842Y-118572068D01*
X96816589Y-118684010D01*
X96573368Y-118846525D01*
X96366525Y-119053368D01*
X96204010Y-119296589D01*
X96092068Y-119566842D01*
X96035000Y-119853740D01*
X96035000Y-120146260D01*
X96092068Y-120433158D01*
X96204010Y-120703411D01*
X96366525Y-120946632D01*
X96573368Y-121153475D01*
X96816589Y-121315990D01*
X97086842Y-121427932D01*
X97373740Y-121485000D01*
X97666260Y-121485000D01*
X97953158Y-121427932D01*
X98223411Y-121315990D01*
X98466632Y-121153475D01*
X98673475Y-120946632D01*
X98790000Y-120772240D01*
X98906525Y-120946632D01*
X99113368Y-121153475D01*
X99356589Y-121315990D01*
X99626842Y-121427932D01*
X99913740Y-121485000D01*
X100206260Y-121485000D01*
X100493158Y-121427932D01*
X100763411Y-121315990D01*
X101006632Y-121153475D01*
X101138487Y-121021620D01*
X101160498Y-121094180D01*
X101219463Y-121204494D01*
X101298815Y-121301185D01*
X101395506Y-121380537D01*
X101505820Y-121439502D01*
X101625518Y-121475812D01*
X101750000Y-121488072D01*
X103450000Y-121488072D01*
X103574482Y-121475812D01*
X103694180Y-121439502D01*
X103804494Y-121380537D01*
X103901185Y-121301185D01*
X103980537Y-121204494D01*
X104039502Y-121094180D01*
X104075812Y-120974482D01*
X104088072Y-120850000D01*
X104088072Y-119150000D01*
X104075812Y-119025518D01*
X104039502Y-118905820D01*
X103980537Y-118795506D01*
X103901185Y-118698815D01*
X103804494Y-118619463D01*
X103694180Y-118560498D01*
X103574482Y-118524188D01*
X103450000Y-118511928D01*
X103360000Y-118511928D01*
X103360000Y-116579117D01*
X106015000Y-116579117D01*
X106015000Y-116920883D01*
X106081675Y-117256081D01*
X106212463Y-117571831D01*
X106402337Y-117855998D01*
X106644002Y-118097663D01*
X106865001Y-118245329D01*
X106865000Y-121754671D01*
X106644002Y-121902337D01*
X106402337Y-122144002D01*
X106212463Y-122428169D01*
X106081675Y-122743919D01*
X106015000Y-123079117D01*
X106015000Y-123420883D01*
X106081675Y-123756081D01*
X106212463Y-124071831D01*
X106402337Y-124355998D01*
X106644002Y-124597663D01*
X106928169Y-124787537D01*
X107243919Y-124918325D01*
X107579117Y-124985000D01*
X107920883Y-124985000D01*
X108256081Y-124918325D01*
X108571831Y-124787537D01*
X108855998Y-124597663D01*
X108996949Y-124456712D01*
X111222893Y-124456712D01*
X111330726Y-124731338D01*
X111637384Y-124882216D01*
X111967585Y-124970369D01*
X112308639Y-124992409D01*
X112647439Y-124947489D01*
X112970966Y-124837336D01*
X113169274Y-124731338D01*
X113277107Y-124456712D01*
X112250000Y-123429605D01*
X111222893Y-124456712D01*
X108996949Y-124456712D01*
X109097663Y-124355998D01*
X109287537Y-124071831D01*
X109418325Y-123756081D01*
X109485000Y-123420883D01*
X109485000Y-123308639D01*
X110507591Y-123308639D01*
X110552511Y-123647439D01*
X110662664Y-123970966D01*
X110768662Y-124169274D01*
X111043288Y-124277107D01*
X112070395Y-123250000D01*
X112429605Y-123250000D01*
X113456712Y-124277107D01*
X113731338Y-124169274D01*
X113882216Y-123862616D01*
X113970369Y-123532415D01*
X113992409Y-123191361D01*
X113947489Y-122852561D01*
X113837336Y-122529034D01*
X113731338Y-122330726D01*
X113456712Y-122222893D01*
X112429605Y-123250000D01*
X112070395Y-123250000D01*
X111043288Y-122222893D01*
X110768662Y-122330726D01*
X110617784Y-122637384D01*
X110529631Y-122967585D01*
X110507591Y-123308639D01*
X109485000Y-123308639D01*
X109485000Y-123079117D01*
X109418325Y-122743919D01*
X109287537Y-122428169D01*
X109097663Y-122144002D01*
X108996949Y-122043288D01*
X111222893Y-122043288D01*
X112250000Y-123070395D01*
X113277107Y-122043288D01*
X113169274Y-121768662D01*
X112862616Y-121617784D01*
X112532415Y-121529631D01*
X112191361Y-121507591D01*
X111852561Y-121552511D01*
X111529034Y-121662664D01*
X111330726Y-121768662D01*
X111222893Y-122043288D01*
X108996949Y-122043288D01*
X108855998Y-121902337D01*
X108635000Y-121754671D01*
X108635000Y-118245329D01*
X108855998Y-118097663D01*
X108996949Y-117956712D01*
X111222893Y-117956712D01*
X111330726Y-118231338D01*
X111637384Y-118382216D01*
X111967585Y-118470369D01*
X112308639Y-118492409D01*
X112647439Y-118447489D01*
X112970966Y-118337336D01*
X113169274Y-118231338D01*
X113277107Y-117956712D01*
X112250000Y-116929605D01*
X111222893Y-117956712D01*
X108996949Y-117956712D01*
X109097663Y-117855998D01*
X109287537Y-117571831D01*
X109418325Y-117256081D01*
X109485000Y-116920883D01*
X109485000Y-116808639D01*
X110507591Y-116808639D01*
X110552511Y-117147439D01*
X110662664Y-117470966D01*
X110768662Y-117669274D01*
X111043288Y-117777107D01*
X112070395Y-116750000D01*
X112429605Y-116750000D01*
X113456712Y-117777107D01*
X113731338Y-117669274D01*
X113882216Y-117362616D01*
X113970369Y-117032415D01*
X113992409Y-116691361D01*
X113947489Y-116352561D01*
X113837336Y-116029034D01*
X113731338Y-115830726D01*
X113456712Y-115722893D01*
X112429605Y-116750000D01*
X112070395Y-116750000D01*
X111043288Y-115722893D01*
X110768662Y-115830726D01*
X110617784Y-116137384D01*
X110529631Y-116467585D01*
X110507591Y-116808639D01*
X109485000Y-116808639D01*
X109485000Y-116579117D01*
X109418325Y-116243919D01*
X109287537Y-115928169D01*
X109097663Y-115644002D01*
X108996949Y-115543288D01*
X111222893Y-115543288D01*
X112250000Y-116570395D01*
X113277107Y-115543288D01*
X113169274Y-115268662D01*
X112862616Y-115117784D01*
X112532415Y-115029631D01*
X112191361Y-115007591D01*
X111852561Y-115052511D01*
X111529034Y-115162664D01*
X111330726Y-115268662D01*
X111222893Y-115543288D01*
X108996949Y-115543288D01*
X108855998Y-115402337D01*
X108610000Y-115237967D01*
X108610000Y-111513454D01*
X108642205Y-111465256D01*
X108720226Y-111276898D01*
X108760000Y-111076939D01*
X108760000Y-110873061D01*
X108720226Y-110673102D01*
X108642205Y-110484744D01*
X108528937Y-110315226D01*
X108384774Y-110171063D01*
X108215256Y-110057795D01*
X108026898Y-109979774D01*
X107826939Y-109940000D01*
X107623061Y-109940000D01*
X107423102Y-109979774D01*
X107234744Y-110057795D01*
X107065226Y-110171063D01*
X106921063Y-110315226D01*
X106807795Y-110484744D01*
X106729774Y-110673102D01*
X106690000Y-110873061D01*
X106690000Y-111076939D01*
X106729774Y-111276898D01*
X106807795Y-111465256D01*
X106840001Y-111513456D01*
X106840000Y-115271375D01*
X106644002Y-115402337D01*
X106402337Y-115644002D01*
X106212463Y-115928169D01*
X106081675Y-116243919D01*
X106015000Y-116579117D01*
X103360000Y-116579117D01*
X103360000Y-112362322D01*
X103363676Y-112325000D01*
X103360000Y-112287677D01*
X103360000Y-112287667D01*
X103349003Y-112176014D01*
X103305546Y-112032753D01*
X103289693Y-112003094D01*
X103234974Y-111900723D01*
X103163799Y-111813997D01*
X103140001Y-111784999D01*
X103111004Y-111761202D01*
X98888804Y-107539003D01*
X98865001Y-107509999D01*
X98749276Y-107415026D01*
X98617247Y-107344454D01*
X98473986Y-107300997D01*
X98362333Y-107290000D01*
X98362322Y-107290000D01*
X98325000Y-107286324D01*
X98287678Y-107290000D01*
X96464801Y-107290000D01*
X96460000Y-107285199D01*
X96460000Y-104253711D01*
X96503937Y-104209774D01*
X96617205Y-104040256D01*
X96695226Y-103851898D01*
X96735000Y-103651939D01*
X96735000Y-103448061D01*
X96695226Y-103248102D01*
X96617205Y-103059744D01*
X96503937Y-102890226D01*
X96359774Y-102746063D01*
X96190256Y-102632795D01*
X96001898Y-102554774D01*
X95801939Y-102515000D01*
X95598061Y-102515000D01*
X95398102Y-102554774D01*
X95209744Y-102632795D01*
X95040226Y-102746063D01*
X94896063Y-102890226D01*
X94782795Y-103059744D01*
X94704774Y-103248102D01*
X94665000Y-103448061D01*
X94665000Y-103651939D01*
X94704774Y-103851898D01*
X94782795Y-104040256D01*
X94896063Y-104209774D01*
X94940000Y-104253711D01*
X94940001Y-107562668D01*
X94936324Y-107600000D01*
X94940001Y-107637333D01*
X94950998Y-107748986D01*
X94953658Y-107757754D01*
X94994454Y-107892246D01*
X95065026Y-108024276D01*
X95136201Y-108111002D01*
X95160000Y-108140001D01*
X95188998Y-108163799D01*
X95586196Y-108560997D01*
X95609999Y-108590001D01*
X95683146Y-108650031D01*
X95725723Y-108684974D01*
X95857753Y-108755546D01*
X96001014Y-108799003D01*
X96112667Y-108810000D01*
X96112676Y-108810000D01*
X96149999Y-108813676D01*
X96187322Y-108810000D01*
X98010199Y-108810000D01*
X101840000Y-112639802D01*
X101840001Y-118511928D01*
X101750000Y-118511928D01*
X101625518Y-118524188D01*
X101505820Y-118560498D01*
X101395506Y-118619463D01*
X101298815Y-118698815D01*
X101219463Y-118795506D01*
X101160498Y-118905820D01*
X101138487Y-118978380D01*
X101006632Y-118846525D01*
X100820000Y-118721822D01*
X100820000Y-112997322D01*
X100823676Y-112959999D01*
X100820000Y-112922676D01*
X100820000Y-112922667D01*
X100809003Y-112811014D01*
X100765546Y-112667753D01*
X100694974Y-112535724D01*
X100680665Y-112518289D01*
X100623799Y-112448996D01*
X100623795Y-112448992D01*
X100600001Y-112419999D01*
X100571008Y-112396205D01*
X97713804Y-109539003D01*
X97690001Y-109509999D01*
X97574276Y-109415026D01*
X97442247Y-109344454D01*
X97298986Y-109300997D01*
X97187333Y-109290000D01*
X97187322Y-109290000D01*
X97150000Y-109286324D01*
X97112678Y-109290000D01*
X95714803Y-109290000D01*
X94313803Y-107889002D01*
X94290001Y-107859999D01*
X94174276Y-107765026D01*
X94042247Y-107694454D01*
X93898986Y-107650997D01*
X93787333Y-107640000D01*
X93787322Y-107640000D01*
X93750000Y-107636324D01*
X93712678Y-107640000D01*
X79289802Y-107640000D01*
X77285000Y-105635199D01*
X77285000Y-102170000D01*
X78461928Y-102170000D01*
X78474188Y-102294482D01*
X78510498Y-102414180D01*
X78569463Y-102524494D01*
X78648815Y-102621185D01*
X78745506Y-102700537D01*
X78855820Y-102759502D01*
X78975518Y-102795812D01*
X79100000Y-102808072D01*
X79714250Y-102805000D01*
X79873000Y-102646250D01*
X79873000Y-101397000D01*
X80127000Y-101397000D01*
X80127000Y-102646250D01*
X80285750Y-102805000D01*
X80900000Y-102808072D01*
X81024482Y-102795812D01*
X81144180Y-102759502D01*
X81254494Y-102700537D01*
X81351185Y-102621185D01*
X81430537Y-102524494D01*
X81489502Y-102414180D01*
X81525812Y-102294482D01*
X81538072Y-102170000D01*
X118461928Y-102170000D01*
X118474188Y-102294482D01*
X118510498Y-102414180D01*
X118569463Y-102524494D01*
X118648815Y-102621185D01*
X118745506Y-102700537D01*
X118855820Y-102759502D01*
X118975518Y-102795812D01*
X119100000Y-102808072D01*
X119714250Y-102805000D01*
X119873000Y-102646250D01*
X119873000Y-101397000D01*
X120127000Y-101397000D01*
X120127000Y-102646250D01*
X120285750Y-102805000D01*
X120900000Y-102808072D01*
X121024482Y-102795812D01*
X121144180Y-102759502D01*
X121254494Y-102700537D01*
X121351185Y-102621185D01*
X121430537Y-102524494D01*
X121489502Y-102414180D01*
X121525812Y-102294482D01*
X121538072Y-102170000D01*
X121535000Y-101555750D01*
X121376250Y-101397000D01*
X120127000Y-101397000D01*
X119873000Y-101397000D01*
X118623750Y-101397000D01*
X118465000Y-101555750D01*
X118461928Y-102170000D01*
X81538072Y-102170000D01*
X81535000Y-101555750D01*
X81376250Y-101397000D01*
X80127000Y-101397000D01*
X79873000Y-101397000D01*
X78623750Y-101397000D01*
X78465000Y-101555750D01*
X78461928Y-102170000D01*
X77285000Y-102170000D01*
X77285000Y-91977237D01*
X78342221Y-90920017D01*
X78371219Y-90896219D01*
X78395022Y-90867215D01*
X80893130Y-88369108D01*
X80908257Y-88373697D01*
X81079073Y-88390521D01*
X81249889Y-88373697D01*
X81414140Y-88323872D01*
X81565515Y-88242961D01*
X81698196Y-88134072D01*
X82034072Y-87798196D01*
X82142961Y-87665515D01*
X82223872Y-87514140D01*
X82273697Y-87349889D01*
X82290521Y-87179073D01*
X82273697Y-87008257D01*
X82223872Y-86844006D01*
X82142961Y-86692631D01*
X82121337Y-86666282D01*
X89231267Y-86666282D01*
X89215000Y-86748061D01*
X89215000Y-86810198D01*
X81439007Y-94586192D01*
X81438996Y-94586201D01*
X79488998Y-96536201D01*
X79460000Y-96559999D01*
X79436202Y-96588997D01*
X79436201Y-96588998D01*
X79365026Y-96675724D01*
X79294454Y-96807754D01*
X79273468Y-96876939D01*
X79250998Y-96951014D01*
X79250495Y-96956121D01*
X79236324Y-97100000D01*
X79240001Y-97137332D01*
X79240001Y-97391687D01*
X79021495Y-97537688D01*
X78807688Y-97751495D01*
X78639701Y-98002905D01*
X78523989Y-98282257D01*
X78465000Y-98578816D01*
X78465000Y-98881184D01*
X78523989Y-99177743D01*
X78639701Y-99457095D01*
X78807688Y-99708505D01*
X78874127Y-99774944D01*
X78855820Y-99780498D01*
X78745506Y-99839463D01*
X78648815Y-99918815D01*
X78569463Y-100015506D01*
X78510498Y-100125820D01*
X78474188Y-100245518D01*
X78461928Y-100370000D01*
X78465000Y-100984250D01*
X78623750Y-101143000D01*
X79873000Y-101143000D01*
X79873000Y-101123000D01*
X80127000Y-101123000D01*
X80127000Y-101143000D01*
X81376250Y-101143000D01*
X81535000Y-100984250D01*
X81538072Y-100370000D01*
X81525812Y-100245518D01*
X81489502Y-100125820D01*
X81430537Y-100015506D01*
X81351185Y-99918815D01*
X81254494Y-99839463D01*
X81207501Y-99814344D01*
X90615000Y-99814344D01*
X90615000Y-100185656D01*
X90687439Y-100549834D01*
X90829534Y-100892882D01*
X91035825Y-101201618D01*
X91298382Y-101464175D01*
X91607118Y-101670466D01*
X91950166Y-101812561D01*
X92314344Y-101885000D01*
X92685656Y-101885000D01*
X93049834Y-101812561D01*
X93392882Y-101670466D01*
X93701618Y-101464175D01*
X93915793Y-101250000D01*
X105611928Y-101250000D01*
X105624188Y-101374482D01*
X105660498Y-101494180D01*
X105719463Y-101604494D01*
X105798815Y-101701185D01*
X105895506Y-101780537D01*
X106005820Y-101839502D01*
X106125518Y-101875812D01*
X106250000Y-101888072D01*
X107214250Y-101885000D01*
X107373000Y-101726250D01*
X107373000Y-100127000D01*
X107627000Y-100127000D01*
X107627000Y-101726250D01*
X107785750Y-101885000D01*
X108750000Y-101888072D01*
X108874482Y-101875812D01*
X108994180Y-101839502D01*
X109104494Y-101780537D01*
X109201185Y-101701185D01*
X109280537Y-101604494D01*
X109339502Y-101494180D01*
X109375812Y-101374482D01*
X109388072Y-101250000D01*
X109385269Y-100370000D01*
X118461928Y-100370000D01*
X118465000Y-100984250D01*
X118623750Y-101143000D01*
X119873000Y-101143000D01*
X119873000Y-101123000D01*
X120127000Y-101123000D01*
X120127000Y-101143000D01*
X121376250Y-101143000D01*
X121535000Y-100984250D01*
X121538072Y-100370000D01*
X121525812Y-100245518D01*
X121489502Y-100125820D01*
X121430537Y-100015506D01*
X121351185Y-99918815D01*
X121254494Y-99839463D01*
X121144180Y-99780498D01*
X121125873Y-99774944D01*
X121192312Y-99708505D01*
X121360299Y-99457095D01*
X121476011Y-99177743D01*
X121535000Y-98881184D01*
X121535000Y-98578816D01*
X121476011Y-98282257D01*
X121360299Y-98002905D01*
X121192312Y-97751495D01*
X120978505Y-97537688D01*
X120760000Y-97391687D01*
X120760000Y-95903711D01*
X120778937Y-95884774D01*
X120892205Y-95715256D01*
X120970226Y-95526898D01*
X121010000Y-95326939D01*
X121010000Y-95123061D01*
X120970226Y-94923102D01*
X120892205Y-94734744D01*
X120778937Y-94565226D01*
X120634774Y-94421063D01*
X120465256Y-94307795D01*
X120276898Y-94229774D01*
X120076939Y-94190000D01*
X119873061Y-94190000D01*
X119673102Y-94229774D01*
X119484744Y-94307795D01*
X119315226Y-94421063D01*
X119171063Y-94565226D01*
X119057795Y-94734744D01*
X118979774Y-94923102D01*
X118940000Y-95123061D01*
X118940000Y-95326939D01*
X118979774Y-95526898D01*
X119057795Y-95715256D01*
X119171063Y-95884774D01*
X119240001Y-95953712D01*
X119240000Y-97391687D01*
X119021495Y-97537688D01*
X118807688Y-97751495D01*
X118639701Y-98002905D01*
X118523989Y-98282257D01*
X118465000Y-98578816D01*
X118465000Y-98881184D01*
X118523989Y-99177743D01*
X118639701Y-99457095D01*
X118807688Y-99708505D01*
X118874127Y-99774944D01*
X118855820Y-99780498D01*
X118745506Y-99839463D01*
X118648815Y-99918815D01*
X118569463Y-100015506D01*
X118510498Y-100125820D01*
X118474188Y-100245518D01*
X118461928Y-100370000D01*
X109385269Y-100370000D01*
X109385000Y-100285750D01*
X109226250Y-100127000D01*
X107627000Y-100127000D01*
X107373000Y-100127000D01*
X105773750Y-100127000D01*
X105615000Y-100285750D01*
X105611928Y-101250000D01*
X93915793Y-101250000D01*
X93964175Y-101201618D01*
X94170466Y-100892882D01*
X94312561Y-100549834D01*
X94385000Y-100185656D01*
X94385000Y-99814344D01*
X94312561Y-99450166D01*
X94170466Y-99107118D01*
X93964175Y-98798382D01*
X93915793Y-98750000D01*
X105611928Y-98750000D01*
X105615000Y-99714250D01*
X105773750Y-99873000D01*
X107373000Y-99873000D01*
X107373000Y-98273750D01*
X107627000Y-98273750D01*
X107627000Y-99873000D01*
X109226250Y-99873000D01*
X109385000Y-99714250D01*
X109388072Y-98750000D01*
X109375812Y-98625518D01*
X109339502Y-98505820D01*
X109280537Y-98395506D01*
X109201185Y-98298815D01*
X109104494Y-98219463D01*
X108994180Y-98160498D01*
X108874482Y-98124188D01*
X108750000Y-98111928D01*
X107785750Y-98115000D01*
X107627000Y-98273750D01*
X107373000Y-98273750D01*
X107214250Y-98115000D01*
X106250000Y-98111928D01*
X106125518Y-98124188D01*
X106005820Y-98160498D01*
X105895506Y-98219463D01*
X105798815Y-98298815D01*
X105719463Y-98395506D01*
X105660498Y-98505820D01*
X105624188Y-98625518D01*
X105611928Y-98750000D01*
X93915793Y-98750000D01*
X93701618Y-98535825D01*
X93392882Y-98329534D01*
X93260000Y-98274493D01*
X93260000Y-97478711D01*
X93303937Y-97434774D01*
X93417205Y-97265256D01*
X93495226Y-97076898D01*
X93535000Y-96876939D01*
X93535000Y-96673061D01*
X93518280Y-96589000D01*
X98276928Y-96589000D01*
X98289188Y-96713482D01*
X98325498Y-96833180D01*
X98384463Y-96943494D01*
X98463815Y-97040185D01*
X98560506Y-97119537D01*
X98670820Y-97178502D01*
X98790518Y-97214812D01*
X98915000Y-97227072D01*
X99714250Y-97224000D01*
X99873000Y-97065250D01*
X99873000Y-95631000D01*
X100127000Y-95631000D01*
X100127000Y-97065250D01*
X100285750Y-97224000D01*
X101085000Y-97227072D01*
X101209482Y-97214812D01*
X101329180Y-97178502D01*
X101439494Y-97119537D01*
X101536185Y-97040185D01*
X101615537Y-96943494D01*
X101674502Y-96833180D01*
X101710812Y-96713482D01*
X101723072Y-96589000D01*
X101720000Y-95789750D01*
X101561250Y-95631000D01*
X100127000Y-95631000D01*
X99873000Y-95631000D01*
X98438750Y-95631000D01*
X98280000Y-95789750D01*
X98276928Y-96589000D01*
X93518280Y-96589000D01*
X93495226Y-96473102D01*
X93417205Y-96284744D01*
X93303937Y-96115226D01*
X93159774Y-95971063D01*
X92990256Y-95857795D01*
X92801898Y-95779774D01*
X92601939Y-95740000D01*
X92398061Y-95740000D01*
X92198102Y-95779774D01*
X92009744Y-95857795D01*
X91840226Y-95971063D01*
X91696063Y-96115226D01*
X91582795Y-96284744D01*
X91504774Y-96473102D01*
X91465000Y-96673061D01*
X91465000Y-96876939D01*
X91504774Y-97076898D01*
X91582795Y-97265256D01*
X91696063Y-97434774D01*
X91740001Y-97478712D01*
X91740001Y-98274492D01*
X91607118Y-98329534D01*
X91298382Y-98535825D01*
X91035825Y-98798382D01*
X90829534Y-99107118D01*
X90687439Y-99450166D01*
X90615000Y-99814344D01*
X81207501Y-99814344D01*
X81144180Y-99780498D01*
X81125873Y-99774944D01*
X81192312Y-99708505D01*
X81360299Y-99457095D01*
X81476011Y-99177743D01*
X81535000Y-98881184D01*
X81535000Y-98578816D01*
X81476011Y-98282257D01*
X81360299Y-98002905D01*
X81192312Y-97751495D01*
X80978505Y-97537688D01*
X80773856Y-97400946D01*
X82513799Y-95661004D01*
X82513808Y-95660993D01*
X83755801Y-94419000D01*
X98276928Y-94419000D01*
X98280000Y-95218250D01*
X98438750Y-95377000D01*
X99873000Y-95377000D01*
X99873000Y-93942750D01*
X100127000Y-93942750D01*
X100127000Y-95377000D01*
X101561250Y-95377000D01*
X101720000Y-95218250D01*
X101723072Y-94419000D01*
X101710812Y-94294518D01*
X101674502Y-94174820D01*
X101615537Y-94064506D01*
X101536185Y-93967815D01*
X101439494Y-93888463D01*
X101329180Y-93829498D01*
X101209482Y-93793188D01*
X101085000Y-93780928D01*
X100285750Y-93784000D01*
X100127000Y-93942750D01*
X99873000Y-93942750D01*
X99714250Y-93784000D01*
X98915000Y-93780928D01*
X98790518Y-93793188D01*
X98670820Y-93829498D01*
X98560506Y-93888463D01*
X98463815Y-93967815D01*
X98384463Y-94064506D01*
X98325498Y-94174820D01*
X98289188Y-94294518D01*
X98276928Y-94419000D01*
X83755801Y-94419000D01*
X90289802Y-87885000D01*
X90351939Y-87885000D01*
X90551898Y-87845226D01*
X90740256Y-87767205D01*
X90909774Y-87653937D01*
X91053937Y-87509774D01*
X91167205Y-87340256D01*
X91245226Y-87151898D01*
X91285000Y-86951939D01*
X91285000Y-86748061D01*
X91268733Y-86666282D01*
X114333092Y-86666282D01*
X114421525Y-86798632D01*
X114628368Y-87005475D01*
X114871589Y-87167990D01*
X115141842Y-87279932D01*
X115428740Y-87337000D01*
X115721260Y-87337000D01*
X116008158Y-87279932D01*
X116278411Y-87167990D01*
X116521632Y-87005475D01*
X116728475Y-86798632D01*
X116846100Y-86622594D01*
X117017412Y-86852269D01*
X117233645Y-87047178D01*
X117483748Y-87196157D01*
X117758109Y-87293481D01*
X117988000Y-87172814D01*
X117988000Y-85979000D01*
X118242000Y-85979000D01*
X118242000Y-87172814D01*
X118471891Y-87293481D01*
X118746252Y-87196157D01*
X118996355Y-87047178D01*
X119212588Y-86852269D01*
X119386641Y-86618920D01*
X119511825Y-86356099D01*
X119556476Y-86208890D01*
X119435155Y-85979000D01*
X118242000Y-85979000D01*
X117988000Y-85979000D01*
X117968000Y-85979000D01*
X117968000Y-85725000D01*
X117988000Y-85725000D01*
X117988000Y-85705000D01*
X118242000Y-85705000D01*
X118242000Y-85725000D01*
X119435155Y-85725000D01*
X119556476Y-85495110D01*
X119511825Y-85347901D01*
X119386641Y-85085080D01*
X119212588Y-84851731D01*
X118996355Y-84656822D01*
X118879466Y-84587195D01*
X119061632Y-84465475D01*
X119268475Y-84258632D01*
X119430990Y-84015411D01*
X119542932Y-83745158D01*
X119600000Y-83458260D01*
X119600000Y-83165740D01*
X119542932Y-82878842D01*
X119430990Y-82608589D01*
X119268475Y-82365368D01*
X119061632Y-82158525D01*
X118887240Y-82042000D01*
X119061632Y-81925475D01*
X119268475Y-81718632D01*
X119430990Y-81475411D01*
X119542932Y-81205158D01*
X119600000Y-80918260D01*
X119600000Y-80625740D01*
X119542932Y-80338842D01*
X119430990Y-80068589D01*
X119268475Y-79825368D01*
X119061632Y-79618525D01*
X118875000Y-79493822D01*
X118875000Y-79227322D01*
X118878676Y-79189999D01*
X118875000Y-79152677D01*
X118875000Y-79152667D01*
X118864003Y-79041014D01*
X118820546Y-78897753D01*
X118792057Y-78844454D01*
X118749974Y-78765723D01*
X118678799Y-78678997D01*
X118655001Y-78649999D01*
X118626002Y-78626200D01*
X118013803Y-78014002D01*
X117990001Y-77984999D01*
X117874276Y-77890026D01*
X117742247Y-77819454D01*
X117598986Y-77775997D01*
X117487333Y-77765000D01*
X117487322Y-77765000D01*
X117450000Y-77761324D01*
X117412678Y-77765000D01*
X86564802Y-77765000D01*
X85838804Y-77039002D01*
X85815001Y-77009999D01*
X85699276Y-76915026D01*
X85567247Y-76844454D01*
X85423986Y-76800997D01*
X85312333Y-76790000D01*
X85312322Y-76790000D01*
X85275000Y-76786324D01*
X85237678Y-76790000D01*
X83137333Y-76790000D01*
X83100000Y-76786323D01*
X83062667Y-76790000D01*
X82951014Y-76800997D01*
X82807753Y-76844454D01*
X82675724Y-76915026D01*
X82559999Y-77009999D01*
X82536201Y-77038997D01*
X77314003Y-82261196D01*
X77284999Y-82284999D01*
X77232624Y-82348819D01*
X77190026Y-82400724D01*
X77153003Y-82469989D01*
X77119454Y-82532754D01*
X77075997Y-82676015D01*
X77065000Y-82787668D01*
X77065000Y-82787678D01*
X77061324Y-82825000D01*
X77065000Y-82862323D01*
X77065001Y-88237658D01*
X77065000Y-88237668D01*
X77065001Y-90047633D01*
X76013998Y-91098637D01*
X75985000Y-91122435D01*
X75961202Y-91151433D01*
X75961201Y-91151434D01*
X75890026Y-91238160D01*
X75819454Y-91370190D01*
X75790619Y-91465250D01*
X75776775Y-91510891D01*
X75775998Y-91513451D01*
X75761324Y-91662436D01*
X70406856Y-91662436D01*
X70830959Y-90232012D01*
X71583388Y-88221091D01*
X72474270Y-86267531D01*
X73499250Y-84380883D01*
X74653329Y-82570346D01*
X75930919Y-80844692D01*
X77325746Y-79212389D01*
X78831050Y-77681352D01*
X80439488Y-76259046D01*
X81562129Y-75398061D01*
X95615000Y-75398061D01*
X95615000Y-75601939D01*
X95654774Y-75801898D01*
X95732795Y-75990256D01*
X95846063Y-76159774D01*
X95990226Y-76303937D01*
X96159744Y-76417205D01*
X96348102Y-76495226D01*
X96548061Y-76535000D01*
X96751939Y-76535000D01*
X96951898Y-76495226D01*
X97140256Y-76417205D01*
X97309774Y-76303937D01*
X97349711Y-76264000D01*
X98274493Y-76264000D01*
X98329534Y-76396882D01*
X98535825Y-76705618D01*
X98798382Y-76968175D01*
X99107118Y-77174466D01*
X99450166Y-77316561D01*
X99814344Y-77389000D01*
X100185656Y-77389000D01*
X100549834Y-77316561D01*
X100892882Y-77174466D01*
X101201618Y-76968175D01*
X101464175Y-76705618D01*
X101670466Y-76396882D01*
X101812561Y-76053834D01*
X101885000Y-75689656D01*
X101885000Y-75318344D01*
X101812561Y-74954166D01*
X101670466Y-74611118D01*
X101464175Y-74302382D01*
X101201618Y-74039825D01*
X100892882Y-73833534D01*
X100549834Y-73691439D01*
X100185656Y-73619000D01*
X99814344Y-73619000D01*
X99450166Y-73691439D01*
X99107118Y-73833534D01*
X98798382Y-74039825D01*
X98535825Y-74302382D01*
X98329534Y-74611118D01*
X98274493Y-74744000D01*
X97357711Y-74744000D01*
X97309774Y-74696063D01*
X97140256Y-74582795D01*
X96951898Y-74504774D01*
X96751939Y-74465000D01*
X96548061Y-74465000D01*
X96348102Y-74504774D01*
X96159744Y-74582795D01*
X95990226Y-74696063D01*
X95846063Y-74840226D01*
X95732795Y-75009744D01*
X95654774Y-75198102D01*
X95615000Y-75398061D01*
X81562129Y-75398061D01*
X82143227Y-74952401D01*
X83936425Y-73766158D01*
X85320668Y-72966965D01*
X85368450Y-72941425D01*
X85468948Y-72858948D01*
X85551425Y-72758450D01*
X85612710Y-72643793D01*
X85650450Y-72519383D01*
X85660000Y-72422419D01*
X85660000Y-72390029D01*
X85660001Y-72390000D01*
X85660000Y-72389971D01*
X85660000Y-67425000D01*
X87844993Y-67425000D01*
X87924830Y-68235602D01*
X88161274Y-69015052D01*
X88545238Y-69733398D01*
X89061966Y-70363034D01*
X89691602Y-70879762D01*
X90409948Y-71263726D01*
X91189398Y-71500170D01*
X91796865Y-71560000D01*
X108203135Y-71560000D01*
X108810602Y-71500170D01*
X109590052Y-71263726D01*
X110308398Y-70879762D01*
X110938034Y-70363034D01*
X111454762Y-69733398D01*
X111838726Y-69015052D01*
X112075170Y-68235602D01*
X112155007Y-67425000D01*
X112075170Y-66614398D01*
X111838726Y-65834948D01*
X111454762Y-65116602D01*
X110938034Y-64486966D01*
X110308398Y-63970238D01*
X109590052Y-63586274D01*
X108810602Y-63349830D01*
X108203135Y-63290000D01*
X91796865Y-63290000D01*
X91189398Y-63349830D01*
X90409948Y-63586274D01*
X89691602Y-63970238D01*
X89061966Y-64486966D01*
X88545238Y-65116602D01*
X88161274Y-65834948D01*
X87924830Y-66614398D01*
X87844993Y-67425000D01*
X85660000Y-67425000D01*
X85660000Y-63051380D01*
X86273381Y-62438000D01*
X113726620Y-62438000D01*
X114340000Y-63051381D01*
G37*
X114340000Y-63051381D02*
X114340001Y-72422419D01*
X114349551Y-72519383D01*
X114387291Y-72643793D01*
X114448576Y-72758450D01*
X114531053Y-72858948D01*
X114631551Y-72941425D01*
X114676721Y-72965568D01*
X116534463Y-74060492D01*
X118303637Y-75277067D01*
X119983634Y-76614087D01*
X121566281Y-78065049D01*
X123043839Y-79622856D01*
X124409142Y-81279949D01*
X125655533Y-83028253D01*
X126776924Y-84859231D01*
X127767866Y-86763983D01*
X128623522Y-88733210D01*
X129339731Y-90757342D01*
X129912994Y-92826481D01*
X130340526Y-94930579D01*
X130620243Y-97059378D01*
X130750781Y-99202507D01*
X130731505Y-101349511D01*
X130562508Y-103489938D01*
X130244610Y-105613384D01*
X129779370Y-107709453D01*
X129169044Y-109767980D01*
X128416612Y-111778909D01*
X127525724Y-113732480D01*
X126500750Y-115619116D01*
X125346666Y-117429660D01*
X124069081Y-119155308D01*
X122674254Y-120787611D01*
X121168943Y-122318655D01*
X119560506Y-123740959D01*
X117856773Y-125047599D01*
X116066046Y-126232207D01*
X114197048Y-127289016D01*
X112258866Y-128212884D01*
X110260984Y-128999289D01*
X108213103Y-129644417D01*
X106125198Y-130145123D01*
X104007453Y-130498965D01*
X101870201Y-130704216D01*
X99723834Y-130759880D01*
X97578798Y-130665686D01*
X95445561Y-130422090D01*
X93334523Y-130030284D01*
X91255950Y-129492171D01*
X89219982Y-128810376D01*
X87236536Y-127988222D01*
X85315263Y-127029706D01*
X83465537Y-125939508D01*
X81696363Y-124722933D01*
X80016373Y-123385919D01*
X78433726Y-121934958D01*
X76956160Y-120377144D01*
X75590853Y-118720044D01*
X74344468Y-116971747D01*
X74104000Y-116579117D01*
X86015000Y-116579117D01*
X86015000Y-116920883D01*
X86081675Y-117256081D01*
X86212463Y-117571831D01*
X86402337Y-117855998D01*
X86644002Y-118097663D01*
X86865001Y-118245329D01*
X86865000Y-121754671D01*
X86644002Y-121902337D01*
X86402337Y-122144002D01*
X86212463Y-122428169D01*
X86081675Y-122743919D01*
X86015000Y-123079117D01*
X86015000Y-123420883D01*
X86081675Y-123756081D01*
X86212463Y-124071831D01*
X86402337Y-124355998D01*
X86644002Y-124597663D01*
X86928169Y-124787537D01*
X87243919Y-124918325D01*
X87579117Y-124985000D01*
X87920883Y-124985000D01*
X88256081Y-124918325D01*
X88571831Y-124787537D01*
X88855998Y-124597663D01*
X88996949Y-124456712D01*
X91222893Y-124456712D01*
X91330726Y-124731338D01*
X91637384Y-124882216D01*
X91967585Y-124970369D01*
X92308639Y-124992409D01*
X92647439Y-124947489D01*
X92970966Y-124837336D01*
X93169274Y-124731338D01*
X93277107Y-124456712D01*
X92250000Y-123429605D01*
X91222893Y-124456712D01*
X88996949Y-124456712D01*
X89097663Y-124355998D01*
X89287537Y-124071831D01*
X89418325Y-123756081D01*
X89485000Y-123420883D01*
X89485000Y-123308639D01*
X90507591Y-123308639D01*
X90552511Y-123647439D01*
X90662664Y-123970966D01*
X90768662Y-124169274D01*
X91043288Y-124277107D01*
X92070395Y-123250000D01*
X92429605Y-123250000D01*
X93456712Y-124277107D01*
X93731338Y-124169274D01*
X93882216Y-123862616D01*
X93970369Y-123532415D01*
X93992409Y-123191361D01*
X93947489Y-122852561D01*
X93837336Y-122529034D01*
X93731338Y-122330726D01*
X93456712Y-122222893D01*
X92429605Y-123250000D01*
X92070395Y-123250000D01*
X91043288Y-122222893D01*
X90768662Y-122330726D01*
X90617784Y-122637384D01*
X90529631Y-122967585D01*
X90507591Y-123308639D01*
X89485000Y-123308639D01*
X89485000Y-123079117D01*
X89418325Y-122743919D01*
X89287537Y-122428169D01*
X89097663Y-122144002D01*
X88996949Y-122043288D01*
X91222893Y-122043288D01*
X92250000Y-123070395D01*
X93277107Y-122043288D01*
X93169274Y-121768662D01*
X92862616Y-121617784D01*
X92532415Y-121529631D01*
X92191361Y-121507591D01*
X91852561Y-121552511D01*
X91529034Y-121662664D01*
X91330726Y-121768662D01*
X91222893Y-122043288D01*
X88996949Y-122043288D01*
X88855998Y-121902337D01*
X88635000Y-121754671D01*
X88635000Y-118245329D01*
X88855998Y-118097663D01*
X88996949Y-117956712D01*
X91222893Y-117956712D01*
X91330726Y-118231338D01*
X91637384Y-118382216D01*
X91967585Y-118470369D01*
X92308639Y-118492409D01*
X92647439Y-118447489D01*
X92970966Y-118337336D01*
X93169274Y-118231338D01*
X93277107Y-117956712D01*
X92250000Y-116929605D01*
X91222893Y-117956712D01*
X88996949Y-117956712D01*
X89097663Y-117855998D01*
X89287537Y-117571831D01*
X89418325Y-117256081D01*
X89485000Y-116920883D01*
X89485000Y-116808639D01*
X90507591Y-116808639D01*
X90552511Y-117147439D01*
X90662664Y-117470966D01*
X90768662Y-117669274D01*
X91043288Y-117777107D01*
X92070395Y-116750000D01*
X92429605Y-116750000D01*
X93456712Y-117777107D01*
X93731338Y-117669274D01*
X93882216Y-117362616D01*
X93970369Y-117032415D01*
X93992409Y-116691361D01*
X93947489Y-116352561D01*
X93837336Y-116029034D01*
X93731338Y-115830726D01*
X93456712Y-115722893D01*
X92429605Y-116750000D01*
X92070395Y-116750000D01*
X91043288Y-115722893D01*
X90768662Y-115830726D01*
X90617784Y-116137384D01*
X90529631Y-116467585D01*
X90507591Y-116808639D01*
X89485000Y-116808639D01*
X89485000Y-116579117D01*
X89418325Y-116243919D01*
X89287537Y-115928169D01*
X89097663Y-115644002D01*
X88996949Y-115543288D01*
X91222893Y-115543288D01*
X92250000Y-116570395D01*
X93277107Y-115543288D01*
X93169274Y-115268662D01*
X92862616Y-115117784D01*
X92532415Y-115029631D01*
X92191361Y-115007591D01*
X91852561Y-115052511D01*
X91529034Y-115162664D01*
X91330726Y-115268662D01*
X91222893Y-115543288D01*
X88996949Y-115543288D01*
X88855998Y-115402337D01*
X88635000Y-115254671D01*
X88635000Y-111513454D01*
X88667205Y-111465256D01*
X88745226Y-111276898D01*
X88785000Y-111076939D01*
X88785000Y-110873061D01*
X88745226Y-110673102D01*
X88667205Y-110484744D01*
X88553937Y-110315226D01*
X88409774Y-110171063D01*
X88240256Y-110057795D01*
X88051898Y-109979774D01*
X87851939Y-109940000D01*
X87648061Y-109940000D01*
X87448102Y-109979774D01*
X87259744Y-110057795D01*
X87090226Y-110171063D01*
X86946063Y-110315226D01*
X86832795Y-110484744D01*
X86754774Y-110673102D01*
X86715000Y-110873061D01*
X86715000Y-111076939D01*
X86754774Y-111276898D01*
X86832795Y-111465256D01*
X86865001Y-111513456D01*
X86865000Y-115254671D01*
X86644002Y-115402337D01*
X86402337Y-115644002D01*
X86212463Y-115928169D01*
X86081675Y-116243919D01*
X86015000Y-116579117D01*
X74104000Y-116579117D01*
X73223080Y-115140775D01*
X72232134Y-113236017D01*
X71376478Y-111266790D01*
X70660269Y-109242658D01*
X70087006Y-107173519D01*
X69659474Y-105069421D01*
X69379757Y-102940622D01*
X69249219Y-100797493D01*
X69268495Y-98650490D01*
X69437493Y-96510060D01*
X69755390Y-94386616D01*
X70220630Y-92290547D01*
X70406856Y-91662436D01*
X75761324Y-91662436D01*
X75765001Y-91699768D01*
X75765000Y-105912678D01*
X75761324Y-105950000D01*
X75765000Y-105987322D01*
X75765000Y-105987332D01*
X75775997Y-106098985D01*
X75792556Y-106153573D01*
X75819454Y-106242246D01*
X75890026Y-106374276D01*
X75905940Y-106393667D01*
X75984999Y-106490001D01*
X76014003Y-106513804D01*
X78411200Y-108911002D01*
X78434999Y-108940001D01*
X78550724Y-109034974D01*
X78682753Y-109105546D01*
X78826014Y-109149003D01*
X78937667Y-109160000D01*
X78937676Y-109160000D01*
X78974999Y-109163676D01*
X79012322Y-109160000D01*
X93435199Y-109160000D01*
X94836205Y-110561008D01*
X94859999Y-110590001D01*
X94888992Y-110613795D01*
X94888996Y-110613799D01*
X94959685Y-110671811D01*
X94975724Y-110684974D01*
X95107753Y-110755546D01*
X95251014Y-110799003D01*
X95362667Y-110810000D01*
X95362676Y-110810000D01*
X95399999Y-110813676D01*
X95437322Y-110810000D01*
X96835199Y-110810000D01*
X99300001Y-113274804D01*
X99300000Y-118721821D01*
X99113368Y-118846525D01*
X98906525Y-119053368D01*
X98790000Y-119227760D01*
X98673475Y-119053368D01*
X98466632Y-118846525D01*
X98223411Y-118684010D01*
X97953158Y-118572068D01*
X97666260Y-118515000D01*
X97373740Y-118515000D01*
X97086842Y-118572068D01*
X96816589Y-118684010D01*
X96573368Y-118846525D01*
X96366525Y-119053368D01*
X96204010Y-119296589D01*
X96092068Y-119566842D01*
X96035000Y-119853740D01*
X96035000Y-120146260D01*
X96092068Y-120433158D01*
X96204010Y-120703411D01*
X96366525Y-120946632D01*
X96573368Y-121153475D01*
X96816589Y-121315990D01*
X97086842Y-121427932D01*
X97373740Y-121485000D01*
X97666260Y-121485000D01*
X97953158Y-121427932D01*
X98223411Y-121315990D01*
X98466632Y-121153475D01*
X98673475Y-120946632D01*
X98790000Y-120772240D01*
X98906525Y-120946632D01*
X99113368Y-121153475D01*
X99356589Y-121315990D01*
X99626842Y-121427932D01*
X99913740Y-121485000D01*
X100206260Y-121485000D01*
X100493158Y-121427932D01*
X100763411Y-121315990D01*
X101006632Y-121153475D01*
X101138487Y-121021620D01*
X101160498Y-121094180D01*
X101219463Y-121204494D01*
X101298815Y-121301185D01*
X101395506Y-121380537D01*
X101505820Y-121439502D01*
X101625518Y-121475812D01*
X101750000Y-121488072D01*
X103450000Y-121488072D01*
X103574482Y-121475812D01*
X103694180Y-121439502D01*
X103804494Y-121380537D01*
X103901185Y-121301185D01*
X103980537Y-121204494D01*
X104039502Y-121094180D01*
X104075812Y-120974482D01*
X104088072Y-120850000D01*
X104088072Y-119150000D01*
X104075812Y-119025518D01*
X104039502Y-118905820D01*
X103980537Y-118795506D01*
X103901185Y-118698815D01*
X103804494Y-118619463D01*
X103694180Y-118560498D01*
X103574482Y-118524188D01*
X103450000Y-118511928D01*
X103360000Y-118511928D01*
X103360000Y-116579117D01*
X106015000Y-116579117D01*
X106015000Y-116920883D01*
X106081675Y-117256081D01*
X106212463Y-117571831D01*
X106402337Y-117855998D01*
X106644002Y-118097663D01*
X106865001Y-118245329D01*
X106865000Y-121754671D01*
X106644002Y-121902337D01*
X106402337Y-122144002D01*
X106212463Y-122428169D01*
X106081675Y-122743919D01*
X106015000Y-123079117D01*
X106015000Y-123420883D01*
X106081675Y-123756081D01*
X106212463Y-124071831D01*
X106402337Y-124355998D01*
X106644002Y-124597663D01*
X106928169Y-124787537D01*
X107243919Y-124918325D01*
X107579117Y-124985000D01*
X107920883Y-124985000D01*
X108256081Y-124918325D01*
X108571831Y-124787537D01*
X108855998Y-124597663D01*
X108996949Y-124456712D01*
X111222893Y-124456712D01*
X111330726Y-124731338D01*
X111637384Y-124882216D01*
X111967585Y-124970369D01*
X112308639Y-124992409D01*
X112647439Y-124947489D01*
X112970966Y-124837336D01*
X113169274Y-124731338D01*
X113277107Y-124456712D01*
X112250000Y-123429605D01*
X111222893Y-124456712D01*
X108996949Y-124456712D01*
X109097663Y-124355998D01*
X109287537Y-124071831D01*
X109418325Y-123756081D01*
X109485000Y-123420883D01*
X109485000Y-123308639D01*
X110507591Y-123308639D01*
X110552511Y-123647439D01*
X110662664Y-123970966D01*
X110768662Y-124169274D01*
X111043288Y-124277107D01*
X112070395Y-123250000D01*
X112429605Y-123250000D01*
X113456712Y-124277107D01*
X113731338Y-124169274D01*
X113882216Y-123862616D01*
X113970369Y-123532415D01*
X113992409Y-123191361D01*
X113947489Y-122852561D01*
X113837336Y-122529034D01*
X113731338Y-122330726D01*
X113456712Y-122222893D01*
X112429605Y-123250000D01*
X112070395Y-123250000D01*
X111043288Y-122222893D01*
X110768662Y-122330726D01*
X110617784Y-122637384D01*
X110529631Y-122967585D01*
X110507591Y-123308639D01*
X109485000Y-123308639D01*
X109485000Y-123079117D01*
X109418325Y-122743919D01*
X109287537Y-122428169D01*
X109097663Y-122144002D01*
X108996949Y-122043288D01*
X111222893Y-122043288D01*
X112250000Y-123070395D01*
X113277107Y-122043288D01*
X113169274Y-121768662D01*
X112862616Y-121617784D01*
X112532415Y-121529631D01*
X112191361Y-121507591D01*
X111852561Y-121552511D01*
X111529034Y-121662664D01*
X111330726Y-121768662D01*
X111222893Y-122043288D01*
X108996949Y-122043288D01*
X108855998Y-121902337D01*
X108635000Y-121754671D01*
X108635000Y-118245329D01*
X108855998Y-118097663D01*
X108996949Y-117956712D01*
X111222893Y-117956712D01*
X111330726Y-118231338D01*
X111637384Y-118382216D01*
X111967585Y-118470369D01*
X112308639Y-118492409D01*
X112647439Y-118447489D01*
X112970966Y-118337336D01*
X113169274Y-118231338D01*
X113277107Y-117956712D01*
X112250000Y-116929605D01*
X111222893Y-117956712D01*
X108996949Y-117956712D01*
X109097663Y-117855998D01*
X109287537Y-117571831D01*
X109418325Y-117256081D01*
X109485000Y-116920883D01*
X109485000Y-116808639D01*
X110507591Y-116808639D01*
X110552511Y-117147439D01*
X110662664Y-117470966D01*
X110768662Y-117669274D01*
X111043288Y-117777107D01*
X112070395Y-116750000D01*
X112429605Y-116750000D01*
X113456712Y-117777107D01*
X113731338Y-117669274D01*
X113882216Y-117362616D01*
X113970369Y-117032415D01*
X113992409Y-116691361D01*
X113947489Y-116352561D01*
X113837336Y-116029034D01*
X113731338Y-115830726D01*
X113456712Y-115722893D01*
X112429605Y-116750000D01*
X112070395Y-116750000D01*
X111043288Y-115722893D01*
X110768662Y-115830726D01*
X110617784Y-116137384D01*
X110529631Y-116467585D01*
X110507591Y-116808639D01*
X109485000Y-116808639D01*
X109485000Y-116579117D01*
X109418325Y-116243919D01*
X109287537Y-115928169D01*
X109097663Y-115644002D01*
X108996949Y-115543288D01*
X111222893Y-115543288D01*
X112250000Y-116570395D01*
X113277107Y-115543288D01*
X113169274Y-115268662D01*
X112862616Y-115117784D01*
X112532415Y-115029631D01*
X112191361Y-115007591D01*
X111852561Y-115052511D01*
X111529034Y-115162664D01*
X111330726Y-115268662D01*
X111222893Y-115543288D01*
X108996949Y-115543288D01*
X108855998Y-115402337D01*
X108610000Y-115237967D01*
X108610000Y-111513454D01*
X108642205Y-111465256D01*
X108720226Y-111276898D01*
X108760000Y-111076939D01*
X108760000Y-110873061D01*
X108720226Y-110673102D01*
X108642205Y-110484744D01*
X108528937Y-110315226D01*
X108384774Y-110171063D01*
X108215256Y-110057795D01*
X108026898Y-109979774D01*
X107826939Y-109940000D01*
X107623061Y-109940000D01*
X107423102Y-109979774D01*
X107234744Y-110057795D01*
X107065226Y-110171063D01*
X106921063Y-110315226D01*
X106807795Y-110484744D01*
X106729774Y-110673102D01*
X106690000Y-110873061D01*
X106690000Y-111076939D01*
X106729774Y-111276898D01*
X106807795Y-111465256D01*
X106840001Y-111513456D01*
X106840000Y-115271375D01*
X106644002Y-115402337D01*
X106402337Y-115644002D01*
X106212463Y-115928169D01*
X106081675Y-116243919D01*
X106015000Y-116579117D01*
X103360000Y-116579117D01*
X103360000Y-112362322D01*
X103363676Y-112325000D01*
X103360000Y-112287677D01*
X103360000Y-112287667D01*
X103349003Y-112176014D01*
X103305546Y-112032753D01*
X103289693Y-112003094D01*
X103234974Y-111900723D01*
X103163799Y-111813997D01*
X103140001Y-111784999D01*
X103111004Y-111761202D01*
X98888804Y-107539003D01*
X98865001Y-107509999D01*
X98749276Y-107415026D01*
X98617247Y-107344454D01*
X98473986Y-107300997D01*
X98362333Y-107290000D01*
X98362322Y-107290000D01*
X98325000Y-107286324D01*
X98287678Y-107290000D01*
X96464801Y-107290000D01*
X96460000Y-107285199D01*
X96460000Y-104253711D01*
X96503937Y-104209774D01*
X96617205Y-104040256D01*
X96695226Y-103851898D01*
X96735000Y-103651939D01*
X96735000Y-103448061D01*
X96695226Y-103248102D01*
X96617205Y-103059744D01*
X96503937Y-102890226D01*
X96359774Y-102746063D01*
X96190256Y-102632795D01*
X96001898Y-102554774D01*
X95801939Y-102515000D01*
X95598061Y-102515000D01*
X95398102Y-102554774D01*
X95209744Y-102632795D01*
X95040226Y-102746063D01*
X94896063Y-102890226D01*
X94782795Y-103059744D01*
X94704774Y-103248102D01*
X94665000Y-103448061D01*
X94665000Y-103651939D01*
X94704774Y-103851898D01*
X94782795Y-104040256D01*
X94896063Y-104209774D01*
X94940000Y-104253711D01*
X94940001Y-107562668D01*
X94936324Y-107600000D01*
X94940001Y-107637333D01*
X94950998Y-107748986D01*
X94953658Y-107757754D01*
X94994454Y-107892246D01*
X95065026Y-108024276D01*
X95136201Y-108111002D01*
X95160000Y-108140001D01*
X95188998Y-108163799D01*
X95586196Y-108560997D01*
X95609999Y-108590001D01*
X95683146Y-108650031D01*
X95725723Y-108684974D01*
X95857753Y-108755546D01*
X96001014Y-108799003D01*
X96112667Y-108810000D01*
X96112676Y-108810000D01*
X96149999Y-108813676D01*
X96187322Y-108810000D01*
X98010199Y-108810000D01*
X101840000Y-112639802D01*
X101840001Y-118511928D01*
X101750000Y-118511928D01*
X101625518Y-118524188D01*
X101505820Y-118560498D01*
X101395506Y-118619463D01*
X101298815Y-118698815D01*
X101219463Y-118795506D01*
X101160498Y-118905820D01*
X101138487Y-118978380D01*
X101006632Y-118846525D01*
X100820000Y-118721822D01*
X100820000Y-112997322D01*
X100823676Y-112959999D01*
X100820000Y-112922676D01*
X100820000Y-112922667D01*
X100809003Y-112811014D01*
X100765546Y-112667753D01*
X100694974Y-112535724D01*
X100680665Y-112518289D01*
X100623799Y-112448996D01*
X100623795Y-112448992D01*
X100600001Y-112419999D01*
X100571008Y-112396205D01*
X97713804Y-109539003D01*
X97690001Y-109509999D01*
X97574276Y-109415026D01*
X97442247Y-109344454D01*
X97298986Y-109300997D01*
X97187333Y-109290000D01*
X97187322Y-109290000D01*
X97150000Y-109286324D01*
X97112678Y-109290000D01*
X95714803Y-109290000D01*
X94313803Y-107889002D01*
X94290001Y-107859999D01*
X94174276Y-107765026D01*
X94042247Y-107694454D01*
X93898986Y-107650997D01*
X93787333Y-107640000D01*
X93787322Y-107640000D01*
X93750000Y-107636324D01*
X93712678Y-107640000D01*
X79289802Y-107640000D01*
X77285000Y-105635199D01*
X77285000Y-102170000D01*
X78461928Y-102170000D01*
X78474188Y-102294482D01*
X78510498Y-102414180D01*
X78569463Y-102524494D01*
X78648815Y-102621185D01*
X78745506Y-102700537D01*
X78855820Y-102759502D01*
X78975518Y-102795812D01*
X79100000Y-102808072D01*
X79714250Y-102805000D01*
X79873000Y-102646250D01*
X79873000Y-101397000D01*
X80127000Y-101397000D01*
X80127000Y-102646250D01*
X80285750Y-102805000D01*
X80900000Y-102808072D01*
X81024482Y-102795812D01*
X81144180Y-102759502D01*
X81254494Y-102700537D01*
X81351185Y-102621185D01*
X81430537Y-102524494D01*
X81489502Y-102414180D01*
X81525812Y-102294482D01*
X81538072Y-102170000D01*
X118461928Y-102170000D01*
X118474188Y-102294482D01*
X118510498Y-102414180D01*
X118569463Y-102524494D01*
X118648815Y-102621185D01*
X118745506Y-102700537D01*
X118855820Y-102759502D01*
X118975518Y-102795812D01*
X119100000Y-102808072D01*
X119714250Y-102805000D01*
X119873000Y-102646250D01*
X119873000Y-101397000D01*
X120127000Y-101397000D01*
X120127000Y-102646250D01*
X120285750Y-102805000D01*
X120900000Y-102808072D01*
X121024482Y-102795812D01*
X121144180Y-102759502D01*
X121254494Y-102700537D01*
X121351185Y-102621185D01*
X121430537Y-102524494D01*
X121489502Y-102414180D01*
X121525812Y-102294482D01*
X121538072Y-102170000D01*
X121535000Y-101555750D01*
X121376250Y-101397000D01*
X120127000Y-101397000D01*
X119873000Y-101397000D01*
X118623750Y-101397000D01*
X118465000Y-101555750D01*
X118461928Y-102170000D01*
X81538072Y-102170000D01*
X81535000Y-101555750D01*
X81376250Y-101397000D01*
X80127000Y-101397000D01*
X79873000Y-101397000D01*
X78623750Y-101397000D01*
X78465000Y-101555750D01*
X78461928Y-102170000D01*
X77285000Y-102170000D01*
X77285000Y-91977237D01*
X78342221Y-90920017D01*
X78371219Y-90896219D01*
X78395022Y-90867215D01*
X80893130Y-88369108D01*
X80908257Y-88373697D01*
X81079073Y-88390521D01*
X81249889Y-88373697D01*
X81414140Y-88323872D01*
X81565515Y-88242961D01*
X81698196Y-88134072D01*
X82034072Y-87798196D01*
X82142961Y-87665515D01*
X82223872Y-87514140D01*
X82273697Y-87349889D01*
X82290521Y-87179073D01*
X82273697Y-87008257D01*
X82223872Y-86844006D01*
X82142961Y-86692631D01*
X82121337Y-86666282D01*
X89231267Y-86666282D01*
X89215000Y-86748061D01*
X89215000Y-86810198D01*
X81439007Y-94586192D01*
X81438996Y-94586201D01*
X79488998Y-96536201D01*
X79460000Y-96559999D01*
X79436202Y-96588997D01*
X79436201Y-96588998D01*
X79365026Y-96675724D01*
X79294454Y-96807754D01*
X79273468Y-96876939D01*
X79250998Y-96951014D01*
X79250495Y-96956121D01*
X79236324Y-97100000D01*
X79240001Y-97137332D01*
X79240001Y-97391687D01*
X79021495Y-97537688D01*
X78807688Y-97751495D01*
X78639701Y-98002905D01*
X78523989Y-98282257D01*
X78465000Y-98578816D01*
X78465000Y-98881184D01*
X78523989Y-99177743D01*
X78639701Y-99457095D01*
X78807688Y-99708505D01*
X78874127Y-99774944D01*
X78855820Y-99780498D01*
X78745506Y-99839463D01*
X78648815Y-99918815D01*
X78569463Y-100015506D01*
X78510498Y-100125820D01*
X78474188Y-100245518D01*
X78461928Y-100370000D01*
X78465000Y-100984250D01*
X78623750Y-101143000D01*
X79873000Y-101143000D01*
X79873000Y-101123000D01*
X80127000Y-101123000D01*
X80127000Y-101143000D01*
X81376250Y-101143000D01*
X81535000Y-100984250D01*
X81538072Y-100370000D01*
X81525812Y-100245518D01*
X81489502Y-100125820D01*
X81430537Y-100015506D01*
X81351185Y-99918815D01*
X81254494Y-99839463D01*
X81207501Y-99814344D01*
X90615000Y-99814344D01*
X90615000Y-100185656D01*
X90687439Y-100549834D01*
X90829534Y-100892882D01*
X91035825Y-101201618D01*
X91298382Y-101464175D01*
X91607118Y-101670466D01*
X91950166Y-101812561D01*
X92314344Y-101885000D01*
X92685656Y-101885000D01*
X93049834Y-101812561D01*
X93392882Y-101670466D01*
X93701618Y-101464175D01*
X93915793Y-101250000D01*
X105611928Y-101250000D01*
X105624188Y-101374482D01*
X105660498Y-101494180D01*
X105719463Y-101604494D01*
X105798815Y-101701185D01*
X105895506Y-101780537D01*
X106005820Y-101839502D01*
X106125518Y-101875812D01*
X106250000Y-101888072D01*
X107214250Y-101885000D01*
X107373000Y-101726250D01*
X107373000Y-100127000D01*
X107627000Y-100127000D01*
X107627000Y-101726250D01*
X107785750Y-101885000D01*
X108750000Y-101888072D01*
X108874482Y-101875812D01*
X108994180Y-101839502D01*
X109104494Y-101780537D01*
X109201185Y-101701185D01*
X109280537Y-101604494D01*
X109339502Y-101494180D01*
X109375812Y-101374482D01*
X109388072Y-101250000D01*
X109385269Y-100370000D01*
X118461928Y-100370000D01*
X118465000Y-100984250D01*
X118623750Y-101143000D01*
X119873000Y-101143000D01*
X119873000Y-101123000D01*
X120127000Y-101123000D01*
X120127000Y-101143000D01*
X121376250Y-101143000D01*
X121535000Y-100984250D01*
X121538072Y-100370000D01*
X121525812Y-100245518D01*
X121489502Y-100125820D01*
X121430537Y-100015506D01*
X121351185Y-99918815D01*
X121254494Y-99839463D01*
X121144180Y-99780498D01*
X121125873Y-99774944D01*
X121192312Y-99708505D01*
X121360299Y-99457095D01*
X121476011Y-99177743D01*
X121535000Y-98881184D01*
X121535000Y-98578816D01*
X121476011Y-98282257D01*
X121360299Y-98002905D01*
X121192312Y-97751495D01*
X120978505Y-97537688D01*
X120760000Y-97391687D01*
X120760000Y-95903711D01*
X120778937Y-95884774D01*
X120892205Y-95715256D01*
X120970226Y-95526898D01*
X121010000Y-95326939D01*
X121010000Y-95123061D01*
X120970226Y-94923102D01*
X120892205Y-94734744D01*
X120778937Y-94565226D01*
X120634774Y-94421063D01*
X120465256Y-94307795D01*
X120276898Y-94229774D01*
X120076939Y-94190000D01*
X119873061Y-94190000D01*
X119673102Y-94229774D01*
X119484744Y-94307795D01*
X119315226Y-94421063D01*
X119171063Y-94565226D01*
X119057795Y-94734744D01*
X118979774Y-94923102D01*
X118940000Y-95123061D01*
X118940000Y-95326939D01*
X118979774Y-95526898D01*
X119057795Y-95715256D01*
X119171063Y-95884774D01*
X119240001Y-95953712D01*
X119240000Y-97391687D01*
X119021495Y-97537688D01*
X118807688Y-97751495D01*
X118639701Y-98002905D01*
X118523989Y-98282257D01*
X118465000Y-98578816D01*
X118465000Y-98881184D01*
X118523989Y-99177743D01*
X118639701Y-99457095D01*
X118807688Y-99708505D01*
X118874127Y-99774944D01*
X118855820Y-99780498D01*
X118745506Y-99839463D01*
X118648815Y-99918815D01*
X118569463Y-100015506D01*
X118510498Y-100125820D01*
X118474188Y-100245518D01*
X118461928Y-100370000D01*
X109385269Y-100370000D01*
X109385000Y-100285750D01*
X109226250Y-100127000D01*
X107627000Y-100127000D01*
X107373000Y-100127000D01*
X105773750Y-100127000D01*
X105615000Y-100285750D01*
X105611928Y-101250000D01*
X93915793Y-101250000D01*
X93964175Y-101201618D01*
X94170466Y-100892882D01*
X94312561Y-100549834D01*
X94385000Y-100185656D01*
X94385000Y-99814344D01*
X94312561Y-99450166D01*
X94170466Y-99107118D01*
X93964175Y-98798382D01*
X93915793Y-98750000D01*
X105611928Y-98750000D01*
X105615000Y-99714250D01*
X105773750Y-99873000D01*
X107373000Y-99873000D01*
X107373000Y-98273750D01*
X107627000Y-98273750D01*
X107627000Y-99873000D01*
X109226250Y-99873000D01*
X109385000Y-99714250D01*
X109388072Y-98750000D01*
X109375812Y-98625518D01*
X109339502Y-98505820D01*
X109280537Y-98395506D01*
X109201185Y-98298815D01*
X109104494Y-98219463D01*
X108994180Y-98160498D01*
X108874482Y-98124188D01*
X108750000Y-98111928D01*
X107785750Y-98115000D01*
X107627000Y-98273750D01*
X107373000Y-98273750D01*
X107214250Y-98115000D01*
X106250000Y-98111928D01*
X106125518Y-98124188D01*
X106005820Y-98160498D01*
X105895506Y-98219463D01*
X105798815Y-98298815D01*
X105719463Y-98395506D01*
X105660498Y-98505820D01*
X105624188Y-98625518D01*
X105611928Y-98750000D01*
X93915793Y-98750000D01*
X93701618Y-98535825D01*
X93392882Y-98329534D01*
X93260000Y-98274493D01*
X93260000Y-97478711D01*
X93303937Y-97434774D01*
X93417205Y-97265256D01*
X93495226Y-97076898D01*
X93535000Y-96876939D01*
X93535000Y-96673061D01*
X93518280Y-96589000D01*
X98276928Y-96589000D01*
X98289188Y-96713482D01*
X98325498Y-96833180D01*
X98384463Y-96943494D01*
X98463815Y-97040185D01*
X98560506Y-97119537D01*
X98670820Y-97178502D01*
X98790518Y-97214812D01*
X98915000Y-97227072D01*
X99714250Y-97224000D01*
X99873000Y-97065250D01*
X99873000Y-95631000D01*
X100127000Y-95631000D01*
X100127000Y-97065250D01*
X100285750Y-97224000D01*
X101085000Y-97227072D01*
X101209482Y-97214812D01*
X101329180Y-97178502D01*
X101439494Y-97119537D01*
X101536185Y-97040185D01*
X101615537Y-96943494D01*
X101674502Y-96833180D01*
X101710812Y-96713482D01*
X101723072Y-96589000D01*
X101720000Y-95789750D01*
X101561250Y-95631000D01*
X100127000Y-95631000D01*
X99873000Y-95631000D01*
X98438750Y-95631000D01*
X98280000Y-95789750D01*
X98276928Y-96589000D01*
X93518280Y-96589000D01*
X93495226Y-96473102D01*
X93417205Y-96284744D01*
X93303937Y-96115226D01*
X93159774Y-95971063D01*
X92990256Y-95857795D01*
X92801898Y-95779774D01*
X92601939Y-95740000D01*
X92398061Y-95740000D01*
X92198102Y-95779774D01*
X92009744Y-95857795D01*
X91840226Y-95971063D01*
X91696063Y-96115226D01*
X91582795Y-96284744D01*
X91504774Y-96473102D01*
X91465000Y-96673061D01*
X91465000Y-96876939D01*
X91504774Y-97076898D01*
X91582795Y-97265256D01*
X91696063Y-97434774D01*
X91740001Y-97478712D01*
X91740001Y-98274492D01*
X91607118Y-98329534D01*
X91298382Y-98535825D01*
X91035825Y-98798382D01*
X90829534Y-99107118D01*
X90687439Y-99450166D01*
X90615000Y-99814344D01*
X81207501Y-99814344D01*
X81144180Y-99780498D01*
X81125873Y-99774944D01*
X81192312Y-99708505D01*
X81360299Y-99457095D01*
X81476011Y-99177743D01*
X81535000Y-98881184D01*
X81535000Y-98578816D01*
X81476011Y-98282257D01*
X81360299Y-98002905D01*
X81192312Y-97751495D01*
X80978505Y-97537688D01*
X80773856Y-97400946D01*
X82513799Y-95661004D01*
X82513808Y-95660993D01*
X83755801Y-94419000D01*
X98276928Y-94419000D01*
X98280000Y-95218250D01*
X98438750Y-95377000D01*
X99873000Y-95377000D01*
X99873000Y-93942750D01*
X100127000Y-93942750D01*
X100127000Y-95377000D01*
X101561250Y-95377000D01*
X101720000Y-95218250D01*
X101723072Y-94419000D01*
X101710812Y-94294518D01*
X101674502Y-94174820D01*
X101615537Y-94064506D01*
X101536185Y-93967815D01*
X101439494Y-93888463D01*
X101329180Y-93829498D01*
X101209482Y-93793188D01*
X101085000Y-93780928D01*
X100285750Y-93784000D01*
X100127000Y-93942750D01*
X99873000Y-93942750D01*
X99714250Y-93784000D01*
X98915000Y-93780928D01*
X98790518Y-93793188D01*
X98670820Y-93829498D01*
X98560506Y-93888463D01*
X98463815Y-93967815D01*
X98384463Y-94064506D01*
X98325498Y-94174820D01*
X98289188Y-94294518D01*
X98276928Y-94419000D01*
X83755801Y-94419000D01*
X90289802Y-87885000D01*
X90351939Y-87885000D01*
X90551898Y-87845226D01*
X90740256Y-87767205D01*
X90909774Y-87653937D01*
X91053937Y-87509774D01*
X91167205Y-87340256D01*
X91245226Y-87151898D01*
X91285000Y-86951939D01*
X91285000Y-86748061D01*
X91268733Y-86666282D01*
X114333092Y-86666282D01*
X114421525Y-86798632D01*
X114628368Y-87005475D01*
X114871589Y-87167990D01*
X115141842Y-87279932D01*
X115428740Y-87337000D01*
X115721260Y-87337000D01*
X116008158Y-87279932D01*
X116278411Y-87167990D01*
X116521632Y-87005475D01*
X116728475Y-86798632D01*
X116846100Y-86622594D01*
X117017412Y-86852269D01*
X117233645Y-87047178D01*
X117483748Y-87196157D01*
X117758109Y-87293481D01*
X117988000Y-87172814D01*
X117988000Y-85979000D01*
X118242000Y-85979000D01*
X118242000Y-87172814D01*
X118471891Y-87293481D01*
X118746252Y-87196157D01*
X118996355Y-87047178D01*
X119212588Y-86852269D01*
X119386641Y-86618920D01*
X119511825Y-86356099D01*
X119556476Y-86208890D01*
X119435155Y-85979000D01*
X118242000Y-85979000D01*
X117988000Y-85979000D01*
X117968000Y-85979000D01*
X117968000Y-85725000D01*
X117988000Y-85725000D01*
X117988000Y-85705000D01*
X118242000Y-85705000D01*
X118242000Y-85725000D01*
X119435155Y-85725000D01*
X119556476Y-85495110D01*
X119511825Y-85347901D01*
X119386641Y-85085080D01*
X119212588Y-84851731D01*
X118996355Y-84656822D01*
X118879466Y-84587195D01*
X119061632Y-84465475D01*
X119268475Y-84258632D01*
X119430990Y-84015411D01*
X119542932Y-83745158D01*
X119600000Y-83458260D01*
X119600000Y-83165740D01*
X119542932Y-82878842D01*
X119430990Y-82608589D01*
X119268475Y-82365368D01*
X119061632Y-82158525D01*
X118887240Y-82042000D01*
X119061632Y-81925475D01*
X119268475Y-81718632D01*
X119430990Y-81475411D01*
X119542932Y-81205158D01*
X119600000Y-80918260D01*
X119600000Y-80625740D01*
X119542932Y-80338842D01*
X119430990Y-80068589D01*
X119268475Y-79825368D01*
X119061632Y-79618525D01*
X118875000Y-79493822D01*
X118875000Y-79227322D01*
X118878676Y-79189999D01*
X118875000Y-79152677D01*
X118875000Y-79152667D01*
X118864003Y-79041014D01*
X118820546Y-78897753D01*
X118792057Y-78844454D01*
X118749974Y-78765723D01*
X118678799Y-78678997D01*
X118655001Y-78649999D01*
X118626002Y-78626200D01*
X118013803Y-78014002D01*
X117990001Y-77984999D01*
X117874276Y-77890026D01*
X117742247Y-77819454D01*
X117598986Y-77775997D01*
X117487333Y-77765000D01*
X117487322Y-77765000D01*
X117450000Y-77761324D01*
X117412678Y-77765000D01*
X86564802Y-77765000D01*
X85838804Y-77039002D01*
X85815001Y-77009999D01*
X85699276Y-76915026D01*
X85567247Y-76844454D01*
X85423986Y-76800997D01*
X85312333Y-76790000D01*
X85312322Y-76790000D01*
X85275000Y-76786324D01*
X85237678Y-76790000D01*
X83137333Y-76790000D01*
X83100000Y-76786323D01*
X83062667Y-76790000D01*
X82951014Y-76800997D01*
X82807753Y-76844454D01*
X82675724Y-76915026D01*
X82559999Y-77009999D01*
X82536201Y-77038997D01*
X77314003Y-82261196D01*
X77284999Y-82284999D01*
X77232624Y-82348819D01*
X77190026Y-82400724D01*
X77153003Y-82469989D01*
X77119454Y-82532754D01*
X77075997Y-82676015D01*
X77065000Y-82787668D01*
X77065000Y-82787678D01*
X77061324Y-82825000D01*
X77065000Y-82862323D01*
X77065001Y-88237658D01*
X77065000Y-88237668D01*
X77065001Y-90047633D01*
X76013998Y-91098637D01*
X75985000Y-91122435D01*
X75961202Y-91151433D01*
X75961201Y-91151434D01*
X75890026Y-91238160D01*
X75819454Y-91370190D01*
X75790619Y-91465250D01*
X75776775Y-91510891D01*
X75775998Y-91513451D01*
X75761324Y-91662436D01*
X70406856Y-91662436D01*
X70830959Y-90232012D01*
X71583388Y-88221091D01*
X72474270Y-86267531D01*
X73499250Y-84380883D01*
X74653329Y-82570346D01*
X75930919Y-80844692D01*
X77325746Y-79212389D01*
X78831050Y-77681352D01*
X80439488Y-76259046D01*
X81562129Y-75398061D01*
X95615000Y-75398061D01*
X95615000Y-75601939D01*
X95654774Y-75801898D01*
X95732795Y-75990256D01*
X95846063Y-76159774D01*
X95990226Y-76303937D01*
X96159744Y-76417205D01*
X96348102Y-76495226D01*
X96548061Y-76535000D01*
X96751939Y-76535000D01*
X96951898Y-76495226D01*
X97140256Y-76417205D01*
X97309774Y-76303937D01*
X97349711Y-76264000D01*
X98274493Y-76264000D01*
X98329534Y-76396882D01*
X98535825Y-76705618D01*
X98798382Y-76968175D01*
X99107118Y-77174466D01*
X99450166Y-77316561D01*
X99814344Y-77389000D01*
X100185656Y-77389000D01*
X100549834Y-77316561D01*
X100892882Y-77174466D01*
X101201618Y-76968175D01*
X101464175Y-76705618D01*
X101670466Y-76396882D01*
X101812561Y-76053834D01*
X101885000Y-75689656D01*
X101885000Y-75318344D01*
X101812561Y-74954166D01*
X101670466Y-74611118D01*
X101464175Y-74302382D01*
X101201618Y-74039825D01*
X100892882Y-73833534D01*
X100549834Y-73691439D01*
X100185656Y-73619000D01*
X99814344Y-73619000D01*
X99450166Y-73691439D01*
X99107118Y-73833534D01*
X98798382Y-74039825D01*
X98535825Y-74302382D01*
X98329534Y-74611118D01*
X98274493Y-74744000D01*
X97357711Y-74744000D01*
X97309774Y-74696063D01*
X97140256Y-74582795D01*
X96951898Y-74504774D01*
X96751939Y-74465000D01*
X96548061Y-74465000D01*
X96348102Y-74504774D01*
X96159744Y-74582795D01*
X95990226Y-74696063D01*
X95846063Y-74840226D01*
X95732795Y-75009744D01*
X95654774Y-75198102D01*
X95615000Y-75398061D01*
X81562129Y-75398061D01*
X82143227Y-74952401D01*
X83936425Y-73766158D01*
X85320668Y-72966965D01*
X85368450Y-72941425D01*
X85468948Y-72858948D01*
X85551425Y-72758450D01*
X85612710Y-72643793D01*
X85650450Y-72519383D01*
X85660000Y-72422419D01*
X85660000Y-72390029D01*
X85660001Y-72390000D01*
X85660000Y-72389971D01*
X85660000Y-67425000D01*
X87844993Y-67425000D01*
X87924830Y-68235602D01*
X88161274Y-69015052D01*
X88545238Y-69733398D01*
X89061966Y-70363034D01*
X89691602Y-70879762D01*
X90409948Y-71263726D01*
X91189398Y-71500170D01*
X91796865Y-71560000D01*
X108203135Y-71560000D01*
X108810602Y-71500170D01*
X109590052Y-71263726D01*
X110308398Y-70879762D01*
X110938034Y-70363034D01*
X111454762Y-69733398D01*
X111838726Y-69015052D01*
X112075170Y-68235602D01*
X112155007Y-67425000D01*
X112075170Y-66614398D01*
X111838726Y-65834948D01*
X111454762Y-65116602D01*
X110938034Y-64486966D01*
X110308398Y-63970238D01*
X109590052Y-63586274D01*
X108810602Y-63349830D01*
X108203135Y-63290000D01*
X91796865Y-63290000D01*
X91189398Y-63349830D01*
X90409948Y-63586274D01*
X89691602Y-63970238D01*
X89061966Y-64486966D01*
X88545238Y-65116602D01*
X88161274Y-65834948D01*
X87924830Y-66614398D01*
X87844993Y-67425000D01*
X85660000Y-67425000D01*
X85660000Y-63051380D01*
X86273381Y-62438000D01*
X113726620Y-62438000D01*
X114340000Y-63051381D01*
G36*
X88396795Y-82233007D02*
G01*
X88396796Y-84019463D01*
X88393119Y-84056795D01*
X88396796Y-84094128D01*
X88407793Y-84205781D01*
X88415011Y-84229575D01*
X88451249Y-84349041D01*
X88521821Y-84481071D01*
X88580551Y-84552633D01*
X88616795Y-84596796D01*
X88645793Y-84620594D01*
X89086196Y-85060997D01*
X89109999Y-85090001D01*
X89178578Y-85146282D01*
X84203519Y-85146282D01*
X84353597Y-84996205D01*
X84359011Y-84993311D01*
X84465173Y-84906186D01*
X84717153Y-84654206D01*
X84721927Y-84650288D01*
X84725845Y-84645514D01*
X84836000Y-84535359D01*
X85206827Y-84906186D01*
X85312989Y-84993311D01*
X85434109Y-85058051D01*
X85565531Y-85097918D01*
X85702206Y-85111379D01*
X85838881Y-85097918D01*
X85970303Y-85058051D01*
X86091423Y-84993311D01*
X86197585Y-84906186D01*
X86285973Y-84817798D01*
X86373098Y-84711636D01*
X86398135Y-84664795D01*
X86444976Y-84639758D01*
X86551138Y-84552633D01*
X86639526Y-84464245D01*
X86726651Y-84358083D01*
X86737559Y-84337675D01*
X86751661Y-84330545D01*
X86834461Y-84264967D01*
X86834461Y-84073020D01*
X86837380Y-84043380D01*
X86867020Y-84040461D01*
X87058967Y-84040461D01*
X87124545Y-83957661D01*
X87131675Y-83943559D01*
X87152083Y-83932651D01*
X87258245Y-83845526D01*
X87346633Y-83757138D01*
X87433758Y-83650976D01*
X87458795Y-83604135D01*
X87505636Y-83579098D01*
X87611798Y-83491973D01*
X87700186Y-83403585D01*
X87787311Y-83297423D01*
X87852051Y-83176303D01*
X87891918Y-83044881D01*
X87905379Y-82908206D01*
X87891918Y-82771531D01*
X87852051Y-82640109D01*
X87787311Y-82518989D01*
X87700186Y-82412827D01*
X87329359Y-82042000D01*
X87700186Y-81671173D01*
X87720067Y-81646949D01*
X87739802Y-81627213D01*
X87791002Y-81627213D01*
X88396795Y-82233007D01*
G37*
X88396795Y-82233007D02*
X88396796Y-84019463D01*
X88393119Y-84056795D01*
X88396796Y-84094128D01*
X88407793Y-84205781D01*
X88415011Y-84229575D01*
X88451249Y-84349041D01*
X88521821Y-84481071D01*
X88580551Y-84552633D01*
X88616795Y-84596796D01*
X88645793Y-84620594D01*
X89086196Y-85060997D01*
X89109999Y-85090001D01*
X89178578Y-85146282D01*
X84203519Y-85146282D01*
X84353597Y-84996205D01*
X84359011Y-84993311D01*
X84465173Y-84906186D01*
X84717153Y-84654206D01*
X84721927Y-84650288D01*
X84725845Y-84645514D01*
X84836000Y-84535359D01*
X85206827Y-84906186D01*
X85312989Y-84993311D01*
X85434109Y-85058051D01*
X85565531Y-85097918D01*
X85702206Y-85111379D01*
X85838881Y-85097918D01*
X85970303Y-85058051D01*
X86091423Y-84993311D01*
X86197585Y-84906186D01*
X86285973Y-84817798D01*
X86373098Y-84711636D01*
X86398135Y-84664795D01*
X86444976Y-84639758D01*
X86551138Y-84552633D01*
X86639526Y-84464245D01*
X86726651Y-84358083D01*
X86737559Y-84337675D01*
X86751661Y-84330545D01*
X86834461Y-84264967D01*
X86834461Y-84073020D01*
X86837380Y-84043380D01*
X86867020Y-84040461D01*
X87058967Y-84040461D01*
X87124545Y-83957661D01*
X87131675Y-83943559D01*
X87152083Y-83932651D01*
X87258245Y-83845526D01*
X87346633Y-83757138D01*
X87433758Y-83650976D01*
X87458795Y-83604135D01*
X87505636Y-83579098D01*
X87611798Y-83491973D01*
X87700186Y-83403585D01*
X87787311Y-83297423D01*
X87852051Y-83176303D01*
X87891918Y-83044881D01*
X87905379Y-82908206D01*
X87891918Y-82771531D01*
X87852051Y-82640109D01*
X87787311Y-82518989D01*
X87700186Y-82412827D01*
X87329359Y-82042000D01*
X87700186Y-81671173D01*
X87720067Y-81646949D01*
X87739802Y-81627213D01*
X87791002Y-81627213D01*
X88396795Y-82233007D01*
G36*
X85029748Y-82027858D02*
G01*
X85015605Y-82042000D01*
X85029748Y-82056143D01*
X84850143Y-82235748D01*
X84836000Y-82221605D01*
X84821858Y-82235748D01*
X84642253Y-82056143D01*
X84656395Y-82042000D01*
X84642253Y-82027858D01*
X84821858Y-81848253D01*
X84836000Y-81862395D01*
X84850143Y-81848253D01*
X85029748Y-82027858D01*
G37*
X85029748Y-82027858D02*
X85015605Y-82042000D01*
X85029748Y-82056143D01*
X84850143Y-82235748D01*
X84836000Y-82221605D01*
X84821858Y-82235748D01*
X84642253Y-82056143D01*
X84656395Y-82042000D01*
X84642253Y-82027858D01*
X84821858Y-81848253D01*
X84836000Y-81862395D01*
X84850143Y-81848253D01*
X85029748Y-82027858D01*
M02*
