G04 #@! TF.GenerationSoftware,KiCad,Pcbnew,(5.1.6)-1*
G04 #@! TF.CreationDate,2020-10-13T14:36:49-04:00*
G04 #@! TF.ProjectId,Ornament,4f726e61-6d65-46e7-942e-6b696361645f,rev?*
G04 #@! TF.SameCoordinates,Original*
G04 #@! TF.FileFunction,Soldermask,Bot*
G04 #@! TF.FilePolarity,Negative*
%FSLAX46Y46*%
G04 Gerber Fmt 4.6, Leading zero omitted, Abs format (unit mm)*
G04 Created by KiCad (PCBNEW (5.1.6)-1) date 2020-10-13 14:36:49*
%MOMM*%
%LPD*%
G01*
G04 APERTURE LIST*
%ADD10C,0.100000*%
G04 APERTURE END LIST*
D10*
G36*
X92474549Y-122121116D02*
G01*
X92585734Y-122143232D01*
X92795203Y-122229997D01*
X92983720Y-122355960D01*
X93144040Y-122516280D01*
X93270003Y-122704797D01*
X93356768Y-122914266D01*
X93401000Y-123136636D01*
X93401000Y-123363364D01*
X93356768Y-123585734D01*
X93270003Y-123795203D01*
X93144040Y-123983720D01*
X92983720Y-124144040D01*
X92795203Y-124270003D01*
X92585734Y-124356768D01*
X92474549Y-124378884D01*
X92363365Y-124401000D01*
X92136635Y-124401000D01*
X92025451Y-124378884D01*
X91914266Y-124356768D01*
X91704797Y-124270003D01*
X91516280Y-124144040D01*
X91355960Y-123983720D01*
X91229997Y-123795203D01*
X91143232Y-123585734D01*
X91099000Y-123363364D01*
X91099000Y-123136636D01*
X91143232Y-122914266D01*
X91229997Y-122704797D01*
X91355960Y-122516280D01*
X91516280Y-122355960D01*
X91704797Y-122229997D01*
X91914266Y-122143232D01*
X92025451Y-122121116D01*
X92136635Y-122099000D01*
X92363365Y-122099000D01*
X92474549Y-122121116D01*
G37*
G36*
X87974549Y-122121116D02*
G01*
X88085734Y-122143232D01*
X88295203Y-122229997D01*
X88483720Y-122355960D01*
X88644040Y-122516280D01*
X88770003Y-122704797D01*
X88856768Y-122914266D01*
X88901000Y-123136636D01*
X88901000Y-123363364D01*
X88856768Y-123585734D01*
X88770003Y-123795203D01*
X88644040Y-123983720D01*
X88483720Y-124144040D01*
X88295203Y-124270003D01*
X88085734Y-124356768D01*
X87974549Y-124378884D01*
X87863365Y-124401000D01*
X87636635Y-124401000D01*
X87525451Y-124378884D01*
X87414266Y-124356768D01*
X87204797Y-124270003D01*
X87016280Y-124144040D01*
X86855960Y-123983720D01*
X86729997Y-123795203D01*
X86643232Y-123585734D01*
X86599000Y-123363364D01*
X86599000Y-123136636D01*
X86643232Y-122914266D01*
X86729997Y-122704797D01*
X86855960Y-122516280D01*
X87016280Y-122355960D01*
X87204797Y-122229997D01*
X87414266Y-122143232D01*
X87525451Y-122121116D01*
X87636635Y-122099000D01*
X87863365Y-122099000D01*
X87974549Y-122121116D01*
G37*
G36*
X112474549Y-122121116D02*
G01*
X112585734Y-122143232D01*
X112795203Y-122229997D01*
X112983720Y-122355960D01*
X113144040Y-122516280D01*
X113270003Y-122704797D01*
X113356768Y-122914266D01*
X113401000Y-123136636D01*
X113401000Y-123363364D01*
X113356768Y-123585734D01*
X113270003Y-123795203D01*
X113144040Y-123983720D01*
X112983720Y-124144040D01*
X112795203Y-124270003D01*
X112585734Y-124356768D01*
X112474549Y-124378884D01*
X112363365Y-124401000D01*
X112136635Y-124401000D01*
X112025451Y-124378884D01*
X111914266Y-124356768D01*
X111704797Y-124270003D01*
X111516280Y-124144040D01*
X111355960Y-123983720D01*
X111229997Y-123795203D01*
X111143232Y-123585734D01*
X111099000Y-123363364D01*
X111099000Y-123136636D01*
X111143232Y-122914266D01*
X111229997Y-122704797D01*
X111355960Y-122516280D01*
X111516280Y-122355960D01*
X111704797Y-122229997D01*
X111914266Y-122143232D01*
X112025451Y-122121116D01*
X112136635Y-122099000D01*
X112363365Y-122099000D01*
X112474549Y-122121116D01*
G37*
G36*
X107974549Y-122121116D02*
G01*
X108085734Y-122143232D01*
X108295203Y-122229997D01*
X108483720Y-122355960D01*
X108644040Y-122516280D01*
X108770003Y-122704797D01*
X108856768Y-122914266D01*
X108901000Y-123136636D01*
X108901000Y-123363364D01*
X108856768Y-123585734D01*
X108770003Y-123795203D01*
X108644040Y-123983720D01*
X108483720Y-124144040D01*
X108295203Y-124270003D01*
X108085734Y-124356768D01*
X107974549Y-124378884D01*
X107863365Y-124401000D01*
X107636635Y-124401000D01*
X107525451Y-124378884D01*
X107414266Y-124356768D01*
X107204797Y-124270003D01*
X107016280Y-124144040D01*
X106855960Y-123983720D01*
X106729997Y-123795203D01*
X106643232Y-123585734D01*
X106599000Y-123363364D01*
X106599000Y-123136636D01*
X106643232Y-122914266D01*
X106729997Y-122704797D01*
X106855960Y-122516280D01*
X107016280Y-122355960D01*
X107204797Y-122229997D01*
X107414266Y-122143232D01*
X107525451Y-122121116D01*
X107636635Y-122099000D01*
X107863365Y-122099000D01*
X107974549Y-122121116D01*
G37*
G36*
X97633512Y-119103927D02*
G01*
X97782812Y-119133624D01*
X97946784Y-119201544D01*
X98094354Y-119300147D01*
X98219853Y-119425646D01*
X98318456Y-119573216D01*
X98386376Y-119737188D01*
X98421000Y-119911259D01*
X98421000Y-120088741D01*
X98386376Y-120262812D01*
X98318456Y-120426784D01*
X98219853Y-120574354D01*
X98094354Y-120699853D01*
X97946784Y-120798456D01*
X97782812Y-120866376D01*
X97633512Y-120896073D01*
X97608742Y-120901000D01*
X97431258Y-120901000D01*
X97406488Y-120896073D01*
X97257188Y-120866376D01*
X97093216Y-120798456D01*
X96945646Y-120699853D01*
X96820147Y-120574354D01*
X96721544Y-120426784D01*
X96653624Y-120262812D01*
X96619000Y-120088741D01*
X96619000Y-119911259D01*
X96653624Y-119737188D01*
X96721544Y-119573216D01*
X96820147Y-119425646D01*
X96945646Y-119300147D01*
X97093216Y-119201544D01*
X97257188Y-119133624D01*
X97406488Y-119103927D01*
X97431258Y-119099000D01*
X97608742Y-119099000D01*
X97633512Y-119103927D01*
G37*
G36*
X100173512Y-119103927D02*
G01*
X100322812Y-119133624D01*
X100486784Y-119201544D01*
X100634354Y-119300147D01*
X100759853Y-119425646D01*
X100858456Y-119573216D01*
X100926376Y-119737188D01*
X100961000Y-119911259D01*
X100961000Y-120088741D01*
X100926376Y-120262812D01*
X100858456Y-120426784D01*
X100759853Y-120574354D01*
X100634354Y-120699853D01*
X100486784Y-120798456D01*
X100322812Y-120866376D01*
X100173512Y-120896073D01*
X100148742Y-120901000D01*
X99971258Y-120901000D01*
X99946488Y-120896073D01*
X99797188Y-120866376D01*
X99633216Y-120798456D01*
X99485646Y-120699853D01*
X99360147Y-120574354D01*
X99261544Y-120426784D01*
X99193624Y-120262812D01*
X99159000Y-120088741D01*
X99159000Y-119911259D01*
X99193624Y-119737188D01*
X99261544Y-119573216D01*
X99360147Y-119425646D01*
X99485646Y-119300147D01*
X99633216Y-119201544D01*
X99797188Y-119133624D01*
X99946488Y-119103927D01*
X99971258Y-119099000D01*
X100148742Y-119099000D01*
X100173512Y-119103927D01*
G37*
G36*
X103501000Y-120901000D02*
G01*
X101699000Y-120901000D01*
X101699000Y-119099000D01*
X103501000Y-119099000D01*
X103501000Y-120901000D01*
G37*
G36*
X112474549Y-115621116D02*
G01*
X112585734Y-115643232D01*
X112795203Y-115729997D01*
X112983720Y-115855960D01*
X113144040Y-116016280D01*
X113270003Y-116204797D01*
X113356768Y-116414266D01*
X113401000Y-116636636D01*
X113401000Y-116863364D01*
X113356768Y-117085734D01*
X113270003Y-117295203D01*
X113144040Y-117483720D01*
X112983720Y-117644040D01*
X112795203Y-117770003D01*
X112585734Y-117856768D01*
X112474549Y-117878884D01*
X112363365Y-117901000D01*
X112136635Y-117901000D01*
X112025451Y-117878884D01*
X111914266Y-117856768D01*
X111704797Y-117770003D01*
X111516280Y-117644040D01*
X111355960Y-117483720D01*
X111229997Y-117295203D01*
X111143232Y-117085734D01*
X111099000Y-116863364D01*
X111099000Y-116636636D01*
X111143232Y-116414266D01*
X111229997Y-116204797D01*
X111355960Y-116016280D01*
X111516280Y-115855960D01*
X111704797Y-115729997D01*
X111914266Y-115643232D01*
X112025451Y-115621116D01*
X112136635Y-115599000D01*
X112363365Y-115599000D01*
X112474549Y-115621116D01*
G37*
G36*
X107974549Y-115621116D02*
G01*
X108085734Y-115643232D01*
X108295203Y-115729997D01*
X108483720Y-115855960D01*
X108644040Y-116016280D01*
X108770003Y-116204797D01*
X108856768Y-116414266D01*
X108901000Y-116636636D01*
X108901000Y-116863364D01*
X108856768Y-117085734D01*
X108770003Y-117295203D01*
X108644040Y-117483720D01*
X108483720Y-117644040D01*
X108295203Y-117770003D01*
X108085734Y-117856768D01*
X107974549Y-117878884D01*
X107863365Y-117901000D01*
X107636635Y-117901000D01*
X107525451Y-117878884D01*
X107414266Y-117856768D01*
X107204797Y-117770003D01*
X107016280Y-117644040D01*
X106855960Y-117483720D01*
X106729997Y-117295203D01*
X106643232Y-117085734D01*
X106599000Y-116863364D01*
X106599000Y-116636636D01*
X106643232Y-116414266D01*
X106729997Y-116204797D01*
X106855960Y-116016280D01*
X107016280Y-115855960D01*
X107204797Y-115729997D01*
X107414266Y-115643232D01*
X107525451Y-115621116D01*
X107636635Y-115599000D01*
X107863365Y-115599000D01*
X107974549Y-115621116D01*
G37*
G36*
X92474549Y-115621116D02*
G01*
X92585734Y-115643232D01*
X92795203Y-115729997D01*
X92983720Y-115855960D01*
X93144040Y-116016280D01*
X93270003Y-116204797D01*
X93356768Y-116414266D01*
X93401000Y-116636636D01*
X93401000Y-116863364D01*
X93356768Y-117085734D01*
X93270003Y-117295203D01*
X93144040Y-117483720D01*
X92983720Y-117644040D01*
X92795203Y-117770003D01*
X92585734Y-117856768D01*
X92474549Y-117878884D01*
X92363365Y-117901000D01*
X92136635Y-117901000D01*
X92025451Y-117878884D01*
X91914266Y-117856768D01*
X91704797Y-117770003D01*
X91516280Y-117644040D01*
X91355960Y-117483720D01*
X91229997Y-117295203D01*
X91143232Y-117085734D01*
X91099000Y-116863364D01*
X91099000Y-116636636D01*
X91143232Y-116414266D01*
X91229997Y-116204797D01*
X91355960Y-116016280D01*
X91516280Y-115855960D01*
X91704797Y-115729997D01*
X91914266Y-115643232D01*
X92025451Y-115621116D01*
X92136635Y-115599000D01*
X92363365Y-115599000D01*
X92474549Y-115621116D01*
G37*
G36*
X87974549Y-115621116D02*
G01*
X88085734Y-115643232D01*
X88295203Y-115729997D01*
X88483720Y-115855960D01*
X88644040Y-116016280D01*
X88770003Y-116204797D01*
X88856768Y-116414266D01*
X88901000Y-116636636D01*
X88901000Y-116863364D01*
X88856768Y-117085734D01*
X88770003Y-117295203D01*
X88644040Y-117483720D01*
X88483720Y-117644040D01*
X88295203Y-117770003D01*
X88085734Y-117856768D01*
X87974549Y-117878884D01*
X87863365Y-117901000D01*
X87636635Y-117901000D01*
X87525451Y-117878884D01*
X87414266Y-117856768D01*
X87204797Y-117770003D01*
X87016280Y-117644040D01*
X86855960Y-117483720D01*
X86729997Y-117295203D01*
X86643232Y-117085734D01*
X86599000Y-116863364D01*
X86599000Y-116636636D01*
X86643232Y-116414266D01*
X86729997Y-116204797D01*
X86855960Y-116016280D01*
X87016280Y-115855960D01*
X87204797Y-115729997D01*
X87414266Y-115643232D01*
X87525451Y-115621116D01*
X87636635Y-115599000D01*
X87863365Y-115599000D01*
X87974549Y-115621116D01*
G37*
G36*
X80951000Y-102221000D02*
G01*
X79049000Y-102221000D01*
X79049000Y-100319000D01*
X80951000Y-100319000D01*
X80951000Y-102221000D01*
G37*
G36*
X120951000Y-102221000D02*
G01*
X119049000Y-102221000D01*
X119049000Y-100319000D01*
X120951000Y-100319000D01*
X120951000Y-102221000D01*
G37*
G36*
X92879487Y-98748996D02*
G01*
X93059753Y-98823665D01*
X93116255Y-98847069D01*
X93329339Y-98989447D01*
X93510553Y-99170661D01*
X93621181Y-99336227D01*
X93652932Y-99383747D01*
X93751004Y-99620513D01*
X93801000Y-99871861D01*
X93801000Y-100128139D01*
X93751004Y-100379487D01*
X93652932Y-100616253D01*
X93652931Y-100616255D01*
X93510553Y-100829339D01*
X93329339Y-101010553D01*
X93116255Y-101152931D01*
X93116254Y-101152932D01*
X93116253Y-101152932D01*
X92879487Y-101251004D01*
X92628139Y-101301000D01*
X92371861Y-101301000D01*
X92120513Y-101251004D01*
X91883747Y-101152932D01*
X91883746Y-101152932D01*
X91883745Y-101152931D01*
X91670661Y-101010553D01*
X91489447Y-100829339D01*
X91347069Y-100616255D01*
X91347068Y-100616253D01*
X91248996Y-100379487D01*
X91199000Y-100128139D01*
X91199000Y-99871861D01*
X91248996Y-99620513D01*
X91347068Y-99383747D01*
X91378820Y-99336227D01*
X91489447Y-99170661D01*
X91670661Y-98989447D01*
X91883745Y-98847069D01*
X91940247Y-98823665D01*
X92120513Y-98748996D01*
X92371861Y-98699000D01*
X92628139Y-98699000D01*
X92879487Y-98748996D01*
G37*
G36*
X108801000Y-101301000D02*
G01*
X106199000Y-101301000D01*
X106199000Y-98699000D01*
X108801000Y-98699000D01*
X108801000Y-101301000D01*
G37*
G36*
X120277395Y-97815546D02*
G01*
X120450466Y-97887234D01*
X120450467Y-97887235D01*
X120606227Y-97991310D01*
X120738690Y-98123773D01*
X120738691Y-98123775D01*
X120842766Y-98279534D01*
X120914454Y-98452605D01*
X120951000Y-98636333D01*
X120951000Y-98823667D01*
X120914454Y-99007395D01*
X120842766Y-99180466D01*
X120842765Y-99180467D01*
X120738690Y-99336227D01*
X120606227Y-99468690D01*
X120527818Y-99521081D01*
X120450466Y-99572766D01*
X120277395Y-99644454D01*
X120093667Y-99681000D01*
X119906333Y-99681000D01*
X119722605Y-99644454D01*
X119549534Y-99572766D01*
X119472182Y-99521081D01*
X119393773Y-99468690D01*
X119261310Y-99336227D01*
X119157235Y-99180467D01*
X119157234Y-99180466D01*
X119085546Y-99007395D01*
X119049000Y-98823667D01*
X119049000Y-98636333D01*
X119085546Y-98452605D01*
X119157234Y-98279534D01*
X119261309Y-98123775D01*
X119261310Y-98123773D01*
X119393773Y-97991310D01*
X119549533Y-97887235D01*
X119549534Y-97887234D01*
X119722605Y-97815546D01*
X119906333Y-97779000D01*
X120093667Y-97779000D01*
X120277395Y-97815546D01*
G37*
G36*
X80277395Y-97815546D02*
G01*
X80450466Y-97887234D01*
X80450467Y-97887235D01*
X80606227Y-97991310D01*
X80738690Y-98123773D01*
X80738691Y-98123775D01*
X80842766Y-98279534D01*
X80914454Y-98452605D01*
X80951000Y-98636333D01*
X80951000Y-98823667D01*
X80914454Y-99007395D01*
X80842766Y-99180466D01*
X80842765Y-99180467D01*
X80738690Y-99336227D01*
X80606227Y-99468690D01*
X80527818Y-99521081D01*
X80450466Y-99572766D01*
X80277395Y-99644454D01*
X80093667Y-99681000D01*
X79906333Y-99681000D01*
X79722605Y-99644454D01*
X79549534Y-99572766D01*
X79472182Y-99521081D01*
X79393773Y-99468690D01*
X79261310Y-99336227D01*
X79157235Y-99180467D01*
X79157234Y-99180466D01*
X79085546Y-99007395D01*
X79049000Y-98823667D01*
X79049000Y-98636333D01*
X79085546Y-98452605D01*
X79157234Y-98279534D01*
X79261309Y-98123775D01*
X79261310Y-98123773D01*
X79393773Y-97991310D01*
X79549533Y-97887235D01*
X79549534Y-97887234D01*
X79722605Y-97815546D01*
X79906333Y-97779000D01*
X80093667Y-97779000D01*
X80277395Y-97815546D01*
G37*
G36*
X101136000Y-96640000D02*
G01*
X98864000Y-96640000D01*
X98864000Y-94368000D01*
X101136000Y-94368000D01*
X101136000Y-96640000D01*
G37*
G36*
X118228512Y-84955927D02*
G01*
X118377812Y-84985624D01*
X118541784Y-85053544D01*
X118689354Y-85152147D01*
X118814853Y-85277646D01*
X118913456Y-85425216D01*
X118981376Y-85589188D01*
X119016000Y-85763259D01*
X119016000Y-85940741D01*
X118981376Y-86114812D01*
X118913456Y-86278784D01*
X118814853Y-86426354D01*
X118689354Y-86551853D01*
X118541784Y-86650456D01*
X118377812Y-86718376D01*
X118228512Y-86748073D01*
X118203742Y-86753000D01*
X118026258Y-86753000D01*
X118001488Y-86748073D01*
X117852188Y-86718376D01*
X117688216Y-86650456D01*
X117540646Y-86551853D01*
X117415147Y-86426354D01*
X117316544Y-86278784D01*
X117248624Y-86114812D01*
X117214000Y-85940741D01*
X117214000Y-85763259D01*
X117248624Y-85589188D01*
X117316544Y-85425216D01*
X117415147Y-85277646D01*
X117540646Y-85152147D01*
X117688216Y-85053544D01*
X117852188Y-84985624D01*
X118001488Y-84955927D01*
X118026258Y-84951000D01*
X118203742Y-84951000D01*
X118228512Y-84955927D01*
G37*
G36*
X115688512Y-84955927D02*
G01*
X115837812Y-84985624D01*
X116001784Y-85053544D01*
X116149354Y-85152147D01*
X116274853Y-85277646D01*
X116373456Y-85425216D01*
X116441376Y-85589188D01*
X116476000Y-85763259D01*
X116476000Y-85940741D01*
X116441376Y-86114812D01*
X116373456Y-86278784D01*
X116274853Y-86426354D01*
X116149354Y-86551853D01*
X116001784Y-86650456D01*
X115837812Y-86718376D01*
X115688512Y-86748073D01*
X115663742Y-86753000D01*
X115486258Y-86753000D01*
X115461488Y-86748073D01*
X115312188Y-86718376D01*
X115148216Y-86650456D01*
X115000646Y-86551853D01*
X114875147Y-86426354D01*
X114776544Y-86278784D01*
X114708624Y-86114812D01*
X114674000Y-85940741D01*
X114674000Y-85763259D01*
X114708624Y-85589188D01*
X114776544Y-85425216D01*
X114875147Y-85277646D01*
X115000646Y-85152147D01*
X115148216Y-85053544D01*
X115312188Y-84985624D01*
X115461488Y-84955927D01*
X115486258Y-84951000D01*
X115663742Y-84951000D01*
X115688512Y-84955927D01*
G37*
G36*
X118228512Y-82415927D02*
G01*
X118377812Y-82445624D01*
X118541784Y-82513544D01*
X118689354Y-82612147D01*
X118814853Y-82737646D01*
X118913456Y-82885216D01*
X118981376Y-83049188D01*
X119016000Y-83223259D01*
X119016000Y-83400741D01*
X118981376Y-83574812D01*
X118913456Y-83738784D01*
X118814853Y-83886354D01*
X118689354Y-84011853D01*
X118541784Y-84110456D01*
X118377812Y-84178376D01*
X118228512Y-84208073D01*
X118203742Y-84213000D01*
X118026258Y-84213000D01*
X118001488Y-84208073D01*
X117852188Y-84178376D01*
X117688216Y-84110456D01*
X117540646Y-84011853D01*
X117415147Y-83886354D01*
X117316544Y-83738784D01*
X117248624Y-83574812D01*
X117214000Y-83400741D01*
X117214000Y-83223259D01*
X117248624Y-83049188D01*
X117316544Y-82885216D01*
X117415147Y-82737646D01*
X117540646Y-82612147D01*
X117688216Y-82513544D01*
X117852188Y-82445624D01*
X118001488Y-82415927D01*
X118026258Y-82411000D01*
X118203742Y-82411000D01*
X118228512Y-82415927D01*
G37*
G36*
X115688512Y-82415927D02*
G01*
X115837812Y-82445624D01*
X116001784Y-82513544D01*
X116149354Y-82612147D01*
X116274853Y-82737646D01*
X116373456Y-82885216D01*
X116441376Y-83049188D01*
X116476000Y-83223259D01*
X116476000Y-83400741D01*
X116441376Y-83574812D01*
X116373456Y-83738784D01*
X116274853Y-83886354D01*
X116149354Y-84011853D01*
X116001784Y-84110456D01*
X115837812Y-84178376D01*
X115688512Y-84208073D01*
X115663742Y-84213000D01*
X115486258Y-84213000D01*
X115461488Y-84208073D01*
X115312188Y-84178376D01*
X115148216Y-84110456D01*
X115000646Y-84011853D01*
X114875147Y-83886354D01*
X114776544Y-83738784D01*
X114708624Y-83574812D01*
X114674000Y-83400741D01*
X114674000Y-83223259D01*
X114708624Y-83049188D01*
X114776544Y-82885216D01*
X114875147Y-82737646D01*
X115000646Y-82612147D01*
X115148216Y-82513544D01*
X115312188Y-82445624D01*
X115461488Y-82415927D01*
X115486258Y-82411000D01*
X115663742Y-82411000D01*
X115688512Y-82415927D01*
G37*
G36*
X116476000Y-81673000D02*
G01*
X114674000Y-81673000D01*
X114674000Y-79871000D01*
X116476000Y-79871000D01*
X116476000Y-81673000D01*
G37*
G36*
X118228512Y-79875927D02*
G01*
X118377812Y-79905624D01*
X118541784Y-79973544D01*
X118689354Y-80072147D01*
X118814853Y-80197646D01*
X118913456Y-80345216D01*
X118981376Y-80509188D01*
X119016000Y-80683259D01*
X119016000Y-80860741D01*
X118981376Y-81034812D01*
X118913456Y-81198784D01*
X118814853Y-81346354D01*
X118689354Y-81471853D01*
X118541784Y-81570456D01*
X118377812Y-81638376D01*
X118228512Y-81668073D01*
X118203742Y-81673000D01*
X118026258Y-81673000D01*
X118001488Y-81668073D01*
X117852188Y-81638376D01*
X117688216Y-81570456D01*
X117540646Y-81471853D01*
X117415147Y-81346354D01*
X117316544Y-81198784D01*
X117248624Y-81034812D01*
X117214000Y-80860741D01*
X117214000Y-80683259D01*
X117248624Y-80509188D01*
X117316544Y-80345216D01*
X117415147Y-80197646D01*
X117540646Y-80072147D01*
X117688216Y-79973544D01*
X117852188Y-79905624D01*
X118001488Y-79875927D01*
X118026258Y-79871000D01*
X118203742Y-79871000D01*
X118228512Y-79875927D01*
G37*
G36*
X100379487Y-74252996D02*
G01*
X100616253Y-74351068D01*
X100616255Y-74351069D01*
X100829339Y-74493447D01*
X101010553Y-74674661D01*
X101152932Y-74887747D01*
X101251004Y-75124513D01*
X101301000Y-75375861D01*
X101301000Y-75632139D01*
X101251004Y-75883487D01*
X101152932Y-76120253D01*
X101152931Y-76120255D01*
X101010553Y-76333339D01*
X100829339Y-76514553D01*
X100616255Y-76656931D01*
X100616254Y-76656932D01*
X100616253Y-76656932D01*
X100379487Y-76755004D01*
X100128139Y-76805000D01*
X99871861Y-76805000D01*
X99620513Y-76755004D01*
X99383747Y-76656932D01*
X99383746Y-76656932D01*
X99383745Y-76656931D01*
X99170661Y-76514553D01*
X98989447Y-76333339D01*
X98847069Y-76120255D01*
X98847068Y-76120253D01*
X98748996Y-75883487D01*
X98699000Y-75632139D01*
X98699000Y-75375861D01*
X98748996Y-75124513D01*
X98847068Y-74887747D01*
X98989447Y-74674661D01*
X99170661Y-74493447D01*
X99383745Y-74351069D01*
X99383747Y-74351068D01*
X99620513Y-74252996D01*
X99871861Y-74203000D01*
X100128139Y-74203000D01*
X100379487Y-74252996D01*
G37*
G36*
X108696116Y-63925380D02*
G01*
X109030801Y-64026906D01*
X109365484Y-64128431D01*
X109365486Y-64128432D01*
X109982375Y-64458165D01*
X110523085Y-64901915D01*
X110966835Y-65442625D01*
X111296568Y-66059514D01*
X111499620Y-66728884D01*
X111568181Y-67425000D01*
X111499620Y-68121116D01*
X111296568Y-68790486D01*
X110966835Y-69407375D01*
X110523085Y-69948085D01*
X109982375Y-70391835D01*
X109365486Y-70721568D01*
X109365484Y-70721569D01*
X109030801Y-70823094D01*
X108696116Y-70924620D01*
X108174444Y-70976000D01*
X91825556Y-70976000D01*
X91303884Y-70924620D01*
X90969199Y-70823094D01*
X90634516Y-70721569D01*
X90634514Y-70721568D01*
X90017625Y-70391835D01*
X89476915Y-69948085D01*
X89033165Y-69407375D01*
X88703432Y-68790486D01*
X88500380Y-68121116D01*
X88431819Y-67425000D01*
X88500380Y-66728884D01*
X88703432Y-66059514D01*
X89033165Y-65442625D01*
X89476915Y-64901915D01*
X90017625Y-64458165D01*
X90634514Y-64128432D01*
X90634516Y-64128431D01*
X90969199Y-64026906D01*
X91303884Y-63925380D01*
X91825556Y-63874000D01*
X108174444Y-63874000D01*
X108696116Y-63925380D01*
G37*
M02*
