G04 #@! TF.GenerationSoftware,KiCad,Pcbnew,(5.1.6)-1*
G04 #@! TF.CreationDate,2020-10-13T14:36:48-04:00*
G04 #@! TF.ProjectId,Ornament,4f726e61-6d65-46e7-942e-6b696361645f,rev?*
G04 #@! TF.SameCoordinates,Original*
G04 #@! TF.FileFunction,Paste,Top*
G04 #@! TF.FilePolarity,Positive*
%FSLAX46Y46*%
G04 Gerber Fmt 4.6, Leading zero omitted, Abs format (unit mm)*
G04 Created by KiCad (PCBNEW (5.1.6)-1) date 2020-10-13 14:36:48*
%MOMM*%
%LPD*%
G01*
G04 APERTURE LIST*
G04 APERTURE END LIST*
G36*
G01*
X82511387Y-83040789D02*
X82422999Y-82952400D01*
G75*
G02*
X82422999Y-82864012I44194J44194D01*
G01*
X82935651Y-82351360D01*
G75*
G02*
X83024039Y-82351360I44194J-44194D01*
G01*
X83112427Y-82439748D01*
G75*
G02*
X83112427Y-82528136I-44194J-44194D01*
G01*
X82599775Y-83040788D01*
G75*
G02*
X82511387Y-83040788I-44194J44194D01*
G01*
G37*
G36*
G01*
X82864940Y-83394342D02*
X82776552Y-83305953D01*
G75*
G02*
X82776552Y-83217565I44194J44194D01*
G01*
X83289204Y-82704913D01*
G75*
G02*
X83377592Y-82704913I44194J-44194D01*
G01*
X83465980Y-82793301D01*
G75*
G02*
X83465980Y-82881689I-44194J-44194D01*
G01*
X82953328Y-83394341D01*
G75*
G02*
X82864940Y-83394341I-44194J44194D01*
G01*
G37*
G36*
G01*
X83218493Y-83747896D02*
X83130105Y-83659507D01*
G75*
G02*
X83130105Y-83571119I44194J44194D01*
G01*
X83642757Y-83058467D01*
G75*
G02*
X83731145Y-83058467I44194J-44194D01*
G01*
X83819533Y-83146855D01*
G75*
G02*
X83819533Y-83235243I-44194J-44194D01*
G01*
X83306881Y-83747895D01*
G75*
G02*
X83218493Y-83747895I-44194J44194D01*
G01*
G37*
G36*
G01*
X83572047Y-84101449D02*
X83483659Y-84013060D01*
G75*
G02*
X83483659Y-83924672I44194J44194D01*
G01*
X83996311Y-83412020D01*
G75*
G02*
X84084699Y-83412020I44194J-44194D01*
G01*
X84173087Y-83500408D01*
G75*
G02*
X84173087Y-83588796I-44194J-44194D01*
G01*
X83660435Y-84101448D01*
G75*
G02*
X83572047Y-84101448I-44194J44194D01*
G01*
G37*
G36*
G01*
X83925600Y-84455002D02*
X83837212Y-84366613D01*
G75*
G02*
X83837212Y-84278225I44194J44194D01*
G01*
X84349864Y-83765573D01*
G75*
G02*
X84438252Y-83765573I44194J-44194D01*
G01*
X84526640Y-83853961D01*
G75*
G02*
X84526640Y-83942349I-44194J-44194D01*
G01*
X84013988Y-84455001D01*
G75*
G02*
X83925600Y-84455001I-44194J44194D01*
G01*
G37*
G36*
G01*
X85658012Y-84455002D02*
X85145360Y-83942349D01*
G75*
G02*
X85145360Y-83853961I44194J44194D01*
G01*
X85233748Y-83765573D01*
G75*
G02*
X85322136Y-83765573I44194J-44194D01*
G01*
X85834788Y-84278225D01*
G75*
G02*
X85834788Y-84366613I-44194J-44194D01*
G01*
X85746400Y-84455001D01*
G75*
G02*
X85658012Y-84455001I-44194J44194D01*
G01*
G37*
G36*
G01*
X86011565Y-84101449D02*
X85498913Y-83588796D01*
G75*
G02*
X85498913Y-83500408I44194J44194D01*
G01*
X85587301Y-83412020D01*
G75*
G02*
X85675689Y-83412020I44194J-44194D01*
G01*
X86188341Y-83924672D01*
G75*
G02*
X86188341Y-84013060I-44194J-44194D01*
G01*
X86099953Y-84101448D01*
G75*
G02*
X86011565Y-84101448I-44194J44194D01*
G01*
G37*
G36*
G01*
X86365119Y-83747896D02*
X85852467Y-83235243D01*
G75*
G02*
X85852467Y-83146855I44194J44194D01*
G01*
X85940855Y-83058467D01*
G75*
G02*
X86029243Y-83058467I44194J-44194D01*
G01*
X86541895Y-83571119D01*
G75*
G02*
X86541895Y-83659507I-44194J-44194D01*
G01*
X86453507Y-83747895D01*
G75*
G02*
X86365119Y-83747895I-44194J44194D01*
G01*
G37*
G36*
G01*
X86718672Y-83394342D02*
X86206020Y-82881689D01*
G75*
G02*
X86206020Y-82793301I44194J44194D01*
G01*
X86294408Y-82704913D01*
G75*
G02*
X86382796Y-82704913I44194J-44194D01*
G01*
X86895448Y-83217565D01*
G75*
G02*
X86895448Y-83305953I-44194J-44194D01*
G01*
X86807060Y-83394341D01*
G75*
G02*
X86718672Y-83394341I-44194J44194D01*
G01*
G37*
G36*
G01*
X87072225Y-83040789D02*
X86559573Y-82528136D01*
G75*
G02*
X86559573Y-82439748I44194J44194D01*
G01*
X86647961Y-82351360D01*
G75*
G02*
X86736349Y-82351360I44194J-44194D01*
G01*
X87249001Y-82864012D01*
G75*
G02*
X87249001Y-82952400I-44194J-44194D01*
G01*
X87160613Y-83040788D01*
G75*
G02*
X87072225Y-83040788I-44194J44194D01*
G01*
G37*
G36*
G01*
X86647961Y-81732641D02*
X86559573Y-81644252D01*
G75*
G02*
X86559573Y-81555864I44194J44194D01*
G01*
X87072225Y-81043212D01*
G75*
G02*
X87160613Y-81043212I44194J-44194D01*
G01*
X87249001Y-81131600D01*
G75*
G02*
X87249001Y-81219988I-44194J-44194D01*
G01*
X86736349Y-81732640D01*
G75*
G02*
X86647961Y-81732640I-44194J44194D01*
G01*
G37*
G36*
G01*
X86294408Y-81379088D02*
X86206020Y-81290699D01*
G75*
G02*
X86206020Y-81202311I44194J44194D01*
G01*
X86718672Y-80689659D01*
G75*
G02*
X86807060Y-80689659I44194J-44194D01*
G01*
X86895448Y-80778047D01*
G75*
G02*
X86895448Y-80866435I-44194J-44194D01*
G01*
X86382796Y-81379087D01*
G75*
G02*
X86294408Y-81379087I-44194J44194D01*
G01*
G37*
G36*
G01*
X85940855Y-81025534D02*
X85852467Y-80937145D01*
G75*
G02*
X85852467Y-80848757I44194J44194D01*
G01*
X86365119Y-80336105D01*
G75*
G02*
X86453507Y-80336105I44194J-44194D01*
G01*
X86541895Y-80424493D01*
G75*
G02*
X86541895Y-80512881I-44194J-44194D01*
G01*
X86029243Y-81025533D01*
G75*
G02*
X85940855Y-81025533I-44194J44194D01*
G01*
G37*
G36*
G01*
X85587301Y-80671981D02*
X85498913Y-80583592D01*
G75*
G02*
X85498913Y-80495204I44194J44194D01*
G01*
X86011565Y-79982552D01*
G75*
G02*
X86099953Y-79982552I44194J-44194D01*
G01*
X86188341Y-80070940D01*
G75*
G02*
X86188341Y-80159328I-44194J-44194D01*
G01*
X85675689Y-80671980D01*
G75*
G02*
X85587301Y-80671980I-44194J44194D01*
G01*
G37*
G36*
G01*
X85233748Y-80318428D02*
X85145360Y-80230039D01*
G75*
G02*
X85145360Y-80141651I44194J44194D01*
G01*
X85658012Y-79628999D01*
G75*
G02*
X85746400Y-79628999I44194J-44194D01*
G01*
X85834788Y-79717387D01*
G75*
G02*
X85834788Y-79805775I-44194J-44194D01*
G01*
X85322136Y-80318427D01*
G75*
G02*
X85233748Y-80318427I-44194J44194D01*
G01*
G37*
G36*
G01*
X84349864Y-80318428D02*
X83837212Y-79805775D01*
G75*
G02*
X83837212Y-79717387I44194J44194D01*
G01*
X83925600Y-79628999D01*
G75*
G02*
X84013988Y-79628999I44194J-44194D01*
G01*
X84526640Y-80141651D01*
G75*
G02*
X84526640Y-80230039I-44194J-44194D01*
G01*
X84438252Y-80318427D01*
G75*
G02*
X84349864Y-80318427I-44194J44194D01*
G01*
G37*
G36*
G01*
X83996311Y-80671981D02*
X83483659Y-80159328D01*
G75*
G02*
X83483659Y-80070940I44194J44194D01*
G01*
X83572047Y-79982552D01*
G75*
G02*
X83660435Y-79982552I44194J-44194D01*
G01*
X84173087Y-80495204D01*
G75*
G02*
X84173087Y-80583592I-44194J-44194D01*
G01*
X84084699Y-80671980D01*
G75*
G02*
X83996311Y-80671980I-44194J44194D01*
G01*
G37*
G36*
G01*
X83642757Y-81025534D02*
X83130105Y-80512881D01*
G75*
G02*
X83130105Y-80424493I44194J44194D01*
G01*
X83218493Y-80336105D01*
G75*
G02*
X83306881Y-80336105I44194J-44194D01*
G01*
X83819533Y-80848757D01*
G75*
G02*
X83819533Y-80937145I-44194J-44194D01*
G01*
X83731145Y-81025533D01*
G75*
G02*
X83642757Y-81025533I-44194J44194D01*
G01*
G37*
G36*
G01*
X83289204Y-81379088D02*
X82776552Y-80866435D01*
G75*
G02*
X82776552Y-80778047I44194J44194D01*
G01*
X82864940Y-80689659D01*
G75*
G02*
X82953328Y-80689659I44194J-44194D01*
G01*
X83465980Y-81202311D01*
G75*
G02*
X83465980Y-81290699I-44194J-44194D01*
G01*
X83377592Y-81379087D01*
G75*
G02*
X83289204Y-81379087I-44194J44194D01*
G01*
G37*
G36*
G01*
X82935651Y-81732641D02*
X82422999Y-81219988D01*
G75*
G02*
X82422999Y-81131600I44194J44194D01*
G01*
X82511387Y-81043212D01*
G75*
G02*
X82599775Y-81043212I44194J-44194D01*
G01*
X83112427Y-81555864D01*
G75*
G02*
X83112427Y-81644252I-44194J-44194D01*
G01*
X83024039Y-81732640D01*
G75*
G02*
X82935651Y-81732640I-44194J44194D01*
G01*
G37*
G36*
G01*
X83739985Y-82607686D02*
X83351075Y-82218776D01*
G75*
G02*
X83351075Y-81865224I176776J176776D01*
G01*
X83739985Y-81476314D01*
G75*
G02*
X84093537Y-81476314I176776J-176776D01*
G01*
X84482447Y-81865224D01*
G75*
G02*
X84482447Y-82218776I-176776J-176776D01*
G01*
X84093537Y-82607686D01*
G75*
G02*
X83739985Y-82607686I-176776J176776D01*
G01*
G37*
G36*
G01*
X84659224Y-83526925D02*
X84270314Y-83138015D01*
G75*
G02*
X84270314Y-82784463I176776J176776D01*
G01*
X84659224Y-82395553D01*
G75*
G02*
X85012776Y-82395553I176776J-176776D01*
G01*
X85401686Y-82784463D01*
G75*
G02*
X85401686Y-83138015I-176776J-176776D01*
G01*
X85012776Y-83526925D01*
G75*
G02*
X84659224Y-83526925I-176776J176776D01*
G01*
G37*
G36*
G01*
X84659224Y-81688447D02*
X84270314Y-81299537D01*
G75*
G02*
X84270314Y-80945985I176776J176776D01*
G01*
X84659224Y-80557075D01*
G75*
G02*
X85012776Y-80557075I176776J-176776D01*
G01*
X85401686Y-80945985D01*
G75*
G02*
X85401686Y-81299537I-176776J-176776D01*
G01*
X85012776Y-81688447D01*
G75*
G02*
X84659224Y-81688447I-176776J176776D01*
G01*
G37*
G36*
G01*
X85578463Y-82607686D02*
X85189553Y-82218776D01*
G75*
G02*
X85189553Y-81865224I176776J176776D01*
G01*
X85578463Y-81476314D01*
G75*
G02*
X85932015Y-81476314I176776J-176776D01*
G01*
X86320925Y-81865224D01*
G75*
G02*
X86320925Y-82218776I-176776J-176776D01*
G01*
X85932015Y-82607686D01*
G75*
G02*
X85578463Y-82607686I-176776J176776D01*
G01*
G37*
G36*
G01*
X81582887Y-87347011D02*
X81247011Y-87682887D01*
G75*
G02*
X80911135Y-87682887I-167938J167938D01*
G01*
X80504549Y-87276301D01*
G75*
G02*
X80504549Y-86940425I167938J167938D01*
G01*
X80840425Y-86604549D01*
G75*
G02*
X81176301Y-86604549I167938J-167938D01*
G01*
X81582887Y-87011135D01*
G75*
G02*
X81582887Y-87347011I-167938J-167938D01*
G01*
G37*
G36*
G01*
X80345451Y-86109575D02*
X80009575Y-86445451D01*
G75*
G02*
X79673699Y-86445451I-167938J167938D01*
G01*
X79267113Y-86038865D01*
G75*
G02*
X79267113Y-85702989I167938J167938D01*
G01*
X79602989Y-85367113D01*
G75*
G02*
X79938865Y-85367113I167938J-167938D01*
G01*
X80345451Y-85773699D01*
G75*
G02*
X80345451Y-86109575I-167938J-167938D01*
G01*
G37*
M02*
