G04 #@! TF.GenerationSoftware,KiCad,Pcbnew,(5.1.6)-1*
G04 #@! TF.CreationDate,2020-10-13T14:36:48-04:00*
G04 #@! TF.ProjectId,Ornament,4f726e61-6d65-46e7-942e-6b696361645f,rev?*
G04 #@! TF.SameCoordinates,Original*
G04 #@! TF.FileFunction,Copper,L2,Bot*
G04 #@! TF.FilePolarity,Positive*
%FSLAX46Y46*%
G04 Gerber Fmt 4.6, Leading zero omitted, Abs format (unit mm)*
G04 Created by KiCad (PCBNEW (5.1.6)-1) date 2020-10-13 14:36:48*
%MOMM*%
%LPD*%
G01*
G04 APERTURE LIST*
G04 #@! TA.AperFunction,ComponentPad*
%ADD10C,2.500000*%
G04 #@! TD*
G04 #@! TA.AperFunction,ComponentPad*
%ADD11R,2.500000X2.500000*%
G04 #@! TD*
G04 #@! TA.AperFunction,ComponentPad*
%ADD12R,1.700000X1.700000*%
G04 #@! TD*
G04 #@! TA.AperFunction,ComponentPad*
%ADD13O,1.700000X1.700000*%
G04 #@! TD*
G04 #@! TA.AperFunction,ComponentPad*
%ADD14R,2.170000X2.170000*%
G04 #@! TD*
G04 #@! TA.AperFunction,ComponentPad*
%ADD15C,1.800000*%
G04 #@! TD*
G04 #@! TA.AperFunction,ComponentPad*
%ADD16R,1.800000X1.800000*%
G04 #@! TD*
G04 #@! TA.AperFunction,ComponentPad*
%ADD17C,2.200000*%
G04 #@! TD*
G04 #@! TA.AperFunction,ViaPad*
%ADD18C,0.800000*%
G04 #@! TD*
G04 #@! TA.AperFunction,Conductor*
%ADD19C,0.250000*%
G04 #@! TD*
G04 #@! TA.AperFunction,Conductor*
%ADD20C,0.254000*%
G04 #@! TD*
G04 APERTURE END LIST*
D10*
X92500000Y-100000000D03*
D11*
X107500000Y-100000000D03*
D12*
X115575000Y-80772000D03*
D13*
X118115000Y-80772000D03*
X115575000Y-83312000D03*
X118115000Y-83312000D03*
X115575000Y-85852000D03*
X118115000Y-85852000D03*
D10*
X100000000Y-75504000D03*
D14*
X100000000Y-95504000D03*
D15*
X80000000Y-98730000D03*
D16*
X80000000Y-101270000D03*
X120000000Y-101270000D03*
D15*
X120000000Y-98730000D03*
D17*
X87750000Y-123250000D03*
X87750000Y-116750000D03*
X92250000Y-123250000D03*
X92250000Y-116750000D03*
X112250000Y-116750000D03*
X112250000Y-123250000D03*
X107750000Y-116750000D03*
X107750000Y-123250000D03*
D12*
X102600000Y-120000000D03*
D13*
X100060000Y-120000000D03*
X97520000Y-120000000D03*
D18*
X96650000Y-75500000D03*
X95700000Y-103550000D03*
X107725000Y-110975000D03*
X87750000Y-84825000D03*
X90250000Y-86850000D03*
X91375000Y-82025000D03*
X90300000Y-83675000D03*
X90300153Y-81399847D03*
X119975000Y-95225000D03*
X92500000Y-84550000D03*
X92500000Y-96775000D03*
X87750000Y-110975000D03*
X81609357Y-84879735D03*
X82855605Y-85100677D03*
D19*
X96650000Y-75500000D02*
X95725000Y-76425000D01*
X95725000Y-76425000D02*
X95725000Y-103525000D01*
X95725000Y-103525000D02*
X95700000Y-103550000D01*
X90250000Y-86850000D02*
X91350000Y-85750000D01*
X91350000Y-85750000D02*
X91350000Y-82050000D01*
X91350000Y-82050000D02*
X91375000Y-82025000D01*
X90300000Y-83675000D02*
X90300000Y-81400000D01*
X90300000Y-81400000D02*
X90300153Y-81399847D01*
X119975000Y-95225000D02*
X115400000Y-95225000D01*
X115400000Y-95225000D02*
X111950000Y-91775000D01*
X111950000Y-91775000D02*
X111950000Y-85175000D01*
X113813000Y-83312000D02*
X115575000Y-83312000D01*
X111950000Y-85175000D02*
X113813000Y-83312000D01*
X92500000Y-96775000D02*
X92500000Y-84550000D01*
X87750000Y-110975000D02*
X86375000Y-109600000D01*
X86375000Y-109600000D02*
X86375000Y-89645378D01*
X86375000Y-89645378D02*
X81609357Y-84879735D01*
X82706282Y-85250000D02*
X82706282Y-85340250D01*
X82855605Y-85100677D02*
X82706282Y-85250000D01*
X82706282Y-85340250D02*
X86825010Y-89458978D01*
X86825010Y-89458978D02*
X86825010Y-108625010D01*
X89175000Y-110975000D02*
X87175000Y-108975000D01*
X107725000Y-110975000D02*
X89175000Y-110975000D01*
X86825010Y-108625010D02*
X87175000Y-108975000D01*
X87175000Y-108975000D02*
X87800000Y-109600000D01*
D20*
G36*
X114340000Y-63051381D02*
G01*
X114340001Y-72422419D01*
X114349551Y-72519383D01*
X114387291Y-72643793D01*
X114448576Y-72758450D01*
X114531053Y-72858948D01*
X114631551Y-72941425D01*
X114676721Y-72965568D01*
X116534463Y-74060492D01*
X118303637Y-75277067D01*
X119983634Y-76614087D01*
X121566281Y-78065049D01*
X123043839Y-79622856D01*
X124409142Y-81279949D01*
X125655533Y-83028253D01*
X126776924Y-84859231D01*
X127767866Y-86763983D01*
X128623522Y-88733210D01*
X129339731Y-90757342D01*
X129912994Y-92826481D01*
X130340526Y-94930579D01*
X130620243Y-97059378D01*
X130750781Y-99202507D01*
X130731505Y-101349511D01*
X130562508Y-103489938D01*
X130244610Y-105613384D01*
X129779370Y-107709453D01*
X129169044Y-109767980D01*
X128416612Y-111778909D01*
X127525724Y-113732480D01*
X126500750Y-115619116D01*
X125346666Y-117429660D01*
X124069081Y-119155308D01*
X122674254Y-120787611D01*
X121168943Y-122318655D01*
X119560506Y-123740959D01*
X117856773Y-125047599D01*
X116066046Y-126232207D01*
X114197048Y-127289016D01*
X112258866Y-128212884D01*
X110260984Y-128999289D01*
X108213103Y-129644417D01*
X106125198Y-130145123D01*
X104007453Y-130498965D01*
X101870201Y-130704216D01*
X99723834Y-130759880D01*
X97578798Y-130665686D01*
X95445561Y-130422090D01*
X93334523Y-130030284D01*
X91255950Y-129492171D01*
X89219982Y-128810376D01*
X87236536Y-127988222D01*
X85315263Y-127029706D01*
X83465537Y-125939508D01*
X81696363Y-124722933D01*
X80016373Y-123385919D01*
X79681727Y-123079117D01*
X86015000Y-123079117D01*
X86015000Y-123420883D01*
X86081675Y-123756081D01*
X86212463Y-124071831D01*
X86402337Y-124355998D01*
X86644002Y-124597663D01*
X86928169Y-124787537D01*
X87243919Y-124918325D01*
X87579117Y-124985000D01*
X87920883Y-124985000D01*
X88256081Y-124918325D01*
X88571831Y-124787537D01*
X88855998Y-124597663D01*
X88996949Y-124456712D01*
X91222893Y-124456712D01*
X91330726Y-124731338D01*
X91637384Y-124882216D01*
X91967585Y-124970369D01*
X92308639Y-124992409D01*
X92647439Y-124947489D01*
X92970966Y-124837336D01*
X93169274Y-124731338D01*
X93277107Y-124456712D01*
X92250000Y-123429605D01*
X91222893Y-124456712D01*
X88996949Y-124456712D01*
X89097663Y-124355998D01*
X89287537Y-124071831D01*
X89418325Y-123756081D01*
X89485000Y-123420883D01*
X89485000Y-123308639D01*
X90507591Y-123308639D01*
X90552511Y-123647439D01*
X90662664Y-123970966D01*
X90768662Y-124169274D01*
X91043288Y-124277107D01*
X92070395Y-123250000D01*
X92429605Y-123250000D01*
X93456712Y-124277107D01*
X93731338Y-124169274D01*
X93882216Y-123862616D01*
X93970369Y-123532415D01*
X93992409Y-123191361D01*
X93977528Y-123079117D01*
X106015000Y-123079117D01*
X106015000Y-123420883D01*
X106081675Y-123756081D01*
X106212463Y-124071831D01*
X106402337Y-124355998D01*
X106644002Y-124597663D01*
X106928169Y-124787537D01*
X107243919Y-124918325D01*
X107579117Y-124985000D01*
X107920883Y-124985000D01*
X108256081Y-124918325D01*
X108571831Y-124787537D01*
X108855998Y-124597663D01*
X108996949Y-124456712D01*
X111222893Y-124456712D01*
X111330726Y-124731338D01*
X111637384Y-124882216D01*
X111967585Y-124970369D01*
X112308639Y-124992409D01*
X112647439Y-124947489D01*
X112970966Y-124837336D01*
X113169274Y-124731338D01*
X113277107Y-124456712D01*
X112250000Y-123429605D01*
X111222893Y-124456712D01*
X108996949Y-124456712D01*
X109097663Y-124355998D01*
X109287537Y-124071831D01*
X109418325Y-123756081D01*
X109485000Y-123420883D01*
X109485000Y-123308639D01*
X110507591Y-123308639D01*
X110552511Y-123647439D01*
X110662664Y-123970966D01*
X110768662Y-124169274D01*
X111043288Y-124277107D01*
X112070395Y-123250000D01*
X112429605Y-123250000D01*
X113456712Y-124277107D01*
X113731338Y-124169274D01*
X113882216Y-123862616D01*
X113970369Y-123532415D01*
X113992409Y-123191361D01*
X113947489Y-122852561D01*
X113837336Y-122529034D01*
X113731338Y-122330726D01*
X113456712Y-122222893D01*
X112429605Y-123250000D01*
X112070395Y-123250000D01*
X111043288Y-122222893D01*
X110768662Y-122330726D01*
X110617784Y-122637384D01*
X110529631Y-122967585D01*
X110507591Y-123308639D01*
X109485000Y-123308639D01*
X109485000Y-123079117D01*
X109418325Y-122743919D01*
X109287537Y-122428169D01*
X109097663Y-122144002D01*
X108996949Y-122043288D01*
X111222893Y-122043288D01*
X112250000Y-123070395D01*
X113277107Y-122043288D01*
X113169274Y-121768662D01*
X112862616Y-121617784D01*
X112532415Y-121529631D01*
X112191361Y-121507591D01*
X111852561Y-121552511D01*
X111529034Y-121662664D01*
X111330726Y-121768662D01*
X111222893Y-122043288D01*
X108996949Y-122043288D01*
X108855998Y-121902337D01*
X108571831Y-121712463D01*
X108256081Y-121581675D01*
X107920883Y-121515000D01*
X107579117Y-121515000D01*
X107243919Y-121581675D01*
X106928169Y-121712463D01*
X106644002Y-121902337D01*
X106402337Y-122144002D01*
X106212463Y-122428169D01*
X106081675Y-122743919D01*
X106015000Y-123079117D01*
X93977528Y-123079117D01*
X93947489Y-122852561D01*
X93837336Y-122529034D01*
X93731338Y-122330726D01*
X93456712Y-122222893D01*
X92429605Y-123250000D01*
X92070395Y-123250000D01*
X91043288Y-122222893D01*
X90768662Y-122330726D01*
X90617784Y-122637384D01*
X90529631Y-122967585D01*
X90507591Y-123308639D01*
X89485000Y-123308639D01*
X89485000Y-123079117D01*
X89418325Y-122743919D01*
X89287537Y-122428169D01*
X89097663Y-122144002D01*
X88996949Y-122043288D01*
X91222893Y-122043288D01*
X92250000Y-123070395D01*
X93277107Y-122043288D01*
X93169274Y-121768662D01*
X92862616Y-121617784D01*
X92532415Y-121529631D01*
X92191361Y-121507591D01*
X91852561Y-121552511D01*
X91529034Y-121662664D01*
X91330726Y-121768662D01*
X91222893Y-122043288D01*
X88996949Y-122043288D01*
X88855998Y-121902337D01*
X88571831Y-121712463D01*
X88256081Y-121581675D01*
X87920883Y-121515000D01*
X87579117Y-121515000D01*
X87243919Y-121581675D01*
X86928169Y-121712463D01*
X86644002Y-121902337D01*
X86402337Y-122144002D01*
X86212463Y-122428169D01*
X86081675Y-122743919D01*
X86015000Y-123079117D01*
X79681727Y-123079117D01*
X78433726Y-121934958D01*
X76956160Y-120377144D01*
X76524921Y-119853740D01*
X96035000Y-119853740D01*
X96035000Y-120146260D01*
X96092068Y-120433158D01*
X96204010Y-120703411D01*
X96366525Y-120946632D01*
X96573368Y-121153475D01*
X96816589Y-121315990D01*
X97086842Y-121427932D01*
X97373740Y-121485000D01*
X97666260Y-121485000D01*
X97953158Y-121427932D01*
X98223411Y-121315990D01*
X98466632Y-121153475D01*
X98673475Y-120946632D01*
X98790000Y-120772240D01*
X98906525Y-120946632D01*
X99113368Y-121153475D01*
X99356589Y-121315990D01*
X99626842Y-121427932D01*
X99913740Y-121485000D01*
X100206260Y-121485000D01*
X100493158Y-121427932D01*
X100763411Y-121315990D01*
X101006632Y-121153475D01*
X101138487Y-121021620D01*
X101160498Y-121094180D01*
X101219463Y-121204494D01*
X101298815Y-121301185D01*
X101395506Y-121380537D01*
X101505820Y-121439502D01*
X101625518Y-121475812D01*
X101750000Y-121488072D01*
X103450000Y-121488072D01*
X103574482Y-121475812D01*
X103694180Y-121439502D01*
X103804494Y-121380537D01*
X103901185Y-121301185D01*
X103980537Y-121204494D01*
X104039502Y-121094180D01*
X104075812Y-120974482D01*
X104088072Y-120850000D01*
X104088072Y-119150000D01*
X104075812Y-119025518D01*
X104039502Y-118905820D01*
X103980537Y-118795506D01*
X103901185Y-118698815D01*
X103804494Y-118619463D01*
X103694180Y-118560498D01*
X103574482Y-118524188D01*
X103450000Y-118511928D01*
X101750000Y-118511928D01*
X101625518Y-118524188D01*
X101505820Y-118560498D01*
X101395506Y-118619463D01*
X101298815Y-118698815D01*
X101219463Y-118795506D01*
X101160498Y-118905820D01*
X101138487Y-118978380D01*
X101006632Y-118846525D01*
X100763411Y-118684010D01*
X100493158Y-118572068D01*
X100206260Y-118515000D01*
X99913740Y-118515000D01*
X99626842Y-118572068D01*
X99356589Y-118684010D01*
X99113368Y-118846525D01*
X98906525Y-119053368D01*
X98790000Y-119227760D01*
X98673475Y-119053368D01*
X98466632Y-118846525D01*
X98223411Y-118684010D01*
X97953158Y-118572068D01*
X97666260Y-118515000D01*
X97373740Y-118515000D01*
X97086842Y-118572068D01*
X96816589Y-118684010D01*
X96573368Y-118846525D01*
X96366525Y-119053368D01*
X96204010Y-119296589D01*
X96092068Y-119566842D01*
X96035000Y-119853740D01*
X76524921Y-119853740D01*
X75590853Y-118720044D01*
X74344468Y-116971747D01*
X74104000Y-116579117D01*
X86015000Y-116579117D01*
X86015000Y-116920883D01*
X86081675Y-117256081D01*
X86212463Y-117571831D01*
X86402337Y-117855998D01*
X86644002Y-118097663D01*
X86928169Y-118287537D01*
X87243919Y-118418325D01*
X87579117Y-118485000D01*
X87920883Y-118485000D01*
X88256081Y-118418325D01*
X88571831Y-118287537D01*
X88855998Y-118097663D01*
X88996949Y-117956712D01*
X91222893Y-117956712D01*
X91330726Y-118231338D01*
X91637384Y-118382216D01*
X91967585Y-118470369D01*
X92308639Y-118492409D01*
X92647439Y-118447489D01*
X92970966Y-118337336D01*
X93169274Y-118231338D01*
X93277107Y-117956712D01*
X92250000Y-116929605D01*
X91222893Y-117956712D01*
X88996949Y-117956712D01*
X89097663Y-117855998D01*
X89287537Y-117571831D01*
X89418325Y-117256081D01*
X89485000Y-116920883D01*
X89485000Y-116808639D01*
X90507591Y-116808639D01*
X90552511Y-117147439D01*
X90662664Y-117470966D01*
X90768662Y-117669274D01*
X91043288Y-117777107D01*
X92070395Y-116750000D01*
X92429605Y-116750000D01*
X93456712Y-117777107D01*
X93731338Y-117669274D01*
X93882216Y-117362616D01*
X93970369Y-117032415D01*
X93992409Y-116691361D01*
X93977528Y-116579117D01*
X106015000Y-116579117D01*
X106015000Y-116920883D01*
X106081675Y-117256081D01*
X106212463Y-117571831D01*
X106402337Y-117855998D01*
X106644002Y-118097663D01*
X106928169Y-118287537D01*
X107243919Y-118418325D01*
X107579117Y-118485000D01*
X107920883Y-118485000D01*
X108256081Y-118418325D01*
X108571831Y-118287537D01*
X108855998Y-118097663D01*
X108996949Y-117956712D01*
X111222893Y-117956712D01*
X111330726Y-118231338D01*
X111637384Y-118382216D01*
X111967585Y-118470369D01*
X112308639Y-118492409D01*
X112647439Y-118447489D01*
X112970966Y-118337336D01*
X113169274Y-118231338D01*
X113277107Y-117956712D01*
X112250000Y-116929605D01*
X111222893Y-117956712D01*
X108996949Y-117956712D01*
X109097663Y-117855998D01*
X109287537Y-117571831D01*
X109418325Y-117256081D01*
X109485000Y-116920883D01*
X109485000Y-116808639D01*
X110507591Y-116808639D01*
X110552511Y-117147439D01*
X110662664Y-117470966D01*
X110768662Y-117669274D01*
X111043288Y-117777107D01*
X112070395Y-116750000D01*
X112429605Y-116750000D01*
X113456712Y-117777107D01*
X113731338Y-117669274D01*
X113882216Y-117362616D01*
X113970369Y-117032415D01*
X113992409Y-116691361D01*
X113947489Y-116352561D01*
X113837336Y-116029034D01*
X113731338Y-115830726D01*
X113456712Y-115722893D01*
X112429605Y-116750000D01*
X112070395Y-116750000D01*
X111043288Y-115722893D01*
X110768662Y-115830726D01*
X110617784Y-116137384D01*
X110529631Y-116467585D01*
X110507591Y-116808639D01*
X109485000Y-116808639D01*
X109485000Y-116579117D01*
X109418325Y-116243919D01*
X109287537Y-115928169D01*
X109097663Y-115644002D01*
X108996949Y-115543288D01*
X111222893Y-115543288D01*
X112250000Y-116570395D01*
X113277107Y-115543288D01*
X113169274Y-115268662D01*
X112862616Y-115117784D01*
X112532415Y-115029631D01*
X112191361Y-115007591D01*
X111852561Y-115052511D01*
X111529034Y-115162664D01*
X111330726Y-115268662D01*
X111222893Y-115543288D01*
X108996949Y-115543288D01*
X108855998Y-115402337D01*
X108571831Y-115212463D01*
X108256081Y-115081675D01*
X107920883Y-115015000D01*
X107579117Y-115015000D01*
X107243919Y-115081675D01*
X106928169Y-115212463D01*
X106644002Y-115402337D01*
X106402337Y-115644002D01*
X106212463Y-115928169D01*
X106081675Y-116243919D01*
X106015000Y-116579117D01*
X93977528Y-116579117D01*
X93947489Y-116352561D01*
X93837336Y-116029034D01*
X93731338Y-115830726D01*
X93456712Y-115722893D01*
X92429605Y-116750000D01*
X92070395Y-116750000D01*
X91043288Y-115722893D01*
X90768662Y-115830726D01*
X90617784Y-116137384D01*
X90529631Y-116467585D01*
X90507591Y-116808639D01*
X89485000Y-116808639D01*
X89485000Y-116579117D01*
X89418325Y-116243919D01*
X89287537Y-115928169D01*
X89097663Y-115644002D01*
X88996949Y-115543288D01*
X91222893Y-115543288D01*
X92250000Y-116570395D01*
X93277107Y-115543288D01*
X93169274Y-115268662D01*
X92862616Y-115117784D01*
X92532415Y-115029631D01*
X92191361Y-115007591D01*
X91852561Y-115052511D01*
X91529034Y-115162664D01*
X91330726Y-115268662D01*
X91222893Y-115543288D01*
X88996949Y-115543288D01*
X88855998Y-115402337D01*
X88571831Y-115212463D01*
X88256081Y-115081675D01*
X87920883Y-115015000D01*
X87579117Y-115015000D01*
X87243919Y-115081675D01*
X86928169Y-115212463D01*
X86644002Y-115402337D01*
X86402337Y-115644002D01*
X86212463Y-115928169D01*
X86081675Y-116243919D01*
X86015000Y-116579117D01*
X74104000Y-116579117D01*
X73223080Y-115140775D01*
X72232134Y-113236017D01*
X71376478Y-111266790D01*
X70660269Y-109242658D01*
X70087006Y-107173519D01*
X69659474Y-105069421D01*
X69379757Y-102940622D01*
X69332819Y-102170000D01*
X78461928Y-102170000D01*
X78474188Y-102294482D01*
X78510498Y-102414180D01*
X78569463Y-102524494D01*
X78648815Y-102621185D01*
X78745506Y-102700537D01*
X78855820Y-102759502D01*
X78975518Y-102795812D01*
X79100000Y-102808072D01*
X79714250Y-102805000D01*
X79873000Y-102646250D01*
X79873000Y-101397000D01*
X80127000Y-101397000D01*
X80127000Y-102646250D01*
X80285750Y-102805000D01*
X80900000Y-102808072D01*
X81024482Y-102795812D01*
X81144180Y-102759502D01*
X81254494Y-102700537D01*
X81351185Y-102621185D01*
X81430537Y-102524494D01*
X81489502Y-102414180D01*
X81525812Y-102294482D01*
X81538072Y-102170000D01*
X81535000Y-101555750D01*
X81376250Y-101397000D01*
X80127000Y-101397000D01*
X79873000Y-101397000D01*
X78623750Y-101397000D01*
X78465000Y-101555750D01*
X78461928Y-102170000D01*
X69332819Y-102170000D01*
X69249219Y-100797493D01*
X69253057Y-100370000D01*
X78461928Y-100370000D01*
X78465000Y-100984250D01*
X78623750Y-101143000D01*
X79873000Y-101143000D01*
X79873000Y-101123000D01*
X80127000Y-101123000D01*
X80127000Y-101143000D01*
X81376250Y-101143000D01*
X81535000Y-100984250D01*
X81538072Y-100370000D01*
X81525812Y-100245518D01*
X81489502Y-100125820D01*
X81430537Y-100015506D01*
X81351185Y-99918815D01*
X81254494Y-99839463D01*
X81144180Y-99780498D01*
X81125873Y-99774944D01*
X81192312Y-99708505D01*
X81360299Y-99457095D01*
X81476011Y-99177743D01*
X81535000Y-98881184D01*
X81535000Y-98578816D01*
X81476011Y-98282257D01*
X81360299Y-98002905D01*
X81192312Y-97751495D01*
X80978505Y-97537688D01*
X80727095Y-97369701D01*
X80447743Y-97253989D01*
X80151184Y-97195000D01*
X79848816Y-97195000D01*
X79552257Y-97253989D01*
X79272905Y-97369701D01*
X79021495Y-97537688D01*
X78807688Y-97751495D01*
X78639701Y-98002905D01*
X78523989Y-98282257D01*
X78465000Y-98578816D01*
X78465000Y-98881184D01*
X78523989Y-99177743D01*
X78639701Y-99457095D01*
X78807688Y-99708505D01*
X78874127Y-99774944D01*
X78855820Y-99780498D01*
X78745506Y-99839463D01*
X78648815Y-99918815D01*
X78569463Y-100015506D01*
X78510498Y-100125820D01*
X78474188Y-100245518D01*
X78461928Y-100370000D01*
X69253057Y-100370000D01*
X69268495Y-98650490D01*
X69437493Y-96510060D01*
X69755390Y-94386616D01*
X70220630Y-92290547D01*
X70830959Y-90232012D01*
X71583388Y-88221091D01*
X72474270Y-86267531D01*
X73283614Y-84777796D01*
X80574357Y-84777796D01*
X80574357Y-84981674D01*
X80614131Y-85181633D01*
X80692152Y-85369991D01*
X80805420Y-85539509D01*
X80949583Y-85683672D01*
X81119101Y-85796940D01*
X81307459Y-85874961D01*
X81507418Y-85914735D01*
X81569556Y-85914735D01*
X85615001Y-89960181D01*
X85615000Y-109562678D01*
X85611324Y-109600000D01*
X85615000Y-109637322D01*
X85615000Y-109637332D01*
X85625997Y-109748985D01*
X85655508Y-109846270D01*
X85669454Y-109892246D01*
X85740026Y-110024276D01*
X85767535Y-110057795D01*
X85834999Y-110140001D01*
X85864003Y-110163804D01*
X86715000Y-111014802D01*
X86715000Y-111076939D01*
X86754774Y-111276898D01*
X86832795Y-111465256D01*
X86946063Y-111634774D01*
X87090226Y-111778937D01*
X87259744Y-111892205D01*
X87448102Y-111970226D01*
X87648061Y-112010000D01*
X87851939Y-112010000D01*
X88051898Y-111970226D01*
X88240256Y-111892205D01*
X88409774Y-111778937D01*
X88553937Y-111634774D01*
X88634430Y-111514308D01*
X88634999Y-111515001D01*
X88663997Y-111538799D01*
X88750723Y-111609974D01*
X88876194Y-111677040D01*
X88882753Y-111680546D01*
X89026014Y-111724003D01*
X89137667Y-111735000D01*
X89137676Y-111735000D01*
X89174999Y-111738676D01*
X89212322Y-111735000D01*
X107021289Y-111735000D01*
X107065226Y-111778937D01*
X107234744Y-111892205D01*
X107423102Y-111970226D01*
X107623061Y-112010000D01*
X107826939Y-112010000D01*
X108026898Y-111970226D01*
X108215256Y-111892205D01*
X108384774Y-111778937D01*
X108528937Y-111634774D01*
X108642205Y-111465256D01*
X108720226Y-111276898D01*
X108760000Y-111076939D01*
X108760000Y-110873061D01*
X108720226Y-110673102D01*
X108642205Y-110484744D01*
X108528937Y-110315226D01*
X108384774Y-110171063D01*
X108215256Y-110057795D01*
X108026898Y-109979774D01*
X107826939Y-109940000D01*
X107623061Y-109940000D01*
X107423102Y-109979774D01*
X107234744Y-110057795D01*
X107065226Y-110171063D01*
X107021289Y-110215000D01*
X89489802Y-110215000D01*
X88363807Y-109089005D01*
X88363799Y-109088996D01*
X87686002Y-108411201D01*
X87585010Y-108310209D01*
X87585010Y-103448061D01*
X94665000Y-103448061D01*
X94665000Y-103651939D01*
X94704774Y-103851898D01*
X94782795Y-104040256D01*
X94896063Y-104209774D01*
X95040226Y-104353937D01*
X95209744Y-104467205D01*
X95398102Y-104545226D01*
X95598061Y-104585000D01*
X95801939Y-104585000D01*
X96001898Y-104545226D01*
X96190256Y-104467205D01*
X96359774Y-104353937D01*
X96503937Y-104209774D01*
X96617205Y-104040256D01*
X96695226Y-103851898D01*
X96735000Y-103651939D01*
X96735000Y-103448061D01*
X96695226Y-103248102D01*
X96617205Y-103059744D01*
X96503937Y-102890226D01*
X96485000Y-102871289D01*
X96485000Y-102170000D01*
X118461928Y-102170000D01*
X118474188Y-102294482D01*
X118510498Y-102414180D01*
X118569463Y-102524494D01*
X118648815Y-102621185D01*
X118745506Y-102700537D01*
X118855820Y-102759502D01*
X118975518Y-102795812D01*
X119100000Y-102808072D01*
X119714250Y-102805000D01*
X119873000Y-102646250D01*
X119873000Y-101397000D01*
X120127000Y-101397000D01*
X120127000Y-102646250D01*
X120285750Y-102805000D01*
X120900000Y-102808072D01*
X121024482Y-102795812D01*
X121144180Y-102759502D01*
X121254494Y-102700537D01*
X121351185Y-102621185D01*
X121430537Y-102524494D01*
X121489502Y-102414180D01*
X121525812Y-102294482D01*
X121538072Y-102170000D01*
X121535000Y-101555750D01*
X121376250Y-101397000D01*
X120127000Y-101397000D01*
X119873000Y-101397000D01*
X118623750Y-101397000D01*
X118465000Y-101555750D01*
X118461928Y-102170000D01*
X96485000Y-102170000D01*
X96485000Y-101250000D01*
X105611928Y-101250000D01*
X105624188Y-101374482D01*
X105660498Y-101494180D01*
X105719463Y-101604494D01*
X105798815Y-101701185D01*
X105895506Y-101780537D01*
X106005820Y-101839502D01*
X106125518Y-101875812D01*
X106250000Y-101888072D01*
X107214250Y-101885000D01*
X107373000Y-101726250D01*
X107373000Y-100127000D01*
X107627000Y-100127000D01*
X107627000Y-101726250D01*
X107785750Y-101885000D01*
X108750000Y-101888072D01*
X108874482Y-101875812D01*
X108994180Y-101839502D01*
X109104494Y-101780537D01*
X109201185Y-101701185D01*
X109280537Y-101604494D01*
X109339502Y-101494180D01*
X109375812Y-101374482D01*
X109388072Y-101250000D01*
X109385269Y-100370000D01*
X118461928Y-100370000D01*
X118465000Y-100984250D01*
X118623750Y-101143000D01*
X119873000Y-101143000D01*
X119873000Y-101123000D01*
X120127000Y-101123000D01*
X120127000Y-101143000D01*
X121376250Y-101143000D01*
X121535000Y-100984250D01*
X121538072Y-100370000D01*
X121525812Y-100245518D01*
X121489502Y-100125820D01*
X121430537Y-100015506D01*
X121351185Y-99918815D01*
X121254494Y-99839463D01*
X121144180Y-99780498D01*
X121125873Y-99774944D01*
X121192312Y-99708505D01*
X121360299Y-99457095D01*
X121476011Y-99177743D01*
X121535000Y-98881184D01*
X121535000Y-98578816D01*
X121476011Y-98282257D01*
X121360299Y-98002905D01*
X121192312Y-97751495D01*
X120978505Y-97537688D01*
X120727095Y-97369701D01*
X120447743Y-97253989D01*
X120151184Y-97195000D01*
X119848816Y-97195000D01*
X119552257Y-97253989D01*
X119272905Y-97369701D01*
X119021495Y-97537688D01*
X118807688Y-97751495D01*
X118639701Y-98002905D01*
X118523989Y-98282257D01*
X118465000Y-98578816D01*
X118465000Y-98881184D01*
X118523989Y-99177743D01*
X118639701Y-99457095D01*
X118807688Y-99708505D01*
X118874127Y-99774944D01*
X118855820Y-99780498D01*
X118745506Y-99839463D01*
X118648815Y-99918815D01*
X118569463Y-100015506D01*
X118510498Y-100125820D01*
X118474188Y-100245518D01*
X118461928Y-100370000D01*
X109385269Y-100370000D01*
X109385000Y-100285750D01*
X109226250Y-100127000D01*
X107627000Y-100127000D01*
X107373000Y-100127000D01*
X105773750Y-100127000D01*
X105615000Y-100285750D01*
X105611928Y-101250000D01*
X96485000Y-101250000D01*
X96485000Y-98750000D01*
X105611928Y-98750000D01*
X105615000Y-99714250D01*
X105773750Y-99873000D01*
X107373000Y-99873000D01*
X107373000Y-98273750D01*
X107627000Y-98273750D01*
X107627000Y-99873000D01*
X109226250Y-99873000D01*
X109385000Y-99714250D01*
X109388072Y-98750000D01*
X109375812Y-98625518D01*
X109339502Y-98505820D01*
X109280537Y-98395506D01*
X109201185Y-98298815D01*
X109104494Y-98219463D01*
X108994180Y-98160498D01*
X108874482Y-98124188D01*
X108750000Y-98111928D01*
X107785750Y-98115000D01*
X107627000Y-98273750D01*
X107373000Y-98273750D01*
X107214250Y-98115000D01*
X106250000Y-98111928D01*
X106125518Y-98124188D01*
X106005820Y-98160498D01*
X105895506Y-98219463D01*
X105798815Y-98298815D01*
X105719463Y-98395506D01*
X105660498Y-98505820D01*
X105624188Y-98625518D01*
X105611928Y-98750000D01*
X96485000Y-98750000D01*
X96485000Y-96589000D01*
X98276928Y-96589000D01*
X98289188Y-96713482D01*
X98325498Y-96833180D01*
X98384463Y-96943494D01*
X98463815Y-97040185D01*
X98560506Y-97119537D01*
X98670820Y-97178502D01*
X98790518Y-97214812D01*
X98915000Y-97227072D01*
X99714250Y-97224000D01*
X99873000Y-97065250D01*
X99873000Y-95631000D01*
X100127000Y-95631000D01*
X100127000Y-97065250D01*
X100285750Y-97224000D01*
X101085000Y-97227072D01*
X101209482Y-97214812D01*
X101329180Y-97178502D01*
X101439494Y-97119537D01*
X101536185Y-97040185D01*
X101615537Y-96943494D01*
X101674502Y-96833180D01*
X101710812Y-96713482D01*
X101723072Y-96589000D01*
X101720000Y-95789750D01*
X101561250Y-95631000D01*
X100127000Y-95631000D01*
X99873000Y-95631000D01*
X98438750Y-95631000D01*
X98280000Y-95789750D01*
X98276928Y-96589000D01*
X96485000Y-96589000D01*
X96485000Y-94419000D01*
X98276928Y-94419000D01*
X98280000Y-95218250D01*
X98438750Y-95377000D01*
X99873000Y-95377000D01*
X99873000Y-93942750D01*
X100127000Y-93942750D01*
X100127000Y-95377000D01*
X101561250Y-95377000D01*
X101720000Y-95218250D01*
X101723072Y-94419000D01*
X101710812Y-94294518D01*
X101674502Y-94174820D01*
X101615537Y-94064506D01*
X101536185Y-93967815D01*
X101439494Y-93888463D01*
X101329180Y-93829498D01*
X101209482Y-93793188D01*
X101085000Y-93780928D01*
X100285750Y-93784000D01*
X100127000Y-93942750D01*
X99873000Y-93942750D01*
X99714250Y-93784000D01*
X98915000Y-93780928D01*
X98790518Y-93793188D01*
X98670820Y-93829498D01*
X98560506Y-93888463D01*
X98463815Y-93967815D01*
X98384463Y-94064506D01*
X98325498Y-94174820D01*
X98289188Y-94294518D01*
X98276928Y-94419000D01*
X96485000Y-94419000D01*
X96485000Y-85175000D01*
X111186324Y-85175000D01*
X111190001Y-85212332D01*
X111190000Y-91737677D01*
X111186324Y-91775000D01*
X111190000Y-91812322D01*
X111190000Y-91812332D01*
X111200997Y-91923985D01*
X111243099Y-92062779D01*
X111244454Y-92067246D01*
X111315026Y-92199276D01*
X111351496Y-92243714D01*
X111409999Y-92315001D01*
X111439003Y-92338804D01*
X114836201Y-95736003D01*
X114859999Y-95765001D01*
X114975724Y-95859974D01*
X115107753Y-95930546D01*
X115251014Y-95974003D01*
X115362667Y-95985000D01*
X115362675Y-95985000D01*
X115400000Y-95988676D01*
X115437325Y-95985000D01*
X119271289Y-95985000D01*
X119315226Y-96028937D01*
X119484744Y-96142205D01*
X119673102Y-96220226D01*
X119873061Y-96260000D01*
X120076939Y-96260000D01*
X120276898Y-96220226D01*
X120465256Y-96142205D01*
X120634774Y-96028937D01*
X120778937Y-95884774D01*
X120892205Y-95715256D01*
X120970226Y-95526898D01*
X121010000Y-95326939D01*
X121010000Y-95123061D01*
X120970226Y-94923102D01*
X120892205Y-94734744D01*
X120778937Y-94565226D01*
X120634774Y-94421063D01*
X120465256Y-94307795D01*
X120276898Y-94229774D01*
X120076939Y-94190000D01*
X119873061Y-94190000D01*
X119673102Y-94229774D01*
X119484744Y-94307795D01*
X119315226Y-94421063D01*
X119271289Y-94465000D01*
X115714802Y-94465000D01*
X112710000Y-91460199D01*
X112710000Y-85489801D01*
X114127802Y-84072000D01*
X114296822Y-84072000D01*
X114421525Y-84258632D01*
X114628368Y-84465475D01*
X114802760Y-84582000D01*
X114628368Y-84698525D01*
X114421525Y-84905368D01*
X114259010Y-85148589D01*
X114147068Y-85418842D01*
X114090000Y-85705740D01*
X114090000Y-85998260D01*
X114147068Y-86285158D01*
X114259010Y-86555411D01*
X114421525Y-86798632D01*
X114628368Y-87005475D01*
X114871589Y-87167990D01*
X115141842Y-87279932D01*
X115428740Y-87337000D01*
X115721260Y-87337000D01*
X116008158Y-87279932D01*
X116278411Y-87167990D01*
X116521632Y-87005475D01*
X116728475Y-86798632D01*
X116846100Y-86622594D01*
X117017412Y-86852269D01*
X117233645Y-87047178D01*
X117483748Y-87196157D01*
X117758109Y-87293481D01*
X117988000Y-87172814D01*
X117988000Y-85979000D01*
X118242000Y-85979000D01*
X118242000Y-87172814D01*
X118471891Y-87293481D01*
X118746252Y-87196157D01*
X118996355Y-87047178D01*
X119212588Y-86852269D01*
X119386641Y-86618920D01*
X119511825Y-86356099D01*
X119556476Y-86208890D01*
X119435155Y-85979000D01*
X118242000Y-85979000D01*
X117988000Y-85979000D01*
X117968000Y-85979000D01*
X117968000Y-85725000D01*
X117988000Y-85725000D01*
X117988000Y-85705000D01*
X118242000Y-85705000D01*
X118242000Y-85725000D01*
X119435155Y-85725000D01*
X119556476Y-85495110D01*
X119511825Y-85347901D01*
X119386641Y-85085080D01*
X119212588Y-84851731D01*
X118996355Y-84656822D01*
X118879466Y-84587195D01*
X119061632Y-84465475D01*
X119268475Y-84258632D01*
X119430990Y-84015411D01*
X119542932Y-83745158D01*
X119600000Y-83458260D01*
X119600000Y-83165740D01*
X119542932Y-82878842D01*
X119430990Y-82608589D01*
X119268475Y-82365368D01*
X119061632Y-82158525D01*
X118887240Y-82042000D01*
X119061632Y-81925475D01*
X119268475Y-81718632D01*
X119430990Y-81475411D01*
X119542932Y-81205158D01*
X119600000Y-80918260D01*
X119600000Y-80625740D01*
X119542932Y-80338842D01*
X119430990Y-80068589D01*
X119268475Y-79825368D01*
X119061632Y-79618525D01*
X118818411Y-79456010D01*
X118548158Y-79344068D01*
X118261260Y-79287000D01*
X117968740Y-79287000D01*
X117681842Y-79344068D01*
X117411589Y-79456010D01*
X117168368Y-79618525D01*
X117036513Y-79750380D01*
X117014502Y-79677820D01*
X116955537Y-79567506D01*
X116876185Y-79470815D01*
X116779494Y-79391463D01*
X116669180Y-79332498D01*
X116549482Y-79296188D01*
X116425000Y-79283928D01*
X114725000Y-79283928D01*
X114600518Y-79296188D01*
X114480820Y-79332498D01*
X114370506Y-79391463D01*
X114273815Y-79470815D01*
X114194463Y-79567506D01*
X114135498Y-79677820D01*
X114099188Y-79797518D01*
X114086928Y-79922000D01*
X114086928Y-81622000D01*
X114099188Y-81746482D01*
X114135498Y-81866180D01*
X114194463Y-81976494D01*
X114273815Y-82073185D01*
X114370506Y-82152537D01*
X114480820Y-82211502D01*
X114553380Y-82233513D01*
X114421525Y-82365368D01*
X114296822Y-82552000D01*
X113850323Y-82552000D01*
X113813000Y-82548324D01*
X113775677Y-82552000D01*
X113775667Y-82552000D01*
X113664014Y-82562997D01*
X113520753Y-82606454D01*
X113388724Y-82677026D01*
X113272999Y-82771999D01*
X113249201Y-82800997D01*
X111438998Y-84611201D01*
X111410000Y-84634999D01*
X111386202Y-84663997D01*
X111386201Y-84663998D01*
X111315026Y-84750724D01*
X111244454Y-84882754D01*
X111233972Y-84917310D01*
X111200998Y-85026014D01*
X111193644Y-85100677D01*
X111186324Y-85175000D01*
X96485000Y-85175000D01*
X96485000Y-76739801D01*
X96689801Y-76535000D01*
X96751939Y-76535000D01*
X96951898Y-76495226D01*
X97140256Y-76417205D01*
X97309774Y-76303937D01*
X97453937Y-76159774D01*
X97567205Y-75990256D01*
X97645226Y-75801898D01*
X97685000Y-75601939D01*
X97685000Y-75398061D01*
X97669144Y-75318344D01*
X98115000Y-75318344D01*
X98115000Y-75689656D01*
X98187439Y-76053834D01*
X98329534Y-76396882D01*
X98535825Y-76705618D01*
X98798382Y-76968175D01*
X99107118Y-77174466D01*
X99450166Y-77316561D01*
X99814344Y-77389000D01*
X100185656Y-77389000D01*
X100549834Y-77316561D01*
X100892882Y-77174466D01*
X101201618Y-76968175D01*
X101464175Y-76705618D01*
X101670466Y-76396882D01*
X101812561Y-76053834D01*
X101885000Y-75689656D01*
X101885000Y-75318344D01*
X101812561Y-74954166D01*
X101670466Y-74611118D01*
X101464175Y-74302382D01*
X101201618Y-74039825D01*
X100892882Y-73833534D01*
X100549834Y-73691439D01*
X100185656Y-73619000D01*
X99814344Y-73619000D01*
X99450166Y-73691439D01*
X99107118Y-73833534D01*
X98798382Y-74039825D01*
X98535825Y-74302382D01*
X98329534Y-74611118D01*
X98187439Y-74954166D01*
X98115000Y-75318344D01*
X97669144Y-75318344D01*
X97645226Y-75198102D01*
X97567205Y-75009744D01*
X97453937Y-74840226D01*
X97309774Y-74696063D01*
X97140256Y-74582795D01*
X96951898Y-74504774D01*
X96751939Y-74465000D01*
X96548061Y-74465000D01*
X96348102Y-74504774D01*
X96159744Y-74582795D01*
X95990226Y-74696063D01*
X95846063Y-74840226D01*
X95732795Y-75009744D01*
X95654774Y-75198102D01*
X95615000Y-75398061D01*
X95615000Y-75460199D01*
X95214002Y-75861197D01*
X95184999Y-75884999D01*
X95142354Y-75936963D01*
X95090026Y-76000724D01*
X95051985Y-76071894D01*
X95019454Y-76132754D01*
X94975997Y-76276015D01*
X94965000Y-76387668D01*
X94965000Y-76387678D01*
X94961324Y-76425000D01*
X94965000Y-76462322D01*
X94965001Y-102821288D01*
X94896063Y-102890226D01*
X94782795Y-103059744D01*
X94704774Y-103248102D01*
X94665000Y-103448061D01*
X87585010Y-103448061D01*
X87585010Y-99814344D01*
X90615000Y-99814344D01*
X90615000Y-100185656D01*
X90687439Y-100549834D01*
X90829534Y-100892882D01*
X91035825Y-101201618D01*
X91298382Y-101464175D01*
X91607118Y-101670466D01*
X91950166Y-101812561D01*
X92314344Y-101885000D01*
X92685656Y-101885000D01*
X93049834Y-101812561D01*
X93392882Y-101670466D01*
X93701618Y-101464175D01*
X93964175Y-101201618D01*
X94170466Y-100892882D01*
X94312561Y-100549834D01*
X94385000Y-100185656D01*
X94385000Y-99814344D01*
X94312561Y-99450166D01*
X94170466Y-99107118D01*
X93964175Y-98798382D01*
X93701618Y-98535825D01*
X93392882Y-98329534D01*
X93049834Y-98187439D01*
X92685656Y-98115000D01*
X92314344Y-98115000D01*
X91950166Y-98187439D01*
X91607118Y-98329534D01*
X91298382Y-98535825D01*
X91035825Y-98798382D01*
X90829534Y-99107118D01*
X90687439Y-99450166D01*
X90615000Y-99814344D01*
X87585010Y-99814344D01*
X87585010Y-89496300D01*
X87588686Y-89458978D01*
X87585010Y-89421655D01*
X87585010Y-89421645D01*
X87574013Y-89309992D01*
X87530556Y-89166731D01*
X87497761Y-89105377D01*
X87459984Y-89034701D01*
X87388809Y-88947975D01*
X87365011Y-88918977D01*
X87336014Y-88895180D01*
X85188895Y-86748061D01*
X89215000Y-86748061D01*
X89215000Y-86951939D01*
X89254774Y-87151898D01*
X89332795Y-87340256D01*
X89446063Y-87509774D01*
X89590226Y-87653937D01*
X89759744Y-87767205D01*
X89948102Y-87845226D01*
X90148061Y-87885000D01*
X90351939Y-87885000D01*
X90551898Y-87845226D01*
X90740256Y-87767205D01*
X90909774Y-87653937D01*
X91053937Y-87509774D01*
X91167205Y-87340256D01*
X91245226Y-87151898D01*
X91285000Y-86951939D01*
X91285000Y-86889801D01*
X91740001Y-86434801D01*
X91740000Y-96071289D01*
X91696063Y-96115226D01*
X91582795Y-96284744D01*
X91504774Y-96473102D01*
X91465000Y-96673061D01*
X91465000Y-96876939D01*
X91504774Y-97076898D01*
X91582795Y-97265256D01*
X91696063Y-97434774D01*
X91840226Y-97578937D01*
X92009744Y-97692205D01*
X92198102Y-97770226D01*
X92398061Y-97810000D01*
X92601939Y-97810000D01*
X92801898Y-97770226D01*
X92990256Y-97692205D01*
X93159774Y-97578937D01*
X93303937Y-97434774D01*
X93417205Y-97265256D01*
X93495226Y-97076898D01*
X93535000Y-96876939D01*
X93535000Y-96673061D01*
X93495226Y-96473102D01*
X93417205Y-96284744D01*
X93303937Y-96115226D01*
X93260000Y-96071289D01*
X93260000Y-85253711D01*
X93303937Y-85209774D01*
X93417205Y-85040256D01*
X93495226Y-84851898D01*
X93535000Y-84651939D01*
X93535000Y-84448061D01*
X93495226Y-84248102D01*
X93417205Y-84059744D01*
X93303937Y-83890226D01*
X93159774Y-83746063D01*
X92990256Y-83632795D01*
X92801898Y-83554774D01*
X92601939Y-83515000D01*
X92398061Y-83515000D01*
X92198102Y-83554774D01*
X92110000Y-83591267D01*
X92110000Y-82753711D01*
X92178937Y-82684774D01*
X92292205Y-82515256D01*
X92370226Y-82326898D01*
X92410000Y-82126939D01*
X92410000Y-81923061D01*
X92370226Y-81723102D01*
X92292205Y-81534744D01*
X92178937Y-81365226D01*
X92034774Y-81221063D01*
X91865256Y-81107795D01*
X91676898Y-81029774D01*
X91476939Y-80990000D01*
X91273061Y-80990000D01*
X91252370Y-80994116D01*
X91217358Y-80909591D01*
X91104090Y-80740073D01*
X90959927Y-80595910D01*
X90790409Y-80482642D01*
X90602051Y-80404621D01*
X90402092Y-80364847D01*
X90198214Y-80364847D01*
X89998255Y-80404621D01*
X89809897Y-80482642D01*
X89640379Y-80595910D01*
X89496216Y-80740073D01*
X89382948Y-80909591D01*
X89304927Y-81097949D01*
X89265153Y-81297908D01*
X89265153Y-81501786D01*
X89304927Y-81701745D01*
X89382948Y-81890103D01*
X89496216Y-82059621D01*
X89540001Y-82103406D01*
X89540000Y-82971289D01*
X89496063Y-83015226D01*
X89382795Y-83184744D01*
X89304774Y-83373102D01*
X89265000Y-83573061D01*
X89265000Y-83776939D01*
X89304774Y-83976898D01*
X89382795Y-84165256D01*
X89496063Y-84334774D01*
X89640226Y-84478937D01*
X89809744Y-84592205D01*
X89998102Y-84670226D01*
X90198061Y-84710000D01*
X90401939Y-84710000D01*
X90590000Y-84672593D01*
X90590000Y-85435198D01*
X90210199Y-85815000D01*
X90148061Y-85815000D01*
X89948102Y-85854774D01*
X89759744Y-85932795D01*
X89590226Y-86046063D01*
X89446063Y-86190226D01*
X89332795Y-86359744D01*
X89254774Y-86548102D01*
X89215000Y-86748061D01*
X85188895Y-86748061D01*
X83848657Y-85407824D01*
X83850831Y-85402575D01*
X83890605Y-85202616D01*
X83890605Y-84998738D01*
X83850831Y-84798779D01*
X83772810Y-84610421D01*
X83659542Y-84440903D01*
X83515379Y-84296740D01*
X83345861Y-84183472D01*
X83157503Y-84105451D01*
X82957544Y-84065677D01*
X82753666Y-84065677D01*
X82553707Y-84105451D01*
X82373450Y-84180117D01*
X82269131Y-84075798D01*
X82099613Y-83962530D01*
X81911255Y-83884509D01*
X81711296Y-83844735D01*
X81507418Y-83844735D01*
X81307459Y-83884509D01*
X81119101Y-83962530D01*
X80949583Y-84075798D01*
X80805420Y-84219961D01*
X80692152Y-84389479D01*
X80614131Y-84577837D01*
X80574357Y-84777796D01*
X73283614Y-84777796D01*
X73499250Y-84380883D01*
X74653329Y-82570346D01*
X75930919Y-80844692D01*
X77325746Y-79212389D01*
X78831050Y-77681352D01*
X80439488Y-76259046D01*
X82143227Y-74952401D01*
X83936425Y-73766158D01*
X85320668Y-72966965D01*
X85368450Y-72941425D01*
X85468948Y-72858948D01*
X85551425Y-72758450D01*
X85612710Y-72643793D01*
X85650450Y-72519383D01*
X85660000Y-72422419D01*
X85660000Y-72390029D01*
X85660001Y-72390000D01*
X85660000Y-72389971D01*
X85660000Y-67425000D01*
X87844993Y-67425000D01*
X87924830Y-68235602D01*
X88161274Y-69015052D01*
X88545238Y-69733398D01*
X89061966Y-70363034D01*
X89691602Y-70879762D01*
X90409948Y-71263726D01*
X91189398Y-71500170D01*
X91796865Y-71560000D01*
X108203135Y-71560000D01*
X108810602Y-71500170D01*
X109590052Y-71263726D01*
X110308398Y-70879762D01*
X110938034Y-70363034D01*
X111454762Y-69733398D01*
X111838726Y-69015052D01*
X112075170Y-68235602D01*
X112155007Y-67425000D01*
X112075170Y-66614398D01*
X111838726Y-65834948D01*
X111454762Y-65116602D01*
X110938034Y-64486966D01*
X110308398Y-63970238D01*
X109590052Y-63586274D01*
X108810602Y-63349830D01*
X108203135Y-63290000D01*
X91796865Y-63290000D01*
X91189398Y-63349830D01*
X90409948Y-63586274D01*
X89691602Y-63970238D01*
X89061966Y-64486966D01*
X88545238Y-65116602D01*
X88161274Y-65834948D01*
X87924830Y-66614398D01*
X87844993Y-67425000D01*
X85660000Y-67425000D01*
X85660000Y-63051380D01*
X86273381Y-62438000D01*
X113726620Y-62438000D01*
X114340000Y-63051381D01*
G37*
X114340000Y-63051381D02*
X114340001Y-72422419D01*
X114349551Y-72519383D01*
X114387291Y-72643793D01*
X114448576Y-72758450D01*
X114531053Y-72858948D01*
X114631551Y-72941425D01*
X114676721Y-72965568D01*
X116534463Y-74060492D01*
X118303637Y-75277067D01*
X119983634Y-76614087D01*
X121566281Y-78065049D01*
X123043839Y-79622856D01*
X124409142Y-81279949D01*
X125655533Y-83028253D01*
X126776924Y-84859231D01*
X127767866Y-86763983D01*
X128623522Y-88733210D01*
X129339731Y-90757342D01*
X129912994Y-92826481D01*
X130340526Y-94930579D01*
X130620243Y-97059378D01*
X130750781Y-99202507D01*
X130731505Y-101349511D01*
X130562508Y-103489938D01*
X130244610Y-105613384D01*
X129779370Y-107709453D01*
X129169044Y-109767980D01*
X128416612Y-111778909D01*
X127525724Y-113732480D01*
X126500750Y-115619116D01*
X125346666Y-117429660D01*
X124069081Y-119155308D01*
X122674254Y-120787611D01*
X121168943Y-122318655D01*
X119560506Y-123740959D01*
X117856773Y-125047599D01*
X116066046Y-126232207D01*
X114197048Y-127289016D01*
X112258866Y-128212884D01*
X110260984Y-128999289D01*
X108213103Y-129644417D01*
X106125198Y-130145123D01*
X104007453Y-130498965D01*
X101870201Y-130704216D01*
X99723834Y-130759880D01*
X97578798Y-130665686D01*
X95445561Y-130422090D01*
X93334523Y-130030284D01*
X91255950Y-129492171D01*
X89219982Y-128810376D01*
X87236536Y-127988222D01*
X85315263Y-127029706D01*
X83465537Y-125939508D01*
X81696363Y-124722933D01*
X80016373Y-123385919D01*
X79681727Y-123079117D01*
X86015000Y-123079117D01*
X86015000Y-123420883D01*
X86081675Y-123756081D01*
X86212463Y-124071831D01*
X86402337Y-124355998D01*
X86644002Y-124597663D01*
X86928169Y-124787537D01*
X87243919Y-124918325D01*
X87579117Y-124985000D01*
X87920883Y-124985000D01*
X88256081Y-124918325D01*
X88571831Y-124787537D01*
X88855998Y-124597663D01*
X88996949Y-124456712D01*
X91222893Y-124456712D01*
X91330726Y-124731338D01*
X91637384Y-124882216D01*
X91967585Y-124970369D01*
X92308639Y-124992409D01*
X92647439Y-124947489D01*
X92970966Y-124837336D01*
X93169274Y-124731338D01*
X93277107Y-124456712D01*
X92250000Y-123429605D01*
X91222893Y-124456712D01*
X88996949Y-124456712D01*
X89097663Y-124355998D01*
X89287537Y-124071831D01*
X89418325Y-123756081D01*
X89485000Y-123420883D01*
X89485000Y-123308639D01*
X90507591Y-123308639D01*
X90552511Y-123647439D01*
X90662664Y-123970966D01*
X90768662Y-124169274D01*
X91043288Y-124277107D01*
X92070395Y-123250000D01*
X92429605Y-123250000D01*
X93456712Y-124277107D01*
X93731338Y-124169274D01*
X93882216Y-123862616D01*
X93970369Y-123532415D01*
X93992409Y-123191361D01*
X93977528Y-123079117D01*
X106015000Y-123079117D01*
X106015000Y-123420883D01*
X106081675Y-123756081D01*
X106212463Y-124071831D01*
X106402337Y-124355998D01*
X106644002Y-124597663D01*
X106928169Y-124787537D01*
X107243919Y-124918325D01*
X107579117Y-124985000D01*
X107920883Y-124985000D01*
X108256081Y-124918325D01*
X108571831Y-124787537D01*
X108855998Y-124597663D01*
X108996949Y-124456712D01*
X111222893Y-124456712D01*
X111330726Y-124731338D01*
X111637384Y-124882216D01*
X111967585Y-124970369D01*
X112308639Y-124992409D01*
X112647439Y-124947489D01*
X112970966Y-124837336D01*
X113169274Y-124731338D01*
X113277107Y-124456712D01*
X112250000Y-123429605D01*
X111222893Y-124456712D01*
X108996949Y-124456712D01*
X109097663Y-124355998D01*
X109287537Y-124071831D01*
X109418325Y-123756081D01*
X109485000Y-123420883D01*
X109485000Y-123308639D01*
X110507591Y-123308639D01*
X110552511Y-123647439D01*
X110662664Y-123970966D01*
X110768662Y-124169274D01*
X111043288Y-124277107D01*
X112070395Y-123250000D01*
X112429605Y-123250000D01*
X113456712Y-124277107D01*
X113731338Y-124169274D01*
X113882216Y-123862616D01*
X113970369Y-123532415D01*
X113992409Y-123191361D01*
X113947489Y-122852561D01*
X113837336Y-122529034D01*
X113731338Y-122330726D01*
X113456712Y-122222893D01*
X112429605Y-123250000D01*
X112070395Y-123250000D01*
X111043288Y-122222893D01*
X110768662Y-122330726D01*
X110617784Y-122637384D01*
X110529631Y-122967585D01*
X110507591Y-123308639D01*
X109485000Y-123308639D01*
X109485000Y-123079117D01*
X109418325Y-122743919D01*
X109287537Y-122428169D01*
X109097663Y-122144002D01*
X108996949Y-122043288D01*
X111222893Y-122043288D01*
X112250000Y-123070395D01*
X113277107Y-122043288D01*
X113169274Y-121768662D01*
X112862616Y-121617784D01*
X112532415Y-121529631D01*
X112191361Y-121507591D01*
X111852561Y-121552511D01*
X111529034Y-121662664D01*
X111330726Y-121768662D01*
X111222893Y-122043288D01*
X108996949Y-122043288D01*
X108855998Y-121902337D01*
X108571831Y-121712463D01*
X108256081Y-121581675D01*
X107920883Y-121515000D01*
X107579117Y-121515000D01*
X107243919Y-121581675D01*
X106928169Y-121712463D01*
X106644002Y-121902337D01*
X106402337Y-122144002D01*
X106212463Y-122428169D01*
X106081675Y-122743919D01*
X106015000Y-123079117D01*
X93977528Y-123079117D01*
X93947489Y-122852561D01*
X93837336Y-122529034D01*
X93731338Y-122330726D01*
X93456712Y-122222893D01*
X92429605Y-123250000D01*
X92070395Y-123250000D01*
X91043288Y-122222893D01*
X90768662Y-122330726D01*
X90617784Y-122637384D01*
X90529631Y-122967585D01*
X90507591Y-123308639D01*
X89485000Y-123308639D01*
X89485000Y-123079117D01*
X89418325Y-122743919D01*
X89287537Y-122428169D01*
X89097663Y-122144002D01*
X88996949Y-122043288D01*
X91222893Y-122043288D01*
X92250000Y-123070395D01*
X93277107Y-122043288D01*
X93169274Y-121768662D01*
X92862616Y-121617784D01*
X92532415Y-121529631D01*
X92191361Y-121507591D01*
X91852561Y-121552511D01*
X91529034Y-121662664D01*
X91330726Y-121768662D01*
X91222893Y-122043288D01*
X88996949Y-122043288D01*
X88855998Y-121902337D01*
X88571831Y-121712463D01*
X88256081Y-121581675D01*
X87920883Y-121515000D01*
X87579117Y-121515000D01*
X87243919Y-121581675D01*
X86928169Y-121712463D01*
X86644002Y-121902337D01*
X86402337Y-122144002D01*
X86212463Y-122428169D01*
X86081675Y-122743919D01*
X86015000Y-123079117D01*
X79681727Y-123079117D01*
X78433726Y-121934958D01*
X76956160Y-120377144D01*
X76524921Y-119853740D01*
X96035000Y-119853740D01*
X96035000Y-120146260D01*
X96092068Y-120433158D01*
X96204010Y-120703411D01*
X96366525Y-120946632D01*
X96573368Y-121153475D01*
X96816589Y-121315990D01*
X97086842Y-121427932D01*
X97373740Y-121485000D01*
X97666260Y-121485000D01*
X97953158Y-121427932D01*
X98223411Y-121315990D01*
X98466632Y-121153475D01*
X98673475Y-120946632D01*
X98790000Y-120772240D01*
X98906525Y-120946632D01*
X99113368Y-121153475D01*
X99356589Y-121315990D01*
X99626842Y-121427932D01*
X99913740Y-121485000D01*
X100206260Y-121485000D01*
X100493158Y-121427932D01*
X100763411Y-121315990D01*
X101006632Y-121153475D01*
X101138487Y-121021620D01*
X101160498Y-121094180D01*
X101219463Y-121204494D01*
X101298815Y-121301185D01*
X101395506Y-121380537D01*
X101505820Y-121439502D01*
X101625518Y-121475812D01*
X101750000Y-121488072D01*
X103450000Y-121488072D01*
X103574482Y-121475812D01*
X103694180Y-121439502D01*
X103804494Y-121380537D01*
X103901185Y-121301185D01*
X103980537Y-121204494D01*
X104039502Y-121094180D01*
X104075812Y-120974482D01*
X104088072Y-120850000D01*
X104088072Y-119150000D01*
X104075812Y-119025518D01*
X104039502Y-118905820D01*
X103980537Y-118795506D01*
X103901185Y-118698815D01*
X103804494Y-118619463D01*
X103694180Y-118560498D01*
X103574482Y-118524188D01*
X103450000Y-118511928D01*
X101750000Y-118511928D01*
X101625518Y-118524188D01*
X101505820Y-118560498D01*
X101395506Y-118619463D01*
X101298815Y-118698815D01*
X101219463Y-118795506D01*
X101160498Y-118905820D01*
X101138487Y-118978380D01*
X101006632Y-118846525D01*
X100763411Y-118684010D01*
X100493158Y-118572068D01*
X100206260Y-118515000D01*
X99913740Y-118515000D01*
X99626842Y-118572068D01*
X99356589Y-118684010D01*
X99113368Y-118846525D01*
X98906525Y-119053368D01*
X98790000Y-119227760D01*
X98673475Y-119053368D01*
X98466632Y-118846525D01*
X98223411Y-118684010D01*
X97953158Y-118572068D01*
X97666260Y-118515000D01*
X97373740Y-118515000D01*
X97086842Y-118572068D01*
X96816589Y-118684010D01*
X96573368Y-118846525D01*
X96366525Y-119053368D01*
X96204010Y-119296589D01*
X96092068Y-119566842D01*
X96035000Y-119853740D01*
X76524921Y-119853740D01*
X75590853Y-118720044D01*
X74344468Y-116971747D01*
X74104000Y-116579117D01*
X86015000Y-116579117D01*
X86015000Y-116920883D01*
X86081675Y-117256081D01*
X86212463Y-117571831D01*
X86402337Y-117855998D01*
X86644002Y-118097663D01*
X86928169Y-118287537D01*
X87243919Y-118418325D01*
X87579117Y-118485000D01*
X87920883Y-118485000D01*
X88256081Y-118418325D01*
X88571831Y-118287537D01*
X88855998Y-118097663D01*
X88996949Y-117956712D01*
X91222893Y-117956712D01*
X91330726Y-118231338D01*
X91637384Y-118382216D01*
X91967585Y-118470369D01*
X92308639Y-118492409D01*
X92647439Y-118447489D01*
X92970966Y-118337336D01*
X93169274Y-118231338D01*
X93277107Y-117956712D01*
X92250000Y-116929605D01*
X91222893Y-117956712D01*
X88996949Y-117956712D01*
X89097663Y-117855998D01*
X89287537Y-117571831D01*
X89418325Y-117256081D01*
X89485000Y-116920883D01*
X89485000Y-116808639D01*
X90507591Y-116808639D01*
X90552511Y-117147439D01*
X90662664Y-117470966D01*
X90768662Y-117669274D01*
X91043288Y-117777107D01*
X92070395Y-116750000D01*
X92429605Y-116750000D01*
X93456712Y-117777107D01*
X93731338Y-117669274D01*
X93882216Y-117362616D01*
X93970369Y-117032415D01*
X93992409Y-116691361D01*
X93977528Y-116579117D01*
X106015000Y-116579117D01*
X106015000Y-116920883D01*
X106081675Y-117256081D01*
X106212463Y-117571831D01*
X106402337Y-117855998D01*
X106644002Y-118097663D01*
X106928169Y-118287537D01*
X107243919Y-118418325D01*
X107579117Y-118485000D01*
X107920883Y-118485000D01*
X108256081Y-118418325D01*
X108571831Y-118287537D01*
X108855998Y-118097663D01*
X108996949Y-117956712D01*
X111222893Y-117956712D01*
X111330726Y-118231338D01*
X111637384Y-118382216D01*
X111967585Y-118470369D01*
X112308639Y-118492409D01*
X112647439Y-118447489D01*
X112970966Y-118337336D01*
X113169274Y-118231338D01*
X113277107Y-117956712D01*
X112250000Y-116929605D01*
X111222893Y-117956712D01*
X108996949Y-117956712D01*
X109097663Y-117855998D01*
X109287537Y-117571831D01*
X109418325Y-117256081D01*
X109485000Y-116920883D01*
X109485000Y-116808639D01*
X110507591Y-116808639D01*
X110552511Y-117147439D01*
X110662664Y-117470966D01*
X110768662Y-117669274D01*
X111043288Y-117777107D01*
X112070395Y-116750000D01*
X112429605Y-116750000D01*
X113456712Y-117777107D01*
X113731338Y-117669274D01*
X113882216Y-117362616D01*
X113970369Y-117032415D01*
X113992409Y-116691361D01*
X113947489Y-116352561D01*
X113837336Y-116029034D01*
X113731338Y-115830726D01*
X113456712Y-115722893D01*
X112429605Y-116750000D01*
X112070395Y-116750000D01*
X111043288Y-115722893D01*
X110768662Y-115830726D01*
X110617784Y-116137384D01*
X110529631Y-116467585D01*
X110507591Y-116808639D01*
X109485000Y-116808639D01*
X109485000Y-116579117D01*
X109418325Y-116243919D01*
X109287537Y-115928169D01*
X109097663Y-115644002D01*
X108996949Y-115543288D01*
X111222893Y-115543288D01*
X112250000Y-116570395D01*
X113277107Y-115543288D01*
X113169274Y-115268662D01*
X112862616Y-115117784D01*
X112532415Y-115029631D01*
X112191361Y-115007591D01*
X111852561Y-115052511D01*
X111529034Y-115162664D01*
X111330726Y-115268662D01*
X111222893Y-115543288D01*
X108996949Y-115543288D01*
X108855998Y-115402337D01*
X108571831Y-115212463D01*
X108256081Y-115081675D01*
X107920883Y-115015000D01*
X107579117Y-115015000D01*
X107243919Y-115081675D01*
X106928169Y-115212463D01*
X106644002Y-115402337D01*
X106402337Y-115644002D01*
X106212463Y-115928169D01*
X106081675Y-116243919D01*
X106015000Y-116579117D01*
X93977528Y-116579117D01*
X93947489Y-116352561D01*
X93837336Y-116029034D01*
X93731338Y-115830726D01*
X93456712Y-115722893D01*
X92429605Y-116750000D01*
X92070395Y-116750000D01*
X91043288Y-115722893D01*
X90768662Y-115830726D01*
X90617784Y-116137384D01*
X90529631Y-116467585D01*
X90507591Y-116808639D01*
X89485000Y-116808639D01*
X89485000Y-116579117D01*
X89418325Y-116243919D01*
X89287537Y-115928169D01*
X89097663Y-115644002D01*
X88996949Y-115543288D01*
X91222893Y-115543288D01*
X92250000Y-116570395D01*
X93277107Y-115543288D01*
X93169274Y-115268662D01*
X92862616Y-115117784D01*
X92532415Y-115029631D01*
X92191361Y-115007591D01*
X91852561Y-115052511D01*
X91529034Y-115162664D01*
X91330726Y-115268662D01*
X91222893Y-115543288D01*
X88996949Y-115543288D01*
X88855998Y-115402337D01*
X88571831Y-115212463D01*
X88256081Y-115081675D01*
X87920883Y-115015000D01*
X87579117Y-115015000D01*
X87243919Y-115081675D01*
X86928169Y-115212463D01*
X86644002Y-115402337D01*
X86402337Y-115644002D01*
X86212463Y-115928169D01*
X86081675Y-116243919D01*
X86015000Y-116579117D01*
X74104000Y-116579117D01*
X73223080Y-115140775D01*
X72232134Y-113236017D01*
X71376478Y-111266790D01*
X70660269Y-109242658D01*
X70087006Y-107173519D01*
X69659474Y-105069421D01*
X69379757Y-102940622D01*
X69332819Y-102170000D01*
X78461928Y-102170000D01*
X78474188Y-102294482D01*
X78510498Y-102414180D01*
X78569463Y-102524494D01*
X78648815Y-102621185D01*
X78745506Y-102700537D01*
X78855820Y-102759502D01*
X78975518Y-102795812D01*
X79100000Y-102808072D01*
X79714250Y-102805000D01*
X79873000Y-102646250D01*
X79873000Y-101397000D01*
X80127000Y-101397000D01*
X80127000Y-102646250D01*
X80285750Y-102805000D01*
X80900000Y-102808072D01*
X81024482Y-102795812D01*
X81144180Y-102759502D01*
X81254494Y-102700537D01*
X81351185Y-102621185D01*
X81430537Y-102524494D01*
X81489502Y-102414180D01*
X81525812Y-102294482D01*
X81538072Y-102170000D01*
X81535000Y-101555750D01*
X81376250Y-101397000D01*
X80127000Y-101397000D01*
X79873000Y-101397000D01*
X78623750Y-101397000D01*
X78465000Y-101555750D01*
X78461928Y-102170000D01*
X69332819Y-102170000D01*
X69249219Y-100797493D01*
X69253057Y-100370000D01*
X78461928Y-100370000D01*
X78465000Y-100984250D01*
X78623750Y-101143000D01*
X79873000Y-101143000D01*
X79873000Y-101123000D01*
X80127000Y-101123000D01*
X80127000Y-101143000D01*
X81376250Y-101143000D01*
X81535000Y-100984250D01*
X81538072Y-100370000D01*
X81525812Y-100245518D01*
X81489502Y-100125820D01*
X81430537Y-100015506D01*
X81351185Y-99918815D01*
X81254494Y-99839463D01*
X81144180Y-99780498D01*
X81125873Y-99774944D01*
X81192312Y-99708505D01*
X81360299Y-99457095D01*
X81476011Y-99177743D01*
X81535000Y-98881184D01*
X81535000Y-98578816D01*
X81476011Y-98282257D01*
X81360299Y-98002905D01*
X81192312Y-97751495D01*
X80978505Y-97537688D01*
X80727095Y-97369701D01*
X80447743Y-97253989D01*
X80151184Y-97195000D01*
X79848816Y-97195000D01*
X79552257Y-97253989D01*
X79272905Y-97369701D01*
X79021495Y-97537688D01*
X78807688Y-97751495D01*
X78639701Y-98002905D01*
X78523989Y-98282257D01*
X78465000Y-98578816D01*
X78465000Y-98881184D01*
X78523989Y-99177743D01*
X78639701Y-99457095D01*
X78807688Y-99708505D01*
X78874127Y-99774944D01*
X78855820Y-99780498D01*
X78745506Y-99839463D01*
X78648815Y-99918815D01*
X78569463Y-100015506D01*
X78510498Y-100125820D01*
X78474188Y-100245518D01*
X78461928Y-100370000D01*
X69253057Y-100370000D01*
X69268495Y-98650490D01*
X69437493Y-96510060D01*
X69755390Y-94386616D01*
X70220630Y-92290547D01*
X70830959Y-90232012D01*
X71583388Y-88221091D01*
X72474270Y-86267531D01*
X73283614Y-84777796D01*
X80574357Y-84777796D01*
X80574357Y-84981674D01*
X80614131Y-85181633D01*
X80692152Y-85369991D01*
X80805420Y-85539509D01*
X80949583Y-85683672D01*
X81119101Y-85796940D01*
X81307459Y-85874961D01*
X81507418Y-85914735D01*
X81569556Y-85914735D01*
X85615001Y-89960181D01*
X85615000Y-109562678D01*
X85611324Y-109600000D01*
X85615000Y-109637322D01*
X85615000Y-109637332D01*
X85625997Y-109748985D01*
X85655508Y-109846270D01*
X85669454Y-109892246D01*
X85740026Y-110024276D01*
X85767535Y-110057795D01*
X85834999Y-110140001D01*
X85864003Y-110163804D01*
X86715000Y-111014802D01*
X86715000Y-111076939D01*
X86754774Y-111276898D01*
X86832795Y-111465256D01*
X86946063Y-111634774D01*
X87090226Y-111778937D01*
X87259744Y-111892205D01*
X87448102Y-111970226D01*
X87648061Y-112010000D01*
X87851939Y-112010000D01*
X88051898Y-111970226D01*
X88240256Y-111892205D01*
X88409774Y-111778937D01*
X88553937Y-111634774D01*
X88634430Y-111514308D01*
X88634999Y-111515001D01*
X88663997Y-111538799D01*
X88750723Y-111609974D01*
X88876194Y-111677040D01*
X88882753Y-111680546D01*
X89026014Y-111724003D01*
X89137667Y-111735000D01*
X89137676Y-111735000D01*
X89174999Y-111738676D01*
X89212322Y-111735000D01*
X107021289Y-111735000D01*
X107065226Y-111778937D01*
X107234744Y-111892205D01*
X107423102Y-111970226D01*
X107623061Y-112010000D01*
X107826939Y-112010000D01*
X108026898Y-111970226D01*
X108215256Y-111892205D01*
X108384774Y-111778937D01*
X108528937Y-111634774D01*
X108642205Y-111465256D01*
X108720226Y-111276898D01*
X108760000Y-111076939D01*
X108760000Y-110873061D01*
X108720226Y-110673102D01*
X108642205Y-110484744D01*
X108528937Y-110315226D01*
X108384774Y-110171063D01*
X108215256Y-110057795D01*
X108026898Y-109979774D01*
X107826939Y-109940000D01*
X107623061Y-109940000D01*
X107423102Y-109979774D01*
X107234744Y-110057795D01*
X107065226Y-110171063D01*
X107021289Y-110215000D01*
X89489802Y-110215000D01*
X88363807Y-109089005D01*
X88363799Y-109088996D01*
X87686002Y-108411201D01*
X87585010Y-108310209D01*
X87585010Y-103448061D01*
X94665000Y-103448061D01*
X94665000Y-103651939D01*
X94704774Y-103851898D01*
X94782795Y-104040256D01*
X94896063Y-104209774D01*
X95040226Y-104353937D01*
X95209744Y-104467205D01*
X95398102Y-104545226D01*
X95598061Y-104585000D01*
X95801939Y-104585000D01*
X96001898Y-104545226D01*
X96190256Y-104467205D01*
X96359774Y-104353937D01*
X96503937Y-104209774D01*
X96617205Y-104040256D01*
X96695226Y-103851898D01*
X96735000Y-103651939D01*
X96735000Y-103448061D01*
X96695226Y-103248102D01*
X96617205Y-103059744D01*
X96503937Y-102890226D01*
X96485000Y-102871289D01*
X96485000Y-102170000D01*
X118461928Y-102170000D01*
X118474188Y-102294482D01*
X118510498Y-102414180D01*
X118569463Y-102524494D01*
X118648815Y-102621185D01*
X118745506Y-102700537D01*
X118855820Y-102759502D01*
X118975518Y-102795812D01*
X119100000Y-102808072D01*
X119714250Y-102805000D01*
X119873000Y-102646250D01*
X119873000Y-101397000D01*
X120127000Y-101397000D01*
X120127000Y-102646250D01*
X120285750Y-102805000D01*
X120900000Y-102808072D01*
X121024482Y-102795812D01*
X121144180Y-102759502D01*
X121254494Y-102700537D01*
X121351185Y-102621185D01*
X121430537Y-102524494D01*
X121489502Y-102414180D01*
X121525812Y-102294482D01*
X121538072Y-102170000D01*
X121535000Y-101555750D01*
X121376250Y-101397000D01*
X120127000Y-101397000D01*
X119873000Y-101397000D01*
X118623750Y-101397000D01*
X118465000Y-101555750D01*
X118461928Y-102170000D01*
X96485000Y-102170000D01*
X96485000Y-101250000D01*
X105611928Y-101250000D01*
X105624188Y-101374482D01*
X105660498Y-101494180D01*
X105719463Y-101604494D01*
X105798815Y-101701185D01*
X105895506Y-101780537D01*
X106005820Y-101839502D01*
X106125518Y-101875812D01*
X106250000Y-101888072D01*
X107214250Y-101885000D01*
X107373000Y-101726250D01*
X107373000Y-100127000D01*
X107627000Y-100127000D01*
X107627000Y-101726250D01*
X107785750Y-101885000D01*
X108750000Y-101888072D01*
X108874482Y-101875812D01*
X108994180Y-101839502D01*
X109104494Y-101780537D01*
X109201185Y-101701185D01*
X109280537Y-101604494D01*
X109339502Y-101494180D01*
X109375812Y-101374482D01*
X109388072Y-101250000D01*
X109385269Y-100370000D01*
X118461928Y-100370000D01*
X118465000Y-100984250D01*
X118623750Y-101143000D01*
X119873000Y-101143000D01*
X119873000Y-101123000D01*
X120127000Y-101123000D01*
X120127000Y-101143000D01*
X121376250Y-101143000D01*
X121535000Y-100984250D01*
X121538072Y-100370000D01*
X121525812Y-100245518D01*
X121489502Y-100125820D01*
X121430537Y-100015506D01*
X121351185Y-99918815D01*
X121254494Y-99839463D01*
X121144180Y-99780498D01*
X121125873Y-99774944D01*
X121192312Y-99708505D01*
X121360299Y-99457095D01*
X121476011Y-99177743D01*
X121535000Y-98881184D01*
X121535000Y-98578816D01*
X121476011Y-98282257D01*
X121360299Y-98002905D01*
X121192312Y-97751495D01*
X120978505Y-97537688D01*
X120727095Y-97369701D01*
X120447743Y-97253989D01*
X120151184Y-97195000D01*
X119848816Y-97195000D01*
X119552257Y-97253989D01*
X119272905Y-97369701D01*
X119021495Y-97537688D01*
X118807688Y-97751495D01*
X118639701Y-98002905D01*
X118523989Y-98282257D01*
X118465000Y-98578816D01*
X118465000Y-98881184D01*
X118523989Y-99177743D01*
X118639701Y-99457095D01*
X118807688Y-99708505D01*
X118874127Y-99774944D01*
X118855820Y-99780498D01*
X118745506Y-99839463D01*
X118648815Y-99918815D01*
X118569463Y-100015506D01*
X118510498Y-100125820D01*
X118474188Y-100245518D01*
X118461928Y-100370000D01*
X109385269Y-100370000D01*
X109385000Y-100285750D01*
X109226250Y-100127000D01*
X107627000Y-100127000D01*
X107373000Y-100127000D01*
X105773750Y-100127000D01*
X105615000Y-100285750D01*
X105611928Y-101250000D01*
X96485000Y-101250000D01*
X96485000Y-98750000D01*
X105611928Y-98750000D01*
X105615000Y-99714250D01*
X105773750Y-99873000D01*
X107373000Y-99873000D01*
X107373000Y-98273750D01*
X107627000Y-98273750D01*
X107627000Y-99873000D01*
X109226250Y-99873000D01*
X109385000Y-99714250D01*
X109388072Y-98750000D01*
X109375812Y-98625518D01*
X109339502Y-98505820D01*
X109280537Y-98395506D01*
X109201185Y-98298815D01*
X109104494Y-98219463D01*
X108994180Y-98160498D01*
X108874482Y-98124188D01*
X108750000Y-98111928D01*
X107785750Y-98115000D01*
X107627000Y-98273750D01*
X107373000Y-98273750D01*
X107214250Y-98115000D01*
X106250000Y-98111928D01*
X106125518Y-98124188D01*
X106005820Y-98160498D01*
X105895506Y-98219463D01*
X105798815Y-98298815D01*
X105719463Y-98395506D01*
X105660498Y-98505820D01*
X105624188Y-98625518D01*
X105611928Y-98750000D01*
X96485000Y-98750000D01*
X96485000Y-96589000D01*
X98276928Y-96589000D01*
X98289188Y-96713482D01*
X98325498Y-96833180D01*
X98384463Y-96943494D01*
X98463815Y-97040185D01*
X98560506Y-97119537D01*
X98670820Y-97178502D01*
X98790518Y-97214812D01*
X98915000Y-97227072D01*
X99714250Y-97224000D01*
X99873000Y-97065250D01*
X99873000Y-95631000D01*
X100127000Y-95631000D01*
X100127000Y-97065250D01*
X100285750Y-97224000D01*
X101085000Y-97227072D01*
X101209482Y-97214812D01*
X101329180Y-97178502D01*
X101439494Y-97119537D01*
X101536185Y-97040185D01*
X101615537Y-96943494D01*
X101674502Y-96833180D01*
X101710812Y-96713482D01*
X101723072Y-96589000D01*
X101720000Y-95789750D01*
X101561250Y-95631000D01*
X100127000Y-95631000D01*
X99873000Y-95631000D01*
X98438750Y-95631000D01*
X98280000Y-95789750D01*
X98276928Y-96589000D01*
X96485000Y-96589000D01*
X96485000Y-94419000D01*
X98276928Y-94419000D01*
X98280000Y-95218250D01*
X98438750Y-95377000D01*
X99873000Y-95377000D01*
X99873000Y-93942750D01*
X100127000Y-93942750D01*
X100127000Y-95377000D01*
X101561250Y-95377000D01*
X101720000Y-95218250D01*
X101723072Y-94419000D01*
X101710812Y-94294518D01*
X101674502Y-94174820D01*
X101615537Y-94064506D01*
X101536185Y-93967815D01*
X101439494Y-93888463D01*
X101329180Y-93829498D01*
X101209482Y-93793188D01*
X101085000Y-93780928D01*
X100285750Y-93784000D01*
X100127000Y-93942750D01*
X99873000Y-93942750D01*
X99714250Y-93784000D01*
X98915000Y-93780928D01*
X98790518Y-93793188D01*
X98670820Y-93829498D01*
X98560506Y-93888463D01*
X98463815Y-93967815D01*
X98384463Y-94064506D01*
X98325498Y-94174820D01*
X98289188Y-94294518D01*
X98276928Y-94419000D01*
X96485000Y-94419000D01*
X96485000Y-85175000D01*
X111186324Y-85175000D01*
X111190001Y-85212332D01*
X111190000Y-91737677D01*
X111186324Y-91775000D01*
X111190000Y-91812322D01*
X111190000Y-91812332D01*
X111200997Y-91923985D01*
X111243099Y-92062779D01*
X111244454Y-92067246D01*
X111315026Y-92199276D01*
X111351496Y-92243714D01*
X111409999Y-92315001D01*
X111439003Y-92338804D01*
X114836201Y-95736003D01*
X114859999Y-95765001D01*
X114975724Y-95859974D01*
X115107753Y-95930546D01*
X115251014Y-95974003D01*
X115362667Y-95985000D01*
X115362675Y-95985000D01*
X115400000Y-95988676D01*
X115437325Y-95985000D01*
X119271289Y-95985000D01*
X119315226Y-96028937D01*
X119484744Y-96142205D01*
X119673102Y-96220226D01*
X119873061Y-96260000D01*
X120076939Y-96260000D01*
X120276898Y-96220226D01*
X120465256Y-96142205D01*
X120634774Y-96028937D01*
X120778937Y-95884774D01*
X120892205Y-95715256D01*
X120970226Y-95526898D01*
X121010000Y-95326939D01*
X121010000Y-95123061D01*
X120970226Y-94923102D01*
X120892205Y-94734744D01*
X120778937Y-94565226D01*
X120634774Y-94421063D01*
X120465256Y-94307795D01*
X120276898Y-94229774D01*
X120076939Y-94190000D01*
X119873061Y-94190000D01*
X119673102Y-94229774D01*
X119484744Y-94307795D01*
X119315226Y-94421063D01*
X119271289Y-94465000D01*
X115714802Y-94465000D01*
X112710000Y-91460199D01*
X112710000Y-85489801D01*
X114127802Y-84072000D01*
X114296822Y-84072000D01*
X114421525Y-84258632D01*
X114628368Y-84465475D01*
X114802760Y-84582000D01*
X114628368Y-84698525D01*
X114421525Y-84905368D01*
X114259010Y-85148589D01*
X114147068Y-85418842D01*
X114090000Y-85705740D01*
X114090000Y-85998260D01*
X114147068Y-86285158D01*
X114259010Y-86555411D01*
X114421525Y-86798632D01*
X114628368Y-87005475D01*
X114871589Y-87167990D01*
X115141842Y-87279932D01*
X115428740Y-87337000D01*
X115721260Y-87337000D01*
X116008158Y-87279932D01*
X116278411Y-87167990D01*
X116521632Y-87005475D01*
X116728475Y-86798632D01*
X116846100Y-86622594D01*
X117017412Y-86852269D01*
X117233645Y-87047178D01*
X117483748Y-87196157D01*
X117758109Y-87293481D01*
X117988000Y-87172814D01*
X117988000Y-85979000D01*
X118242000Y-85979000D01*
X118242000Y-87172814D01*
X118471891Y-87293481D01*
X118746252Y-87196157D01*
X118996355Y-87047178D01*
X119212588Y-86852269D01*
X119386641Y-86618920D01*
X119511825Y-86356099D01*
X119556476Y-86208890D01*
X119435155Y-85979000D01*
X118242000Y-85979000D01*
X117988000Y-85979000D01*
X117968000Y-85979000D01*
X117968000Y-85725000D01*
X117988000Y-85725000D01*
X117988000Y-85705000D01*
X118242000Y-85705000D01*
X118242000Y-85725000D01*
X119435155Y-85725000D01*
X119556476Y-85495110D01*
X119511825Y-85347901D01*
X119386641Y-85085080D01*
X119212588Y-84851731D01*
X118996355Y-84656822D01*
X118879466Y-84587195D01*
X119061632Y-84465475D01*
X119268475Y-84258632D01*
X119430990Y-84015411D01*
X119542932Y-83745158D01*
X119600000Y-83458260D01*
X119600000Y-83165740D01*
X119542932Y-82878842D01*
X119430990Y-82608589D01*
X119268475Y-82365368D01*
X119061632Y-82158525D01*
X118887240Y-82042000D01*
X119061632Y-81925475D01*
X119268475Y-81718632D01*
X119430990Y-81475411D01*
X119542932Y-81205158D01*
X119600000Y-80918260D01*
X119600000Y-80625740D01*
X119542932Y-80338842D01*
X119430990Y-80068589D01*
X119268475Y-79825368D01*
X119061632Y-79618525D01*
X118818411Y-79456010D01*
X118548158Y-79344068D01*
X118261260Y-79287000D01*
X117968740Y-79287000D01*
X117681842Y-79344068D01*
X117411589Y-79456010D01*
X117168368Y-79618525D01*
X117036513Y-79750380D01*
X117014502Y-79677820D01*
X116955537Y-79567506D01*
X116876185Y-79470815D01*
X116779494Y-79391463D01*
X116669180Y-79332498D01*
X116549482Y-79296188D01*
X116425000Y-79283928D01*
X114725000Y-79283928D01*
X114600518Y-79296188D01*
X114480820Y-79332498D01*
X114370506Y-79391463D01*
X114273815Y-79470815D01*
X114194463Y-79567506D01*
X114135498Y-79677820D01*
X114099188Y-79797518D01*
X114086928Y-79922000D01*
X114086928Y-81622000D01*
X114099188Y-81746482D01*
X114135498Y-81866180D01*
X114194463Y-81976494D01*
X114273815Y-82073185D01*
X114370506Y-82152537D01*
X114480820Y-82211502D01*
X114553380Y-82233513D01*
X114421525Y-82365368D01*
X114296822Y-82552000D01*
X113850323Y-82552000D01*
X113813000Y-82548324D01*
X113775677Y-82552000D01*
X113775667Y-82552000D01*
X113664014Y-82562997D01*
X113520753Y-82606454D01*
X113388724Y-82677026D01*
X113272999Y-82771999D01*
X113249201Y-82800997D01*
X111438998Y-84611201D01*
X111410000Y-84634999D01*
X111386202Y-84663997D01*
X111386201Y-84663998D01*
X111315026Y-84750724D01*
X111244454Y-84882754D01*
X111233972Y-84917310D01*
X111200998Y-85026014D01*
X111193644Y-85100677D01*
X111186324Y-85175000D01*
X96485000Y-85175000D01*
X96485000Y-76739801D01*
X96689801Y-76535000D01*
X96751939Y-76535000D01*
X96951898Y-76495226D01*
X97140256Y-76417205D01*
X97309774Y-76303937D01*
X97453937Y-76159774D01*
X97567205Y-75990256D01*
X97645226Y-75801898D01*
X97685000Y-75601939D01*
X97685000Y-75398061D01*
X97669144Y-75318344D01*
X98115000Y-75318344D01*
X98115000Y-75689656D01*
X98187439Y-76053834D01*
X98329534Y-76396882D01*
X98535825Y-76705618D01*
X98798382Y-76968175D01*
X99107118Y-77174466D01*
X99450166Y-77316561D01*
X99814344Y-77389000D01*
X100185656Y-77389000D01*
X100549834Y-77316561D01*
X100892882Y-77174466D01*
X101201618Y-76968175D01*
X101464175Y-76705618D01*
X101670466Y-76396882D01*
X101812561Y-76053834D01*
X101885000Y-75689656D01*
X101885000Y-75318344D01*
X101812561Y-74954166D01*
X101670466Y-74611118D01*
X101464175Y-74302382D01*
X101201618Y-74039825D01*
X100892882Y-73833534D01*
X100549834Y-73691439D01*
X100185656Y-73619000D01*
X99814344Y-73619000D01*
X99450166Y-73691439D01*
X99107118Y-73833534D01*
X98798382Y-74039825D01*
X98535825Y-74302382D01*
X98329534Y-74611118D01*
X98187439Y-74954166D01*
X98115000Y-75318344D01*
X97669144Y-75318344D01*
X97645226Y-75198102D01*
X97567205Y-75009744D01*
X97453937Y-74840226D01*
X97309774Y-74696063D01*
X97140256Y-74582795D01*
X96951898Y-74504774D01*
X96751939Y-74465000D01*
X96548061Y-74465000D01*
X96348102Y-74504774D01*
X96159744Y-74582795D01*
X95990226Y-74696063D01*
X95846063Y-74840226D01*
X95732795Y-75009744D01*
X95654774Y-75198102D01*
X95615000Y-75398061D01*
X95615000Y-75460199D01*
X95214002Y-75861197D01*
X95184999Y-75884999D01*
X95142354Y-75936963D01*
X95090026Y-76000724D01*
X95051985Y-76071894D01*
X95019454Y-76132754D01*
X94975997Y-76276015D01*
X94965000Y-76387668D01*
X94965000Y-76387678D01*
X94961324Y-76425000D01*
X94965000Y-76462322D01*
X94965001Y-102821288D01*
X94896063Y-102890226D01*
X94782795Y-103059744D01*
X94704774Y-103248102D01*
X94665000Y-103448061D01*
X87585010Y-103448061D01*
X87585010Y-99814344D01*
X90615000Y-99814344D01*
X90615000Y-100185656D01*
X90687439Y-100549834D01*
X90829534Y-100892882D01*
X91035825Y-101201618D01*
X91298382Y-101464175D01*
X91607118Y-101670466D01*
X91950166Y-101812561D01*
X92314344Y-101885000D01*
X92685656Y-101885000D01*
X93049834Y-101812561D01*
X93392882Y-101670466D01*
X93701618Y-101464175D01*
X93964175Y-101201618D01*
X94170466Y-100892882D01*
X94312561Y-100549834D01*
X94385000Y-100185656D01*
X94385000Y-99814344D01*
X94312561Y-99450166D01*
X94170466Y-99107118D01*
X93964175Y-98798382D01*
X93701618Y-98535825D01*
X93392882Y-98329534D01*
X93049834Y-98187439D01*
X92685656Y-98115000D01*
X92314344Y-98115000D01*
X91950166Y-98187439D01*
X91607118Y-98329534D01*
X91298382Y-98535825D01*
X91035825Y-98798382D01*
X90829534Y-99107118D01*
X90687439Y-99450166D01*
X90615000Y-99814344D01*
X87585010Y-99814344D01*
X87585010Y-89496300D01*
X87588686Y-89458978D01*
X87585010Y-89421655D01*
X87585010Y-89421645D01*
X87574013Y-89309992D01*
X87530556Y-89166731D01*
X87497761Y-89105377D01*
X87459984Y-89034701D01*
X87388809Y-88947975D01*
X87365011Y-88918977D01*
X87336014Y-88895180D01*
X85188895Y-86748061D01*
X89215000Y-86748061D01*
X89215000Y-86951939D01*
X89254774Y-87151898D01*
X89332795Y-87340256D01*
X89446063Y-87509774D01*
X89590226Y-87653937D01*
X89759744Y-87767205D01*
X89948102Y-87845226D01*
X90148061Y-87885000D01*
X90351939Y-87885000D01*
X90551898Y-87845226D01*
X90740256Y-87767205D01*
X90909774Y-87653937D01*
X91053937Y-87509774D01*
X91167205Y-87340256D01*
X91245226Y-87151898D01*
X91285000Y-86951939D01*
X91285000Y-86889801D01*
X91740001Y-86434801D01*
X91740000Y-96071289D01*
X91696063Y-96115226D01*
X91582795Y-96284744D01*
X91504774Y-96473102D01*
X91465000Y-96673061D01*
X91465000Y-96876939D01*
X91504774Y-97076898D01*
X91582795Y-97265256D01*
X91696063Y-97434774D01*
X91840226Y-97578937D01*
X92009744Y-97692205D01*
X92198102Y-97770226D01*
X92398061Y-97810000D01*
X92601939Y-97810000D01*
X92801898Y-97770226D01*
X92990256Y-97692205D01*
X93159774Y-97578937D01*
X93303937Y-97434774D01*
X93417205Y-97265256D01*
X93495226Y-97076898D01*
X93535000Y-96876939D01*
X93535000Y-96673061D01*
X93495226Y-96473102D01*
X93417205Y-96284744D01*
X93303937Y-96115226D01*
X93260000Y-96071289D01*
X93260000Y-85253711D01*
X93303937Y-85209774D01*
X93417205Y-85040256D01*
X93495226Y-84851898D01*
X93535000Y-84651939D01*
X93535000Y-84448061D01*
X93495226Y-84248102D01*
X93417205Y-84059744D01*
X93303937Y-83890226D01*
X93159774Y-83746063D01*
X92990256Y-83632795D01*
X92801898Y-83554774D01*
X92601939Y-83515000D01*
X92398061Y-83515000D01*
X92198102Y-83554774D01*
X92110000Y-83591267D01*
X92110000Y-82753711D01*
X92178937Y-82684774D01*
X92292205Y-82515256D01*
X92370226Y-82326898D01*
X92410000Y-82126939D01*
X92410000Y-81923061D01*
X92370226Y-81723102D01*
X92292205Y-81534744D01*
X92178937Y-81365226D01*
X92034774Y-81221063D01*
X91865256Y-81107795D01*
X91676898Y-81029774D01*
X91476939Y-80990000D01*
X91273061Y-80990000D01*
X91252370Y-80994116D01*
X91217358Y-80909591D01*
X91104090Y-80740073D01*
X90959927Y-80595910D01*
X90790409Y-80482642D01*
X90602051Y-80404621D01*
X90402092Y-80364847D01*
X90198214Y-80364847D01*
X89998255Y-80404621D01*
X89809897Y-80482642D01*
X89640379Y-80595910D01*
X89496216Y-80740073D01*
X89382948Y-80909591D01*
X89304927Y-81097949D01*
X89265153Y-81297908D01*
X89265153Y-81501786D01*
X89304927Y-81701745D01*
X89382948Y-81890103D01*
X89496216Y-82059621D01*
X89540001Y-82103406D01*
X89540000Y-82971289D01*
X89496063Y-83015226D01*
X89382795Y-83184744D01*
X89304774Y-83373102D01*
X89265000Y-83573061D01*
X89265000Y-83776939D01*
X89304774Y-83976898D01*
X89382795Y-84165256D01*
X89496063Y-84334774D01*
X89640226Y-84478937D01*
X89809744Y-84592205D01*
X89998102Y-84670226D01*
X90198061Y-84710000D01*
X90401939Y-84710000D01*
X90590000Y-84672593D01*
X90590000Y-85435198D01*
X90210199Y-85815000D01*
X90148061Y-85815000D01*
X89948102Y-85854774D01*
X89759744Y-85932795D01*
X89590226Y-86046063D01*
X89446063Y-86190226D01*
X89332795Y-86359744D01*
X89254774Y-86548102D01*
X89215000Y-86748061D01*
X85188895Y-86748061D01*
X83848657Y-85407824D01*
X83850831Y-85402575D01*
X83890605Y-85202616D01*
X83890605Y-84998738D01*
X83850831Y-84798779D01*
X83772810Y-84610421D01*
X83659542Y-84440903D01*
X83515379Y-84296740D01*
X83345861Y-84183472D01*
X83157503Y-84105451D01*
X82957544Y-84065677D01*
X82753666Y-84065677D01*
X82553707Y-84105451D01*
X82373450Y-84180117D01*
X82269131Y-84075798D01*
X82099613Y-83962530D01*
X81911255Y-83884509D01*
X81711296Y-83844735D01*
X81507418Y-83844735D01*
X81307459Y-83884509D01*
X81119101Y-83962530D01*
X80949583Y-84075798D01*
X80805420Y-84219961D01*
X80692152Y-84389479D01*
X80614131Y-84577837D01*
X80574357Y-84777796D01*
X73283614Y-84777796D01*
X73499250Y-84380883D01*
X74653329Y-82570346D01*
X75930919Y-80844692D01*
X77325746Y-79212389D01*
X78831050Y-77681352D01*
X80439488Y-76259046D01*
X82143227Y-74952401D01*
X83936425Y-73766158D01*
X85320668Y-72966965D01*
X85368450Y-72941425D01*
X85468948Y-72858948D01*
X85551425Y-72758450D01*
X85612710Y-72643793D01*
X85650450Y-72519383D01*
X85660000Y-72422419D01*
X85660000Y-72390029D01*
X85660001Y-72390000D01*
X85660000Y-72389971D01*
X85660000Y-67425000D01*
X87844993Y-67425000D01*
X87924830Y-68235602D01*
X88161274Y-69015052D01*
X88545238Y-69733398D01*
X89061966Y-70363034D01*
X89691602Y-70879762D01*
X90409948Y-71263726D01*
X91189398Y-71500170D01*
X91796865Y-71560000D01*
X108203135Y-71560000D01*
X108810602Y-71500170D01*
X109590052Y-71263726D01*
X110308398Y-70879762D01*
X110938034Y-70363034D01*
X111454762Y-69733398D01*
X111838726Y-69015052D01*
X112075170Y-68235602D01*
X112155007Y-67425000D01*
X112075170Y-66614398D01*
X111838726Y-65834948D01*
X111454762Y-65116602D01*
X110938034Y-64486966D01*
X110308398Y-63970238D01*
X109590052Y-63586274D01*
X108810602Y-63349830D01*
X108203135Y-63290000D01*
X91796865Y-63290000D01*
X91189398Y-63349830D01*
X90409948Y-63586274D01*
X89691602Y-63970238D01*
X89061966Y-64486966D01*
X88545238Y-65116602D01*
X88161274Y-65834948D01*
X87924830Y-66614398D01*
X87844993Y-67425000D01*
X85660000Y-67425000D01*
X85660000Y-63051380D01*
X86273381Y-62438000D01*
X113726620Y-62438000D01*
X114340000Y-63051381D01*
M02*
