G04 #@! TF.GenerationSoftware,KiCad,Pcbnew,(5.1.6)-1*
G04 #@! TF.CreationDate,2020-10-13T14:36:48-04:00*
G04 #@! TF.ProjectId,Ornament,4f726e61-6d65-46e7-942e-6b696361645f,rev?*
G04 #@! TF.SameCoordinates,Original*
G04 #@! TF.FileFunction,Legend,Bot*
G04 #@! TF.FilePolarity,Positive*
%FSLAX46Y46*%
G04 Gerber Fmt 4.6, Leading zero omitted, Abs format (unit mm)*
G04 Created by KiCad (PCBNEW (5.1.6)-1) date 2020-10-13 14:36:48*
%MOMM*%
%LPD*%
G01*
G04 APERTURE LIST*
%ADD10C,0.150000*%
%ADD11C,0.300000*%
%ADD12C,0.010000*%
%ADD13C,0.120000*%
%ADD14C,0.500000*%
%ADD15C,1.000000*%
%ADD16C,0.100000*%
%ADD17O,23.102000X7.102000*%
%ADD18C,2.602000*%
%ADD19R,2.602000X2.602000*%
%ADD20R,1.802000X1.802000*%
%ADD21O,1.802000X1.802000*%
%ADD22R,2.272000X2.272000*%
%ADD23C,1.902000*%
%ADD24R,1.902000X1.902000*%
%ADD25C,2.302000*%
G04 APERTURE END LIST*
D10*
X100917857Y-63352380D02*
X101489285Y-63352380D01*
X101203571Y-63352380D02*
X101203571Y-62352380D01*
X101298809Y-62495238D01*
X101394047Y-62590476D01*
X101489285Y-62638095D01*
X100298809Y-62352380D02*
X100203571Y-62352380D01*
X100108333Y-62400000D01*
X100060714Y-62447619D01*
X100013095Y-62542857D01*
X99965476Y-62733333D01*
X99965476Y-62971428D01*
X100013095Y-63161904D01*
X100060714Y-63257142D01*
X100108333Y-63304761D01*
X100203571Y-63352380D01*
X100298809Y-63352380D01*
X100394047Y-63304761D01*
X100441666Y-63257142D01*
X100489285Y-63161904D01*
X100536904Y-62971428D01*
X100536904Y-62733333D01*
X100489285Y-62542857D01*
X100441666Y-62447619D01*
X100394047Y-62400000D01*
X100298809Y-62352380D01*
X99060714Y-62352380D02*
X99536904Y-62352380D01*
X99584523Y-62828571D01*
X99536904Y-62780952D01*
X99441666Y-62733333D01*
X99203571Y-62733333D01*
X99108333Y-62780952D01*
X99060714Y-62828571D01*
X99013095Y-62923809D01*
X99013095Y-63161904D01*
X99060714Y-63257142D01*
X99108333Y-63304761D01*
X99203571Y-63352380D01*
X99441666Y-63352380D01*
X99536904Y-63304761D01*
X99584523Y-63257142D01*
X98155952Y-62352380D02*
X98346428Y-62352380D01*
X98441666Y-62400000D01*
X98489285Y-62447619D01*
X98584523Y-62590476D01*
X98632142Y-62780952D01*
X98632142Y-63161904D01*
X98584523Y-63257142D01*
X98536904Y-63304761D01*
X98441666Y-63352380D01*
X98251190Y-63352380D01*
X98155952Y-63304761D01*
X98108333Y-63257142D01*
X98060714Y-63161904D01*
X98060714Y-62923809D01*
X98108333Y-62828571D01*
X98155952Y-62780952D01*
X98251190Y-62733333D01*
X98441666Y-62733333D01*
X98536904Y-62780952D01*
X98584523Y-62828571D01*
X98632142Y-62923809D01*
D11*
X119642857Y-106903571D02*
X119642857Y-105403571D01*
X119285714Y-105403571D01*
X119071428Y-105475000D01*
X118928571Y-105617857D01*
X118857142Y-105760714D01*
X118785714Y-106046428D01*
X118785714Y-106260714D01*
X118857142Y-106546428D01*
X118928571Y-106689285D01*
X119071428Y-106832142D01*
X119285714Y-106903571D01*
X119642857Y-106903571D01*
X118142857Y-106117857D02*
X117642857Y-106117857D01*
X117428571Y-106903571D02*
X118142857Y-106903571D01*
X118142857Y-105403571D01*
X117428571Y-105403571D01*
X117000000Y-105403571D02*
X116142857Y-105403571D01*
X116571428Y-106903571D02*
X116571428Y-105403571D01*
X115714285Y-106475000D02*
X115000000Y-106475000D01*
X115857142Y-106903571D02*
X115357142Y-105403571D01*
X114857142Y-106903571D01*
X114357142Y-106903571D02*
X114357142Y-105403571D01*
X112928571Y-106903571D02*
X113642857Y-106903571D01*
X113642857Y-105403571D01*
X112428571Y-106117857D02*
X111928571Y-106117857D01*
X111714285Y-106903571D02*
X112428571Y-106903571D01*
X112428571Y-105403571D01*
X111714285Y-105403571D01*
X111071428Y-106903571D02*
X111071428Y-105403571D01*
X110714285Y-105403571D01*
X110500000Y-105475000D01*
X110357142Y-105617857D01*
X110285714Y-105760714D01*
X110214285Y-106046428D01*
X110214285Y-106260714D01*
X110285714Y-106546428D01*
X110357142Y-106689285D01*
X110500000Y-106832142D01*
X110714285Y-106903571D01*
X111071428Y-106903571D01*
X108428571Y-106903571D02*
X108428571Y-105403571D01*
X107714285Y-106903571D02*
X107714285Y-105403571D01*
X106857142Y-106903571D01*
X106857142Y-105403571D01*
X106214285Y-106832142D02*
X106000000Y-106903571D01*
X105642857Y-106903571D01*
X105500000Y-106832142D01*
X105428571Y-106760714D01*
X105357142Y-106617857D01*
X105357142Y-106475000D01*
X105428571Y-106332142D01*
X105500000Y-106260714D01*
X105642857Y-106189285D01*
X105928571Y-106117857D01*
X106071428Y-106046428D01*
X106142857Y-105975000D01*
X106214285Y-105832142D01*
X106214285Y-105689285D01*
X106142857Y-105546428D01*
X106071428Y-105475000D01*
X105928571Y-105403571D01*
X105571428Y-105403571D01*
X105357142Y-105475000D01*
X104928571Y-105403571D02*
X104071428Y-105403571D01*
X104500000Y-106903571D02*
X104500000Y-105403571D01*
X102714285Y-106903571D02*
X103214285Y-106189285D01*
X103571428Y-106903571D02*
X103571428Y-105403571D01*
X103000000Y-105403571D01*
X102857142Y-105475000D01*
X102785714Y-105546428D01*
X102714285Y-105689285D01*
X102714285Y-105903571D01*
X102785714Y-106046428D01*
X102857142Y-106117857D01*
X103000000Y-106189285D01*
X103571428Y-106189285D01*
X102071428Y-105403571D02*
X102071428Y-106617857D01*
X102000000Y-106760714D01*
X101928571Y-106832142D01*
X101785714Y-106903571D01*
X101500000Y-106903571D01*
X101357142Y-106832142D01*
X101285714Y-106760714D01*
X101214285Y-106617857D01*
X101214285Y-105403571D01*
X99642857Y-106760714D02*
X99714285Y-106832142D01*
X99928571Y-106903571D01*
X100071428Y-106903571D01*
X100285714Y-106832142D01*
X100428571Y-106689285D01*
X100500000Y-106546428D01*
X100571428Y-106260714D01*
X100571428Y-106046428D01*
X100500000Y-105760714D01*
X100428571Y-105617857D01*
X100285714Y-105475000D01*
X100071428Y-105403571D01*
X99928571Y-105403571D01*
X99714285Y-105475000D01*
X99642857Y-105546428D01*
X99214285Y-105403571D02*
X98357142Y-105403571D01*
X98785714Y-106903571D02*
X98785714Y-105403571D01*
X97857142Y-106903571D02*
X97857142Y-105403571D01*
X96857142Y-105403571D02*
X96571428Y-105403571D01*
X96428571Y-105475000D01*
X96285714Y-105617857D01*
X96214285Y-105903571D01*
X96214285Y-106403571D01*
X96285714Y-106689285D01*
X96428571Y-106832142D01*
X96571428Y-106903571D01*
X96857142Y-106903571D01*
X97000000Y-106832142D01*
X97142857Y-106689285D01*
X97214285Y-106403571D01*
X97214285Y-105903571D01*
X97142857Y-105617857D01*
X97000000Y-105475000D01*
X96857142Y-105403571D01*
X95571428Y-106903571D02*
X95571428Y-105403571D01*
X94714285Y-106903571D01*
X94714285Y-105403571D01*
X94071428Y-106832142D02*
X93857142Y-106903571D01*
X93500000Y-106903571D01*
X93357142Y-106832142D01*
X93285714Y-106760714D01*
X93214285Y-106617857D01*
X93214285Y-106475000D01*
X93285714Y-106332142D01*
X93357142Y-106260714D01*
X93500000Y-106189285D01*
X93785714Y-106117857D01*
X93928571Y-106046428D01*
X94000000Y-105975000D01*
X94071428Y-105832142D01*
X94071428Y-105689285D01*
X94000000Y-105546428D01*
X93928571Y-105475000D01*
X93785714Y-105403571D01*
X93428571Y-105403571D01*
X93214285Y-105475000D01*
X90928571Y-106117857D02*
X91428571Y-106117857D01*
X91428571Y-106903571D02*
X91428571Y-105403571D01*
X90714285Y-105403571D01*
X89857142Y-105403571D02*
X89571428Y-105403571D01*
X89428571Y-105475000D01*
X89285714Y-105617857D01*
X89214285Y-105903571D01*
X89214285Y-106403571D01*
X89285714Y-106689285D01*
X89428571Y-106832142D01*
X89571428Y-106903571D01*
X89857142Y-106903571D01*
X90000000Y-106832142D01*
X90142857Y-106689285D01*
X90214285Y-106403571D01*
X90214285Y-105903571D01*
X90142857Y-105617857D01*
X90000000Y-105475000D01*
X89857142Y-105403571D01*
X88571428Y-105403571D02*
X88571428Y-106617857D01*
X88500000Y-106760714D01*
X88428571Y-106832142D01*
X88285714Y-106903571D01*
X88000000Y-106903571D01*
X87857142Y-106832142D01*
X87785714Y-106760714D01*
X87714285Y-106617857D01*
X87714285Y-105403571D01*
X87000000Y-106903571D02*
X87000000Y-105403571D01*
X86142857Y-106903571D01*
X86142857Y-105403571D01*
X85428571Y-106903571D02*
X85428571Y-105403571D01*
X85071428Y-105403571D01*
X84857142Y-105475000D01*
X84714285Y-105617857D01*
X84642857Y-105760714D01*
X84571428Y-106046428D01*
X84571428Y-106260714D01*
X84642857Y-106546428D01*
X84714285Y-106689285D01*
X84857142Y-106832142D01*
X85071428Y-106903571D01*
X85428571Y-106903571D01*
X82857142Y-106475000D02*
X82142857Y-106475000D01*
X83000000Y-106903571D02*
X82500000Y-105403571D01*
X82000000Y-106903571D01*
X81714285Y-105403571D02*
X80857142Y-105403571D01*
X81285714Y-106903571D02*
X81285714Y-105403571D01*
X80357142Y-106760714D02*
X80285714Y-106832142D01*
X80357142Y-106903571D01*
X80428571Y-106832142D01*
X80357142Y-106760714D01*
X80357142Y-106903571D01*
X80357142Y-105975000D02*
X80285714Y-106046428D01*
X80357142Y-106117857D01*
X80428571Y-106046428D01*
X80357142Y-105975000D01*
X80357142Y-106117857D01*
X116464285Y-109453571D02*
X116178571Y-109453571D01*
X116035714Y-109382142D01*
X115964285Y-109310714D01*
X115821428Y-109096428D01*
X115750000Y-108810714D01*
X115750000Y-108239285D01*
X115821428Y-108096428D01*
X115892857Y-108025000D01*
X116035714Y-107953571D01*
X116321428Y-107953571D01*
X116464285Y-108025000D01*
X116535714Y-108096428D01*
X116607142Y-108239285D01*
X116607142Y-108596428D01*
X116535714Y-108739285D01*
X116464285Y-108810714D01*
X116321428Y-108882142D01*
X116035714Y-108882142D01*
X115892857Y-108810714D01*
X115821428Y-108739285D01*
X115750000Y-108596428D01*
X114821428Y-107953571D02*
X114678571Y-107953571D01*
X114535714Y-108025000D01*
X114464285Y-108096428D01*
X114392857Y-108239285D01*
X114321428Y-108525000D01*
X114321428Y-108882142D01*
X114392857Y-109167857D01*
X114464285Y-109310714D01*
X114535714Y-109382142D01*
X114678571Y-109453571D01*
X114821428Y-109453571D01*
X114964285Y-109382142D01*
X115035714Y-109310714D01*
X115107142Y-109167857D01*
X115178571Y-108882142D01*
X115178571Y-108525000D01*
X115107142Y-108239285D01*
X115035714Y-108096428D01*
X114964285Y-108025000D01*
X114821428Y-107953571D01*
X112964285Y-107953571D02*
X113678571Y-107953571D01*
X113750000Y-108667857D01*
X113678571Y-108596428D01*
X113535714Y-108525000D01*
X113178571Y-108525000D01*
X113035714Y-108596428D01*
X112964285Y-108667857D01*
X112892857Y-108810714D01*
X112892857Y-109167857D01*
X112964285Y-109310714D01*
X113035714Y-109382142D01*
X113178571Y-109453571D01*
X113535714Y-109453571D01*
X113678571Y-109382142D01*
X113750000Y-109310714D01*
X112035714Y-108596428D02*
X112178571Y-108525000D01*
X112250000Y-108453571D01*
X112321428Y-108310714D01*
X112321428Y-108239285D01*
X112250000Y-108096428D01*
X112178571Y-108025000D01*
X112035714Y-107953571D01*
X111750000Y-107953571D01*
X111607142Y-108025000D01*
X111535714Y-108096428D01*
X111464285Y-108239285D01*
X111464285Y-108310714D01*
X111535714Y-108453571D01*
X111607142Y-108525000D01*
X111750000Y-108596428D01*
X112035714Y-108596428D01*
X112178571Y-108667857D01*
X112250000Y-108739285D01*
X112321428Y-108882142D01*
X112321428Y-109167857D01*
X112250000Y-109310714D01*
X112178571Y-109382142D01*
X112035714Y-109453571D01*
X111750000Y-109453571D01*
X111607142Y-109382142D01*
X111535714Y-109310714D01*
X111464285Y-109167857D01*
X111464285Y-108882142D01*
X111535714Y-108739285D01*
X111607142Y-108667857D01*
X111750000Y-108596428D01*
X110821428Y-109310714D02*
X110750000Y-109382142D01*
X110821428Y-109453571D01*
X110892857Y-109382142D01*
X110821428Y-109310714D01*
X110821428Y-109453571D01*
X109250000Y-109310714D02*
X109321428Y-109382142D01*
X109535714Y-109453571D01*
X109678571Y-109453571D01*
X109892857Y-109382142D01*
X110035714Y-109239285D01*
X110107142Y-109096428D01*
X110178571Y-108810714D01*
X110178571Y-108596428D01*
X110107142Y-108310714D01*
X110035714Y-108167857D01*
X109892857Y-108025000D01*
X109678571Y-107953571D01*
X109535714Y-107953571D01*
X109321428Y-108025000D01*
X109250000Y-108096428D01*
X108321428Y-108739285D02*
X108321428Y-109453571D01*
X108821428Y-107953571D02*
X108321428Y-108739285D01*
X107821428Y-107953571D01*
X106821428Y-108667857D02*
X106607142Y-108739285D01*
X106535714Y-108810714D01*
X106464285Y-108953571D01*
X106464285Y-109167857D01*
X106535714Y-109310714D01*
X106607142Y-109382142D01*
X106750000Y-109453571D01*
X107321428Y-109453571D01*
X107321428Y-107953571D01*
X106821428Y-107953571D01*
X106678571Y-108025000D01*
X106607142Y-108096428D01*
X106535714Y-108239285D01*
X106535714Y-108382142D01*
X106607142Y-108525000D01*
X106678571Y-108596428D01*
X106821428Y-108667857D01*
X107321428Y-108667857D01*
X105821428Y-108667857D02*
X105321428Y-108667857D01*
X105107142Y-109453571D02*
X105821428Y-109453571D01*
X105821428Y-107953571D01*
X105107142Y-107953571D01*
X103607142Y-109453571D02*
X104107142Y-108739285D01*
X104464285Y-109453571D02*
X104464285Y-107953571D01*
X103892857Y-107953571D01*
X103750000Y-108025000D01*
X103678571Y-108096428D01*
X103607142Y-108239285D01*
X103607142Y-108453571D01*
X103678571Y-108596428D01*
X103750000Y-108667857D01*
X103892857Y-108739285D01*
X104464285Y-108739285D01*
X102107142Y-109310714D02*
X102178571Y-109382142D01*
X102392857Y-109453571D01*
X102535714Y-109453571D01*
X102750000Y-109382142D01*
X102892857Y-109239285D01*
X102964285Y-109096428D01*
X103035714Y-108810714D01*
X103035714Y-108596428D01*
X102964285Y-108310714D01*
X102892857Y-108167857D01*
X102750000Y-108025000D01*
X102535714Y-107953571D01*
X102392857Y-107953571D01*
X102178571Y-108025000D01*
X102107142Y-108096428D01*
X101464285Y-109453571D02*
X101464285Y-107953571D01*
X100964285Y-107953571D02*
X100107142Y-107953571D01*
X100535714Y-109453571D02*
X100535714Y-107953571D01*
X99321428Y-108739285D02*
X99321428Y-109453571D01*
X99821428Y-107953571D02*
X99321428Y-108739285D01*
X98821428Y-107953571D01*
X97464285Y-109310714D02*
X97535714Y-109382142D01*
X97750000Y-109453571D01*
X97892857Y-109453571D01*
X98107142Y-109382142D01*
X98250000Y-109239285D01*
X98321428Y-109096428D01*
X98392857Y-108810714D01*
X98392857Y-108596428D01*
X98321428Y-108310714D01*
X98250000Y-108167857D01*
X98107142Y-108025000D01*
X97892857Y-107953571D01*
X97750000Y-107953571D01*
X97535714Y-108025000D01*
X97464285Y-108096428D01*
X96821428Y-109453571D02*
X96821428Y-107953571D01*
X95250000Y-109453571D02*
X95750000Y-108739285D01*
X96107142Y-109453571D02*
X96107142Y-107953571D01*
X95535714Y-107953571D01*
X95392857Y-108025000D01*
X95321428Y-108096428D01*
X95250000Y-108239285D01*
X95250000Y-108453571D01*
X95321428Y-108596428D01*
X95392857Y-108667857D01*
X95535714Y-108739285D01*
X96107142Y-108739285D01*
X93750000Y-109310714D02*
X93821428Y-109382142D01*
X94035714Y-109453571D01*
X94178571Y-109453571D01*
X94392857Y-109382142D01*
X94535714Y-109239285D01*
X94607142Y-109096428D01*
X94678571Y-108810714D01*
X94678571Y-108596428D01*
X94607142Y-108310714D01*
X94535714Y-108167857D01*
X94392857Y-108025000D01*
X94178571Y-107953571D01*
X94035714Y-107953571D01*
X93821428Y-108025000D01*
X93750000Y-108096428D01*
X93107142Y-107953571D02*
X93107142Y-109167857D01*
X93035714Y-109310714D01*
X92964285Y-109382142D01*
X92821428Y-109453571D01*
X92535714Y-109453571D01*
X92392857Y-109382142D01*
X92321428Y-109310714D01*
X92250000Y-109167857D01*
X92250000Y-107953571D01*
X91535714Y-109453571D02*
X91535714Y-107953571D01*
X91035714Y-107953571D02*
X90178571Y-107953571D01*
X90607142Y-109453571D02*
X90607142Y-107953571D01*
X89750000Y-109382142D02*
X89535714Y-109453571D01*
X89178571Y-109453571D01*
X89035714Y-109382142D01*
X88964285Y-109310714D01*
X88892857Y-109167857D01*
X88892857Y-109025000D01*
X88964285Y-108882142D01*
X89035714Y-108810714D01*
X89178571Y-108739285D01*
X89464285Y-108667857D01*
X89607142Y-108596428D01*
X89678571Y-108525000D01*
X89750000Y-108382142D01*
X89750000Y-108239285D01*
X89678571Y-108096428D01*
X89607142Y-108025000D01*
X89464285Y-107953571D01*
X89107142Y-107953571D01*
X88892857Y-108025000D01*
X88250000Y-109310714D02*
X88178571Y-109382142D01*
X88250000Y-109453571D01*
X88321428Y-109382142D01*
X88250000Y-109310714D01*
X88250000Y-109453571D01*
X86678571Y-109310714D02*
X86750000Y-109382142D01*
X86964285Y-109453571D01*
X87107142Y-109453571D01*
X87321428Y-109382142D01*
X87464285Y-109239285D01*
X87535714Y-109096428D01*
X87607142Y-108810714D01*
X87607142Y-108596428D01*
X87535714Y-108310714D01*
X87464285Y-108167857D01*
X87321428Y-108025000D01*
X87107142Y-107953571D01*
X86964285Y-107953571D01*
X86750000Y-108025000D01*
X86678571Y-108096428D01*
X85750000Y-107953571D02*
X85464285Y-107953571D01*
X85321428Y-108025000D01*
X85178571Y-108167857D01*
X85107142Y-108453571D01*
X85107142Y-108953571D01*
X85178571Y-109239285D01*
X85321428Y-109382142D01*
X85464285Y-109453571D01*
X85750000Y-109453571D01*
X85892857Y-109382142D01*
X86035714Y-109239285D01*
X86107142Y-108953571D01*
X86107142Y-108453571D01*
X86035714Y-108167857D01*
X85892857Y-108025000D01*
X85750000Y-107953571D01*
X84464285Y-109453571D02*
X84464285Y-107953571D01*
X83964285Y-109025000D01*
X83464285Y-107953571D01*
X83464285Y-109453571D01*
D12*
G36*
X89324420Y-122327208D02*
G01*
X88698105Y-122703039D01*
X88046198Y-123094854D01*
X87403591Y-123481638D01*
X86805176Y-123842375D01*
X86285846Y-124156049D01*
X85915662Y-124380289D01*
X84658323Y-125143586D01*
X85153662Y-125431080D01*
X86792044Y-126298528D01*
X88553511Y-127074479D01*
X90413772Y-127750830D01*
X92348540Y-128319478D01*
X94333523Y-128772320D01*
X96025389Y-129057773D01*
X96360979Y-129093275D01*
X96834645Y-129126767D01*
X97415504Y-129157478D01*
X98072671Y-129184639D01*
X98775263Y-129207477D01*
X99492395Y-129225222D01*
X100193183Y-129237104D01*
X100846744Y-129242351D01*
X101422192Y-129240193D01*
X101888643Y-129229860D01*
X102201333Y-129211893D01*
X104431199Y-128929003D01*
X106617928Y-128495531D01*
X108748318Y-127915508D01*
X110809170Y-127192966D01*
X112787284Y-126331936D01*
X114416456Y-125481367D01*
X115159246Y-125061243D01*
X114416456Y-124603771D01*
X114085623Y-124400955D01*
X113793752Y-124223726D01*
X113580678Y-124096183D01*
X113504333Y-124051915D01*
X113392879Y-123986552D01*
X113154923Y-123844728D01*
X112808916Y-123637514D01*
X112373308Y-123375986D01*
X111866552Y-123071215D01*
X111307096Y-122734275D01*
X110927534Y-122505432D01*
X110350553Y-122158375D01*
X109819934Y-121841042D01*
X109352997Y-121563649D01*
X108967065Y-121336411D01*
X108679460Y-121169546D01*
X108507505Y-121073269D01*
X108465431Y-121053334D01*
X108381944Y-121095463D01*
X108171871Y-121214712D01*
X107853402Y-121400374D01*
X107444728Y-121641741D01*
X106964040Y-121928106D01*
X106429526Y-122248762D01*
X106216231Y-122377285D01*
X105640678Y-122724183D01*
X105089626Y-123055707D01*
X104586050Y-123358080D01*
X104152923Y-123617528D01*
X103813220Y-123820274D01*
X103589918Y-123952542D01*
X103556000Y-123972383D01*
X103340951Y-124099423D01*
X103011395Y-124296398D01*
X102597464Y-124545190D01*
X102129290Y-124827680D01*
X101637005Y-125125750D01*
X101538171Y-125185721D01*
X99986009Y-126127910D01*
X99209838Y-125653501D01*
X98870573Y-125447499D01*
X98429221Y-125181504D01*
X97929444Y-124881724D01*
X97414905Y-124574367D01*
X97079000Y-124374489D01*
X96606751Y-124093281D01*
X96145661Y-123817431D01*
X95731179Y-123568239D01*
X95398752Y-123367007D01*
X95216333Y-123255250D01*
X94923508Y-123075823D01*
X94536823Y-122841663D01*
X94087087Y-122571145D01*
X93605108Y-122282638D01*
X93121694Y-121994516D01*
X92667653Y-121725151D01*
X92273793Y-121492914D01*
X91970922Y-121316177D01*
X91822087Y-121231139D01*
X91475840Y-121037424D01*
X89324420Y-122327208D01*
G37*
X89324420Y-122327208D02*
X88698105Y-122703039D01*
X88046198Y-123094854D01*
X87403591Y-123481638D01*
X86805176Y-123842375D01*
X86285846Y-124156049D01*
X85915662Y-124380289D01*
X84658323Y-125143586D01*
X85153662Y-125431080D01*
X86792044Y-126298528D01*
X88553511Y-127074479D01*
X90413772Y-127750830D01*
X92348540Y-128319478D01*
X94333523Y-128772320D01*
X96025389Y-129057773D01*
X96360979Y-129093275D01*
X96834645Y-129126767D01*
X97415504Y-129157478D01*
X98072671Y-129184639D01*
X98775263Y-129207477D01*
X99492395Y-129225222D01*
X100193183Y-129237104D01*
X100846744Y-129242351D01*
X101422192Y-129240193D01*
X101888643Y-129229860D01*
X102201333Y-129211893D01*
X104431199Y-128929003D01*
X106617928Y-128495531D01*
X108748318Y-127915508D01*
X110809170Y-127192966D01*
X112787284Y-126331936D01*
X114416456Y-125481367D01*
X115159246Y-125061243D01*
X114416456Y-124603771D01*
X114085623Y-124400955D01*
X113793752Y-124223726D01*
X113580678Y-124096183D01*
X113504333Y-124051915D01*
X113392879Y-123986552D01*
X113154923Y-123844728D01*
X112808916Y-123637514D01*
X112373308Y-123375986D01*
X111866552Y-123071215D01*
X111307096Y-122734275D01*
X110927534Y-122505432D01*
X110350553Y-122158375D01*
X109819934Y-121841042D01*
X109352997Y-121563649D01*
X108967065Y-121336411D01*
X108679460Y-121169546D01*
X108507505Y-121073269D01*
X108465431Y-121053334D01*
X108381944Y-121095463D01*
X108171871Y-121214712D01*
X107853402Y-121400374D01*
X107444728Y-121641741D01*
X106964040Y-121928106D01*
X106429526Y-122248762D01*
X106216231Y-122377285D01*
X105640678Y-122724183D01*
X105089626Y-123055707D01*
X104586050Y-123358080D01*
X104152923Y-123617528D01*
X103813220Y-123820274D01*
X103589918Y-123952542D01*
X103556000Y-123972383D01*
X103340951Y-124099423D01*
X103011395Y-124296398D01*
X102597464Y-124545190D01*
X102129290Y-124827680D01*
X101637005Y-125125750D01*
X101538171Y-125185721D01*
X99986009Y-126127910D01*
X99209838Y-125653501D01*
X98870573Y-125447499D01*
X98429221Y-125181504D01*
X97929444Y-124881724D01*
X97414905Y-124574367D01*
X97079000Y-124374489D01*
X96606751Y-124093281D01*
X96145661Y-123817431D01*
X95731179Y-123568239D01*
X95398752Y-123367007D01*
X95216333Y-123255250D01*
X94923508Y-123075823D01*
X94536823Y-122841663D01*
X94087087Y-122571145D01*
X93605108Y-122282638D01*
X93121694Y-121994516D01*
X92667653Y-121725151D01*
X92273793Y-121492914D01*
X91970922Y-121316177D01*
X91822087Y-121231139D01*
X91475840Y-121037424D01*
X89324420Y-122327208D01*
G36*
X73497511Y-110354231D02*
G01*
X73123548Y-110578548D01*
X72803990Y-110772111D01*
X72565874Y-110918399D01*
X72436236Y-111000890D01*
X72421138Y-111011973D01*
X72437637Y-111099816D01*
X72511615Y-111307434D01*
X72630160Y-111600590D01*
X72733046Y-111839045D01*
X73203969Y-112825590D01*
X73772614Y-113885618D01*
X74413083Y-114976891D01*
X75099478Y-116057169D01*
X75805903Y-117084211D01*
X76506459Y-118015778D01*
X76565542Y-118090000D01*
X76880301Y-118473520D01*
X77238437Y-118893640D01*
X77616799Y-119324849D01*
X77992239Y-119741635D01*
X78341606Y-120118487D01*
X78641750Y-120429894D01*
X78869523Y-120650344D01*
X78954737Y-120722941D01*
X79076204Y-120804888D01*
X79312845Y-120954538D01*
X79641896Y-121158201D01*
X80040593Y-121402188D01*
X80486172Y-121672809D01*
X80955868Y-121956374D01*
X81426919Y-122239192D01*
X81876560Y-122507575D01*
X82282027Y-122747831D01*
X82620556Y-122946272D01*
X82869384Y-123089206D01*
X83005746Y-123162945D01*
X83023762Y-123170000D01*
X83109852Y-123128052D01*
X83315118Y-123011956D01*
X83614536Y-122836337D01*
X83983085Y-122615820D01*
X84277697Y-122437152D01*
X84722092Y-122167024D01*
X85154966Y-121905366D01*
X85538696Y-121674819D01*
X85835657Y-121498022D01*
X85945333Y-121433660D01*
X86207530Y-121279379D01*
X86579959Y-121057704D01*
X87028226Y-120789310D01*
X87517935Y-120494876D01*
X88014692Y-120195078D01*
X88484101Y-119910593D01*
X88866333Y-119677660D01*
X89092493Y-119540407D01*
X89425178Y-119339887D01*
X89825449Y-119099508D01*
X90254364Y-118842680D01*
X90411645Y-118748698D01*
X91533623Y-118078675D01*
X91766311Y-118241358D01*
X91922934Y-118343472D01*
X92191785Y-118511338D01*
X92539295Y-118724580D01*
X92931898Y-118962825D01*
X93336026Y-119205697D01*
X93718113Y-119432822D01*
X94031000Y-119615966D01*
X94160630Y-119692635D01*
X94417204Y-119845813D01*
X94782613Y-120064635D01*
X95238747Y-120338240D01*
X95767499Y-120655766D01*
X96350757Y-121006351D01*
X96952000Y-121368049D01*
X97567587Y-121738171D01*
X98143502Y-122083760D01*
X98662161Y-122394314D01*
X99105976Y-122659331D01*
X99457361Y-122868309D01*
X99698728Y-123010748D01*
X99812040Y-123075904D01*
X99852063Y-123092138D01*
X99902539Y-123097259D01*
X99972356Y-123086204D01*
X100070404Y-123053911D01*
X100205574Y-122995319D01*
X100386754Y-122905365D01*
X100622834Y-122778986D01*
X100922704Y-122611121D01*
X101295253Y-122396708D01*
X101749372Y-122130685D01*
X102293950Y-121807988D01*
X102937875Y-121423557D01*
X103690039Y-120972328D01*
X104559331Y-120449241D01*
X105554640Y-119849232D01*
X106684856Y-119167239D01*
X106831841Y-119078521D01*
X108456681Y-118097770D01*
X112618740Y-120597432D01*
X113384399Y-121056904D01*
X114107836Y-121490323D01*
X114775824Y-121889813D01*
X115375139Y-122247499D01*
X115892553Y-122555504D01*
X116314842Y-122805955D01*
X116628779Y-122990974D01*
X116821140Y-123102686D01*
X116878233Y-123133850D01*
X116976667Y-123102976D01*
X117196906Y-122995866D01*
X117516365Y-122824750D01*
X117912459Y-122601854D01*
X118362606Y-122339405D01*
X118532703Y-122238098D01*
X119112610Y-121888395D01*
X119576476Y-121599391D01*
X119954746Y-121346846D01*
X120277870Y-121106518D01*
X120576292Y-120854166D01*
X120880462Y-120565550D01*
X121220825Y-120216429D01*
X121627829Y-119782562D01*
X121658933Y-119749111D01*
X123023720Y-118167371D01*
X124288080Y-116472126D01*
X125432232Y-114692917D01*
X126436398Y-112859283D01*
X126850249Y-111996086D01*
X127023714Y-111607420D01*
X127164070Y-111274162D01*
X127259424Y-111026045D01*
X127297881Y-110892801D01*
X127296725Y-110879944D01*
X127209120Y-110809976D01*
X127010821Y-110680820D01*
X126736017Y-110512337D01*
X126418900Y-110324392D01*
X126093659Y-110136845D01*
X125794486Y-109969560D01*
X125555572Y-109842400D01*
X125411107Y-109775228D01*
X125385936Y-109769890D01*
X125350483Y-109787374D01*
X125267651Y-109833859D01*
X125128879Y-109914466D01*
X124925608Y-110034317D01*
X124649277Y-110198533D01*
X124291328Y-110412235D01*
X123843199Y-110680546D01*
X123296332Y-111008586D01*
X122642165Y-111401478D01*
X121872140Y-111864341D01*
X120977696Y-112402298D01*
X119950273Y-113020471D01*
X119492124Y-113296179D01*
X118905480Y-113648018D01*
X118364256Y-113970293D01*
X117885662Y-114252935D01*
X117486912Y-114485874D01*
X117185218Y-114659041D01*
X116997792Y-114762367D01*
X116942064Y-114788000D01*
X116856996Y-114745610D01*
X116641981Y-114624296D01*
X116311921Y-114432846D01*
X115881715Y-114180046D01*
X115366267Y-113874683D01*
X114780475Y-113525544D01*
X114139242Y-113141414D01*
X113621273Y-112829840D01*
X112641615Y-112239617D01*
X111796704Y-111730891D01*
X111076319Y-111297647D01*
X110470240Y-110933870D01*
X109968248Y-110633546D01*
X109560123Y-110390659D01*
X109235643Y-110199194D01*
X108984590Y-110053136D01*
X108796743Y-109946470D01*
X108661882Y-109873181D01*
X108569786Y-109827255D01*
X108510236Y-109802676D01*
X108473012Y-109793429D01*
X108460813Y-109792667D01*
X108430807Y-109798482D01*
X108377949Y-109819677D01*
X108292735Y-109861876D01*
X108165658Y-109930703D01*
X107987214Y-110031782D01*
X107747897Y-110170737D01*
X107438202Y-110353193D01*
X107048623Y-110584772D01*
X106569656Y-110871099D01*
X105991794Y-111217799D01*
X105305532Y-111630495D01*
X104501365Y-112114811D01*
X103569788Y-112676371D01*
X102680279Y-113212836D01*
X102077726Y-113575043D01*
X101520026Y-113907894D01*
X101023947Y-114201564D01*
X100606259Y-114446227D01*
X100283734Y-114632058D01*
X100073139Y-114749229D01*
X99991904Y-114788000D01*
X99905300Y-114745644D01*
X99689132Y-114624565D01*
X99358686Y-114433745D01*
X98929247Y-114182166D01*
X98416101Y-113878811D01*
X97834535Y-113532661D01*
X97199833Y-113152700D01*
X96803625Y-112914493D01*
X96136014Y-112512631D01*
X95505647Y-112133474D01*
X94929003Y-111786911D01*
X94422560Y-111482835D01*
X94002797Y-111231135D01*
X93686191Y-111041702D01*
X93489221Y-110924428D01*
X93438333Y-110894545D01*
X93259973Y-110789889D01*
X92979869Y-110623475D01*
X92641252Y-110421049D01*
X92390349Y-110270385D01*
X92057639Y-110075948D01*
X91771987Y-109919632D01*
X91567965Y-109819713D01*
X91486729Y-109792667D01*
X91375782Y-109834880D01*
X91153186Y-109949999D01*
X90850612Y-110120743D01*
X90499730Y-110329829D01*
X90478185Y-110343000D01*
X90133243Y-110552512D01*
X89843553Y-110725310D01*
X89637894Y-110844453D01*
X89545040Y-110893005D01*
X89543254Y-110893334D01*
X89461513Y-110936339D01*
X89269716Y-111052343D01*
X88999632Y-111221826D01*
X88785389Y-111359000D01*
X88478500Y-111554123D01*
X88226429Y-111709038D01*
X88061563Y-111804149D01*
X88015755Y-111824667D01*
X87927625Y-111866952D01*
X87731659Y-111980210D01*
X87462585Y-112144040D01*
X87316482Y-112235394D01*
X86753226Y-112586685D01*
X86168501Y-112944539D01*
X85580854Y-113298246D01*
X85008831Y-113637095D01*
X84470980Y-113950376D01*
X83985847Y-114227380D01*
X83571981Y-114457396D01*
X83247927Y-114629714D01*
X83032233Y-114733625D01*
X82945314Y-114759549D01*
X82853761Y-114709057D01*
X82630444Y-114579156D01*
X82288672Y-114377765D01*
X81841760Y-114112803D01*
X81303019Y-113792189D01*
X80685762Y-113423843D01*
X80003300Y-113015684D01*
X79268946Y-112575632D01*
X78684681Y-112224950D01*
X74536767Y-109733605D01*
X73497511Y-110354231D01*
G37*
X73497511Y-110354231D02*
X73123548Y-110578548D01*
X72803990Y-110772111D01*
X72565874Y-110918399D01*
X72436236Y-111000890D01*
X72421138Y-111011973D01*
X72437637Y-111099816D01*
X72511615Y-111307434D01*
X72630160Y-111600590D01*
X72733046Y-111839045D01*
X73203969Y-112825590D01*
X73772614Y-113885618D01*
X74413083Y-114976891D01*
X75099478Y-116057169D01*
X75805903Y-117084211D01*
X76506459Y-118015778D01*
X76565542Y-118090000D01*
X76880301Y-118473520D01*
X77238437Y-118893640D01*
X77616799Y-119324849D01*
X77992239Y-119741635D01*
X78341606Y-120118487D01*
X78641750Y-120429894D01*
X78869523Y-120650344D01*
X78954737Y-120722941D01*
X79076204Y-120804888D01*
X79312845Y-120954538D01*
X79641896Y-121158201D01*
X80040593Y-121402188D01*
X80486172Y-121672809D01*
X80955868Y-121956374D01*
X81426919Y-122239192D01*
X81876560Y-122507575D01*
X82282027Y-122747831D01*
X82620556Y-122946272D01*
X82869384Y-123089206D01*
X83005746Y-123162945D01*
X83023762Y-123170000D01*
X83109852Y-123128052D01*
X83315118Y-123011956D01*
X83614536Y-122836337D01*
X83983085Y-122615820D01*
X84277697Y-122437152D01*
X84722092Y-122167024D01*
X85154966Y-121905366D01*
X85538696Y-121674819D01*
X85835657Y-121498022D01*
X85945333Y-121433660D01*
X86207530Y-121279379D01*
X86579959Y-121057704D01*
X87028226Y-120789310D01*
X87517935Y-120494876D01*
X88014692Y-120195078D01*
X88484101Y-119910593D01*
X88866333Y-119677660D01*
X89092493Y-119540407D01*
X89425178Y-119339887D01*
X89825449Y-119099508D01*
X90254364Y-118842680D01*
X90411645Y-118748698D01*
X91533623Y-118078675D01*
X91766311Y-118241358D01*
X91922934Y-118343472D01*
X92191785Y-118511338D01*
X92539295Y-118724580D01*
X92931898Y-118962825D01*
X93336026Y-119205697D01*
X93718113Y-119432822D01*
X94031000Y-119615966D01*
X94160630Y-119692635D01*
X94417204Y-119845813D01*
X94782613Y-120064635D01*
X95238747Y-120338240D01*
X95767499Y-120655766D01*
X96350757Y-121006351D01*
X96952000Y-121368049D01*
X97567587Y-121738171D01*
X98143502Y-122083760D01*
X98662161Y-122394314D01*
X99105976Y-122659331D01*
X99457361Y-122868309D01*
X99698728Y-123010748D01*
X99812040Y-123075904D01*
X99852063Y-123092138D01*
X99902539Y-123097259D01*
X99972356Y-123086204D01*
X100070404Y-123053911D01*
X100205574Y-122995319D01*
X100386754Y-122905365D01*
X100622834Y-122778986D01*
X100922704Y-122611121D01*
X101295253Y-122396708D01*
X101749372Y-122130685D01*
X102293950Y-121807988D01*
X102937875Y-121423557D01*
X103690039Y-120972328D01*
X104559331Y-120449241D01*
X105554640Y-119849232D01*
X106684856Y-119167239D01*
X106831841Y-119078521D01*
X108456681Y-118097770D01*
X112618740Y-120597432D01*
X113384399Y-121056904D01*
X114107836Y-121490323D01*
X114775824Y-121889813D01*
X115375139Y-122247499D01*
X115892553Y-122555504D01*
X116314842Y-122805955D01*
X116628779Y-122990974D01*
X116821140Y-123102686D01*
X116878233Y-123133850D01*
X116976667Y-123102976D01*
X117196906Y-122995866D01*
X117516365Y-122824750D01*
X117912459Y-122601854D01*
X118362606Y-122339405D01*
X118532703Y-122238098D01*
X119112610Y-121888395D01*
X119576476Y-121599391D01*
X119954746Y-121346846D01*
X120277870Y-121106518D01*
X120576292Y-120854166D01*
X120880462Y-120565550D01*
X121220825Y-120216429D01*
X121627829Y-119782562D01*
X121658933Y-119749111D01*
X123023720Y-118167371D01*
X124288080Y-116472126D01*
X125432232Y-114692917D01*
X126436398Y-112859283D01*
X126850249Y-111996086D01*
X127023714Y-111607420D01*
X127164070Y-111274162D01*
X127259424Y-111026045D01*
X127297881Y-110892801D01*
X127296725Y-110879944D01*
X127209120Y-110809976D01*
X127010821Y-110680820D01*
X126736017Y-110512337D01*
X126418900Y-110324392D01*
X126093659Y-110136845D01*
X125794486Y-109969560D01*
X125555572Y-109842400D01*
X125411107Y-109775228D01*
X125385936Y-109769890D01*
X125350483Y-109787374D01*
X125267651Y-109833859D01*
X125128879Y-109914466D01*
X124925608Y-110034317D01*
X124649277Y-110198533D01*
X124291328Y-110412235D01*
X123843199Y-110680546D01*
X123296332Y-111008586D01*
X122642165Y-111401478D01*
X121872140Y-111864341D01*
X120977696Y-112402298D01*
X119950273Y-113020471D01*
X119492124Y-113296179D01*
X118905480Y-113648018D01*
X118364256Y-113970293D01*
X117885662Y-114252935D01*
X117486912Y-114485874D01*
X117185218Y-114659041D01*
X116997792Y-114762367D01*
X116942064Y-114788000D01*
X116856996Y-114745610D01*
X116641981Y-114624296D01*
X116311921Y-114432846D01*
X115881715Y-114180046D01*
X115366267Y-113874683D01*
X114780475Y-113525544D01*
X114139242Y-113141414D01*
X113621273Y-112829840D01*
X112641615Y-112239617D01*
X111796704Y-111730891D01*
X111076319Y-111297647D01*
X110470240Y-110933870D01*
X109968248Y-110633546D01*
X109560123Y-110390659D01*
X109235643Y-110199194D01*
X108984590Y-110053136D01*
X108796743Y-109946470D01*
X108661882Y-109873181D01*
X108569786Y-109827255D01*
X108510236Y-109802676D01*
X108473012Y-109793429D01*
X108460813Y-109792667D01*
X108430807Y-109798482D01*
X108377949Y-109819677D01*
X108292735Y-109861876D01*
X108165658Y-109930703D01*
X107987214Y-110031782D01*
X107747897Y-110170737D01*
X107438202Y-110353193D01*
X107048623Y-110584772D01*
X106569656Y-110871099D01*
X105991794Y-111217799D01*
X105305532Y-111630495D01*
X104501365Y-112114811D01*
X103569788Y-112676371D01*
X102680279Y-113212836D01*
X102077726Y-113575043D01*
X101520026Y-113907894D01*
X101023947Y-114201564D01*
X100606259Y-114446227D01*
X100283734Y-114632058D01*
X100073139Y-114749229D01*
X99991904Y-114788000D01*
X99905300Y-114745644D01*
X99689132Y-114624565D01*
X99358686Y-114433745D01*
X98929247Y-114182166D01*
X98416101Y-113878811D01*
X97834535Y-113532661D01*
X97199833Y-113152700D01*
X96803625Y-112914493D01*
X96136014Y-112512631D01*
X95505647Y-112133474D01*
X94929003Y-111786911D01*
X94422560Y-111482835D01*
X94002797Y-111231135D01*
X93686191Y-111041702D01*
X93489221Y-110924428D01*
X93438333Y-110894545D01*
X93259973Y-110789889D01*
X92979869Y-110623475D01*
X92641252Y-110421049D01*
X92390349Y-110270385D01*
X92057639Y-110075948D01*
X91771987Y-109919632D01*
X91567965Y-109819713D01*
X91486729Y-109792667D01*
X91375782Y-109834880D01*
X91153186Y-109949999D01*
X90850612Y-110120743D01*
X90499730Y-110329829D01*
X90478185Y-110343000D01*
X90133243Y-110552512D01*
X89843553Y-110725310D01*
X89637894Y-110844453D01*
X89545040Y-110893005D01*
X89543254Y-110893334D01*
X89461513Y-110936339D01*
X89269716Y-111052343D01*
X88999632Y-111221826D01*
X88785389Y-111359000D01*
X88478500Y-111554123D01*
X88226429Y-111709038D01*
X88061563Y-111804149D01*
X88015755Y-111824667D01*
X87927625Y-111866952D01*
X87731659Y-111980210D01*
X87462585Y-112144040D01*
X87316482Y-112235394D01*
X86753226Y-112586685D01*
X86168501Y-112944539D01*
X85580854Y-113298246D01*
X85008831Y-113637095D01*
X84470980Y-113950376D01*
X83985847Y-114227380D01*
X83571981Y-114457396D01*
X83247927Y-114629714D01*
X83032233Y-114733625D01*
X82945314Y-114759549D01*
X82853761Y-114709057D01*
X82630444Y-114579156D01*
X82288672Y-114377765D01*
X81841760Y-114112803D01*
X81303019Y-113792189D01*
X80685762Y-113423843D01*
X80003300Y-113015684D01*
X79268946Y-112575632D01*
X78684681Y-112224950D01*
X74536767Y-109733605D01*
X73497511Y-110354231D01*
G36*
X70104934Y-101097576D02*
G01*
X70156900Y-101698622D01*
X70321843Y-103226289D01*
X70546925Y-104717993D01*
X70824823Y-106131934D01*
X71148217Y-107426314D01*
X71179341Y-107535645D01*
X71292539Y-107924604D01*
X71389356Y-108249177D01*
X71460156Y-108477631D01*
X71495301Y-108578232D01*
X71496520Y-108580076D01*
X71522984Y-108581527D01*
X71589079Y-108555031D01*
X71711558Y-108491012D01*
X71907175Y-108379893D01*
X72192680Y-108212095D01*
X72584826Y-107978042D01*
X73100367Y-107668156D01*
X73263017Y-107570167D01*
X73670228Y-107326117D01*
X74025242Y-107115918D01*
X74303517Y-106953893D01*
X74480510Y-106854366D01*
X74532349Y-106829334D01*
X74611808Y-106871454D01*
X74818949Y-106991016D01*
X75136567Y-107177819D01*
X75547454Y-107421664D01*
X76034405Y-107712351D01*
X76580213Y-108039681D01*
X76978021Y-108279087D01*
X77566279Y-108633411D01*
X78117916Y-108965321D01*
X78613627Y-109263229D01*
X79034109Y-109515549D01*
X79360057Y-109710691D01*
X79572168Y-109837069D01*
X79637667Y-109875591D01*
X79786668Y-109963332D01*
X80054302Y-110122572D01*
X80414111Y-110337504D01*
X80839637Y-110592319D01*
X81304424Y-110871208D01*
X81391477Y-110923505D01*
X81849916Y-111195108D01*
X82265231Y-111433903D01*
X82613565Y-111626756D01*
X82871056Y-111760532D01*
X83013846Y-111822096D01*
X83028504Y-111824667D01*
X83119455Y-111797572D01*
X83296333Y-111712733D01*
X83568391Y-111564815D01*
X83944882Y-111348484D01*
X84435060Y-111058405D01*
X85048177Y-110689245D01*
X85793489Y-110235669D01*
X85934131Y-110149705D01*
X86235676Y-109958186D01*
X86405438Y-109829166D01*
X86461279Y-109745895D01*
X86422086Y-109692196D01*
X86221596Y-109667700D01*
X86121355Y-109704421D01*
X85930948Y-109759427D01*
X85658195Y-109786768D01*
X85364546Y-109786644D01*
X85111451Y-109759256D01*
X84960360Y-109704803D01*
X84955823Y-109700623D01*
X84853624Y-109654368D01*
X84806893Y-109700623D01*
X84683625Y-109765917D01*
X84468474Y-109789943D01*
X84233566Y-109773572D01*
X84051025Y-109717674D01*
X84014934Y-109691067D01*
X83899720Y-109633062D01*
X83811733Y-109691067D01*
X83627037Y-109775833D01*
X83368517Y-109789442D01*
X83113687Y-109736698D01*
X82952789Y-109637833D01*
X82889896Y-109536659D01*
X82848353Y-109377649D01*
X82824316Y-109129451D01*
X82813941Y-108760711D01*
X82812667Y-108494833D01*
X82810241Y-108070029D01*
X82800173Y-107786450D01*
X82778278Y-107616023D01*
X82740372Y-107530677D01*
X82682270Y-107502338D01*
X82664500Y-107500886D01*
X82530376Y-107499065D01*
X82260984Y-107497944D01*
X81890390Y-107497579D01*
X81452658Y-107498028D01*
X81250354Y-107498491D01*
X80699618Y-107498288D01*
X80295519Y-107484591D01*
X80015363Y-107442837D01*
X79836458Y-107358460D01*
X79736108Y-107216898D01*
X79691623Y-107003585D01*
X79680307Y-106703958D01*
X79680000Y-106490667D01*
X79686293Y-106114405D01*
X79709713Y-105868637D01*
X79757070Y-105714838D01*
X79834834Y-105614789D01*
X80011273Y-105504458D01*
X80131167Y-105474667D01*
X80248243Y-105404467D01*
X80272667Y-105279933D01*
X80287020Y-105130633D01*
X80345977Y-105023830D01*
X80473387Y-104952554D01*
X80693099Y-104909833D01*
X81028961Y-104888695D01*
X81504822Y-104882168D01*
X81633900Y-104882000D01*
X82135296Y-104886414D01*
X82490314Y-104901069D01*
X82721715Y-104928084D01*
X82852258Y-104969578D01*
X82888900Y-104998839D01*
X82974706Y-105155250D01*
X83085757Y-105428863D01*
X83206835Y-105772450D01*
X83322724Y-106138785D01*
X83418205Y-106480642D01*
X83478062Y-106750793D01*
X83490661Y-106866383D01*
X83534957Y-107085156D01*
X83694817Y-107219803D01*
X83716410Y-107230180D01*
X83949253Y-107293404D01*
X84076710Y-107227713D01*
X84089597Y-107043543D01*
X84033909Y-106869351D01*
X83925971Y-106443564D01*
X83927810Y-105993240D01*
X84030662Y-105568865D01*
X84225766Y-105220926D01*
X84340408Y-105103512D01*
X84593194Y-104890806D01*
X88126764Y-104892825D01*
X89004784Y-104893945D01*
X89728827Y-104896587D01*
X90314246Y-104901317D01*
X90776392Y-104908699D01*
X91130619Y-104919301D01*
X91392281Y-104933688D01*
X91576729Y-104952427D01*
X91699317Y-104976082D01*
X91775398Y-105005221D01*
X91808500Y-105028544D01*
X91874519Y-105113229D01*
X91917981Y-105246614D01*
X91943232Y-105460866D01*
X91954615Y-105788150D01*
X91956667Y-106125446D01*
X91962841Y-106584171D01*
X91982610Y-106891542D01*
X92017841Y-107065131D01*
X92062500Y-107120998D01*
X92216198Y-107157410D01*
X92440092Y-107200354D01*
X92445568Y-107201304D01*
X92627545Y-107223929D01*
X92677889Y-107188857D01*
X92636068Y-107087196D01*
X92567400Y-106843016D01*
X92554238Y-106532173D01*
X92596763Y-106247068D01*
X92634229Y-106151572D01*
X92673068Y-105990558D01*
X92634229Y-105940475D01*
X92579537Y-105829152D01*
X92550671Y-105619210D01*
X92549333Y-105560482D01*
X92585156Y-105292558D01*
X92715007Y-105105592D01*
X92765755Y-105062720D01*
X92858285Y-105000015D01*
X92969984Y-104954995D01*
X93128399Y-104924901D01*
X93361079Y-104906970D01*
X93695571Y-104898442D01*
X94159423Y-104896555D01*
X94417875Y-104897138D01*
X94893782Y-104902886D01*
X95308572Y-104915876D01*
X95633522Y-104934565D01*
X95839912Y-104957409D01*
X95899925Y-104976793D01*
X96001790Y-105003382D01*
X96104906Y-104966896D01*
X96284929Y-104914869D01*
X96549022Y-104884888D01*
X96655667Y-104882000D01*
X96929477Y-104899928D01*
X97152132Y-104944976D01*
X97206428Y-104966896D01*
X97367442Y-105005734D01*
X97417525Y-104966896D01*
X97517709Y-104936129D01*
X97753646Y-104912307D01*
X98091900Y-104895430D01*
X98499032Y-104885498D01*
X98941606Y-104882511D01*
X99386184Y-104886469D01*
X99799329Y-104897372D01*
X100147603Y-104915221D01*
X100397569Y-104940014D01*
X100508428Y-104966896D01*
X100660779Y-105005733D01*
X100714980Y-104974251D01*
X100808262Y-104957165D01*
X101057041Y-104941444D01*
X101447482Y-104927374D01*
X101965754Y-104915238D01*
X102598021Y-104905321D01*
X103330451Y-104897908D01*
X104149209Y-104893284D01*
X104716778Y-104891913D01*
X105646405Y-104891265D01*
X106421300Y-104892092D01*
X107056060Y-104894866D01*
X107565282Y-104900058D01*
X107963565Y-104908141D01*
X108265506Y-104919587D01*
X108485703Y-104934867D01*
X108638753Y-104954454D01*
X108739254Y-104978820D01*
X108801804Y-105008437D01*
X108822660Y-105024680D01*
X108888890Y-105107097D01*
X108932966Y-105233071D01*
X108959126Y-105434408D01*
X108971612Y-105742915D01*
X108974667Y-106165122D01*
X108974667Y-107168000D01*
X109365542Y-107168000D01*
X109601240Y-107161451D01*
X109705464Y-107127377D01*
X109715970Y-107044139D01*
X109697933Y-106977500D01*
X109593293Y-106452506D01*
X109598907Y-105954003D01*
X109709144Y-105517134D01*
X109918372Y-105177043D01*
X109998762Y-105099848D01*
X110107454Y-105014177D01*
X110216371Y-104954532D01*
X110357204Y-104916206D01*
X110561640Y-104894493D01*
X110861370Y-104884687D01*
X111288082Y-104882082D01*
X111465707Y-104882000D01*
X111995306Y-104884534D01*
X112379766Y-104902109D01*
X112643282Y-104949685D01*
X112810051Y-105042222D01*
X112904265Y-105194681D01*
X112950122Y-105422021D01*
X112971815Y-105739203D01*
X112975417Y-105815477D01*
X113005021Y-106448334D01*
X113021844Y-105766767D01*
X113042789Y-105411273D01*
X113082549Y-105138507D01*
X113134881Y-104989767D01*
X113140267Y-104983600D01*
X113269897Y-104934458D01*
X113512182Y-104901181D01*
X113818029Y-104884175D01*
X114138347Y-104883845D01*
X114424044Y-104900597D01*
X114626029Y-104934837D01*
X114692208Y-104970778D01*
X114789797Y-105011040D01*
X114848030Y-104975771D01*
X114963711Y-104946988D01*
X115214579Y-104923561D01*
X115569992Y-104905576D01*
X115999308Y-104893116D01*
X116471887Y-104886266D01*
X116957087Y-104885112D01*
X117424266Y-104889738D01*
X117842784Y-104900228D01*
X118181999Y-104916668D01*
X118411270Y-104939142D01*
X118499053Y-104965673D01*
X118610708Y-105006031D01*
X118710906Y-104966896D01*
X118895891Y-104915246D01*
X119172750Y-104888366D01*
X119484606Y-104885545D01*
X119774584Y-104906072D01*
X119985810Y-104949240D01*
X120049067Y-104983600D01*
X120093334Y-105111602D01*
X120125677Y-105368420D01*
X120146097Y-105713955D01*
X120154593Y-106108110D01*
X120151165Y-106510786D01*
X120135814Y-106881887D01*
X120108539Y-107181315D01*
X120069340Y-107368971D01*
X120049067Y-107405067D01*
X119910729Y-107458881D01*
X119660503Y-107492410D01*
X119354086Y-107505275D01*
X119047174Y-107497093D01*
X118795462Y-107467482D01*
X118654646Y-107416063D01*
X118653156Y-107414623D01*
X118550957Y-107368368D01*
X118504226Y-107414623D01*
X118393531Y-107460864D01*
X118148737Y-107493173D01*
X117804806Y-107507225D01*
X117753837Y-107507486D01*
X117060333Y-107508304D01*
X117044177Y-108490116D01*
X117029443Y-108986668D01*
X116994416Y-109338520D01*
X116924366Y-109570217D01*
X116804561Y-109706302D01*
X116620273Y-109771317D01*
X116356771Y-109789807D01*
X116264045Y-109789974D01*
X115935633Y-109764211D01*
X115689654Y-109698904D01*
X115626609Y-109663431D01*
X115484822Y-109584756D01*
X115350667Y-109616717D01*
X115269754Y-109666123D01*
X115075858Y-109739263D01*
X114804390Y-109781505D01*
X114519299Y-109790084D01*
X114284536Y-109762233D01*
X114177433Y-109713379D01*
X114035049Y-109680883D01*
X113793280Y-109729783D01*
X113489560Y-109825475D01*
X114174280Y-110241534D01*
X114529068Y-110455243D01*
X114879396Y-110663128D01*
X115165770Y-110829979D01*
X115240000Y-110872233D01*
X115509519Y-111028822D01*
X115752313Y-111177625D01*
X115832667Y-111230002D01*
X116022560Y-111349304D01*
X116293350Y-111508882D01*
X116510000Y-111631511D01*
X116975667Y-111889891D01*
X121027750Y-109453636D01*
X121786425Y-108997709D01*
X122505475Y-108566013D01*
X123171095Y-108166807D01*
X123769481Y-107808349D01*
X124286830Y-107498899D01*
X124709337Y-107246716D01*
X125023200Y-107060060D01*
X125214613Y-106947189D01*
X125266461Y-106917500D01*
X125346288Y-106890159D01*
X125448355Y-106896214D01*
X125594527Y-106945769D01*
X125806668Y-107048926D01*
X126106640Y-107215788D01*
X126516308Y-107456460D01*
X126799866Y-107626089D01*
X127227680Y-107877868D01*
X127606035Y-108090984D01*
X127911248Y-108252875D01*
X128119637Y-108350977D01*
X128207473Y-108372779D01*
X128265125Y-108253359D01*
X128350883Y-107998130D01*
X128456912Y-107636759D01*
X128575379Y-107198914D01*
X128698449Y-106714261D01*
X128818288Y-106212467D01*
X128927062Y-105723199D01*
X128995280Y-105389447D01*
X129173103Y-104376864D01*
X129330860Y-103283847D01*
X129456469Y-102199104D01*
X129509411Y-101613998D01*
X129564020Y-100928329D01*
X128646177Y-100373846D01*
X128219947Y-100116291D01*
X127708544Y-99807170D01*
X127171673Y-99482579D01*
X126669040Y-99178611D01*
X126594208Y-99133348D01*
X126205346Y-98898975D01*
X125870970Y-98699043D01*
X125616216Y-98548454D01*
X125466218Y-98462109D01*
X125437037Y-98447334D01*
X125354563Y-98489306D01*
X125150735Y-98606098D01*
X124848562Y-98784017D01*
X124471050Y-99009372D01*
X124041207Y-99268472D01*
X123582040Y-99547626D01*
X123368000Y-99678578D01*
X122981734Y-99913761D01*
X122592503Y-100147992D01*
X122256300Y-100347699D01*
X122098000Y-100440056D01*
X121847084Y-100587039D01*
X121495885Y-100795955D01*
X121088578Y-101040385D01*
X120669337Y-101293912D01*
X120616333Y-101326118D01*
X120224066Y-101564033D01*
X119862701Y-101782149D01*
X119567392Y-101959321D01*
X119373294Y-102074402D01*
X119346333Y-102090055D01*
X119183395Y-102185889D01*
X118909321Y-102349258D01*
X118557822Y-102559984D01*
X118162608Y-102797888D01*
X118016315Y-102886184D01*
X116940297Y-103536096D01*
X114163982Y-101870824D01*
X113519171Y-101483790D01*
X112900105Y-101111705D01*
X112326587Y-100766507D01*
X111818418Y-100460136D01*
X111395401Y-100204530D01*
X111077338Y-100011628D01*
X110884031Y-99893371D01*
X110879667Y-99890668D01*
X110602713Y-99720863D01*
X110230016Y-99494920D01*
X109811521Y-99243009D01*
X109418741Y-99008145D01*
X108465815Y-98440507D01*
X106878741Y-99386667D01*
X106375382Y-99687419D01*
X105887461Y-99980162D01*
X105445755Y-100246338D01*
X105081039Y-100467392D01*
X104824090Y-100624767D01*
X104783667Y-100649882D01*
X104578563Y-100776098D01*
X104252175Y-100974739D01*
X103828527Y-101231285D01*
X103331641Y-101531217D01*
X102785543Y-101860016D01*
X102214255Y-102203161D01*
X102132045Y-102252471D01*
X99988423Y-103538005D01*
X96429064Y-101394836D01*
X95716721Y-100966072D01*
X95042864Y-100560769D01*
X94422535Y-100187952D01*
X93870777Y-99856650D01*
X93402633Y-99575888D01*
X93033146Y-99354695D01*
X92777358Y-99202097D01*
X92650312Y-99127122D01*
X92646019Y-99124667D01*
X92450422Y-99009991D01*
X92180380Y-98847322D01*
X91976562Y-98722500D01*
X91738880Y-98578584D01*
X91565728Y-98478989D01*
X91500282Y-98447334D01*
X91421308Y-98489030D01*
X91223202Y-98604129D01*
X90931263Y-98777643D01*
X90570794Y-98994586D01*
X90337387Y-99136172D01*
X89925811Y-99386035D01*
X89546237Y-99615551D01*
X89230985Y-99805244D01*
X89012375Y-99935639D01*
X88951000Y-99971597D01*
X88823044Y-100047276D01*
X88567569Y-100199942D01*
X88202046Y-100419100D01*
X87743941Y-100694257D01*
X87210723Y-101014919D01*
X86619862Y-101370593D01*
X85988825Y-101750785D01*
X85872642Y-101820819D01*
X85149449Y-102255811D01*
X84556639Y-102609621D01*
X84080305Y-102889689D01*
X83706538Y-103103454D01*
X83421432Y-103258358D01*
X83211080Y-103361839D01*
X83061573Y-103421339D01*
X82959005Y-103444298D01*
X82889467Y-103438156D01*
X82866976Y-103428798D01*
X82762197Y-103368497D01*
X82526057Y-103229108D01*
X82172294Y-103018840D01*
X81714643Y-102745900D01*
X81166841Y-102418495D01*
X80542627Y-102044833D01*
X79855735Y-101633122D01*
X79119904Y-101191570D01*
X78609116Y-100884778D01*
X74532564Y-98435414D01*
X70104934Y-101097576D01*
G37*
X70104934Y-101097576D02*
X70156900Y-101698622D01*
X70321843Y-103226289D01*
X70546925Y-104717993D01*
X70824823Y-106131934D01*
X71148217Y-107426314D01*
X71179341Y-107535645D01*
X71292539Y-107924604D01*
X71389356Y-108249177D01*
X71460156Y-108477631D01*
X71495301Y-108578232D01*
X71496520Y-108580076D01*
X71522984Y-108581527D01*
X71589079Y-108555031D01*
X71711558Y-108491012D01*
X71907175Y-108379893D01*
X72192680Y-108212095D01*
X72584826Y-107978042D01*
X73100367Y-107668156D01*
X73263017Y-107570167D01*
X73670228Y-107326117D01*
X74025242Y-107115918D01*
X74303517Y-106953893D01*
X74480510Y-106854366D01*
X74532349Y-106829334D01*
X74611808Y-106871454D01*
X74818949Y-106991016D01*
X75136567Y-107177819D01*
X75547454Y-107421664D01*
X76034405Y-107712351D01*
X76580213Y-108039681D01*
X76978021Y-108279087D01*
X77566279Y-108633411D01*
X78117916Y-108965321D01*
X78613627Y-109263229D01*
X79034109Y-109515549D01*
X79360057Y-109710691D01*
X79572168Y-109837069D01*
X79637667Y-109875591D01*
X79786668Y-109963332D01*
X80054302Y-110122572D01*
X80414111Y-110337504D01*
X80839637Y-110592319D01*
X81304424Y-110871208D01*
X81391477Y-110923505D01*
X81849916Y-111195108D01*
X82265231Y-111433903D01*
X82613565Y-111626756D01*
X82871056Y-111760532D01*
X83013846Y-111822096D01*
X83028504Y-111824667D01*
X83119455Y-111797572D01*
X83296333Y-111712733D01*
X83568391Y-111564815D01*
X83944882Y-111348484D01*
X84435060Y-111058405D01*
X85048177Y-110689245D01*
X85793489Y-110235669D01*
X85934131Y-110149705D01*
X86235676Y-109958186D01*
X86405438Y-109829166D01*
X86461279Y-109745895D01*
X86422086Y-109692196D01*
X86221596Y-109667700D01*
X86121355Y-109704421D01*
X85930948Y-109759427D01*
X85658195Y-109786768D01*
X85364546Y-109786644D01*
X85111451Y-109759256D01*
X84960360Y-109704803D01*
X84955823Y-109700623D01*
X84853624Y-109654368D01*
X84806893Y-109700623D01*
X84683625Y-109765917D01*
X84468474Y-109789943D01*
X84233566Y-109773572D01*
X84051025Y-109717674D01*
X84014934Y-109691067D01*
X83899720Y-109633062D01*
X83811733Y-109691067D01*
X83627037Y-109775833D01*
X83368517Y-109789442D01*
X83113687Y-109736698D01*
X82952789Y-109637833D01*
X82889896Y-109536659D01*
X82848353Y-109377649D01*
X82824316Y-109129451D01*
X82813941Y-108760711D01*
X82812667Y-108494833D01*
X82810241Y-108070029D01*
X82800173Y-107786450D01*
X82778278Y-107616023D01*
X82740372Y-107530677D01*
X82682270Y-107502338D01*
X82664500Y-107500886D01*
X82530376Y-107499065D01*
X82260984Y-107497944D01*
X81890390Y-107497579D01*
X81452658Y-107498028D01*
X81250354Y-107498491D01*
X80699618Y-107498288D01*
X80295519Y-107484591D01*
X80015363Y-107442837D01*
X79836458Y-107358460D01*
X79736108Y-107216898D01*
X79691623Y-107003585D01*
X79680307Y-106703958D01*
X79680000Y-106490667D01*
X79686293Y-106114405D01*
X79709713Y-105868637D01*
X79757070Y-105714838D01*
X79834834Y-105614789D01*
X80011273Y-105504458D01*
X80131167Y-105474667D01*
X80248243Y-105404467D01*
X80272667Y-105279933D01*
X80287020Y-105130633D01*
X80345977Y-105023830D01*
X80473387Y-104952554D01*
X80693099Y-104909833D01*
X81028961Y-104888695D01*
X81504822Y-104882168D01*
X81633900Y-104882000D01*
X82135296Y-104886414D01*
X82490314Y-104901069D01*
X82721715Y-104928084D01*
X82852258Y-104969578D01*
X82888900Y-104998839D01*
X82974706Y-105155250D01*
X83085757Y-105428863D01*
X83206835Y-105772450D01*
X83322724Y-106138785D01*
X83418205Y-106480642D01*
X83478062Y-106750793D01*
X83490661Y-106866383D01*
X83534957Y-107085156D01*
X83694817Y-107219803D01*
X83716410Y-107230180D01*
X83949253Y-107293404D01*
X84076710Y-107227713D01*
X84089597Y-107043543D01*
X84033909Y-106869351D01*
X83925971Y-106443564D01*
X83927810Y-105993240D01*
X84030662Y-105568865D01*
X84225766Y-105220926D01*
X84340408Y-105103512D01*
X84593194Y-104890806D01*
X88126764Y-104892825D01*
X89004784Y-104893945D01*
X89728827Y-104896587D01*
X90314246Y-104901317D01*
X90776392Y-104908699D01*
X91130619Y-104919301D01*
X91392281Y-104933688D01*
X91576729Y-104952427D01*
X91699317Y-104976082D01*
X91775398Y-105005221D01*
X91808500Y-105028544D01*
X91874519Y-105113229D01*
X91917981Y-105246614D01*
X91943232Y-105460866D01*
X91954615Y-105788150D01*
X91956667Y-106125446D01*
X91962841Y-106584171D01*
X91982610Y-106891542D01*
X92017841Y-107065131D01*
X92062500Y-107120998D01*
X92216198Y-107157410D01*
X92440092Y-107200354D01*
X92445568Y-107201304D01*
X92627545Y-107223929D01*
X92677889Y-107188857D01*
X92636068Y-107087196D01*
X92567400Y-106843016D01*
X92554238Y-106532173D01*
X92596763Y-106247068D01*
X92634229Y-106151572D01*
X92673068Y-105990558D01*
X92634229Y-105940475D01*
X92579537Y-105829152D01*
X92550671Y-105619210D01*
X92549333Y-105560482D01*
X92585156Y-105292558D01*
X92715007Y-105105592D01*
X92765755Y-105062720D01*
X92858285Y-105000015D01*
X92969984Y-104954995D01*
X93128399Y-104924901D01*
X93361079Y-104906970D01*
X93695571Y-104898442D01*
X94159423Y-104896555D01*
X94417875Y-104897138D01*
X94893782Y-104902886D01*
X95308572Y-104915876D01*
X95633522Y-104934565D01*
X95839912Y-104957409D01*
X95899925Y-104976793D01*
X96001790Y-105003382D01*
X96104906Y-104966896D01*
X96284929Y-104914869D01*
X96549022Y-104884888D01*
X96655667Y-104882000D01*
X96929477Y-104899928D01*
X97152132Y-104944976D01*
X97206428Y-104966896D01*
X97367442Y-105005734D01*
X97417525Y-104966896D01*
X97517709Y-104936129D01*
X97753646Y-104912307D01*
X98091900Y-104895430D01*
X98499032Y-104885498D01*
X98941606Y-104882511D01*
X99386184Y-104886469D01*
X99799329Y-104897372D01*
X100147603Y-104915221D01*
X100397569Y-104940014D01*
X100508428Y-104966896D01*
X100660779Y-105005733D01*
X100714980Y-104974251D01*
X100808262Y-104957165D01*
X101057041Y-104941444D01*
X101447482Y-104927374D01*
X101965754Y-104915238D01*
X102598021Y-104905321D01*
X103330451Y-104897908D01*
X104149209Y-104893284D01*
X104716778Y-104891913D01*
X105646405Y-104891265D01*
X106421300Y-104892092D01*
X107056060Y-104894866D01*
X107565282Y-104900058D01*
X107963565Y-104908141D01*
X108265506Y-104919587D01*
X108485703Y-104934867D01*
X108638753Y-104954454D01*
X108739254Y-104978820D01*
X108801804Y-105008437D01*
X108822660Y-105024680D01*
X108888890Y-105107097D01*
X108932966Y-105233071D01*
X108959126Y-105434408D01*
X108971612Y-105742915D01*
X108974667Y-106165122D01*
X108974667Y-107168000D01*
X109365542Y-107168000D01*
X109601240Y-107161451D01*
X109705464Y-107127377D01*
X109715970Y-107044139D01*
X109697933Y-106977500D01*
X109593293Y-106452506D01*
X109598907Y-105954003D01*
X109709144Y-105517134D01*
X109918372Y-105177043D01*
X109998762Y-105099848D01*
X110107454Y-105014177D01*
X110216371Y-104954532D01*
X110357204Y-104916206D01*
X110561640Y-104894493D01*
X110861370Y-104884687D01*
X111288082Y-104882082D01*
X111465707Y-104882000D01*
X111995306Y-104884534D01*
X112379766Y-104902109D01*
X112643282Y-104949685D01*
X112810051Y-105042222D01*
X112904265Y-105194681D01*
X112950122Y-105422021D01*
X112971815Y-105739203D01*
X112975417Y-105815477D01*
X113005021Y-106448334D01*
X113021844Y-105766767D01*
X113042789Y-105411273D01*
X113082549Y-105138507D01*
X113134881Y-104989767D01*
X113140267Y-104983600D01*
X113269897Y-104934458D01*
X113512182Y-104901181D01*
X113818029Y-104884175D01*
X114138347Y-104883845D01*
X114424044Y-104900597D01*
X114626029Y-104934837D01*
X114692208Y-104970778D01*
X114789797Y-105011040D01*
X114848030Y-104975771D01*
X114963711Y-104946988D01*
X115214579Y-104923561D01*
X115569992Y-104905576D01*
X115999308Y-104893116D01*
X116471887Y-104886266D01*
X116957087Y-104885112D01*
X117424266Y-104889738D01*
X117842784Y-104900228D01*
X118181999Y-104916668D01*
X118411270Y-104939142D01*
X118499053Y-104965673D01*
X118610708Y-105006031D01*
X118710906Y-104966896D01*
X118895891Y-104915246D01*
X119172750Y-104888366D01*
X119484606Y-104885545D01*
X119774584Y-104906072D01*
X119985810Y-104949240D01*
X120049067Y-104983600D01*
X120093334Y-105111602D01*
X120125677Y-105368420D01*
X120146097Y-105713955D01*
X120154593Y-106108110D01*
X120151165Y-106510786D01*
X120135814Y-106881887D01*
X120108539Y-107181315D01*
X120069340Y-107368971D01*
X120049067Y-107405067D01*
X119910729Y-107458881D01*
X119660503Y-107492410D01*
X119354086Y-107505275D01*
X119047174Y-107497093D01*
X118795462Y-107467482D01*
X118654646Y-107416063D01*
X118653156Y-107414623D01*
X118550957Y-107368368D01*
X118504226Y-107414623D01*
X118393531Y-107460864D01*
X118148737Y-107493173D01*
X117804806Y-107507225D01*
X117753837Y-107507486D01*
X117060333Y-107508304D01*
X117044177Y-108490116D01*
X117029443Y-108986668D01*
X116994416Y-109338520D01*
X116924366Y-109570217D01*
X116804561Y-109706302D01*
X116620273Y-109771317D01*
X116356771Y-109789807D01*
X116264045Y-109789974D01*
X115935633Y-109764211D01*
X115689654Y-109698904D01*
X115626609Y-109663431D01*
X115484822Y-109584756D01*
X115350667Y-109616717D01*
X115269754Y-109666123D01*
X115075858Y-109739263D01*
X114804390Y-109781505D01*
X114519299Y-109790084D01*
X114284536Y-109762233D01*
X114177433Y-109713379D01*
X114035049Y-109680883D01*
X113793280Y-109729783D01*
X113489560Y-109825475D01*
X114174280Y-110241534D01*
X114529068Y-110455243D01*
X114879396Y-110663128D01*
X115165770Y-110829979D01*
X115240000Y-110872233D01*
X115509519Y-111028822D01*
X115752313Y-111177625D01*
X115832667Y-111230002D01*
X116022560Y-111349304D01*
X116293350Y-111508882D01*
X116510000Y-111631511D01*
X116975667Y-111889891D01*
X121027750Y-109453636D01*
X121786425Y-108997709D01*
X122505475Y-108566013D01*
X123171095Y-108166807D01*
X123769481Y-107808349D01*
X124286830Y-107498899D01*
X124709337Y-107246716D01*
X125023200Y-107060060D01*
X125214613Y-106947189D01*
X125266461Y-106917500D01*
X125346288Y-106890159D01*
X125448355Y-106896214D01*
X125594527Y-106945769D01*
X125806668Y-107048926D01*
X126106640Y-107215788D01*
X126516308Y-107456460D01*
X126799866Y-107626089D01*
X127227680Y-107877868D01*
X127606035Y-108090984D01*
X127911248Y-108252875D01*
X128119637Y-108350977D01*
X128207473Y-108372779D01*
X128265125Y-108253359D01*
X128350883Y-107998130D01*
X128456912Y-107636759D01*
X128575379Y-107198914D01*
X128698449Y-106714261D01*
X128818288Y-106212467D01*
X128927062Y-105723199D01*
X128995280Y-105389447D01*
X129173103Y-104376864D01*
X129330860Y-103283847D01*
X129456469Y-102199104D01*
X129509411Y-101613998D01*
X129564020Y-100928329D01*
X128646177Y-100373846D01*
X128219947Y-100116291D01*
X127708544Y-99807170D01*
X127171673Y-99482579D01*
X126669040Y-99178611D01*
X126594208Y-99133348D01*
X126205346Y-98898975D01*
X125870970Y-98699043D01*
X125616216Y-98548454D01*
X125466218Y-98462109D01*
X125437037Y-98447334D01*
X125354563Y-98489306D01*
X125150735Y-98606098D01*
X124848562Y-98784017D01*
X124471050Y-99009372D01*
X124041207Y-99268472D01*
X123582040Y-99547626D01*
X123368000Y-99678578D01*
X122981734Y-99913761D01*
X122592503Y-100147992D01*
X122256300Y-100347699D01*
X122098000Y-100440056D01*
X121847084Y-100587039D01*
X121495885Y-100795955D01*
X121088578Y-101040385D01*
X120669337Y-101293912D01*
X120616333Y-101326118D01*
X120224066Y-101564033D01*
X119862701Y-101782149D01*
X119567392Y-101959321D01*
X119373294Y-102074402D01*
X119346333Y-102090055D01*
X119183395Y-102185889D01*
X118909321Y-102349258D01*
X118557822Y-102559984D01*
X118162608Y-102797888D01*
X118016315Y-102886184D01*
X116940297Y-103536096D01*
X114163982Y-101870824D01*
X113519171Y-101483790D01*
X112900105Y-101111705D01*
X112326587Y-100766507D01*
X111818418Y-100460136D01*
X111395401Y-100204530D01*
X111077338Y-100011628D01*
X110884031Y-99893371D01*
X110879667Y-99890668D01*
X110602713Y-99720863D01*
X110230016Y-99494920D01*
X109811521Y-99243009D01*
X109418741Y-99008145D01*
X108465815Y-98440507D01*
X106878741Y-99386667D01*
X106375382Y-99687419D01*
X105887461Y-99980162D01*
X105445755Y-100246338D01*
X105081039Y-100467392D01*
X104824090Y-100624767D01*
X104783667Y-100649882D01*
X104578563Y-100776098D01*
X104252175Y-100974739D01*
X103828527Y-101231285D01*
X103331641Y-101531217D01*
X102785543Y-101860016D01*
X102214255Y-102203161D01*
X102132045Y-102252471D01*
X99988423Y-103538005D01*
X96429064Y-101394836D01*
X95716721Y-100966072D01*
X95042864Y-100560769D01*
X94422535Y-100187952D01*
X93870777Y-99856650D01*
X93402633Y-99575888D01*
X93033146Y-99354695D01*
X92777358Y-99202097D01*
X92650312Y-99127122D01*
X92646019Y-99124667D01*
X92450422Y-99009991D01*
X92180380Y-98847322D01*
X91976562Y-98722500D01*
X91738880Y-98578584D01*
X91565728Y-98478989D01*
X91500282Y-98447334D01*
X91421308Y-98489030D01*
X91223202Y-98604129D01*
X90931263Y-98777643D01*
X90570794Y-98994586D01*
X90337387Y-99136172D01*
X89925811Y-99386035D01*
X89546237Y-99615551D01*
X89230985Y-99805244D01*
X89012375Y-99935639D01*
X88951000Y-99971597D01*
X88823044Y-100047276D01*
X88567569Y-100199942D01*
X88202046Y-100419100D01*
X87743941Y-100694257D01*
X87210723Y-101014919D01*
X86619862Y-101370593D01*
X85988825Y-101750785D01*
X85872642Y-101820819D01*
X85149449Y-102255811D01*
X84556639Y-102609621D01*
X84080305Y-102889689D01*
X83706538Y-103103454D01*
X83421432Y-103258358D01*
X83211080Y-103361839D01*
X83061573Y-103421339D01*
X82959005Y-103444298D01*
X82889467Y-103438156D01*
X82866976Y-103428798D01*
X82762197Y-103368497D01*
X82526057Y-103229108D01*
X82172294Y-103018840D01*
X81714643Y-102745900D01*
X81166841Y-102418495D01*
X80542627Y-102044833D01*
X79855735Y-101633122D01*
X79119904Y-101191570D01*
X78609116Y-100884778D01*
X74532564Y-98435414D01*
X70104934Y-101097576D01*
G36*
X99845928Y-109168467D02*
G01*
X99806885Y-109499163D01*
X99700218Y-109692200D01*
X99498548Y-109774403D01*
X99225071Y-109776674D01*
X98957266Y-109730669D01*
X98807203Y-109627657D01*
X98771407Y-109569664D01*
X98681854Y-109388995D01*
X98449120Y-109589184D01*
X98323977Y-109683478D01*
X98187452Y-109741908D01*
X97997435Y-109772259D01*
X97711819Y-109782320D01*
X97410525Y-109781243D01*
X97060104Y-109780819D01*
X96779651Y-109786347D01*
X96607828Y-109796757D01*
X96573323Y-109804455D01*
X96629465Y-109857177D01*
X96808475Y-109978736D01*
X97085809Y-110154640D01*
X97436923Y-110370398D01*
X97837273Y-110611520D01*
X98262316Y-110863515D01*
X98687507Y-111111891D01*
X99088303Y-111342158D01*
X99440159Y-111539824D01*
X99718532Y-111690400D01*
X99898877Y-111779393D01*
X99948126Y-111796965D01*
X100086948Y-111762006D01*
X100357474Y-111637581D01*
X100750708Y-111428445D01*
X101257653Y-111139353D01*
X101785164Y-110825917D01*
X102316361Y-110504178D01*
X102716733Y-110257228D01*
X103001342Y-110073885D01*
X103185250Y-109942968D01*
X103283519Y-109853296D01*
X103311210Y-109793686D01*
X103283386Y-109752958D01*
X103253191Y-109736100D01*
X103065805Y-109691549D01*
X102953758Y-109713918D01*
X102820677Y-109744473D01*
X102558851Y-109765868D01*
X102203149Y-109778542D01*
X101788439Y-109782931D01*
X101349587Y-109779475D01*
X100921463Y-109768612D01*
X100538934Y-109750780D01*
X100236867Y-109726417D01*
X100050132Y-109695962D01*
X100009330Y-109676909D01*
X99954487Y-109538120D01*
X99908828Y-109298294D01*
X99893677Y-109155517D01*
X99861189Y-108734334D01*
X99845928Y-109168467D01*
G37*
X99845928Y-109168467D02*
X99806885Y-109499163D01*
X99700218Y-109692200D01*
X99498548Y-109774403D01*
X99225071Y-109776674D01*
X98957266Y-109730669D01*
X98807203Y-109627657D01*
X98771407Y-109569664D01*
X98681854Y-109388995D01*
X98449120Y-109589184D01*
X98323977Y-109683478D01*
X98187452Y-109741908D01*
X97997435Y-109772259D01*
X97711819Y-109782320D01*
X97410525Y-109781243D01*
X97060104Y-109780819D01*
X96779651Y-109786347D01*
X96607828Y-109796757D01*
X96573323Y-109804455D01*
X96629465Y-109857177D01*
X96808475Y-109978736D01*
X97085809Y-110154640D01*
X97436923Y-110370398D01*
X97837273Y-110611520D01*
X98262316Y-110863515D01*
X98687507Y-111111891D01*
X99088303Y-111342158D01*
X99440159Y-111539824D01*
X99718532Y-111690400D01*
X99898877Y-111779393D01*
X99948126Y-111796965D01*
X100086948Y-111762006D01*
X100357474Y-111637581D01*
X100750708Y-111428445D01*
X101257653Y-111139353D01*
X101785164Y-110825917D01*
X102316361Y-110504178D01*
X102716733Y-110257228D01*
X103001342Y-110073885D01*
X103185250Y-109942968D01*
X103283519Y-109853296D01*
X103311210Y-109793686D01*
X103283386Y-109752958D01*
X103253191Y-109736100D01*
X103065805Y-109691549D01*
X102953758Y-109713918D01*
X102820677Y-109744473D01*
X102558851Y-109765868D01*
X102203149Y-109778542D01*
X101788439Y-109782931D01*
X101349587Y-109779475D01*
X100921463Y-109768612D01*
X100538934Y-109750780D01*
X100236867Y-109726417D01*
X100050132Y-109695962D01*
X100009330Y-109676909D01*
X99954487Y-109538120D01*
X99908828Y-109298294D01*
X99893677Y-109155517D01*
X99861189Y-108734334D01*
X99845928Y-109168467D01*
G36*
X125315389Y-87228735D02*
G01*
X125104290Y-87346956D01*
X124789610Y-87529357D01*
X124391855Y-87763964D01*
X123931532Y-88038803D01*
X123570579Y-88256262D01*
X122402359Y-88962005D01*
X121370843Y-89583703D01*
X120468371Y-90125813D01*
X119687282Y-90592795D01*
X119019919Y-90989106D01*
X118458620Y-91319205D01*
X117995726Y-91587550D01*
X117623577Y-91798600D01*
X117334514Y-91956813D01*
X117120877Y-92066648D01*
X116975006Y-92132563D01*
X116889241Y-92159017D01*
X116866050Y-92158714D01*
X116761742Y-92106644D01*
X116530251Y-91977121D01*
X116189206Y-91780457D01*
X115756239Y-91526966D01*
X115248979Y-91226959D01*
X114685059Y-90890748D01*
X114181667Y-90588613D01*
X111641667Y-89059569D01*
X111503926Y-89879951D01*
X111300885Y-90900103D01*
X111043765Y-91822951D01*
X110716060Y-92685171D01*
X110301265Y-93523441D01*
X109782876Y-94374437D01*
X109144387Y-95274834D01*
X108977002Y-95495124D01*
X108805841Y-95717915D01*
X111451421Y-97307193D01*
X112132450Y-97716621D01*
X112832651Y-98138140D01*
X113522654Y-98554033D01*
X114173092Y-98946578D01*
X114754594Y-99298056D01*
X115237791Y-99590747D01*
X115467423Y-99730236D01*
X115902975Y-99991500D01*
X116293341Y-100218632D01*
X116614001Y-100397931D01*
X116840435Y-100515694D01*
X116948124Y-100558219D01*
X116949089Y-100558200D01*
X117040261Y-100514553D01*
X117262987Y-100391010D01*
X117603976Y-100195382D01*
X118049937Y-99935483D01*
X118587577Y-99619127D01*
X119203605Y-99254127D01*
X119884729Y-98848296D01*
X120617657Y-98409448D01*
X121198024Y-98060533D01*
X121960667Y-97602200D01*
X122681018Y-97171136D01*
X123345856Y-96775128D01*
X123941964Y-96421961D01*
X124456124Y-96119419D01*
X124875116Y-95875289D01*
X125185723Y-95697354D01*
X125374727Y-95593402D01*
X125428902Y-95568667D01*
X125530619Y-95610974D01*
X125754573Y-95729354D01*
X126078871Y-95910995D01*
X126481623Y-96143083D01*
X126940936Y-96412807D01*
X127434918Y-96707353D01*
X127941677Y-97013908D01*
X128439321Y-97319661D01*
X128725069Y-97497801D01*
X129035891Y-97687030D01*
X129290791Y-97831368D01*
X129458207Y-97913597D01*
X129507101Y-97924454D01*
X129521441Y-97818839D01*
X129513611Y-97572752D01*
X129486477Y-97213194D01*
X129442907Y-96767168D01*
X129385767Y-96261673D01*
X129317923Y-95723711D01*
X129242242Y-95180282D01*
X129161590Y-94658388D01*
X129158135Y-94637334D01*
X128774734Y-92714086D01*
X128266571Y-90821001D01*
X128038725Y-90107667D01*
X127847796Y-89539951D01*
X127694953Y-89106802D01*
X127563882Y-88782431D01*
X127438269Y-88541047D01*
X127301799Y-88356861D01*
X127138157Y-88204082D01*
X126931030Y-88056922D01*
X126664103Y-87889589D01*
X126617409Y-87860855D01*
X126166105Y-87585408D01*
X125837639Y-87391068D01*
X125612606Y-87267068D01*
X125471602Y-87202640D01*
X125402401Y-87186667D01*
X125315389Y-87228735D01*
G37*
X125315389Y-87228735D02*
X125104290Y-87346956D01*
X124789610Y-87529357D01*
X124391855Y-87763964D01*
X123931532Y-88038803D01*
X123570579Y-88256262D01*
X122402359Y-88962005D01*
X121370843Y-89583703D01*
X120468371Y-90125813D01*
X119687282Y-90592795D01*
X119019919Y-90989106D01*
X118458620Y-91319205D01*
X117995726Y-91587550D01*
X117623577Y-91798600D01*
X117334514Y-91956813D01*
X117120877Y-92066648D01*
X116975006Y-92132563D01*
X116889241Y-92159017D01*
X116866050Y-92158714D01*
X116761742Y-92106644D01*
X116530251Y-91977121D01*
X116189206Y-91780457D01*
X115756239Y-91526966D01*
X115248979Y-91226959D01*
X114685059Y-90890748D01*
X114181667Y-90588613D01*
X111641667Y-89059569D01*
X111503926Y-89879951D01*
X111300885Y-90900103D01*
X111043765Y-91822951D01*
X110716060Y-92685171D01*
X110301265Y-93523441D01*
X109782876Y-94374437D01*
X109144387Y-95274834D01*
X108977002Y-95495124D01*
X108805841Y-95717915D01*
X111451421Y-97307193D01*
X112132450Y-97716621D01*
X112832651Y-98138140D01*
X113522654Y-98554033D01*
X114173092Y-98946578D01*
X114754594Y-99298056D01*
X115237791Y-99590747D01*
X115467423Y-99730236D01*
X115902975Y-99991500D01*
X116293341Y-100218632D01*
X116614001Y-100397931D01*
X116840435Y-100515694D01*
X116948124Y-100558219D01*
X116949089Y-100558200D01*
X117040261Y-100514553D01*
X117262987Y-100391010D01*
X117603976Y-100195382D01*
X118049937Y-99935483D01*
X118587577Y-99619127D01*
X119203605Y-99254127D01*
X119884729Y-98848296D01*
X120617657Y-98409448D01*
X121198024Y-98060533D01*
X121960667Y-97602200D01*
X122681018Y-97171136D01*
X123345856Y-96775128D01*
X123941964Y-96421961D01*
X124456124Y-96119419D01*
X124875116Y-95875289D01*
X125185723Y-95697354D01*
X125374727Y-95593402D01*
X125428902Y-95568667D01*
X125530619Y-95610974D01*
X125754573Y-95729354D01*
X126078871Y-95910995D01*
X126481623Y-96143083D01*
X126940936Y-96412807D01*
X127434918Y-96707353D01*
X127941677Y-97013908D01*
X128439321Y-97319661D01*
X128725069Y-97497801D01*
X129035891Y-97687030D01*
X129290791Y-97831368D01*
X129458207Y-97913597D01*
X129507101Y-97924454D01*
X129521441Y-97818839D01*
X129513611Y-97572752D01*
X129486477Y-97213194D01*
X129442907Y-96767168D01*
X129385767Y-96261673D01*
X129317923Y-95723711D01*
X129242242Y-95180282D01*
X129161590Y-94658388D01*
X129158135Y-94637334D01*
X128774734Y-92714086D01*
X128266571Y-90821001D01*
X128038725Y-90107667D01*
X127847796Y-89539951D01*
X127694953Y-89106802D01*
X127563882Y-88782431D01*
X127438269Y-88541047D01*
X127301799Y-88356861D01*
X127138157Y-88204082D01*
X126931030Y-88056922D01*
X126664103Y-87889589D01*
X126617409Y-87860855D01*
X126166105Y-87585408D01*
X125837639Y-87391068D01*
X125612606Y-87267068D01*
X125471602Y-87202640D01*
X125402401Y-87186667D01*
X125315389Y-87228735D01*
G36*
X99479694Y-99590802D02*
G01*
X99029139Y-99592110D01*
X98667006Y-99594109D01*
X98418693Y-99596650D01*
X98309599Y-99599586D01*
X98306704Y-99600163D01*
X98375446Y-99654531D01*
X98557764Y-99767967D01*
X98817592Y-99920291D01*
X99118862Y-100091320D01*
X99425508Y-100260872D01*
X99701463Y-100408767D01*
X99910659Y-100514821D01*
X100017031Y-100558854D01*
X100020399Y-100559082D01*
X100139450Y-100513923D01*
X100356723Y-100399032D01*
X100628887Y-100237613D01*
X100677333Y-100207317D01*
X100978357Y-100018568D01*
X101252844Y-99848127D01*
X101444577Y-99730888D01*
X101453736Y-99725402D01*
X101520973Y-99679548D01*
X101535282Y-99645411D01*
X101478099Y-99621274D01*
X101330856Y-99605418D01*
X101074985Y-99596128D01*
X100691920Y-99591685D01*
X100163095Y-99590374D01*
X99993274Y-99590334D01*
X99479694Y-99590802D01*
G37*
X99479694Y-99590802D02*
X99029139Y-99592110D01*
X98667006Y-99594109D01*
X98418693Y-99596650D01*
X98309599Y-99599586D01*
X98306704Y-99600163D01*
X98375446Y-99654531D01*
X98557764Y-99767967D01*
X98817592Y-99920291D01*
X99118862Y-100091320D01*
X99425508Y-100260872D01*
X99701463Y-100408767D01*
X99910659Y-100514821D01*
X100017031Y-100558854D01*
X100020399Y-100559082D01*
X100139450Y-100513923D01*
X100356723Y-100399032D01*
X100628887Y-100237613D01*
X100677333Y-100207317D01*
X100978357Y-100018568D01*
X101252844Y-99848127D01*
X101444577Y-99730888D01*
X101453736Y-99725402D01*
X101520973Y-99679548D01*
X101535282Y-99645411D01*
X101478099Y-99621274D01*
X101330856Y-99605418D01*
X101074985Y-99596128D01*
X100691920Y-99591685D01*
X100163095Y-99590374D01*
X99993274Y-99590334D01*
X99479694Y-99590802D01*
G36*
X74383457Y-87253809D02*
G01*
X74162513Y-87376780D01*
X73852414Y-87555900D01*
X73480920Y-87775244D01*
X73278680Y-87896313D01*
X72169043Y-88563627D01*
X71817826Y-89547313D01*
X71152952Y-91655031D01*
X70649535Y-93797813D01*
X70331984Y-95789593D01*
X70250864Y-96477681D01*
X70189555Y-97062972D01*
X70149112Y-97531778D01*
X70130587Y-97870412D01*
X70135037Y-98065186D01*
X70153322Y-98108667D01*
X70205979Y-98089442D01*
X70325643Y-98027389D01*
X70523475Y-97915938D01*
X70810637Y-97748520D01*
X71198292Y-97518565D01*
X71697600Y-97219505D01*
X72319724Y-96844771D01*
X73023574Y-96419408D01*
X73470183Y-96155011D01*
X73873848Y-95926968D01*
X74210165Y-95748190D01*
X74454731Y-95631584D01*
X74583140Y-95590061D01*
X74589907Y-95590818D01*
X74692649Y-95641839D01*
X74922386Y-95770418D01*
X75261402Y-95966178D01*
X75691981Y-96218743D01*
X76196407Y-96517734D01*
X76756966Y-96852774D01*
X77224667Y-97134203D01*
X77819064Y-97492685D01*
X78372684Y-97826156D01*
X78867475Y-98123773D01*
X79285384Y-98374693D01*
X79608359Y-98568076D01*
X79818345Y-98693080D01*
X79891667Y-98735906D01*
X80014623Y-98807344D01*
X80257537Y-98950805D01*
X80595121Y-99151271D01*
X81002085Y-99393719D01*
X81453140Y-99663129D01*
X81510050Y-99697168D01*
X81956404Y-99961916D01*
X82354577Y-100193793D01*
X82681372Y-100379640D01*
X82913592Y-100506296D01*
X83028041Y-100560604D01*
X83034050Y-100561697D01*
X83119646Y-100518804D01*
X83335494Y-100396827D01*
X83666991Y-100204386D01*
X84099537Y-99950099D01*
X84618529Y-99642585D01*
X85209367Y-99290461D01*
X85857449Y-98902346D01*
X86495667Y-98518507D01*
X87203082Y-98092386D01*
X87882481Y-97683492D01*
X88516681Y-97302144D01*
X89088497Y-96958656D01*
X89580748Y-96663348D01*
X89976249Y-96426534D01*
X90257817Y-96258533D01*
X90390333Y-96180118D01*
X90724498Y-95983637D01*
X90929249Y-95846338D01*
X91018631Y-95737436D01*
X91006687Y-95626149D01*
X90907461Y-95481692D01*
X90779409Y-95327274D01*
X90045405Y-94320864D01*
X89416562Y-93209418D01*
X88916915Y-92036535D01*
X88835461Y-91801000D01*
X88665506Y-91245876D01*
X88519180Y-90683671D01*
X88405980Y-90157666D01*
X88335404Y-89711142D01*
X88316000Y-89433903D01*
X88278547Y-89210692D01*
X88177407Y-89128663D01*
X88029409Y-89200158D01*
X88015433Y-89213486D01*
X87915076Y-89284908D01*
X87692274Y-89427273D01*
X87367772Y-89628253D01*
X86962315Y-89875517D01*
X86496648Y-90156737D01*
X85991516Y-90459582D01*
X85467665Y-90771725D01*
X84945840Y-91080835D01*
X84446785Y-91374583D01*
X83991247Y-91640639D01*
X83599969Y-91866675D01*
X83293698Y-92040361D01*
X83093178Y-92149368D01*
X83020668Y-92182000D01*
X82932014Y-92139541D01*
X82711588Y-92017325D01*
X82372591Y-91823097D01*
X81928224Y-91564602D01*
X81391690Y-91249585D01*
X80776188Y-90885790D01*
X80094921Y-90480961D01*
X79361090Y-90042844D01*
X78754751Y-89679410D01*
X77989002Y-89221095D01*
X77265349Y-88790782D01*
X76596986Y-88396129D01*
X75997108Y-88044794D01*
X75478909Y-87744433D01*
X75055584Y-87502704D01*
X74740326Y-87327264D01*
X74546330Y-87225771D01*
X74487486Y-87202910D01*
X74383457Y-87253809D01*
G37*
X74383457Y-87253809D02*
X74162513Y-87376780D01*
X73852414Y-87555900D01*
X73480920Y-87775244D01*
X73278680Y-87896313D01*
X72169043Y-88563627D01*
X71817826Y-89547313D01*
X71152952Y-91655031D01*
X70649535Y-93797813D01*
X70331984Y-95789593D01*
X70250864Y-96477681D01*
X70189555Y-97062972D01*
X70149112Y-97531778D01*
X70130587Y-97870412D01*
X70135037Y-98065186D01*
X70153322Y-98108667D01*
X70205979Y-98089442D01*
X70325643Y-98027389D01*
X70523475Y-97915938D01*
X70810637Y-97748520D01*
X71198292Y-97518565D01*
X71697600Y-97219505D01*
X72319724Y-96844771D01*
X73023574Y-96419408D01*
X73470183Y-96155011D01*
X73873848Y-95926968D01*
X74210165Y-95748190D01*
X74454731Y-95631584D01*
X74583140Y-95590061D01*
X74589907Y-95590818D01*
X74692649Y-95641839D01*
X74922386Y-95770418D01*
X75261402Y-95966178D01*
X75691981Y-96218743D01*
X76196407Y-96517734D01*
X76756966Y-96852774D01*
X77224667Y-97134203D01*
X77819064Y-97492685D01*
X78372684Y-97826156D01*
X78867475Y-98123773D01*
X79285384Y-98374693D01*
X79608359Y-98568076D01*
X79818345Y-98693080D01*
X79891667Y-98735906D01*
X80014623Y-98807344D01*
X80257537Y-98950805D01*
X80595121Y-99151271D01*
X81002085Y-99393719D01*
X81453140Y-99663129D01*
X81510050Y-99697168D01*
X81956404Y-99961916D01*
X82354577Y-100193793D01*
X82681372Y-100379640D01*
X82913592Y-100506296D01*
X83028041Y-100560604D01*
X83034050Y-100561697D01*
X83119646Y-100518804D01*
X83335494Y-100396827D01*
X83666991Y-100204386D01*
X84099537Y-99950099D01*
X84618529Y-99642585D01*
X85209367Y-99290461D01*
X85857449Y-98902346D01*
X86495667Y-98518507D01*
X87203082Y-98092386D01*
X87882481Y-97683492D01*
X88516681Y-97302144D01*
X89088497Y-96958656D01*
X89580748Y-96663348D01*
X89976249Y-96426534D01*
X90257817Y-96258533D01*
X90390333Y-96180118D01*
X90724498Y-95983637D01*
X90929249Y-95846338D01*
X91018631Y-95737436D01*
X91006687Y-95626149D01*
X90907461Y-95481692D01*
X90779409Y-95327274D01*
X90045405Y-94320864D01*
X89416562Y-93209418D01*
X88916915Y-92036535D01*
X88835461Y-91801000D01*
X88665506Y-91245876D01*
X88519180Y-90683671D01*
X88405980Y-90157666D01*
X88335404Y-89711142D01*
X88316000Y-89433903D01*
X88278547Y-89210692D01*
X88177407Y-89128663D01*
X88029409Y-89200158D01*
X88015433Y-89213486D01*
X87915076Y-89284908D01*
X87692274Y-89427273D01*
X87367772Y-89628253D01*
X86962315Y-89875517D01*
X86496648Y-90156737D01*
X85991516Y-90459582D01*
X85467665Y-90771725D01*
X84945840Y-91080835D01*
X84446785Y-91374583D01*
X83991247Y-91640639D01*
X83599969Y-91866675D01*
X83293698Y-92040361D01*
X83093178Y-92149368D01*
X83020668Y-92182000D01*
X82932014Y-92139541D01*
X82711588Y-92017325D01*
X82372591Y-91823097D01*
X81928224Y-91564602D01*
X81391690Y-91249585D01*
X80776188Y-90885790D01*
X80094921Y-90480961D01*
X79361090Y-90042844D01*
X78754751Y-89679410D01*
X77989002Y-89221095D01*
X77265349Y-88790782D01*
X76596986Y-88396129D01*
X75997108Y-88044794D01*
X75478909Y-87744433D01*
X75055584Y-87502704D01*
X74740326Y-87327264D01*
X74546330Y-87225771D01*
X74487486Y-87202910D01*
X74383457Y-87253809D01*
G36*
X99809500Y-98641581D02*
G01*
X99769378Y-98662519D01*
X99875752Y-98675804D01*
X100000000Y-98678273D01*
X100183121Y-98671668D01*
X100233391Y-98654782D01*
X100190500Y-98641581D01*
X99943783Y-98627574D01*
X99809500Y-98641581D01*
G37*
X99809500Y-98641581D02*
X99769378Y-98662519D01*
X99875752Y-98675804D01*
X100000000Y-98678273D01*
X100183121Y-98671668D01*
X100233391Y-98654782D01*
X100190500Y-98641581D01*
X99943783Y-98627574D01*
X99809500Y-98641581D01*
G36*
X91493978Y-87187918D02*
G01*
X91449351Y-87199730D01*
X91375040Y-87234189D01*
X91249424Y-87303382D01*
X91050883Y-87419396D01*
X90757797Y-87594316D01*
X90348544Y-87840231D01*
X90178667Y-87942419D01*
X89205000Y-88528115D01*
X89229645Y-88894557D01*
X89355335Y-89816575D01*
X89604027Y-90798204D01*
X89960589Y-91801110D01*
X90409891Y-92786957D01*
X90936805Y-93717410D01*
X91397643Y-94387631D01*
X92248938Y-95379375D01*
X93222697Y-96262287D01*
X94304499Y-97027217D01*
X95479924Y-97665014D01*
X96734550Y-98166527D01*
X97841000Y-98476218D01*
X98349000Y-98591836D01*
X98320609Y-98239614D01*
X98330283Y-97948488D01*
X98422121Y-97779665D01*
X98426443Y-97775996D01*
X98526739Y-97590484D01*
X98560667Y-97268567D01*
X98581218Y-97009904D01*
X98633110Y-96816811D01*
X98662267Y-96770934D01*
X98791820Y-96725145D01*
X99051745Y-96691782D01*
X99405210Y-96670584D01*
X99815381Y-96661284D01*
X100245427Y-96663622D01*
X100658514Y-96677332D01*
X101017810Y-96702152D01*
X101286483Y-96737818D01*
X101427700Y-96784066D01*
X101434709Y-96790762D01*
X101487915Y-96952664D01*
X101512465Y-97276998D01*
X101508576Y-97764613D01*
X101497327Y-98120338D01*
X101488386Y-98401837D01*
X101482878Y-98573798D01*
X101481667Y-98610120D01*
X101557323Y-98590383D01*
X101755613Y-98545309D01*
X102032000Y-98485006D01*
X103253121Y-98141358D01*
X104452407Y-97646666D01*
X105597367Y-97018445D01*
X106655506Y-96274209D01*
X107474948Y-95551134D01*
X108268924Y-94661421D01*
X108978693Y-93649557D01*
X109586831Y-92549002D01*
X110075915Y-91393211D01*
X110428522Y-90215642D01*
X110542926Y-89659715D01*
X110620035Y-89205290D01*
X110659585Y-88883179D01*
X110652293Y-88658742D01*
X110588878Y-88497338D01*
X110460058Y-88364326D01*
X110256551Y-88225065D01*
X110138833Y-88151565D01*
X109852997Y-87975679D01*
X109604150Y-87825926D01*
X109444371Y-87733629D01*
X109440333Y-87731449D01*
X109268191Y-87632129D01*
X109027607Y-87485544D01*
X108912849Y-87413585D01*
X108690846Y-87282216D01*
X108524189Y-87200293D01*
X108475826Y-87186667D01*
X108369264Y-87231631D01*
X108122087Y-87365533D01*
X107736851Y-87586887D01*
X107216110Y-87894205D01*
X106562419Y-88286004D01*
X105969000Y-88644980D01*
X105752816Y-88775703D01*
X105426207Y-88972602D01*
X105023950Y-89214738D01*
X104580826Y-89481172D01*
X104275667Y-89664483D01*
X103833888Y-89938083D01*
X103421208Y-90208920D01*
X103069446Y-90454972D01*
X102810420Y-90654218D01*
X102701172Y-90754204D01*
X102427210Y-90993986D01*
X102190212Y-91080741D01*
X102170061Y-91081334D01*
X101997174Y-91122951D01*
X101727802Y-91234195D01*
X101408870Y-91394649D01*
X101268055Y-91473761D01*
X100592667Y-91866188D01*
X100592667Y-93831305D01*
X100591555Y-94505022D01*
X100584557Y-95028388D01*
X100566181Y-95420386D01*
X100530934Y-95699999D01*
X100473324Y-95886208D01*
X100387857Y-95997997D01*
X100269040Y-96054347D01*
X100111382Y-96074242D01*
X99942956Y-96076667D01*
X99757548Y-96072011D01*
X99613330Y-96045450D01*
X99505131Y-95978093D01*
X99427778Y-95851050D01*
X99376099Y-95645430D01*
X99344921Y-95342343D01*
X99329073Y-94922897D01*
X99323382Y-94368202D01*
X99322667Y-93811181D01*
X99322667Y-91855363D01*
X98701727Y-91468348D01*
X98256281Y-91219211D01*
X97921006Y-91096003D01*
X97797478Y-91081334D01*
X97596946Y-91051361D01*
X97406827Y-90941369D01*
X97175518Y-90721251D01*
X97169584Y-90714951D01*
X97006647Y-90575648D01*
X96717921Y-90364626D01*
X96324106Y-90095102D01*
X95845901Y-89780297D01*
X95304006Y-89433431D01*
X94719122Y-89067723D01*
X94111946Y-88696394D01*
X93503180Y-88332663D01*
X92913522Y-87989751D01*
X92809694Y-87930509D01*
X92575640Y-87792086D01*
X92277398Y-87608778D01*
X92067217Y-87476131D01*
X91818790Y-87325170D01*
X91622685Y-87220446D01*
X91530541Y-87186667D01*
X91493978Y-87187918D01*
G37*
X91493978Y-87187918D02*
X91449351Y-87199730D01*
X91375040Y-87234189D01*
X91249424Y-87303382D01*
X91050883Y-87419396D01*
X90757797Y-87594316D01*
X90348544Y-87840231D01*
X90178667Y-87942419D01*
X89205000Y-88528115D01*
X89229645Y-88894557D01*
X89355335Y-89816575D01*
X89604027Y-90798204D01*
X89960589Y-91801110D01*
X90409891Y-92786957D01*
X90936805Y-93717410D01*
X91397643Y-94387631D01*
X92248938Y-95379375D01*
X93222697Y-96262287D01*
X94304499Y-97027217D01*
X95479924Y-97665014D01*
X96734550Y-98166527D01*
X97841000Y-98476218D01*
X98349000Y-98591836D01*
X98320609Y-98239614D01*
X98330283Y-97948488D01*
X98422121Y-97779665D01*
X98426443Y-97775996D01*
X98526739Y-97590484D01*
X98560667Y-97268567D01*
X98581218Y-97009904D01*
X98633110Y-96816811D01*
X98662267Y-96770934D01*
X98791820Y-96725145D01*
X99051745Y-96691782D01*
X99405210Y-96670584D01*
X99815381Y-96661284D01*
X100245427Y-96663622D01*
X100658514Y-96677332D01*
X101017810Y-96702152D01*
X101286483Y-96737818D01*
X101427700Y-96784066D01*
X101434709Y-96790762D01*
X101487915Y-96952664D01*
X101512465Y-97276998D01*
X101508576Y-97764613D01*
X101497327Y-98120338D01*
X101488386Y-98401837D01*
X101482878Y-98573798D01*
X101481667Y-98610120D01*
X101557323Y-98590383D01*
X101755613Y-98545309D01*
X102032000Y-98485006D01*
X103253121Y-98141358D01*
X104452407Y-97646666D01*
X105597367Y-97018445D01*
X106655506Y-96274209D01*
X107474948Y-95551134D01*
X108268924Y-94661421D01*
X108978693Y-93649557D01*
X109586831Y-92549002D01*
X110075915Y-91393211D01*
X110428522Y-90215642D01*
X110542926Y-89659715D01*
X110620035Y-89205290D01*
X110659585Y-88883179D01*
X110652293Y-88658742D01*
X110588878Y-88497338D01*
X110460058Y-88364326D01*
X110256551Y-88225065D01*
X110138833Y-88151565D01*
X109852997Y-87975679D01*
X109604150Y-87825926D01*
X109444371Y-87733629D01*
X109440333Y-87731449D01*
X109268191Y-87632129D01*
X109027607Y-87485544D01*
X108912849Y-87413585D01*
X108690846Y-87282216D01*
X108524189Y-87200293D01*
X108475826Y-87186667D01*
X108369264Y-87231631D01*
X108122087Y-87365533D01*
X107736851Y-87586887D01*
X107216110Y-87894205D01*
X106562419Y-88286004D01*
X105969000Y-88644980D01*
X105752816Y-88775703D01*
X105426207Y-88972602D01*
X105023950Y-89214738D01*
X104580826Y-89481172D01*
X104275667Y-89664483D01*
X103833888Y-89938083D01*
X103421208Y-90208920D01*
X103069446Y-90454972D01*
X102810420Y-90654218D01*
X102701172Y-90754204D01*
X102427210Y-90993986D01*
X102190212Y-91080741D01*
X102170061Y-91081334D01*
X101997174Y-91122951D01*
X101727802Y-91234195D01*
X101408870Y-91394649D01*
X101268055Y-91473761D01*
X100592667Y-91866188D01*
X100592667Y-93831305D01*
X100591555Y-94505022D01*
X100584557Y-95028388D01*
X100566181Y-95420386D01*
X100530934Y-95699999D01*
X100473324Y-95886208D01*
X100387857Y-95997997D01*
X100269040Y-96054347D01*
X100111382Y-96074242D01*
X99942956Y-96076667D01*
X99757548Y-96072011D01*
X99613330Y-96045450D01*
X99505131Y-95978093D01*
X99427778Y-95851050D01*
X99376099Y-95645430D01*
X99344921Y-95342343D01*
X99329073Y-94922897D01*
X99323382Y-94368202D01*
X99322667Y-93811181D01*
X99322667Y-91855363D01*
X98701727Y-91468348D01*
X98256281Y-91219211D01*
X97921006Y-91096003D01*
X97797478Y-91081334D01*
X97596946Y-91051361D01*
X97406827Y-90941369D01*
X97175518Y-90721251D01*
X97169584Y-90714951D01*
X97006647Y-90575648D01*
X96717921Y-90364626D01*
X96324106Y-90095102D01*
X95845901Y-89780297D01*
X95304006Y-89433431D01*
X94719122Y-89067723D01*
X94111946Y-88696394D01*
X93503180Y-88332663D01*
X92913522Y-87989751D01*
X92809694Y-87930509D01*
X92575640Y-87792086D01*
X92277398Y-87608778D01*
X92067217Y-87476131D01*
X91818790Y-87325170D01*
X91622685Y-87220446D01*
X91530541Y-87186667D01*
X91493978Y-87187918D01*
G36*
X119914233Y-86760622D02*
G01*
X119897051Y-86913351D01*
X119896667Y-87011371D01*
X119868880Y-87246482D01*
X119800353Y-87411610D01*
X119783554Y-87429141D01*
X119667031Y-87459532D01*
X119394364Y-87485451D01*
X118962834Y-87507006D01*
X118369724Y-87524304D01*
X117612318Y-87537453D01*
X116850731Y-87545342D01*
X114031020Y-87567667D01*
X115479134Y-88435500D01*
X115921597Y-88699878D01*
X116311909Y-88931600D01*
X116627844Y-89117595D01*
X116847179Y-89244792D01*
X116947688Y-89300118D01*
X116951457Y-89301435D01*
X117027476Y-89259109D01*
X117229258Y-89140824D01*
X117537538Y-88958035D01*
X117933056Y-88722197D01*
X118396548Y-88444768D01*
X118880667Y-88154090D01*
X119518062Y-87771121D01*
X120023314Y-87467313D01*
X120408953Y-87233831D01*
X120687511Y-87061838D01*
X120871517Y-86942501D01*
X120973502Y-86866984D01*
X121005997Y-86826451D01*
X120981532Y-86812067D01*
X120912637Y-86814997D01*
X120811844Y-86826406D01*
X120755198Y-86832358D01*
X120460609Y-86831874D01*
X120187725Y-86787661D01*
X120152042Y-86776500D01*
X119986099Y-86727081D01*
X119914233Y-86760622D01*
G37*
X119914233Y-86760622D02*
X119897051Y-86913351D01*
X119896667Y-87011371D01*
X119868880Y-87246482D01*
X119800353Y-87411610D01*
X119783554Y-87429141D01*
X119667031Y-87459532D01*
X119394364Y-87485451D01*
X118962834Y-87507006D01*
X118369724Y-87524304D01*
X117612318Y-87537453D01*
X116850731Y-87545342D01*
X114031020Y-87567667D01*
X115479134Y-88435500D01*
X115921597Y-88699878D01*
X116311909Y-88931600D01*
X116627844Y-89117595D01*
X116847179Y-89244792D01*
X116947688Y-89300118D01*
X116951457Y-89301435D01*
X117027476Y-89259109D01*
X117229258Y-89140824D01*
X117537538Y-88958035D01*
X117933056Y-88722197D01*
X118396548Y-88444768D01*
X118880667Y-88154090D01*
X119518062Y-87771121D01*
X120023314Y-87467313D01*
X120408953Y-87233831D01*
X120687511Y-87061838D01*
X120871517Y-86942501D01*
X120973502Y-86866984D01*
X121005997Y-86826451D01*
X120981532Y-86812067D01*
X120912637Y-86814997D01*
X120811844Y-86826406D01*
X120755198Y-86832358D01*
X120460609Y-86831874D01*
X120187725Y-86787661D01*
X120152042Y-86776500D01*
X119986099Y-86727081D01*
X119914233Y-86760622D01*
G36*
X91373120Y-75968019D02*
G01*
X91145973Y-76081705D01*
X90846084Y-76248501D01*
X90583810Y-76403872D01*
X90231847Y-76617096D01*
X89907581Y-76812257D01*
X89654419Y-76963297D01*
X89543667Y-77028294D01*
X89418495Y-77102344D01*
X89164737Y-77253986D01*
X88798808Y-77473358D01*
X88337126Y-77750598D01*
X87796105Y-78075845D01*
X87192162Y-78439238D01*
X86541714Y-78830916D01*
X86160448Y-79060633D01*
X83031229Y-80946422D01*
X82773781Y-80796092D01*
X82506767Y-80640312D01*
X82262333Y-80497879D01*
X82115047Y-80410500D01*
X81848598Y-80250823D01*
X81488651Y-80034295D01*
X81060870Y-79776360D01*
X80590922Y-79492463D01*
X80447975Y-79406007D01*
X79986654Y-79129456D01*
X79574215Y-78887043D01*
X79232451Y-78691181D01*
X78983159Y-78554286D01*
X78848131Y-78488769D01*
X78831304Y-78485175D01*
X78736082Y-78563823D01*
X78552142Y-78748145D01*
X78300477Y-79014830D01*
X78002078Y-79340566D01*
X77677938Y-79702040D01*
X77349049Y-80075942D01*
X77036402Y-80438958D01*
X76760991Y-80767777D01*
X76627304Y-80932735D01*
X76257965Y-81405976D01*
X75890724Y-81894385D01*
X75537259Y-82380510D01*
X75209252Y-82846898D01*
X74918382Y-83276097D01*
X74676330Y-83650653D01*
X74494774Y-83953114D01*
X74385396Y-84166027D01*
X74359875Y-84271940D01*
X74389153Y-84277068D01*
X74510776Y-84297910D01*
X74759410Y-84407032D01*
X75138343Y-84606159D01*
X75650866Y-84897018D01*
X76281416Y-85270022D01*
X76916641Y-85651041D01*
X77638110Y-86083647D01*
X78388432Y-86533435D01*
X79110215Y-86966004D01*
X79746070Y-87346949D01*
X79764667Y-87358088D01*
X80304860Y-87682358D01*
X80843994Y-88007281D01*
X81349300Y-88313015D01*
X81788011Y-88579716D01*
X82127362Y-88787543D01*
X82229170Y-88850508D01*
X82542483Y-89040104D01*
X82804293Y-89189112D01*
X82980432Y-89278612D01*
X83033504Y-89295865D01*
X83120884Y-89251670D01*
X83336133Y-89129218D01*
X83662542Y-88938404D01*
X84083401Y-88689124D01*
X84582002Y-88391274D01*
X85141634Y-88054750D01*
X85726096Y-87701268D01*
X88343191Y-86114139D01*
X88495756Y-85359236D01*
X88839369Y-84081325D01*
X89339766Y-82852125D01*
X89988365Y-81683916D01*
X90776583Y-80588974D01*
X91695838Y-79579578D01*
X92737547Y-78668007D01*
X93606718Y-78047635D01*
X93900643Y-77855350D01*
X94135677Y-77699970D01*
X94279455Y-77602978D01*
X94308174Y-77582048D01*
X94251819Y-77530240D01*
X94074746Y-77411311D01*
X93803865Y-77241087D01*
X93466086Y-77035395D01*
X93088318Y-76810059D01*
X92697471Y-76580906D01*
X92320454Y-76363760D01*
X91984177Y-76174447D01*
X91715549Y-76028793D01*
X91541481Y-75942623D01*
X91492247Y-75926000D01*
X91373120Y-75968019D01*
G37*
X91373120Y-75968019D02*
X91145973Y-76081705D01*
X90846084Y-76248501D01*
X90583810Y-76403872D01*
X90231847Y-76617096D01*
X89907581Y-76812257D01*
X89654419Y-76963297D01*
X89543667Y-77028294D01*
X89418495Y-77102344D01*
X89164737Y-77253986D01*
X88798808Y-77473358D01*
X88337126Y-77750598D01*
X87796105Y-78075845D01*
X87192162Y-78439238D01*
X86541714Y-78830916D01*
X86160448Y-79060633D01*
X83031229Y-80946422D01*
X82773781Y-80796092D01*
X82506767Y-80640312D01*
X82262333Y-80497879D01*
X82115047Y-80410500D01*
X81848598Y-80250823D01*
X81488651Y-80034295D01*
X81060870Y-79776360D01*
X80590922Y-79492463D01*
X80447975Y-79406007D01*
X79986654Y-79129456D01*
X79574215Y-78887043D01*
X79232451Y-78691181D01*
X78983159Y-78554286D01*
X78848131Y-78488769D01*
X78831304Y-78485175D01*
X78736082Y-78563823D01*
X78552142Y-78748145D01*
X78300477Y-79014830D01*
X78002078Y-79340566D01*
X77677938Y-79702040D01*
X77349049Y-80075942D01*
X77036402Y-80438958D01*
X76760991Y-80767777D01*
X76627304Y-80932735D01*
X76257965Y-81405976D01*
X75890724Y-81894385D01*
X75537259Y-82380510D01*
X75209252Y-82846898D01*
X74918382Y-83276097D01*
X74676330Y-83650653D01*
X74494774Y-83953114D01*
X74385396Y-84166027D01*
X74359875Y-84271940D01*
X74389153Y-84277068D01*
X74510776Y-84297910D01*
X74759410Y-84407032D01*
X75138343Y-84606159D01*
X75650866Y-84897018D01*
X76281416Y-85270022D01*
X76916641Y-85651041D01*
X77638110Y-86083647D01*
X78388432Y-86533435D01*
X79110215Y-86966004D01*
X79746070Y-87346949D01*
X79764667Y-87358088D01*
X80304860Y-87682358D01*
X80843994Y-88007281D01*
X81349300Y-88313015D01*
X81788011Y-88579716D01*
X82127362Y-88787543D01*
X82229170Y-88850508D01*
X82542483Y-89040104D01*
X82804293Y-89189112D01*
X82980432Y-89278612D01*
X83033504Y-89295865D01*
X83120884Y-89251670D01*
X83336133Y-89129218D01*
X83662542Y-88938404D01*
X84083401Y-88689124D01*
X84582002Y-88391274D01*
X85141634Y-88054750D01*
X85726096Y-87701268D01*
X88343191Y-86114139D01*
X88495756Y-85359236D01*
X88839369Y-84081325D01*
X89339766Y-82852125D01*
X89988365Y-81683916D01*
X90776583Y-80588974D01*
X91695838Y-79579578D01*
X92737547Y-78668007D01*
X93606718Y-78047635D01*
X93900643Y-77855350D01*
X94135677Y-77699970D01*
X94279455Y-77602978D01*
X94308174Y-77582048D01*
X94251819Y-77530240D01*
X94074746Y-77411311D01*
X93803865Y-77241087D01*
X93466086Y-77035395D01*
X93088318Y-76810059D01*
X92697471Y-76580906D01*
X92320454Y-76363760D01*
X91984177Y-76174447D01*
X91715549Y-76028793D01*
X91541481Y-75942623D01*
X91492247Y-75926000D01*
X91373120Y-75968019D01*
G36*
X99265402Y-88881498D02*
G01*
X99564285Y-89042187D01*
X99828348Y-89159950D01*
X100007855Y-89213079D01*
X100027402Y-89214102D01*
X100188285Y-89166889D01*
X100434583Y-89047331D01*
X100713611Y-88881074D01*
X100719667Y-88877120D01*
X101227667Y-88544702D01*
X99957667Y-88544516D01*
X98687667Y-88544329D01*
X99265402Y-88881498D01*
G37*
X99265402Y-88881498D02*
X99564285Y-89042187D01*
X99828348Y-89159950D01*
X100007855Y-89213079D01*
X100027402Y-89214102D01*
X100188285Y-89166889D01*
X100434583Y-89047331D01*
X100713611Y-88881074D01*
X100719667Y-88877120D01*
X101227667Y-88544702D01*
X99957667Y-88544516D01*
X98687667Y-88544329D01*
X99265402Y-88881498D01*
G36*
X113040321Y-86853735D02*
G01*
X112897093Y-86868466D01*
X112876389Y-86881415D01*
X112964418Y-86937984D01*
X113153111Y-87047777D01*
X113313833Y-87138136D01*
X113716000Y-87361441D01*
X113716000Y-87104721D01*
X113707475Y-86954560D01*
X113653237Y-86878540D01*
X113510297Y-86851432D01*
X113278556Y-86848000D01*
X113040321Y-86853735D01*
G37*
X113040321Y-86853735D02*
X112897093Y-86868466D01*
X112876389Y-86881415D01*
X112964418Y-86937984D01*
X113153111Y-87047777D01*
X113313833Y-87138136D01*
X113716000Y-87361441D01*
X113716000Y-87104721D01*
X113707475Y-86954560D01*
X113653237Y-86878540D01*
X113510297Y-86851432D01*
X113278556Y-86848000D01*
X113040321Y-86853735D01*
G36*
X94920000Y-78511755D02*
G01*
X93898299Y-79117598D01*
X92936848Y-79866692D01*
X92052316Y-80738658D01*
X91261376Y-81713118D01*
X90580699Y-82769691D01*
X90026956Y-83888000D01*
X89640599Y-84965250D01*
X89509817Y-85410833D01*
X89907742Y-85180090D01*
X90184154Y-85015013D01*
X90528399Y-84802819D01*
X90866586Y-84589063D01*
X90870826Y-84586340D01*
X91140617Y-84416219D01*
X91352067Y-84288810D01*
X91468152Y-84226248D01*
X91478009Y-84223334D01*
X91558557Y-84265383D01*
X91765102Y-84384123D01*
X92078849Y-84568436D01*
X92481005Y-84807210D01*
X92952776Y-85089328D01*
X93475369Y-85403676D01*
X93553799Y-85451000D01*
X95587565Y-86678667D01*
X104367329Y-86678667D01*
X105930165Y-85736429D01*
X106427953Y-85436507D01*
X106909584Y-85146676D01*
X106912961Y-85144646D01*
X102878667Y-85144646D01*
X102863234Y-85435148D01*
X102799327Y-85631806D01*
X102660535Y-85808669D01*
X102631180Y-85838513D01*
X102383692Y-86086000D01*
X97557659Y-86086000D01*
X97297163Y-85866807D01*
X97149190Y-85725589D01*
X97071044Y-85581546D01*
X97040901Y-85374060D01*
X97036667Y-85143292D01*
X97048846Y-84834213D01*
X97097173Y-84632864D01*
X97199330Y-84478651D01*
X97244485Y-84431152D01*
X97452303Y-84223334D01*
X102423653Y-84223334D01*
X102651160Y-84460800D01*
X102793803Y-84643445D01*
X102861529Y-84847232D01*
X102878667Y-85144646D01*
X106912961Y-85144646D01*
X107344405Y-84885356D01*
X107701764Y-84670963D01*
X107951011Y-84521918D01*
X107985600Y-84501328D01*
X108478199Y-84208463D01*
X108813548Y-84430387D01*
X109101250Y-84612959D01*
X109398091Y-84789978D01*
X109463949Y-84827184D01*
X109745447Y-84987336D01*
X110021798Y-85150292D01*
X110054167Y-85169934D01*
X110229194Y-85268613D01*
X110323856Y-85306209D01*
X110329333Y-85302555D01*
X110297766Y-85155706D01*
X110212755Y-84892251D01*
X110088833Y-84550677D01*
X109940536Y-84169467D01*
X109782397Y-83787106D01*
X109628952Y-83442078D01*
X109617260Y-83417124D01*
X108965928Y-82225375D01*
X108186628Y-81143333D01*
X107282833Y-80174940D01*
X106258016Y-79324136D01*
X105643109Y-78907158D01*
X105320821Y-78700633D01*
X105064370Y-78541013D01*
X104849961Y-78432214D01*
X104653796Y-78378149D01*
X104452082Y-78382732D01*
X104221022Y-78449877D01*
X103936820Y-78583499D01*
X103575682Y-78787511D01*
X103113810Y-79065828D01*
X102533557Y-79418648D01*
X100635000Y-80566638D01*
X100584930Y-81683334D01*
X105321008Y-81683334D01*
X105581504Y-81902526D01*
X105729477Y-82043744D01*
X105807623Y-82187787D01*
X105837766Y-82395273D01*
X105842000Y-82626042D01*
X105829821Y-82935121D01*
X105781494Y-83136470D01*
X105679337Y-83290682D01*
X105634182Y-83338182D01*
X105426364Y-83546000D01*
X94488970Y-83546000D01*
X94281152Y-83338182D01*
X94158807Y-83186281D01*
X94095751Y-83005947D01*
X94074300Y-82736587D01*
X94073333Y-82626042D01*
X94081963Y-82332303D01*
X94122401Y-82146987D01*
X94216472Y-82009475D01*
X94333830Y-81902526D01*
X94594326Y-81683334D01*
X99322667Y-81683334D01*
X99318367Y-80540334D01*
X97394350Y-79387332D01*
X95470333Y-78234331D01*
X94920000Y-78511755D01*
G37*
X94920000Y-78511755D02*
X93898299Y-79117598D01*
X92936848Y-79866692D01*
X92052316Y-80738658D01*
X91261376Y-81713118D01*
X90580699Y-82769691D01*
X90026956Y-83888000D01*
X89640599Y-84965250D01*
X89509817Y-85410833D01*
X89907742Y-85180090D01*
X90184154Y-85015013D01*
X90528399Y-84802819D01*
X90866586Y-84589063D01*
X90870826Y-84586340D01*
X91140617Y-84416219D01*
X91352067Y-84288810D01*
X91468152Y-84226248D01*
X91478009Y-84223334D01*
X91558557Y-84265383D01*
X91765102Y-84384123D01*
X92078849Y-84568436D01*
X92481005Y-84807210D01*
X92952776Y-85089328D01*
X93475369Y-85403676D01*
X93553799Y-85451000D01*
X95587565Y-86678667D01*
X104367329Y-86678667D01*
X105930165Y-85736429D01*
X106427953Y-85436507D01*
X106909584Y-85146676D01*
X106912961Y-85144646D01*
X102878667Y-85144646D01*
X102863234Y-85435148D01*
X102799327Y-85631806D01*
X102660535Y-85808669D01*
X102631180Y-85838513D01*
X102383692Y-86086000D01*
X97557659Y-86086000D01*
X97297163Y-85866807D01*
X97149190Y-85725589D01*
X97071044Y-85581546D01*
X97040901Y-85374060D01*
X97036667Y-85143292D01*
X97048846Y-84834213D01*
X97097173Y-84632864D01*
X97199330Y-84478651D01*
X97244485Y-84431152D01*
X97452303Y-84223334D01*
X102423653Y-84223334D01*
X102651160Y-84460800D01*
X102793803Y-84643445D01*
X102861529Y-84847232D01*
X102878667Y-85144646D01*
X106912961Y-85144646D01*
X107344405Y-84885356D01*
X107701764Y-84670963D01*
X107951011Y-84521918D01*
X107985600Y-84501328D01*
X108478199Y-84208463D01*
X108813548Y-84430387D01*
X109101250Y-84612959D01*
X109398091Y-84789978D01*
X109463949Y-84827184D01*
X109745447Y-84987336D01*
X110021798Y-85150292D01*
X110054167Y-85169934D01*
X110229194Y-85268613D01*
X110323856Y-85306209D01*
X110329333Y-85302555D01*
X110297766Y-85155706D01*
X110212755Y-84892251D01*
X110088833Y-84550677D01*
X109940536Y-84169467D01*
X109782397Y-83787106D01*
X109628952Y-83442078D01*
X109617260Y-83417124D01*
X108965928Y-82225375D01*
X108186628Y-81143333D01*
X107282833Y-80174940D01*
X106258016Y-79324136D01*
X105643109Y-78907158D01*
X105320821Y-78700633D01*
X105064370Y-78541013D01*
X104849961Y-78432214D01*
X104653796Y-78378149D01*
X104452082Y-78382732D01*
X104221022Y-78449877D01*
X103936820Y-78583499D01*
X103575682Y-78787511D01*
X103113810Y-79065828D01*
X102533557Y-79418648D01*
X100635000Y-80566638D01*
X100584930Y-81683334D01*
X105321008Y-81683334D01*
X105581504Y-81902526D01*
X105729477Y-82043744D01*
X105807623Y-82187787D01*
X105837766Y-82395273D01*
X105842000Y-82626042D01*
X105829821Y-82935121D01*
X105781494Y-83136470D01*
X105679337Y-83290682D01*
X105634182Y-83338182D01*
X105426364Y-83546000D01*
X94488970Y-83546000D01*
X94281152Y-83338182D01*
X94158807Y-83186281D01*
X94095751Y-83005947D01*
X94074300Y-82736587D01*
X94073333Y-82626042D01*
X94081963Y-82332303D01*
X94122401Y-82146987D01*
X94216472Y-82009475D01*
X94333830Y-81902526D01*
X94594326Y-81683334D01*
X99322667Y-81683334D01*
X99318367Y-80540334D01*
X97394350Y-79387332D01*
X95470333Y-78234331D01*
X94920000Y-78511755D01*
G36*
X119932969Y-81186974D02*
G01*
X119914040Y-81336378D01*
X119903734Y-81591980D01*
X119903351Y-81619834D01*
X119896667Y-82191334D01*
X120552833Y-82199541D01*
X120899074Y-82203765D01*
X121355049Y-82209179D01*
X121861173Y-82215083D01*
X122352000Y-82220707D01*
X122781385Y-82230353D01*
X123153582Y-82247656D01*
X123433819Y-82270347D01*
X123587319Y-82296160D01*
X123600833Y-82302164D01*
X123651975Y-82417099D01*
X123687212Y-82655117D01*
X123706440Y-82970708D01*
X123709553Y-83318360D01*
X123696444Y-83652561D01*
X123667008Y-83927801D01*
X123621139Y-84098567D01*
X123605067Y-84121734D01*
X123507474Y-84159241D01*
X123291265Y-84187497D01*
X122944240Y-84207152D01*
X122454201Y-84218857D01*
X121808950Y-84223262D01*
X121700067Y-84223334D01*
X119896667Y-84223334D01*
X119896667Y-84602238D01*
X119903183Y-84832643D01*
X119937842Y-84930625D01*
X120023313Y-84933005D01*
X120087167Y-84911687D01*
X120236108Y-84886749D01*
X120519604Y-84864278D01*
X120902880Y-84846145D01*
X121351158Y-84834222D01*
X121581998Y-84831231D01*
X122886329Y-84820230D01*
X123163812Y-85114449D01*
X123330864Y-85284954D01*
X123443763Y-85387824D01*
X123468148Y-85402165D01*
X123546544Y-85358268D01*
X123740742Y-85243305D01*
X124022012Y-85074433D01*
X124361620Y-84868812D01*
X124382588Y-84856067D01*
X124725497Y-84643249D01*
X125010836Y-84457917D01*
X125209693Y-84319436D01*
X125293159Y-84247169D01*
X125293739Y-84245785D01*
X125258335Y-84152048D01*
X125145096Y-83947366D01*
X124972242Y-83660246D01*
X124757996Y-83319197D01*
X124520578Y-82952725D01*
X124278209Y-82589338D01*
X124049109Y-82257543D01*
X123851502Y-81985848D01*
X123837424Y-81967333D01*
X123547542Y-81587685D01*
X121902583Y-81590991D01*
X121307575Y-81590732D01*
X120858753Y-81583940D01*
X120532978Y-81565675D01*
X120307109Y-81530993D01*
X120158009Y-81474951D01*
X120062536Y-81392606D01*
X119997551Y-81279015D01*
X119956732Y-81175334D01*
X119932969Y-81186974D01*
G37*
X119932969Y-81186974D02*
X119914040Y-81336378D01*
X119903734Y-81591980D01*
X119903351Y-81619834D01*
X119896667Y-82191334D01*
X120552833Y-82199541D01*
X120899074Y-82203765D01*
X121355049Y-82209179D01*
X121861173Y-82215083D01*
X122352000Y-82220707D01*
X122781385Y-82230353D01*
X123153582Y-82247656D01*
X123433819Y-82270347D01*
X123587319Y-82296160D01*
X123600833Y-82302164D01*
X123651975Y-82417099D01*
X123687212Y-82655117D01*
X123706440Y-82970708D01*
X123709553Y-83318360D01*
X123696444Y-83652561D01*
X123667008Y-83927801D01*
X123621139Y-84098567D01*
X123605067Y-84121734D01*
X123507474Y-84159241D01*
X123291265Y-84187497D01*
X122944240Y-84207152D01*
X122454201Y-84218857D01*
X121808950Y-84223262D01*
X121700067Y-84223334D01*
X119896667Y-84223334D01*
X119896667Y-84602238D01*
X119903183Y-84832643D01*
X119937842Y-84930625D01*
X120023313Y-84933005D01*
X120087167Y-84911687D01*
X120236108Y-84886749D01*
X120519604Y-84864278D01*
X120902880Y-84846145D01*
X121351158Y-84834222D01*
X121581998Y-84831231D01*
X122886329Y-84820230D01*
X123163812Y-85114449D01*
X123330864Y-85284954D01*
X123443763Y-85387824D01*
X123468148Y-85402165D01*
X123546544Y-85358268D01*
X123740742Y-85243305D01*
X124022012Y-85074433D01*
X124361620Y-84868812D01*
X124382588Y-84856067D01*
X124725497Y-84643249D01*
X125010836Y-84457917D01*
X125209693Y-84319436D01*
X125293159Y-84247169D01*
X125293739Y-84245785D01*
X125258335Y-84152048D01*
X125145096Y-83947366D01*
X124972242Y-83660246D01*
X124757996Y-83319197D01*
X124520578Y-82952725D01*
X124278209Y-82589338D01*
X124049109Y-82257543D01*
X123851502Y-81985848D01*
X123837424Y-81967333D01*
X123547542Y-81587685D01*
X121902583Y-81590991D01*
X121307575Y-81590732D01*
X120858753Y-81583940D01*
X120532978Y-81565675D01*
X120307109Y-81530993D01*
X120158009Y-81474951D01*
X120062536Y-81392606D01*
X119997551Y-81279015D01*
X119956732Y-81175334D01*
X119932969Y-81186974D01*
G36*
X111953919Y-84225141D02*
G01*
X111570591Y-84230129D01*
X111282474Y-84237646D01*
X111118360Y-84247040D01*
X111091333Y-84253033D01*
X111116284Y-84344985D01*
X111176889Y-84528103D01*
X111182309Y-84543704D01*
X111273285Y-84804677D01*
X112050142Y-84831505D01*
X112461651Y-84841012D01*
X112868952Y-84842576D01*
X113200024Y-84836124D01*
X113271500Y-84832742D01*
X113716000Y-84807151D01*
X113716000Y-84223334D01*
X112403667Y-84223334D01*
X111953919Y-84225141D01*
G37*
X111953919Y-84225141D02*
X111570591Y-84230129D01*
X111282474Y-84237646D01*
X111118360Y-84247040D01*
X111091333Y-84253033D01*
X111116284Y-84344985D01*
X111176889Y-84528103D01*
X111182309Y-84543704D01*
X111273285Y-84804677D01*
X112050142Y-84831505D01*
X112461651Y-84841012D01*
X112868952Y-84842576D01*
X113200024Y-84836124D01*
X113271500Y-84832742D01*
X113716000Y-84807151D01*
X113716000Y-84223334D01*
X112403667Y-84223334D01*
X111953919Y-84225141D01*
G36*
X107043304Y-76706485D02*
G01*
X106606705Y-76969168D01*
X106222865Y-77200512D01*
X105914222Y-77386961D01*
X105703214Y-77514957D01*
X105612283Y-77570941D01*
X105610516Y-77572168D01*
X105668652Y-77622100D01*
X105841558Y-77745823D01*
X106102250Y-77924504D01*
X106412102Y-78131616D01*
X107367226Y-78845109D01*
X108275785Y-79682182D01*
X109104418Y-80606757D01*
X109819766Y-81582756D01*
X110220727Y-82250530D01*
X110390845Y-82556751D01*
X110497485Y-82728407D01*
X110555204Y-82781213D01*
X110578560Y-82730885D01*
X110582266Y-82640830D01*
X110613532Y-82431739D01*
X110687431Y-82303323D01*
X110689167Y-82302164D01*
X110811492Y-82274592D01*
X111065727Y-82250454D01*
X111414450Y-82232389D01*
X111811000Y-82223124D01*
X112427414Y-82217106D01*
X112894965Y-82211490D01*
X113234085Y-82203209D01*
X113465210Y-82189197D01*
X113608773Y-82166390D01*
X113685208Y-82131721D01*
X113714950Y-82082126D01*
X113718431Y-82014538D01*
X113716000Y-81937334D01*
X113718786Y-81848742D01*
X113713516Y-81781578D01*
X113679751Y-81732978D01*
X113597051Y-81700080D01*
X113444977Y-81680021D01*
X113203087Y-81669940D01*
X112850943Y-81666974D01*
X112368104Y-81668260D01*
X111811776Y-81670662D01*
X110373218Y-81675943D01*
X110139609Y-81452131D01*
X110011940Y-81311493D01*
X109941450Y-81162387D01*
X109911653Y-80949114D01*
X109906000Y-80662911D01*
X109919308Y-80314172D01*
X109967534Y-80077899D01*
X110063130Y-79898723D01*
X110084078Y-79871113D01*
X110262157Y-79644723D01*
X111756245Y-79651546D01*
X112259000Y-79653587D01*
X112717230Y-79654975D01*
X113098052Y-79655646D01*
X113368588Y-79655537D01*
X113483167Y-79654851D01*
X113635941Y-79635248D01*
X113701560Y-79549462D01*
X113715978Y-79347587D01*
X113716000Y-79331687D01*
X113716000Y-79012041D01*
X111334979Y-77574854D01*
X110750127Y-77222132D01*
X110202099Y-76892181D01*
X109710255Y-76596614D01*
X109293957Y-76347044D01*
X108972564Y-76155084D01*
X108765438Y-76032348D01*
X108705116Y-75997357D01*
X108456274Y-75857047D01*
X107043304Y-76706485D01*
G37*
X107043304Y-76706485D02*
X106606705Y-76969168D01*
X106222865Y-77200512D01*
X105914222Y-77386961D01*
X105703214Y-77514957D01*
X105612283Y-77570941D01*
X105610516Y-77572168D01*
X105668652Y-77622100D01*
X105841558Y-77745823D01*
X106102250Y-77924504D01*
X106412102Y-78131616D01*
X107367226Y-78845109D01*
X108275785Y-79682182D01*
X109104418Y-80606757D01*
X109819766Y-81582756D01*
X110220727Y-82250530D01*
X110390845Y-82556751D01*
X110497485Y-82728407D01*
X110555204Y-82781213D01*
X110578560Y-82730885D01*
X110582266Y-82640830D01*
X110613532Y-82431739D01*
X110687431Y-82303323D01*
X110689167Y-82302164D01*
X110811492Y-82274592D01*
X111065727Y-82250454D01*
X111414450Y-82232389D01*
X111811000Y-82223124D01*
X112427414Y-82217106D01*
X112894965Y-82211490D01*
X113234085Y-82203209D01*
X113465210Y-82189197D01*
X113608773Y-82166390D01*
X113685208Y-82131721D01*
X113714950Y-82082126D01*
X113718431Y-82014538D01*
X113716000Y-81937334D01*
X113718786Y-81848742D01*
X113713516Y-81781578D01*
X113679751Y-81732978D01*
X113597051Y-81700080D01*
X113444977Y-81680021D01*
X113203087Y-81669940D01*
X112850943Y-81666974D01*
X112368104Y-81668260D01*
X111811776Y-81670662D01*
X110373218Y-81675943D01*
X110139609Y-81452131D01*
X110011940Y-81311493D01*
X109941450Y-81162387D01*
X109911653Y-80949114D01*
X109906000Y-80662911D01*
X109919308Y-80314172D01*
X109967534Y-80077899D01*
X110063130Y-79898723D01*
X110084078Y-79871113D01*
X110262157Y-79644723D01*
X111756245Y-79651546D01*
X112259000Y-79653587D01*
X112717230Y-79654975D01*
X113098052Y-79655646D01*
X113368588Y-79655537D01*
X113483167Y-79654851D01*
X113635941Y-79635248D01*
X113701560Y-79549462D01*
X113715978Y-79347587D01*
X113716000Y-79331687D01*
X113716000Y-79012041D01*
X111334979Y-77574854D01*
X110750127Y-77222132D01*
X110202099Y-76892181D01*
X109710255Y-76596614D01*
X109293957Y-76347044D01*
X108972564Y-76155084D01*
X108765438Y-76032348D01*
X108705116Y-75997357D01*
X108456274Y-75857047D01*
X107043304Y-76706485D01*
G36*
X120398447Y-78871527D02*
G01*
X120121651Y-79057061D01*
X119966702Y-79200446D01*
X119903397Y-79334059D01*
X119896667Y-79409367D01*
X119918168Y-79559759D01*
X120015175Y-79632178D01*
X120214167Y-79663607D01*
X120452994Y-79672810D01*
X120793370Y-79669599D01*
X121168028Y-79654789D01*
X121227718Y-79651334D01*
X121923770Y-79609000D01*
X121411998Y-79083434D01*
X120900227Y-78557868D01*
X120398447Y-78871527D01*
G37*
X120398447Y-78871527D02*
X120121651Y-79057061D01*
X119966702Y-79200446D01*
X119903397Y-79334059D01*
X119896667Y-79409367D01*
X119918168Y-79559759D01*
X120015175Y-79632178D01*
X120214167Y-79663607D01*
X120452994Y-79672810D01*
X120793370Y-79669599D01*
X121168028Y-79654789D01*
X121227718Y-79651334D01*
X121923770Y-79609000D01*
X121411998Y-79083434D01*
X120900227Y-78557868D01*
X120398447Y-78871527D01*
G36*
X103342179Y-75867904D02*
G01*
X103280833Y-75915200D01*
X103163574Y-76019645D01*
X103132667Y-76063367D01*
X103173852Y-76088710D01*
X103286405Y-75979947D01*
X103312800Y-75947167D01*
X103386024Y-75846880D01*
X103342179Y-75867904D01*
G37*
X103342179Y-75867904D02*
X103280833Y-75915200D01*
X103163574Y-76019645D01*
X103132667Y-76063367D01*
X103173852Y-76088710D01*
X103286405Y-75979947D01*
X103312800Y-75947167D01*
X103386024Y-75846880D01*
X103342179Y-75867904D01*
D13*
X119445000Y-79442000D02*
X116845000Y-79442000D01*
X119445000Y-79442000D02*
X119445000Y-87182000D01*
X119445000Y-87182000D02*
X114245000Y-87182000D01*
X114245000Y-82042000D02*
X114245000Y-87182000D01*
X116845000Y-82042000D02*
X114245000Y-82042000D01*
X116845000Y-79442000D02*
X116845000Y-82042000D01*
X114245000Y-79442000D02*
X114245000Y-80772000D01*
X115575000Y-79442000D02*
X114245000Y-79442000D01*
D14*
X100000000Y-90224000D02*
X100000000Y-95504000D01*
X100000000Y-75504000D02*
X100000000Y-82724000D01*
D15*
X98000000Y-90224000D02*
X102000000Y-90224000D01*
X95000000Y-87724000D02*
X105000000Y-87724000D01*
X98000000Y-85224000D02*
X102000000Y-85224000D01*
X95000000Y-82724000D02*
X105000000Y-82724000D01*
D16*
X111226800Y-88036400D02*
G75*
G03*
X111226800Y-88036400I-11226800J0D01*
G01*
X103911600Y-77470000D02*
X103911600Y-74726800D01*
X96088400Y-77470000D02*
X96088400Y-74726800D01*
X103911600Y-74726800D02*
X101066800Y-74726800D01*
X96088400Y-74726800D02*
X98933200Y-74726800D01*
D10*
X117178333Y-77454380D02*
X117178333Y-78168666D01*
X117225952Y-78311523D01*
X117321190Y-78406761D01*
X117464047Y-78454380D01*
X117559285Y-78454380D01*
X116178333Y-78454380D02*
X116749761Y-78454380D01*
X116464047Y-78454380D02*
X116464047Y-77454380D01*
X116559285Y-77597238D01*
X116654523Y-77692476D01*
X116749761Y-77740095D01*
X113646428Y-81224380D02*
X113646428Y-80224380D01*
X113313095Y-80938666D01*
X112979761Y-80224380D01*
X112979761Y-81224380D01*
X112503571Y-81224380D02*
X112503571Y-80224380D01*
X112075000Y-81176761D02*
X111932142Y-81224380D01*
X111694047Y-81224380D01*
X111598809Y-81176761D01*
X111551190Y-81129142D01*
X111503571Y-81033904D01*
X111503571Y-80938666D01*
X111551190Y-80843428D01*
X111598809Y-80795809D01*
X111694047Y-80748190D01*
X111884523Y-80700571D01*
X111979761Y-80652952D01*
X112027380Y-80605333D01*
X112075000Y-80510095D01*
X112075000Y-80414857D01*
X112027380Y-80319619D01*
X111979761Y-80272000D01*
X111884523Y-80224380D01*
X111646428Y-80224380D01*
X111503571Y-80272000D01*
X110884523Y-80224380D02*
X110694047Y-80224380D01*
X110598809Y-80272000D01*
X110503571Y-80367238D01*
X110455952Y-80557714D01*
X110455952Y-80891047D01*
X110503571Y-81081523D01*
X110598809Y-81176761D01*
X110694047Y-81224380D01*
X110884523Y-81224380D01*
X110979761Y-81176761D01*
X111075000Y-81081523D01*
X111122619Y-80891047D01*
X111122619Y-80557714D01*
X111075000Y-80367238D01*
X110979761Y-80272000D01*
X110884523Y-80224380D01*
X123252190Y-80202380D02*
X122633142Y-80202380D01*
X122966476Y-80583333D01*
X122823619Y-80583333D01*
X122728380Y-80630952D01*
X122680761Y-80678571D01*
X122633142Y-80773809D01*
X122633142Y-81011904D01*
X122680761Y-81107142D01*
X122728380Y-81154761D01*
X122823619Y-81202380D01*
X123109333Y-81202380D01*
X123204571Y-81154761D01*
X123252190Y-81107142D01*
X122204571Y-81107142D02*
X122156952Y-81154761D01*
X122204571Y-81202380D01*
X122252190Y-81154761D01*
X122204571Y-81107142D01*
X122204571Y-81202380D01*
X121823619Y-80202380D02*
X121204571Y-80202380D01*
X121537904Y-80583333D01*
X121395047Y-80583333D01*
X121299809Y-80630952D01*
X121252190Y-80678571D01*
X121204571Y-80773809D01*
X121204571Y-81011904D01*
X121252190Y-81107142D01*
X121299809Y-81154761D01*
X121395047Y-81202380D01*
X121680761Y-81202380D01*
X121776000Y-81154761D01*
X121823619Y-81107142D01*
X120918857Y-80202380D02*
X120585523Y-81202380D01*
X120252190Y-80202380D01*
X113660714Y-83776761D02*
X113517857Y-83824380D01*
X113279761Y-83824380D01*
X113184523Y-83776761D01*
X113136904Y-83729142D01*
X113089285Y-83633904D01*
X113089285Y-83538666D01*
X113136904Y-83443428D01*
X113184523Y-83395809D01*
X113279761Y-83348190D01*
X113470238Y-83300571D01*
X113565476Y-83252952D01*
X113613095Y-83205333D01*
X113660714Y-83110095D01*
X113660714Y-83014857D01*
X113613095Y-82919619D01*
X113565476Y-82872000D01*
X113470238Y-82824380D01*
X113232142Y-82824380D01*
X113089285Y-82872000D01*
X112089285Y-83729142D02*
X112136904Y-83776761D01*
X112279761Y-83824380D01*
X112375000Y-83824380D01*
X112517857Y-83776761D01*
X112613095Y-83681523D01*
X112660714Y-83586285D01*
X112708333Y-83395809D01*
X112708333Y-83252952D01*
X112660714Y-83062476D01*
X112613095Y-82967238D01*
X112517857Y-82872000D01*
X112375000Y-82824380D01*
X112279761Y-82824380D01*
X112136904Y-82872000D01*
X112089285Y-82919619D01*
X111660714Y-83824380D02*
X111660714Y-82824380D01*
X111089285Y-83824380D02*
X111517857Y-83252952D01*
X111089285Y-82824380D02*
X111660714Y-83395809D01*
X113073619Y-86424380D02*
X113406952Y-85948190D01*
X113645047Y-86424380D02*
X113645047Y-85424380D01*
X113264095Y-85424380D01*
X113168857Y-85472000D01*
X113121238Y-85519619D01*
X113073619Y-85614857D01*
X113073619Y-85757714D01*
X113121238Y-85852952D01*
X113168857Y-85900571D01*
X113264095Y-85948190D01*
X113645047Y-85948190D01*
X112692666Y-86376761D02*
X112549809Y-86424380D01*
X112311714Y-86424380D01*
X112216476Y-86376761D01*
X112168857Y-86329142D01*
X112121238Y-86233904D01*
X112121238Y-86138666D01*
X112168857Y-86043428D01*
X112216476Y-85995809D01*
X112311714Y-85948190D01*
X112502190Y-85900571D01*
X112597428Y-85852952D01*
X112645047Y-85805333D01*
X112692666Y-85710095D01*
X112692666Y-85614857D01*
X112645047Y-85519619D01*
X112597428Y-85472000D01*
X112502190Y-85424380D01*
X112264095Y-85424380D01*
X112121238Y-85472000D01*
X111835523Y-85424380D02*
X111264095Y-85424380D01*
X111549809Y-86424380D02*
X111549809Y-85424380D01*
X122337904Y-85462000D02*
X122433142Y-85414380D01*
X122576000Y-85414380D01*
X122718857Y-85462000D01*
X122814095Y-85557238D01*
X122861714Y-85652476D01*
X122909333Y-85842952D01*
X122909333Y-85985809D01*
X122861714Y-86176285D01*
X122814095Y-86271523D01*
X122718857Y-86366761D01*
X122576000Y-86414380D01*
X122480761Y-86414380D01*
X122337904Y-86366761D01*
X122290285Y-86319142D01*
X122290285Y-85985809D01*
X122480761Y-85985809D01*
X121861714Y-86414380D02*
X121861714Y-85414380D01*
X121290285Y-86414380D01*
X121290285Y-85414380D01*
X120814095Y-86414380D02*
X120814095Y-85414380D01*
X120576000Y-85414380D01*
X120433142Y-85462000D01*
X120337904Y-85557238D01*
X120290285Y-85652476D01*
X120242666Y-85842952D01*
X120242666Y-85985809D01*
X120290285Y-86176285D01*
X120337904Y-86271523D01*
X120433142Y-86366761D01*
X120576000Y-86414380D01*
X120814095Y-86414380D01*
X123311428Y-83814380D02*
X123311428Y-82814380D01*
X122978095Y-83528666D01*
X122644761Y-82814380D01*
X122644761Y-83814380D01*
X121978095Y-82814380D02*
X121787619Y-82814380D01*
X121692380Y-82862000D01*
X121597142Y-82957238D01*
X121549523Y-83147714D01*
X121549523Y-83481047D01*
X121597142Y-83671523D01*
X121692380Y-83766761D01*
X121787619Y-83814380D01*
X121978095Y-83814380D01*
X122073333Y-83766761D01*
X122168571Y-83671523D01*
X122216190Y-83481047D01*
X122216190Y-83147714D01*
X122168571Y-82957238D01*
X122073333Y-82862000D01*
X121978095Y-82814380D01*
X121168571Y-83766761D02*
X121025714Y-83814380D01*
X120787619Y-83814380D01*
X120692380Y-83766761D01*
X120644761Y-83719142D01*
X120597142Y-83623904D01*
X120597142Y-83528666D01*
X120644761Y-83433428D01*
X120692380Y-83385809D01*
X120787619Y-83338190D01*
X120978095Y-83290571D01*
X121073333Y-83242952D01*
X121120952Y-83195333D01*
X121168571Y-83100095D01*
X121168571Y-83004857D01*
X121120952Y-82909619D01*
X121073333Y-82862000D01*
X120978095Y-82814380D01*
X120740000Y-82814380D01*
X120597142Y-82862000D01*
X120168571Y-83814380D02*
X120168571Y-82814380D01*
X100785714Y-97718571D02*
X100642857Y-97766190D01*
X100595238Y-97813809D01*
X100547619Y-97909047D01*
X100547619Y-98051904D01*
X100595238Y-98147142D01*
X100642857Y-98194761D01*
X100738095Y-98242380D01*
X101119047Y-98242380D01*
X101119047Y-97242380D01*
X100785714Y-97242380D01*
X100690476Y-97290000D01*
X100642857Y-97337619D01*
X100595238Y-97432857D01*
X100595238Y-97528095D01*
X100642857Y-97623333D01*
X100690476Y-97670952D01*
X100785714Y-97718571D01*
X101119047Y-97718571D01*
X100261904Y-97242380D02*
X99690476Y-97242380D01*
X99976190Y-98242380D02*
X99976190Y-97242380D01*
X98833333Y-98242380D02*
X99404761Y-98242380D01*
X99119047Y-98242380D02*
X99119047Y-97242380D01*
X99214285Y-97385238D01*
X99309523Y-97480476D01*
X99404761Y-97528095D01*
%LPC*%
D17*
X100000000Y-67425000D03*
D18*
X92500000Y-100000000D03*
D19*
X107500000Y-100000000D03*
D20*
X115575000Y-80772000D03*
D21*
X118115000Y-80772000D03*
X115575000Y-83312000D03*
X118115000Y-83312000D03*
X115575000Y-85852000D03*
X118115000Y-85852000D03*
D18*
X100000000Y-75504000D03*
D22*
X100000000Y-95504000D03*
D23*
X80000000Y-98730000D03*
D24*
X80000000Y-101270000D03*
X120000000Y-101270000D03*
D23*
X120000000Y-98730000D03*
D25*
X87750000Y-123250000D03*
X87750000Y-116750000D03*
X92250000Y-123250000D03*
X92250000Y-116750000D03*
X112250000Y-116750000D03*
X112250000Y-123250000D03*
X107750000Y-116750000D03*
X107750000Y-123250000D03*
D20*
X102600000Y-120000000D03*
D21*
X100060000Y-120000000D03*
X97520000Y-120000000D03*
M02*
