M48
; DRILL file {KiCad (5.1.6)-1} date 10/13/20 14:36:52
; FORMAT={-:-/ absolute / metric / decimal}
; #@! TF.CreationDate,2020-10-13T14:36:52-04:00
; #@! TF.GenerationSoftware,Kicad,Pcbnew,(5.1.6)-1
; #@! TF.FileFunction,Plated,1,2,PTH
FMAT,2
METRIC
T1C0.400
T2C0.900
T3C1.000
T4C1.170
T5C1.500
%
G90
G05
T1
X81.609Y-84.88
X82.856Y-85.101
X87.75Y-84.825
X87.75Y-110.975
X90.25Y-86.85
X90.3Y-83.675
X90.3Y-81.4
X91.375Y-82.025
X92.5Y-84.55
X92.5Y-96.775
X95.7Y-103.55
X96.65Y-75.5
X107.725Y-110.975
X119.975Y-95.225
T2
X80.0Y-98.73
X80.0Y-101.27
X120.0Y-98.73
X120.0Y-101.27
T3
X115.575Y-80.772
X115.575Y-83.312
X115.575Y-85.852
X118.115Y-80.772
X118.115Y-83.312
X118.115Y-85.852
X97.52Y-120.0
X100.06Y-120.0
X102.6Y-120.0
T4
X100.0Y-95.504
T5
X107.75Y-116.75
X107.75Y-123.25
X112.25Y-116.75
X112.25Y-123.25
X100.0Y-75.504
X87.75Y-116.75
X87.75Y-123.25
X92.25Y-116.75
X92.25Y-123.25
X92.5Y-100.0
X107.5Y-100.0
T0
M30
